G04 #@! TF.FileFunction,Copper,L1,Top,Signal*
%FSLAX46Y46*%
G04 Gerber Fmt 4.6, Leading zero omitted, Abs format (unit mm)*
G04 Created by KiCad (PCBNEW 4.0.4-stable) date Mon Sep 26 22:20:25 2016*
%MOMM*%
%LPD*%
G01*
G04 APERTURE LIST*
%ADD10C,0.100000*%
%ADD11R,1.500000X0.900000*%
%ADD12C,2.032000*%
%ADD13R,1.727200X2.032000*%
%ADD14O,1.727200X2.032000*%
%ADD15R,2.032000X1.727200*%
%ADD16O,2.032000X1.727200*%
%ADD17R,0.750000X0.800000*%
%ADD18R,0.800000X0.750000*%
%ADD19C,0.685800*%
%ADD20C,0.254000*%
G04 APERTURE END LIST*
D10*
D11*
X179450000Y-111650000D03*
X179450000Y-108350000D03*
X174550000Y-108350000D03*
X174550000Y-111650000D03*
X170450000Y-111650000D03*
X170450000Y-108350000D03*
X165550000Y-108350000D03*
X165550000Y-111650000D03*
X161450000Y-111650000D03*
X161450000Y-108350000D03*
X156550000Y-108350000D03*
X156550000Y-111650000D03*
X152450000Y-111650000D03*
X152450000Y-108350000D03*
X147550000Y-108350000D03*
X147550000Y-111650000D03*
D12*
X171000000Y-142000000D03*
X173540000Y-142000000D03*
X176080000Y-142000000D03*
D13*
X166000000Y-142000000D03*
D14*
X163460000Y-142000000D03*
X160920000Y-142000000D03*
D15*
X182000000Y-120920000D03*
D16*
X182000000Y-123460000D03*
X182000000Y-126000000D03*
D15*
X145000000Y-120960000D03*
D16*
X145000000Y-123500000D03*
X145000000Y-126040000D03*
D13*
X166080000Y-105000000D03*
D14*
X163540000Y-105000000D03*
X161000000Y-105000000D03*
D17*
X154500000Y-111750000D03*
X154500000Y-110250000D03*
D11*
X152450000Y-120650000D03*
X152450000Y-117350000D03*
X147550000Y-117350000D03*
X147550000Y-120650000D03*
X161450000Y-120650000D03*
X161450000Y-117350000D03*
X156550000Y-117350000D03*
X156550000Y-120650000D03*
X170450000Y-120650000D03*
X170450000Y-117350000D03*
X165550000Y-117350000D03*
X165550000Y-120650000D03*
X179450000Y-120650000D03*
X179450000Y-117350000D03*
X174550000Y-117350000D03*
X174550000Y-120650000D03*
X152450000Y-129650000D03*
X152450000Y-126350000D03*
X147550000Y-126350000D03*
X147550000Y-129650000D03*
X161450000Y-129650000D03*
X161450000Y-126350000D03*
X156550000Y-126350000D03*
X156550000Y-129650000D03*
X170450000Y-129650000D03*
X170450000Y-126350000D03*
X165550000Y-126350000D03*
X165550000Y-129650000D03*
X179450000Y-129650000D03*
X179450000Y-126350000D03*
X174550000Y-126350000D03*
X174550000Y-129650000D03*
X152450000Y-138650000D03*
X152450000Y-135350000D03*
X147550000Y-135350000D03*
X147550000Y-138650000D03*
X161450000Y-138650000D03*
X161450000Y-135350000D03*
X156550000Y-135350000D03*
X156550000Y-138650000D03*
X170450000Y-138650000D03*
X170450000Y-135350000D03*
X165550000Y-135350000D03*
X165550000Y-138650000D03*
X179450000Y-138650000D03*
X179450000Y-135350000D03*
X174550000Y-135350000D03*
X174550000Y-138650000D03*
D17*
X163500000Y-111750000D03*
X163500000Y-110250000D03*
X172500000Y-111750000D03*
X172500000Y-110250000D03*
X154500000Y-120750000D03*
X154500000Y-119250000D03*
X163500000Y-120750000D03*
X163500000Y-119250000D03*
X172500000Y-120750000D03*
X172500000Y-119250000D03*
D18*
X177750000Y-123000000D03*
X176250000Y-123000000D03*
D17*
X154500000Y-129750000D03*
X154500000Y-128250000D03*
X163500000Y-129750000D03*
X163500000Y-128250000D03*
X172500000Y-129750000D03*
X172500000Y-128250000D03*
D18*
X179250000Y-131500000D03*
X177750000Y-131500000D03*
D17*
X154500000Y-138750000D03*
X154500000Y-137250000D03*
X163500000Y-137750000D03*
X163500000Y-136250000D03*
X172500000Y-138750000D03*
X172500000Y-137250000D03*
X181500000Y-138750000D03*
X181500000Y-137250000D03*
D18*
X179250000Y-113500000D03*
X177750000Y-113500000D03*
D12*
X150960000Y-142000000D03*
X153500000Y-142000000D03*
X156040000Y-142000000D03*
X145000000Y-136040000D03*
X145000000Y-133500000D03*
X145000000Y-130960000D03*
X182000000Y-135540000D03*
X182000000Y-133000000D03*
X182000000Y-130460000D03*
X145000000Y-116080000D03*
X145000000Y-113540000D03*
X145000000Y-111000000D03*
X182000000Y-116000000D03*
X182000000Y-113460000D03*
X182000000Y-110920000D03*
X150960000Y-105000000D03*
X153500000Y-105000000D03*
X156040000Y-105000000D03*
X170960000Y-105000000D03*
X173500000Y-105000000D03*
X176040000Y-105000000D03*
D19*
X177000000Y-128000000D03*
X177000000Y-137000000D03*
X168000000Y-137000000D03*
X159000000Y-137000000D03*
X150000000Y-137000000D03*
X168000000Y-128000000D03*
X159000000Y-128000000D03*
X150000000Y-128000000D03*
X177000000Y-119000000D03*
X168000000Y-119000000D03*
X159000000Y-119000000D03*
X150000000Y-119000000D03*
X177000000Y-110000000D03*
X150000000Y-110000000D03*
X168000000Y-110000000D03*
X159000000Y-110000000D03*
X147500000Y-107000000D03*
X156000000Y-114500000D03*
X174000000Y-114500000D03*
X174504000Y-123000000D03*
X147500000Y-128000000D03*
X148000000Y-140000000D03*
X152996000Y-132500000D03*
X176500000Y-126000000D03*
X169500000Y-140000000D03*
X179500000Y-134000000D03*
X165307600Y-140000000D03*
D20*
X182000000Y-120920000D02*
X179720000Y-120920000D01*
X179720000Y-120920000D02*
X179450000Y-120650000D01*
X179450000Y-120650000D02*
X179150000Y-120650000D01*
X179150000Y-120650000D02*
X177750000Y-122050000D01*
X177750000Y-122050000D02*
X177750000Y-122371000D01*
X177750000Y-122371000D02*
X177750000Y-123000000D01*
X166000000Y-141847600D02*
X166000000Y-142000000D01*
X159500000Y-137000000D02*
X159000000Y-137000000D01*
X161450000Y-138650000D02*
X161150000Y-138650000D01*
X161150000Y-138650000D02*
X159500000Y-137000000D01*
X159500000Y-137000000D02*
X159484933Y-137000000D01*
X161450000Y-138650000D02*
X162600000Y-138650000D01*
X162600000Y-138650000D02*
X163500000Y-137750000D01*
X179450000Y-111650000D02*
X179450000Y-113300000D01*
X179450000Y-113300000D02*
X179250000Y-113500000D01*
X179450000Y-129650000D02*
X179450000Y-131300000D01*
X179450000Y-131300000D02*
X179250000Y-131500000D01*
X161550000Y-138750000D02*
X161450000Y-138650000D01*
X179150000Y-129650000D02*
X177500000Y-128000000D01*
X177500000Y-128000000D02*
X177000000Y-128000000D01*
X179450000Y-129650000D02*
X179150000Y-129650000D01*
X179750000Y-129950000D02*
X179450000Y-129650000D01*
X152450000Y-120650000D02*
X154400000Y-120650000D01*
X154400000Y-120650000D02*
X154500000Y-120750000D01*
X154500000Y-129750000D02*
X152550000Y-129750000D01*
X152550000Y-129750000D02*
X152450000Y-129650000D01*
X172500000Y-129750000D02*
X170550000Y-129750000D01*
X170550000Y-129750000D02*
X170450000Y-129650000D01*
X163500000Y-129750000D02*
X161550000Y-129750000D01*
X161550000Y-129750000D02*
X161450000Y-129650000D01*
X163500000Y-120750000D02*
X161550000Y-120750000D01*
X161550000Y-120750000D02*
X161450000Y-120650000D01*
X172500000Y-120750000D02*
X170550000Y-120750000D01*
X170550000Y-120750000D02*
X170450000Y-120650000D01*
X154500000Y-138750000D02*
X152550000Y-138750000D01*
X152550000Y-138750000D02*
X152450000Y-138650000D01*
X172500000Y-138750000D02*
X170550000Y-138750000D01*
X170550000Y-138750000D02*
X170450000Y-138650000D01*
X181500000Y-138750000D02*
X179550000Y-138750000D01*
X179550000Y-138750000D02*
X179450000Y-138650000D01*
X179450000Y-138650000D02*
X179150000Y-138650000D01*
X179150000Y-138650000D02*
X177500000Y-137000000D01*
X177500000Y-137000000D02*
X177000000Y-137000000D01*
X170450000Y-138650000D02*
X170150000Y-138650000D01*
X170150000Y-138650000D02*
X168500000Y-137000000D01*
X168500000Y-137000000D02*
X168000000Y-137000000D01*
X152450000Y-138650000D02*
X152150000Y-138650000D01*
X152150000Y-138650000D02*
X150500000Y-137000000D01*
X150500000Y-137000000D02*
X150000000Y-137000000D01*
X170450000Y-129650000D02*
X170150000Y-129650000D01*
X170150000Y-129650000D02*
X168500000Y-128000000D01*
X168500000Y-128000000D02*
X168000000Y-128000000D01*
X161450000Y-129650000D02*
X161150000Y-129650000D01*
X161150000Y-129650000D02*
X159500000Y-128000000D01*
X159500000Y-128000000D02*
X159000000Y-128000000D01*
X152450000Y-129650000D02*
X152150000Y-129650000D01*
X152150000Y-129650000D02*
X150500000Y-128000000D01*
X150500000Y-128000000D02*
X150000000Y-128000000D01*
X179150000Y-120650000D02*
X177500000Y-119000000D01*
X177500000Y-119000000D02*
X177000000Y-119000000D01*
X170450000Y-120650000D02*
X170150000Y-120650000D01*
X170150000Y-120650000D02*
X168500000Y-119000000D01*
X168500000Y-119000000D02*
X168000000Y-119000000D01*
X161450000Y-120650000D02*
X161150000Y-120650000D01*
X161150000Y-120650000D02*
X159500000Y-119000000D01*
X159500000Y-119000000D02*
X159000000Y-119000000D01*
X152450000Y-120650000D02*
X152150000Y-120650000D01*
X152150000Y-120650000D02*
X150500000Y-119000000D01*
X150500000Y-119000000D02*
X150000000Y-119000000D01*
X179450000Y-111650000D02*
X179150000Y-111650000D01*
X179150000Y-111650000D02*
X177500000Y-110000000D01*
X177500000Y-110000000D02*
X177000000Y-110000000D01*
X152450000Y-111650000D02*
X152150000Y-111650000D01*
X152150000Y-111650000D02*
X150500000Y-110000000D01*
X150500000Y-110000000D02*
X150000000Y-110000000D01*
X170150000Y-111650000D02*
X168500000Y-110000000D01*
X168500000Y-110000000D02*
X168000000Y-110000000D01*
X161450000Y-111650000D02*
X161150000Y-111650000D01*
X161150000Y-111650000D02*
X159500000Y-110000000D01*
X159500000Y-110000000D02*
X159000000Y-110000000D01*
X170450000Y-111650000D02*
X170150000Y-111650000D01*
X170450000Y-111650000D02*
X172400000Y-111650000D01*
X172400000Y-111650000D02*
X172500000Y-111750000D01*
X161450000Y-111650000D02*
X163400000Y-111650000D01*
X163400000Y-111650000D02*
X163500000Y-111750000D01*
X152450000Y-111650000D02*
X154400000Y-111650000D01*
X154400000Y-111650000D02*
X154500000Y-111750000D01*
X160920000Y-141847600D02*
X160920000Y-142000000D01*
X152450000Y-108350000D02*
X153954000Y-108350000D01*
X153954000Y-108350000D02*
X156550000Y-110946000D01*
X156550000Y-110946000D02*
X156550000Y-111650000D01*
X162810000Y-107000000D02*
X147500000Y-107000000D01*
X147500000Y-107000000D02*
X146500000Y-107000000D01*
X163540000Y-105000000D02*
X163540000Y-106270000D01*
X163540000Y-106270000D02*
X162810000Y-107000000D01*
X147550000Y-110946000D02*
X147550000Y-111650000D01*
X146500000Y-107000000D02*
X146000000Y-107500000D01*
X146000000Y-109396000D02*
X147550000Y-110946000D01*
X146000000Y-107500000D02*
X146000000Y-109396000D01*
X147500000Y-111700000D02*
X147550000Y-111650000D01*
X163540000Y-105152400D02*
X163540000Y-105000000D01*
X161450000Y-108350000D02*
X162954000Y-108350000D01*
X162954000Y-108350000D02*
X165550000Y-110946000D01*
X165550000Y-110946000D02*
X165550000Y-111650000D01*
X170450000Y-108350000D02*
X171954000Y-108350000D01*
X171954000Y-108350000D02*
X174550000Y-110946000D01*
X174550000Y-110946000D02*
X174550000Y-111650000D01*
X148500000Y-114500000D02*
X156000000Y-114500000D01*
X179450000Y-108350000D02*
X177728992Y-108350000D01*
X177728992Y-108350000D02*
X176377698Y-109701294D01*
X176377698Y-112126302D02*
X174004000Y-114500000D01*
X176377698Y-109701294D02*
X176377698Y-112126302D01*
X146000000Y-117000000D02*
X146000000Y-118396000D01*
X148500000Y-114500000D02*
X146000000Y-117000000D01*
X146000000Y-118396000D02*
X147550000Y-119946000D01*
X147550000Y-119946000D02*
X147550000Y-120650000D01*
X152450000Y-117350000D02*
X153954000Y-117350000D01*
X153954000Y-117350000D02*
X156550000Y-119946000D01*
X156550000Y-119946000D02*
X156550000Y-120650000D01*
X161450000Y-117350000D02*
X162954000Y-117350000D01*
X162954000Y-117350000D02*
X165550000Y-119946000D01*
X165550000Y-119946000D02*
X165550000Y-120650000D01*
X170450000Y-117350000D02*
X171954000Y-117350000D01*
X171954000Y-117350000D02*
X174550000Y-119946000D01*
X174550000Y-119946000D02*
X174550000Y-120650000D01*
X147550000Y-129650000D02*
X147550000Y-128050000D01*
X147550000Y-128050000D02*
X147500000Y-128000000D01*
X147550000Y-129650000D02*
X147250000Y-129650000D01*
X176377698Y-118701294D02*
X177728992Y-117350000D01*
X177728992Y-117350000D02*
X179450000Y-117350000D01*
X174504000Y-123000000D02*
X176377698Y-121126302D01*
X176377698Y-121126302D02*
X176377698Y-118701294D01*
X152450000Y-126350000D02*
X153954000Y-126350000D01*
X153954000Y-126350000D02*
X156550000Y-128946000D01*
X156550000Y-128946000D02*
X156550000Y-129650000D01*
X161450000Y-126350000D02*
X162954000Y-126350000D01*
X162954000Y-126350000D02*
X165550000Y-128946000D01*
X165550000Y-128946000D02*
X165550000Y-129650000D01*
X170450000Y-126350000D02*
X171954000Y-126350000D01*
X171954000Y-126350000D02*
X174550000Y-128946000D01*
X174550000Y-128946000D02*
X174550000Y-129650000D01*
X148000000Y-140000000D02*
X148000000Y-139100000D01*
X148000000Y-139100000D02*
X147550000Y-138650000D01*
X174004000Y-132500000D02*
X152996000Y-132500000D01*
X179450000Y-126350000D02*
X177728992Y-126350000D01*
X177728992Y-126350000D02*
X176377698Y-127701294D01*
X176377698Y-127701294D02*
X176377698Y-130126302D01*
X176377698Y-130126302D02*
X174004000Y-132500000D01*
X152450000Y-135350000D02*
X153954000Y-135350000D01*
X153954000Y-135350000D02*
X156550000Y-137946000D01*
X156550000Y-137946000D02*
X156550000Y-138650000D01*
X161450000Y-135350000D02*
X163877922Y-135350000D01*
X163877922Y-135350000D02*
X165550000Y-137022078D01*
X165550000Y-137022078D02*
X165550000Y-137946000D01*
X165550000Y-137946000D02*
X165550000Y-138650000D01*
X170450000Y-135350000D02*
X171954000Y-135350000D01*
X171954000Y-135350000D02*
X174550000Y-137946000D01*
X174550000Y-137946000D02*
X174550000Y-138650000D01*
X182000000Y-123460000D02*
X179040000Y-123460000D01*
X179040000Y-123460000D02*
X176500000Y-126000000D01*
X169500000Y-140000000D02*
X165307600Y-140000000D01*
X179450000Y-135350000D02*
X179450000Y-134050000D01*
X179450000Y-134050000D02*
X179500000Y-134000000D01*
G36*
X162162584Y-104249251D02*
X162074148Y-104528036D01*
X162041546Y-104818688D01*
X162041400Y-104839612D01*
X162041400Y-105160388D01*
X162069941Y-105451468D01*
X162154475Y-105731460D01*
X162291784Y-105989701D01*
X162476637Y-106216353D01*
X162498188Y-106234182D01*
X162494370Y-106238000D01*
X148119134Y-106238000D01*
X147967364Y-106135629D01*
X147790572Y-106061313D01*
X147602713Y-106022751D01*
X147410942Y-106021412D01*
X147222562Y-106057347D01*
X147044750Y-106129188D01*
X146884279Y-106234198D01*
X146880396Y-106238000D01*
X146500000Y-106238000D01*
X146429936Y-106244870D01*
X146359830Y-106251003D01*
X146355982Y-106252121D01*
X146351993Y-106252512D01*
X146284582Y-106272865D01*
X146217018Y-106292494D01*
X146213462Y-106294337D01*
X146209624Y-106295496D01*
X146147447Y-106328556D01*
X146084986Y-106360933D01*
X146081856Y-106363432D01*
X146078316Y-106365314D01*
X146023769Y-106409801D01*
X145968760Y-106453714D01*
X145963181Y-106459216D01*
X145963069Y-106459307D01*
X145962983Y-106459411D01*
X145961185Y-106461184D01*
X145461185Y-106961185D01*
X145416488Y-107015599D01*
X145371264Y-107069495D01*
X145369336Y-107073003D01*
X145366789Y-107076103D01*
X145333510Y-107138169D01*
X145299619Y-107199816D01*
X145298407Y-107203636D01*
X145296514Y-107207167D01*
X145275939Y-107274464D01*
X145254652Y-107341571D01*
X145254205Y-107345554D01*
X145253034Y-107349385D01*
X145245925Y-107419373D01*
X145238074Y-107489361D01*
X145238019Y-107497197D01*
X145238005Y-107497340D01*
X145238018Y-107497473D01*
X145238000Y-107500000D01*
X145238000Y-109396000D01*
X145244875Y-109466114D01*
X145251004Y-109536170D01*
X145252120Y-109540013D01*
X145252512Y-109544007D01*
X145272877Y-109611460D01*
X145292494Y-109678982D01*
X145294337Y-109682538D01*
X145295496Y-109686376D01*
X145328556Y-109748553D01*
X145360933Y-109811014D01*
X145363432Y-109814144D01*
X145365314Y-109817684D01*
X145409801Y-109872231D01*
X145453714Y-109927240D01*
X145459212Y-109932815D01*
X145459307Y-109932931D01*
X145459415Y-109933020D01*
X145461185Y-109934815D01*
X146318006Y-110791636D01*
X146260975Y-110858550D01*
X146187190Y-111022237D01*
X146161928Y-111200000D01*
X146161928Y-112100000D01*
X146169992Y-112201121D01*
X146223106Y-112372634D01*
X146321900Y-112522559D01*
X146458550Y-112639025D01*
X146622237Y-112712810D01*
X146800000Y-112738072D01*
X148300000Y-112738072D01*
X148401121Y-112730008D01*
X148572634Y-112676894D01*
X148722559Y-112578100D01*
X148839025Y-112441450D01*
X148912810Y-112277763D01*
X148938072Y-112100000D01*
X148938072Y-111200000D01*
X148930008Y-111098879D01*
X148876894Y-110927366D01*
X148778100Y-110777441D01*
X148641450Y-110660975D01*
X148477763Y-110587190D01*
X148300000Y-110561928D01*
X148205106Y-110561928D01*
X148189067Y-110530986D01*
X148186568Y-110527856D01*
X148184686Y-110524316D01*
X148140199Y-110469769D01*
X148096286Y-110414760D01*
X148090788Y-110409185D01*
X148090693Y-110409069D01*
X148090585Y-110408980D01*
X148088815Y-110407185D01*
X146762000Y-109080370D01*
X146762000Y-107815630D01*
X146815631Y-107762000D01*
X146882831Y-107762000D01*
X147020613Y-107857761D01*
X147196350Y-107934539D01*
X147383652Y-107975720D01*
X147575387Y-107979736D01*
X147764249Y-107946434D01*
X147943047Y-107877083D01*
X148104969Y-107774325D01*
X148117911Y-107762000D01*
X151081539Y-107762000D01*
X151061928Y-107900000D01*
X151061928Y-108800000D01*
X151069992Y-108901121D01*
X151123106Y-109072634D01*
X151221900Y-109222559D01*
X151358550Y-109339025D01*
X151522237Y-109412810D01*
X151700000Y-109438072D01*
X153200000Y-109438072D01*
X153301121Y-109430008D01*
X153472634Y-109376894D01*
X153622559Y-109278100D01*
X153706261Y-109179892D01*
X155318005Y-110791636D01*
X155265727Y-110852974D01*
X155216450Y-110810975D01*
X155052763Y-110737190D01*
X154875000Y-110711928D01*
X154125000Y-110711928D01*
X154023879Y-110719992D01*
X153852366Y-110773106D01*
X153728869Y-110854485D01*
X153678100Y-110777441D01*
X153541450Y-110660975D01*
X153377763Y-110587190D01*
X153200000Y-110561928D01*
X152139559Y-110561928D01*
X151038815Y-109461185D01*
X150984401Y-109416488D01*
X150930505Y-109371264D01*
X150926997Y-109369336D01*
X150923897Y-109366789D01*
X150861831Y-109333510D01*
X150800184Y-109299619D01*
X150796364Y-109298407D01*
X150792833Y-109296514D01*
X150725536Y-109275939D01*
X150658429Y-109254652D01*
X150654446Y-109254205D01*
X150650615Y-109253034D01*
X150634858Y-109251433D01*
X150626353Y-109242869D01*
X150467364Y-109135629D01*
X150290572Y-109061313D01*
X150102713Y-109022751D01*
X149910942Y-109021412D01*
X149722562Y-109057347D01*
X149544750Y-109129188D01*
X149384279Y-109234198D01*
X149247260Y-109368376D01*
X149138913Y-109526613D01*
X149063364Y-109702882D01*
X149023492Y-109890467D01*
X149020814Y-110082225D01*
X149055433Y-110270850D01*
X149126031Y-110449159D01*
X149229918Y-110610360D01*
X149363137Y-110748312D01*
X149520613Y-110857761D01*
X149696350Y-110934539D01*
X149883652Y-110975720D01*
X150075387Y-110979736D01*
X150264249Y-110946434D01*
X150339584Y-110917214D01*
X151061928Y-111639559D01*
X151061928Y-112100000D01*
X151069992Y-112201121D01*
X151123106Y-112372634D01*
X151221900Y-112522559D01*
X151358550Y-112639025D01*
X151522237Y-112712810D01*
X151700000Y-112738072D01*
X153200000Y-112738072D01*
X153301121Y-112730008D01*
X153472634Y-112676894D01*
X153622559Y-112578100D01*
X153638346Y-112559577D01*
X153646900Y-112572559D01*
X153783550Y-112689025D01*
X153947237Y-112762810D01*
X154125000Y-112788072D01*
X154875000Y-112788072D01*
X154976121Y-112780008D01*
X155147634Y-112726894D01*
X155297559Y-112628100D01*
X155359904Y-112554950D01*
X155458550Y-112639025D01*
X155622237Y-112712810D01*
X155800000Y-112738072D01*
X157300000Y-112738072D01*
X157401121Y-112730008D01*
X157572634Y-112676894D01*
X157722559Y-112578100D01*
X157839025Y-112441450D01*
X157912810Y-112277763D01*
X157938072Y-112100000D01*
X157938072Y-111200000D01*
X157930008Y-111098879D01*
X157876894Y-110927366D01*
X157778100Y-110777441D01*
X157641450Y-110660975D01*
X157477763Y-110587190D01*
X157300000Y-110561928D01*
X157205106Y-110561928D01*
X157189067Y-110530985D01*
X157186566Y-110527853D01*
X157184686Y-110524316D01*
X157140217Y-110469791D01*
X157096286Y-110414760D01*
X157090784Y-110409181D01*
X157090693Y-110409069D01*
X157090589Y-110408983D01*
X157088815Y-110407184D01*
X154492815Y-107811185D01*
X154438401Y-107766488D01*
X154433052Y-107762000D01*
X160081539Y-107762000D01*
X160061928Y-107900000D01*
X160061928Y-108800000D01*
X160069992Y-108901121D01*
X160123106Y-109072634D01*
X160221900Y-109222559D01*
X160358550Y-109339025D01*
X160522237Y-109412810D01*
X160700000Y-109438072D01*
X162200000Y-109438072D01*
X162301121Y-109430008D01*
X162472634Y-109376894D01*
X162622559Y-109278100D01*
X162706261Y-109179892D01*
X164318005Y-110791636D01*
X164265727Y-110852974D01*
X164216450Y-110810975D01*
X164052763Y-110737190D01*
X163875000Y-110711928D01*
X163125000Y-110711928D01*
X163023879Y-110719992D01*
X162852366Y-110773106D01*
X162728869Y-110854485D01*
X162678100Y-110777441D01*
X162541450Y-110660975D01*
X162377763Y-110587190D01*
X162200000Y-110561928D01*
X161139559Y-110561928D01*
X160038815Y-109461185D01*
X159984401Y-109416488D01*
X159930505Y-109371264D01*
X159926997Y-109369336D01*
X159923897Y-109366789D01*
X159861831Y-109333510D01*
X159800184Y-109299619D01*
X159796364Y-109298407D01*
X159792833Y-109296514D01*
X159725536Y-109275939D01*
X159658429Y-109254652D01*
X159654446Y-109254205D01*
X159650615Y-109253034D01*
X159634858Y-109251433D01*
X159626353Y-109242869D01*
X159467364Y-109135629D01*
X159290572Y-109061313D01*
X159102713Y-109022751D01*
X158910942Y-109021412D01*
X158722562Y-109057347D01*
X158544750Y-109129188D01*
X158384279Y-109234198D01*
X158247260Y-109368376D01*
X158138913Y-109526613D01*
X158063364Y-109702882D01*
X158023492Y-109890467D01*
X158020814Y-110082225D01*
X158055433Y-110270850D01*
X158126031Y-110449159D01*
X158229918Y-110610360D01*
X158363137Y-110748312D01*
X158520613Y-110857761D01*
X158696350Y-110934539D01*
X158883652Y-110975720D01*
X159075387Y-110979736D01*
X159264249Y-110946434D01*
X159339584Y-110917214D01*
X160061928Y-111639559D01*
X160061928Y-112100000D01*
X160069992Y-112201121D01*
X160123106Y-112372634D01*
X160221900Y-112522559D01*
X160358550Y-112639025D01*
X160522237Y-112712810D01*
X160700000Y-112738072D01*
X162200000Y-112738072D01*
X162301121Y-112730008D01*
X162472634Y-112676894D01*
X162622559Y-112578100D01*
X162638346Y-112559577D01*
X162646900Y-112572559D01*
X162783550Y-112689025D01*
X162947237Y-112762810D01*
X163125000Y-112788072D01*
X163875000Y-112788072D01*
X163976121Y-112780008D01*
X164147634Y-112726894D01*
X164297559Y-112628100D01*
X164359904Y-112554950D01*
X164458550Y-112639025D01*
X164622237Y-112712810D01*
X164800000Y-112738072D01*
X166300000Y-112738072D01*
X166401121Y-112730008D01*
X166572634Y-112676894D01*
X166722559Y-112578100D01*
X166839025Y-112441450D01*
X166912810Y-112277763D01*
X166938072Y-112100000D01*
X166938072Y-111200000D01*
X166930008Y-111098879D01*
X166876894Y-110927366D01*
X166778100Y-110777441D01*
X166641450Y-110660975D01*
X166477763Y-110587190D01*
X166300000Y-110561928D01*
X166205106Y-110561928D01*
X166189067Y-110530985D01*
X166186566Y-110527853D01*
X166184686Y-110524316D01*
X166140217Y-110469791D01*
X166096286Y-110414760D01*
X166090784Y-110409181D01*
X166090693Y-110409069D01*
X166090589Y-110408983D01*
X166088815Y-110407184D01*
X165763856Y-110082225D01*
X167020814Y-110082225D01*
X167055433Y-110270850D01*
X167126031Y-110449159D01*
X167229918Y-110610360D01*
X167363137Y-110748312D01*
X167520613Y-110857761D01*
X167696350Y-110934539D01*
X167883652Y-110975720D01*
X168075387Y-110979736D01*
X168264249Y-110946434D01*
X168339584Y-110917214D01*
X169061928Y-111639559D01*
X169061928Y-112100000D01*
X169069992Y-112201121D01*
X169123106Y-112372634D01*
X169221900Y-112522559D01*
X169358550Y-112639025D01*
X169522237Y-112712810D01*
X169700000Y-112738072D01*
X171200000Y-112738072D01*
X171301121Y-112730008D01*
X171472634Y-112676894D01*
X171622559Y-112578100D01*
X171638346Y-112559577D01*
X171646900Y-112572559D01*
X171783550Y-112689025D01*
X171947237Y-112762810D01*
X172125000Y-112788072D01*
X172875000Y-112788072D01*
X172976121Y-112780008D01*
X173147634Y-112726894D01*
X173297559Y-112628100D01*
X173359904Y-112554950D01*
X173458550Y-112639025D01*
X173622237Y-112712810D01*
X173800000Y-112738072D01*
X174688298Y-112738072D01*
X173903547Y-113522823D01*
X173722562Y-113557347D01*
X173544750Y-113629188D01*
X173384279Y-113734198D01*
X173247260Y-113868376D01*
X173138913Y-114026613D01*
X173063364Y-114202882D01*
X173023492Y-114390467D01*
X173020814Y-114582225D01*
X173055433Y-114770850D01*
X173126031Y-114949159D01*
X173229918Y-115110360D01*
X173363137Y-115248312D01*
X173520613Y-115357761D01*
X173696350Y-115434539D01*
X173883652Y-115475720D01*
X174075387Y-115479736D01*
X174264249Y-115446434D01*
X174443047Y-115377083D01*
X174604969Y-115274325D01*
X174743848Y-115142072D01*
X174854394Y-114985363D01*
X174932396Y-114810167D01*
X174974884Y-114623156D01*
X174975116Y-114606514D01*
X176916513Y-112665117D01*
X176961210Y-112610703D01*
X177006434Y-112556807D01*
X177008362Y-112553299D01*
X177010909Y-112550199D01*
X177044188Y-112488133D01*
X177078079Y-112426486D01*
X177079291Y-112422666D01*
X177081184Y-112419135D01*
X177101759Y-112351838D01*
X177123046Y-112284731D01*
X177123493Y-112280748D01*
X177124664Y-112276917D01*
X177131773Y-112206929D01*
X177139624Y-112136941D01*
X177139679Y-112129105D01*
X177139693Y-112128962D01*
X177139680Y-112128829D01*
X177139698Y-112126302D01*
X177139698Y-110968396D01*
X177264249Y-110946434D01*
X177339584Y-110917214D01*
X178061928Y-111639559D01*
X178061928Y-112100000D01*
X178069992Y-112201121D01*
X178123106Y-112372634D01*
X178221900Y-112522559D01*
X178358550Y-112639025D01*
X178413169Y-112663646D01*
X178310975Y-112783550D01*
X178237190Y-112947237D01*
X178211928Y-113125000D01*
X178211928Y-113875000D01*
X178219992Y-113976121D01*
X178273106Y-114147634D01*
X178371900Y-114297559D01*
X178508550Y-114414025D01*
X178672237Y-114487810D01*
X178850000Y-114513072D01*
X179650000Y-114513072D01*
X179751121Y-114505008D01*
X179922634Y-114451894D01*
X180072559Y-114353100D01*
X180189025Y-114216450D01*
X180262810Y-114052763D01*
X180288072Y-113875000D01*
X180288072Y-113125000D01*
X180280008Y-113023879D01*
X180226894Y-112852366D01*
X180212000Y-112829764D01*
X180212000Y-112737115D01*
X180301121Y-112730008D01*
X180472634Y-112676894D01*
X180622559Y-112578100D01*
X180739025Y-112441450D01*
X180812810Y-112277763D01*
X180838072Y-112100000D01*
X180838072Y-111200000D01*
X180830008Y-111098879D01*
X180776894Y-110927366D01*
X180678100Y-110777441D01*
X180541450Y-110660975D01*
X180377763Y-110587190D01*
X180200000Y-110561928D01*
X179139559Y-110561928D01*
X178038815Y-109461185D01*
X177984401Y-109416488D01*
X177930505Y-109371264D01*
X177926997Y-109369336D01*
X177923897Y-109366789D01*
X177861831Y-109333510D01*
X177836848Y-109319775D01*
X178044623Y-109112000D01*
X178149046Y-109112000D01*
X178221900Y-109222559D01*
X178358550Y-109339025D01*
X178522237Y-109412810D01*
X178700000Y-109438072D01*
X180200000Y-109438072D01*
X180301121Y-109430008D01*
X180472634Y-109376894D01*
X180622559Y-109278100D01*
X180739025Y-109141450D01*
X180812810Y-108977763D01*
X180838072Y-108800000D01*
X180838072Y-107900000D01*
X180830008Y-107798879D01*
X180776894Y-107627366D01*
X180678100Y-107477441D01*
X180541450Y-107360975D01*
X180377763Y-107287190D01*
X180200000Y-107261928D01*
X178700000Y-107261928D01*
X178598879Y-107269992D01*
X178427366Y-107323106D01*
X178277441Y-107421900D01*
X178160975Y-107558550D01*
X178147700Y-107588000D01*
X177728992Y-107588000D01*
X177658887Y-107594874D01*
X177588821Y-107601004D01*
X177584978Y-107602120D01*
X177580985Y-107602512D01*
X177513544Y-107622874D01*
X177446010Y-107642494D01*
X177442454Y-107644337D01*
X177438616Y-107645496D01*
X177376459Y-107678545D01*
X177313977Y-107710933D01*
X177310845Y-107713434D01*
X177307308Y-107715314D01*
X177252783Y-107759783D01*
X177197752Y-107803714D01*
X177192173Y-107809216D01*
X177192061Y-107809307D01*
X177191975Y-107809411D01*
X177190176Y-107811185D01*
X175838883Y-109162479D01*
X175794186Y-109216893D01*
X175748962Y-109270789D01*
X175747034Y-109274297D01*
X175744487Y-109277397D01*
X175711208Y-109339463D01*
X175677317Y-109401110D01*
X175676105Y-109404930D01*
X175674212Y-109408461D01*
X175653637Y-109475758D01*
X175632350Y-109542865D01*
X175631903Y-109546848D01*
X175630732Y-109550679D01*
X175623623Y-109620667D01*
X175615772Y-109690655D01*
X175615717Y-109698491D01*
X175615703Y-109698634D01*
X175615716Y-109698767D01*
X175615698Y-109701294D01*
X175615698Y-110649367D01*
X175477763Y-110587190D01*
X175300000Y-110561928D01*
X175205106Y-110561928D01*
X175189067Y-110530985D01*
X175186566Y-110527853D01*
X175184686Y-110524316D01*
X175140217Y-110469791D01*
X175096286Y-110414760D01*
X175090784Y-110409181D01*
X175090693Y-110409069D01*
X175090589Y-110408983D01*
X175088815Y-110407184D01*
X172492815Y-107811185D01*
X172438401Y-107766488D01*
X172384505Y-107721264D01*
X172380997Y-107719336D01*
X172377897Y-107716789D01*
X172315831Y-107683510D01*
X172254184Y-107649619D01*
X172250364Y-107648407D01*
X172246833Y-107646514D01*
X172179536Y-107625939D01*
X172112429Y-107604652D01*
X172108446Y-107604205D01*
X172104615Y-107603034D01*
X172034627Y-107595925D01*
X171964639Y-107588074D01*
X171956803Y-107588019D01*
X171956660Y-107588005D01*
X171956527Y-107588018D01*
X171954000Y-107588000D01*
X171750954Y-107588000D01*
X171678100Y-107477441D01*
X171541450Y-107360975D01*
X171377763Y-107287190D01*
X171200000Y-107261928D01*
X169700000Y-107261928D01*
X169598879Y-107269992D01*
X169427366Y-107323106D01*
X169277441Y-107421900D01*
X169160975Y-107558550D01*
X169087190Y-107722237D01*
X169061928Y-107900000D01*
X169061928Y-108800000D01*
X169069992Y-108901121D01*
X169123106Y-109072634D01*
X169221900Y-109222559D01*
X169358550Y-109339025D01*
X169522237Y-109412810D01*
X169700000Y-109438072D01*
X171200000Y-109438072D01*
X171301121Y-109430008D01*
X171472634Y-109376894D01*
X171622559Y-109278100D01*
X171706261Y-109179892D01*
X173318005Y-110791636D01*
X173265727Y-110852974D01*
X173216450Y-110810975D01*
X173052763Y-110737190D01*
X172875000Y-110711928D01*
X172125000Y-110711928D01*
X172023879Y-110719992D01*
X171852366Y-110773106D01*
X171728869Y-110854485D01*
X171678100Y-110777441D01*
X171541450Y-110660975D01*
X171377763Y-110587190D01*
X171200000Y-110561928D01*
X170139559Y-110561928D01*
X169038815Y-109461185D01*
X168984401Y-109416488D01*
X168930505Y-109371264D01*
X168926997Y-109369336D01*
X168923897Y-109366789D01*
X168861831Y-109333510D01*
X168800184Y-109299619D01*
X168796364Y-109298407D01*
X168792833Y-109296514D01*
X168725536Y-109275939D01*
X168658429Y-109254652D01*
X168654446Y-109254205D01*
X168650615Y-109253034D01*
X168634858Y-109251433D01*
X168626353Y-109242869D01*
X168467364Y-109135629D01*
X168290572Y-109061313D01*
X168102713Y-109022751D01*
X167910942Y-109021412D01*
X167722562Y-109057347D01*
X167544750Y-109129188D01*
X167384279Y-109234198D01*
X167247260Y-109368376D01*
X167138913Y-109526613D01*
X167063364Y-109702882D01*
X167023492Y-109890467D01*
X167020814Y-110082225D01*
X165763856Y-110082225D01*
X163492815Y-107811185D01*
X163438401Y-107766488D01*
X163384505Y-107721264D01*
X163380997Y-107719336D01*
X163377897Y-107716789D01*
X163315831Y-107683510D01*
X163254184Y-107649619D01*
X163250364Y-107648407D01*
X163246833Y-107646514D01*
X163224072Y-107639555D01*
X163225014Y-107639067D01*
X163228144Y-107636568D01*
X163231684Y-107634686D01*
X163286231Y-107590199D01*
X163341240Y-107546286D01*
X163346815Y-107540788D01*
X163346931Y-107540693D01*
X163347020Y-107540585D01*
X163348815Y-107538815D01*
X164078815Y-106808815D01*
X164123512Y-106754401D01*
X164168736Y-106700505D01*
X164170664Y-106696997D01*
X164173211Y-106693897D01*
X164206490Y-106631831D01*
X164240381Y-106570184D01*
X164241593Y-106566364D01*
X164243486Y-106562833D01*
X164264061Y-106495536D01*
X164275741Y-106458715D01*
X164360578Y-106414363D01*
X164588515Y-106231097D01*
X164612745Y-106202220D01*
X164639506Y-106288634D01*
X164738300Y-106438559D01*
X164874950Y-106555025D01*
X165038637Y-106628810D01*
X165216400Y-106654072D01*
X166943600Y-106654072D01*
X167044721Y-106646008D01*
X167216234Y-106592894D01*
X167366159Y-106494100D01*
X167482625Y-106357450D01*
X167556410Y-106193763D01*
X167581672Y-106016000D01*
X167581672Y-104210000D01*
X178465280Y-104210000D01*
X179332601Y-104295041D01*
X180133494Y-104536846D01*
X180872165Y-104929604D01*
X181520482Y-105458357D01*
X182053747Y-106102963D01*
X182451654Y-106838878D01*
X182699042Y-107638060D01*
X182790000Y-108503469D01*
X182790000Y-119418328D01*
X180984000Y-119418328D01*
X180882879Y-119426392D01*
X180711366Y-119479506D01*
X180561441Y-119578300D01*
X180504986Y-119644538D01*
X180377763Y-119587190D01*
X180200000Y-119561928D01*
X179139559Y-119561928D01*
X178038815Y-118461185D01*
X177984401Y-118416488D01*
X177930505Y-118371264D01*
X177926997Y-118369336D01*
X177923897Y-118366789D01*
X177861831Y-118333510D01*
X177836848Y-118319775D01*
X178044623Y-118112000D01*
X178149046Y-118112000D01*
X178221900Y-118222559D01*
X178358550Y-118339025D01*
X178522237Y-118412810D01*
X178700000Y-118438072D01*
X180200000Y-118438072D01*
X180301121Y-118430008D01*
X180472634Y-118376894D01*
X180622559Y-118278100D01*
X180739025Y-118141450D01*
X180812810Y-117977763D01*
X180838072Y-117800000D01*
X180838072Y-116900000D01*
X180830008Y-116798879D01*
X180776894Y-116627366D01*
X180678100Y-116477441D01*
X180541450Y-116360975D01*
X180377763Y-116287190D01*
X180200000Y-116261928D01*
X178700000Y-116261928D01*
X178598879Y-116269992D01*
X178427366Y-116323106D01*
X178277441Y-116421900D01*
X178160975Y-116558550D01*
X178147700Y-116588000D01*
X177728992Y-116588000D01*
X177658887Y-116594874D01*
X177588821Y-116601004D01*
X177584978Y-116602120D01*
X177580985Y-116602512D01*
X177513544Y-116622874D01*
X177446010Y-116642494D01*
X177442454Y-116644337D01*
X177438616Y-116645496D01*
X177376459Y-116678545D01*
X177313977Y-116710933D01*
X177310845Y-116713434D01*
X177307308Y-116715314D01*
X177252783Y-116759783D01*
X177197752Y-116803714D01*
X177192173Y-116809216D01*
X177192061Y-116809307D01*
X177191975Y-116809411D01*
X177190176Y-116811185D01*
X175838883Y-118162479D01*
X175794186Y-118216893D01*
X175748962Y-118270789D01*
X175747034Y-118274297D01*
X175744487Y-118277397D01*
X175711208Y-118339463D01*
X175677317Y-118401110D01*
X175676105Y-118404930D01*
X175674212Y-118408461D01*
X175653637Y-118475758D01*
X175632350Y-118542865D01*
X175631903Y-118546848D01*
X175630732Y-118550679D01*
X175623623Y-118620667D01*
X175615772Y-118690655D01*
X175615717Y-118698491D01*
X175615703Y-118698634D01*
X175615716Y-118698767D01*
X175615698Y-118701294D01*
X175615698Y-119649367D01*
X175477763Y-119587190D01*
X175300000Y-119561928D01*
X175205106Y-119561928D01*
X175189067Y-119530985D01*
X175186566Y-119527853D01*
X175184686Y-119524316D01*
X175140217Y-119469791D01*
X175096286Y-119414760D01*
X175090784Y-119409181D01*
X175090693Y-119409069D01*
X175090589Y-119408983D01*
X175088815Y-119407184D01*
X172492815Y-116811185D01*
X172438401Y-116766488D01*
X172384505Y-116721264D01*
X172380997Y-116719336D01*
X172377897Y-116716789D01*
X172315831Y-116683510D01*
X172254184Y-116649619D01*
X172250364Y-116648407D01*
X172246833Y-116646514D01*
X172179536Y-116625939D01*
X172112429Y-116604652D01*
X172108446Y-116604205D01*
X172104615Y-116603034D01*
X172034627Y-116595925D01*
X171964639Y-116588074D01*
X171956803Y-116588019D01*
X171956660Y-116588005D01*
X171956527Y-116588018D01*
X171954000Y-116588000D01*
X171750954Y-116588000D01*
X171678100Y-116477441D01*
X171541450Y-116360975D01*
X171377763Y-116287190D01*
X171200000Y-116261928D01*
X169700000Y-116261928D01*
X169598879Y-116269992D01*
X169427366Y-116323106D01*
X169277441Y-116421900D01*
X169160975Y-116558550D01*
X169087190Y-116722237D01*
X169061928Y-116900000D01*
X169061928Y-117800000D01*
X169069992Y-117901121D01*
X169123106Y-118072634D01*
X169221900Y-118222559D01*
X169358550Y-118339025D01*
X169522237Y-118412810D01*
X169700000Y-118438072D01*
X171200000Y-118438072D01*
X171301121Y-118430008D01*
X171472634Y-118376894D01*
X171622559Y-118278100D01*
X171706261Y-118179892D01*
X173318005Y-119791636D01*
X173265727Y-119852974D01*
X173216450Y-119810975D01*
X173052763Y-119737190D01*
X172875000Y-119711928D01*
X172125000Y-119711928D01*
X172023879Y-119719992D01*
X171852366Y-119773106D01*
X171728869Y-119854485D01*
X171678100Y-119777441D01*
X171541450Y-119660975D01*
X171377763Y-119587190D01*
X171200000Y-119561928D01*
X170139559Y-119561928D01*
X169038815Y-118461185D01*
X168984401Y-118416488D01*
X168930505Y-118371264D01*
X168926997Y-118369336D01*
X168923897Y-118366789D01*
X168861831Y-118333510D01*
X168800184Y-118299619D01*
X168796364Y-118298407D01*
X168792833Y-118296514D01*
X168725536Y-118275939D01*
X168658429Y-118254652D01*
X168654446Y-118254205D01*
X168650615Y-118253034D01*
X168634858Y-118251433D01*
X168626353Y-118242869D01*
X168467364Y-118135629D01*
X168290572Y-118061313D01*
X168102713Y-118022751D01*
X167910942Y-118021412D01*
X167722562Y-118057347D01*
X167544750Y-118129188D01*
X167384279Y-118234198D01*
X167247260Y-118368376D01*
X167138913Y-118526613D01*
X167063364Y-118702882D01*
X167023492Y-118890467D01*
X167020814Y-119082225D01*
X167055433Y-119270850D01*
X167126031Y-119449159D01*
X167229918Y-119610360D01*
X167363137Y-119748312D01*
X167520613Y-119857761D01*
X167696350Y-119934539D01*
X167883652Y-119975720D01*
X168075387Y-119979736D01*
X168264249Y-119946434D01*
X168339584Y-119917214D01*
X169061928Y-120639559D01*
X169061928Y-121100000D01*
X169069992Y-121201121D01*
X169123106Y-121372634D01*
X169221900Y-121522559D01*
X169358550Y-121639025D01*
X169522237Y-121712810D01*
X169700000Y-121738072D01*
X171200000Y-121738072D01*
X171301121Y-121730008D01*
X171472634Y-121676894D01*
X171622559Y-121578100D01*
X171638346Y-121559577D01*
X171646900Y-121572559D01*
X171783550Y-121689025D01*
X171947237Y-121762810D01*
X172125000Y-121788072D01*
X172875000Y-121788072D01*
X172976121Y-121780008D01*
X173147634Y-121726894D01*
X173297559Y-121628100D01*
X173359904Y-121554950D01*
X173458550Y-121639025D01*
X173622237Y-121712810D01*
X173800000Y-121738072D01*
X174688298Y-121738072D01*
X174402605Y-122023765D01*
X174226562Y-122057347D01*
X174048750Y-122129188D01*
X173888279Y-122234198D01*
X173751260Y-122368376D01*
X173642913Y-122526613D01*
X173567364Y-122702882D01*
X173527492Y-122890467D01*
X173524814Y-123082225D01*
X173559433Y-123270850D01*
X173630031Y-123449159D01*
X173733918Y-123610360D01*
X173867137Y-123748312D01*
X174024613Y-123857761D01*
X174200350Y-123934539D01*
X174387652Y-123975720D01*
X174579387Y-123979736D01*
X174768249Y-123946434D01*
X174947047Y-123877083D01*
X175108969Y-123774325D01*
X175247848Y-123642072D01*
X175358394Y-123485363D01*
X175436396Y-123310167D01*
X175478884Y-123123156D01*
X175479173Y-123102457D01*
X176916513Y-121665117D01*
X176961188Y-121610729D01*
X177006434Y-121556807D01*
X177008364Y-121553296D01*
X177010908Y-121550199D01*
X177044167Y-121488172D01*
X177078079Y-121426486D01*
X177079291Y-121422666D01*
X177081184Y-121419135D01*
X177101759Y-121351838D01*
X177123046Y-121284731D01*
X177123493Y-121280748D01*
X177124664Y-121276917D01*
X177131773Y-121206929D01*
X177139624Y-121136941D01*
X177139679Y-121129105D01*
X177139693Y-121128962D01*
X177139680Y-121128829D01*
X177139698Y-121126302D01*
X177139698Y-119968396D01*
X177264249Y-119946434D01*
X177339584Y-119917214D01*
X178061928Y-120639559D01*
X178061928Y-120660442D01*
X177211185Y-121511185D01*
X177166488Y-121565599D01*
X177121264Y-121619495D01*
X177119336Y-121623003D01*
X177116789Y-121626103D01*
X177083510Y-121688169D01*
X177049619Y-121749816D01*
X177048407Y-121753636D01*
X177046514Y-121757167D01*
X177025939Y-121824464D01*
X177004652Y-121891571D01*
X177004205Y-121895554D01*
X177003034Y-121899385D01*
X176995925Y-121969373D01*
X176988074Y-122039361D01*
X176988019Y-122047197D01*
X176988005Y-122047340D01*
X176988018Y-122047473D01*
X176988000Y-122050000D01*
X176988000Y-122106994D01*
X176927441Y-122146900D01*
X176810975Y-122283550D01*
X176737190Y-122447237D01*
X176711928Y-122625000D01*
X176711928Y-123375000D01*
X176719992Y-123476121D01*
X176773106Y-123647634D01*
X176871900Y-123797559D01*
X177008550Y-123914025D01*
X177172237Y-123987810D01*
X177350000Y-124013072D01*
X177409297Y-124013072D01*
X176398604Y-125023766D01*
X176222562Y-125057347D01*
X176044750Y-125129188D01*
X175884279Y-125234198D01*
X175747260Y-125368376D01*
X175638913Y-125526613D01*
X175563364Y-125702882D01*
X175523492Y-125890467D01*
X175520814Y-126082225D01*
X175555433Y-126270850D01*
X175626031Y-126449159D01*
X175729918Y-126610360D01*
X175863137Y-126748312D01*
X176020613Y-126857761D01*
X176106206Y-126895156D01*
X175838883Y-127162479D01*
X175794186Y-127216893D01*
X175748962Y-127270789D01*
X175747034Y-127274297D01*
X175744487Y-127277397D01*
X175711208Y-127339463D01*
X175677317Y-127401110D01*
X175676105Y-127404930D01*
X175674212Y-127408461D01*
X175653637Y-127475758D01*
X175632350Y-127542865D01*
X175631903Y-127546848D01*
X175630732Y-127550679D01*
X175623623Y-127620667D01*
X175615772Y-127690655D01*
X175615717Y-127698491D01*
X175615703Y-127698634D01*
X175615716Y-127698767D01*
X175615698Y-127701294D01*
X175615698Y-128649367D01*
X175477763Y-128587190D01*
X175300000Y-128561928D01*
X175205106Y-128561928D01*
X175189067Y-128530985D01*
X175186566Y-128527853D01*
X175184686Y-128524316D01*
X175140217Y-128469791D01*
X175096286Y-128414760D01*
X175090784Y-128409181D01*
X175090693Y-128409069D01*
X175090589Y-128408983D01*
X175088815Y-128407184D01*
X172492815Y-125811185D01*
X172438401Y-125766488D01*
X172384505Y-125721264D01*
X172380997Y-125719336D01*
X172377897Y-125716789D01*
X172315831Y-125683510D01*
X172254184Y-125649619D01*
X172250364Y-125648407D01*
X172246833Y-125646514D01*
X172179536Y-125625939D01*
X172112429Y-125604652D01*
X172108446Y-125604205D01*
X172104615Y-125603034D01*
X172034627Y-125595925D01*
X171964639Y-125588074D01*
X171956803Y-125588019D01*
X171956660Y-125588005D01*
X171956527Y-125588018D01*
X171954000Y-125588000D01*
X171750954Y-125588000D01*
X171678100Y-125477441D01*
X171541450Y-125360975D01*
X171377763Y-125287190D01*
X171200000Y-125261928D01*
X169700000Y-125261928D01*
X169598879Y-125269992D01*
X169427366Y-125323106D01*
X169277441Y-125421900D01*
X169160975Y-125558550D01*
X169087190Y-125722237D01*
X169061928Y-125900000D01*
X169061928Y-126800000D01*
X169069992Y-126901121D01*
X169123106Y-127072634D01*
X169221900Y-127222559D01*
X169358550Y-127339025D01*
X169522237Y-127412810D01*
X169700000Y-127438072D01*
X171200000Y-127438072D01*
X171301121Y-127430008D01*
X171472634Y-127376894D01*
X171622559Y-127278100D01*
X171706261Y-127179892D01*
X173318005Y-128791636D01*
X173265727Y-128852974D01*
X173216450Y-128810975D01*
X173052763Y-128737190D01*
X172875000Y-128711928D01*
X172125000Y-128711928D01*
X172023879Y-128719992D01*
X171852366Y-128773106D01*
X171728869Y-128854485D01*
X171678100Y-128777441D01*
X171541450Y-128660975D01*
X171377763Y-128587190D01*
X171200000Y-128561928D01*
X170139559Y-128561928D01*
X169038815Y-127461185D01*
X168984401Y-127416488D01*
X168930505Y-127371264D01*
X168926997Y-127369336D01*
X168923897Y-127366789D01*
X168861831Y-127333510D01*
X168800184Y-127299619D01*
X168796364Y-127298407D01*
X168792833Y-127296514D01*
X168725536Y-127275939D01*
X168658429Y-127254652D01*
X168654446Y-127254205D01*
X168650615Y-127253034D01*
X168634858Y-127251433D01*
X168626353Y-127242869D01*
X168467364Y-127135629D01*
X168290572Y-127061313D01*
X168102713Y-127022751D01*
X167910942Y-127021412D01*
X167722562Y-127057347D01*
X167544750Y-127129188D01*
X167384279Y-127234198D01*
X167247260Y-127368376D01*
X167138913Y-127526613D01*
X167063364Y-127702882D01*
X167023492Y-127890467D01*
X167020814Y-128082225D01*
X167055433Y-128270850D01*
X167126031Y-128449159D01*
X167229918Y-128610360D01*
X167363137Y-128748312D01*
X167520613Y-128857761D01*
X167696350Y-128934539D01*
X167883652Y-128975720D01*
X168075387Y-128979736D01*
X168264249Y-128946434D01*
X168339584Y-128917214D01*
X169061928Y-129639559D01*
X169061928Y-130100000D01*
X169069992Y-130201121D01*
X169123106Y-130372634D01*
X169221900Y-130522559D01*
X169358550Y-130639025D01*
X169522237Y-130712810D01*
X169700000Y-130738072D01*
X171200000Y-130738072D01*
X171301121Y-130730008D01*
X171472634Y-130676894D01*
X171622559Y-130578100D01*
X171638346Y-130559577D01*
X171646900Y-130572559D01*
X171783550Y-130689025D01*
X171947237Y-130762810D01*
X172125000Y-130788072D01*
X172875000Y-130788072D01*
X172976121Y-130780008D01*
X173147634Y-130726894D01*
X173297559Y-130628100D01*
X173359904Y-130554950D01*
X173458550Y-130639025D01*
X173622237Y-130712810D01*
X173800000Y-130738072D01*
X174688298Y-130738072D01*
X173688370Y-131738000D01*
X153615134Y-131738000D01*
X153463364Y-131635629D01*
X153286572Y-131561313D01*
X153098713Y-131522751D01*
X152906942Y-131521412D01*
X152718562Y-131557347D01*
X152540750Y-131629188D01*
X152380279Y-131734198D01*
X152243260Y-131868376D01*
X152134913Y-132026613D01*
X152059364Y-132202882D01*
X152019492Y-132390467D01*
X152016814Y-132582225D01*
X152051433Y-132770850D01*
X152122031Y-132949159D01*
X152225918Y-133110360D01*
X152359137Y-133248312D01*
X152516613Y-133357761D01*
X152692350Y-133434539D01*
X152879652Y-133475720D01*
X153071387Y-133479736D01*
X153260249Y-133446434D01*
X153439047Y-133377083D01*
X153600969Y-133274325D01*
X153613911Y-133262000D01*
X174004000Y-133262000D01*
X174074114Y-133255125D01*
X174144170Y-133248996D01*
X174148013Y-133247880D01*
X174152007Y-133247488D01*
X174219460Y-133227123D01*
X174286982Y-133207506D01*
X174290538Y-133205663D01*
X174294376Y-133204504D01*
X174356553Y-133171444D01*
X174419014Y-133139067D01*
X174422144Y-133136568D01*
X174425684Y-133134686D01*
X174480231Y-133090199D01*
X174535240Y-133046286D01*
X174540815Y-133040788D01*
X174540931Y-133040693D01*
X174541020Y-133040585D01*
X174542815Y-133038815D01*
X176916513Y-130665117D01*
X176961210Y-130610703D01*
X177006434Y-130556807D01*
X177008362Y-130553299D01*
X177010909Y-130550199D01*
X177044188Y-130488133D01*
X177078079Y-130426486D01*
X177079291Y-130422666D01*
X177081184Y-130419135D01*
X177101759Y-130351838D01*
X177123046Y-130284731D01*
X177123493Y-130280748D01*
X177124664Y-130276917D01*
X177131773Y-130206929D01*
X177139624Y-130136941D01*
X177139679Y-130129105D01*
X177139693Y-130128962D01*
X177139680Y-130128829D01*
X177139698Y-130126302D01*
X177139698Y-128968396D01*
X177264249Y-128946434D01*
X177339584Y-128917214D01*
X178061928Y-129639559D01*
X178061928Y-130100000D01*
X178069992Y-130201121D01*
X178123106Y-130372634D01*
X178221900Y-130522559D01*
X178358550Y-130639025D01*
X178413169Y-130663646D01*
X178310975Y-130783550D01*
X178237190Y-130947237D01*
X178211928Y-131125000D01*
X178211928Y-131875000D01*
X178219992Y-131976121D01*
X178273106Y-132147634D01*
X178371900Y-132297559D01*
X178508550Y-132414025D01*
X178672237Y-132487810D01*
X178850000Y-132513072D01*
X179650000Y-132513072D01*
X179751121Y-132505008D01*
X179922634Y-132451894D01*
X180072559Y-132353100D01*
X180189025Y-132216450D01*
X180262810Y-132052763D01*
X180288072Y-131875000D01*
X180288072Y-131125000D01*
X180280008Y-131023879D01*
X180226894Y-130852366D01*
X180212000Y-130829764D01*
X180212000Y-130737115D01*
X180301121Y-130730008D01*
X180472634Y-130676894D01*
X180622559Y-130578100D01*
X180739025Y-130441450D01*
X180812810Y-130277763D01*
X180838072Y-130100000D01*
X180838072Y-129200000D01*
X180830008Y-129098879D01*
X180776894Y-128927366D01*
X180678100Y-128777441D01*
X180541450Y-128660975D01*
X180377763Y-128587190D01*
X180200000Y-128561928D01*
X179139559Y-128561928D01*
X178038815Y-127461185D01*
X177984401Y-127416488D01*
X177930505Y-127371264D01*
X177926997Y-127369336D01*
X177923897Y-127366789D01*
X177861831Y-127333510D01*
X177836848Y-127319775D01*
X178044623Y-127112000D01*
X178149046Y-127112000D01*
X178221900Y-127222559D01*
X178358550Y-127339025D01*
X178522237Y-127412810D01*
X178700000Y-127438072D01*
X180200000Y-127438072D01*
X180301121Y-127430008D01*
X180472634Y-127376894D01*
X180622559Y-127278100D01*
X180739025Y-127141450D01*
X180812810Y-126977763D01*
X180838072Y-126800000D01*
X180838072Y-125900000D01*
X180830008Y-125798879D01*
X180776894Y-125627366D01*
X180678100Y-125477441D01*
X180541450Y-125360975D01*
X180377763Y-125287190D01*
X180200000Y-125261928D01*
X178700000Y-125261928D01*
X178598879Y-125269992D01*
X178427366Y-125323106D01*
X178277441Y-125421900D01*
X178160975Y-125558550D01*
X178147700Y-125588000D01*
X177989630Y-125588000D01*
X179355631Y-124222000D01*
X180555013Y-124222000D01*
X180585637Y-124280578D01*
X180768903Y-124508515D01*
X180992952Y-124696515D01*
X181249251Y-124837416D01*
X181528036Y-124925852D01*
X181818688Y-124958454D01*
X181839612Y-124958600D01*
X182160388Y-124958600D01*
X182451468Y-124930059D01*
X182731460Y-124845525D01*
X182790000Y-124814399D01*
X182790000Y-138465281D01*
X182704959Y-139332601D01*
X182463154Y-140133494D01*
X182070395Y-140872168D01*
X181541640Y-141520484D01*
X180897034Y-142053749D01*
X180161122Y-142451654D01*
X179361942Y-142699042D01*
X178496532Y-142790000D01*
X167501672Y-142790000D01*
X167501672Y-140984000D01*
X167493608Y-140882879D01*
X167456174Y-140762000D01*
X168882831Y-140762000D01*
X169020613Y-140857761D01*
X169196350Y-140934539D01*
X169383652Y-140975720D01*
X169575387Y-140979736D01*
X169764249Y-140946434D01*
X169943047Y-140877083D01*
X170104969Y-140774325D01*
X170243848Y-140642072D01*
X170354394Y-140485363D01*
X170432396Y-140310167D01*
X170474884Y-140123156D01*
X170477942Y-139904112D01*
X170445066Y-139738072D01*
X171200000Y-139738072D01*
X171301121Y-139730008D01*
X171472634Y-139676894D01*
X171622559Y-139578100D01*
X171638346Y-139559577D01*
X171646900Y-139572559D01*
X171783550Y-139689025D01*
X171947237Y-139762810D01*
X172125000Y-139788072D01*
X172875000Y-139788072D01*
X172976121Y-139780008D01*
X173147634Y-139726894D01*
X173297559Y-139628100D01*
X173359904Y-139554950D01*
X173458550Y-139639025D01*
X173622237Y-139712810D01*
X173800000Y-139738072D01*
X175300000Y-139738072D01*
X175401121Y-139730008D01*
X175572634Y-139676894D01*
X175722559Y-139578100D01*
X175839025Y-139441450D01*
X175912810Y-139277763D01*
X175938072Y-139100000D01*
X175938072Y-138200000D01*
X175930008Y-138098879D01*
X175876894Y-137927366D01*
X175778100Y-137777441D01*
X175641450Y-137660975D01*
X175477763Y-137587190D01*
X175300000Y-137561928D01*
X175205106Y-137561928D01*
X175189067Y-137530985D01*
X175186566Y-137527853D01*
X175184686Y-137524316D01*
X175140217Y-137469791D01*
X175096286Y-137414760D01*
X175090784Y-137409181D01*
X175090693Y-137409069D01*
X175090589Y-137408983D01*
X175088815Y-137407184D01*
X174763856Y-137082225D01*
X176020814Y-137082225D01*
X176055433Y-137270850D01*
X176126031Y-137449159D01*
X176229918Y-137610360D01*
X176363137Y-137748312D01*
X176520613Y-137857761D01*
X176696350Y-137934539D01*
X176883652Y-137975720D01*
X177075387Y-137979736D01*
X177264249Y-137946434D01*
X177339584Y-137917214D01*
X178061928Y-138639559D01*
X178061928Y-139100000D01*
X178069992Y-139201121D01*
X178123106Y-139372634D01*
X178221900Y-139522559D01*
X178358550Y-139639025D01*
X178522237Y-139712810D01*
X178700000Y-139738072D01*
X180200000Y-139738072D01*
X180301121Y-139730008D01*
X180472634Y-139676894D01*
X180622559Y-139578100D01*
X180638346Y-139559577D01*
X180646900Y-139572559D01*
X180783550Y-139689025D01*
X180947237Y-139762810D01*
X181125000Y-139788072D01*
X181875000Y-139788072D01*
X181976121Y-139780008D01*
X182147634Y-139726894D01*
X182297559Y-139628100D01*
X182414025Y-139491450D01*
X182487810Y-139327763D01*
X182513072Y-139150000D01*
X182513072Y-138350000D01*
X182505008Y-138248879D01*
X182451894Y-138077366D01*
X182353100Y-137927441D01*
X182216450Y-137810975D01*
X182052763Y-137737190D01*
X181875000Y-137711928D01*
X181125000Y-137711928D01*
X181023879Y-137719992D01*
X180852366Y-137773106D01*
X180728869Y-137854485D01*
X180678100Y-137777441D01*
X180541450Y-137660975D01*
X180377763Y-137587190D01*
X180200000Y-137561928D01*
X179139559Y-137561928D01*
X178038815Y-136461185D01*
X177984401Y-136416488D01*
X177930505Y-136371264D01*
X177926997Y-136369336D01*
X177923897Y-136366789D01*
X177861831Y-136333510D01*
X177800184Y-136299619D01*
X177796364Y-136298407D01*
X177792833Y-136296514D01*
X177725536Y-136275939D01*
X177658429Y-136254652D01*
X177654446Y-136254205D01*
X177650615Y-136253034D01*
X177634858Y-136251433D01*
X177626353Y-136242869D01*
X177467364Y-136135629D01*
X177290572Y-136061313D01*
X177102713Y-136022751D01*
X176910942Y-136021412D01*
X176722562Y-136057347D01*
X176544750Y-136129188D01*
X176384279Y-136234198D01*
X176247260Y-136368376D01*
X176138913Y-136526613D01*
X176063364Y-136702882D01*
X176023492Y-136890467D01*
X176020814Y-137082225D01*
X174763856Y-137082225D01*
X172581631Y-134900000D01*
X178061928Y-134900000D01*
X178061928Y-135800000D01*
X178069992Y-135901121D01*
X178123106Y-136072634D01*
X178221900Y-136222559D01*
X178358550Y-136339025D01*
X178522237Y-136412810D01*
X178700000Y-136438072D01*
X180200000Y-136438072D01*
X180301121Y-136430008D01*
X180472634Y-136376894D01*
X180622559Y-136278100D01*
X180739025Y-136141450D01*
X180812810Y-135977763D01*
X180838072Y-135800000D01*
X180838072Y-134900000D01*
X180830008Y-134798879D01*
X180776894Y-134627366D01*
X180678100Y-134477441D01*
X180541450Y-134360975D01*
X180431784Y-134311541D01*
X180432396Y-134310167D01*
X180474884Y-134123156D01*
X180477942Y-133904112D01*
X180440693Y-133715988D01*
X180367613Y-133538682D01*
X180261485Y-133378948D01*
X180126353Y-133242869D01*
X179967364Y-133135629D01*
X179790572Y-133061313D01*
X179602713Y-133022751D01*
X179410942Y-133021412D01*
X179222562Y-133057347D01*
X179044750Y-133129188D01*
X178884279Y-133234198D01*
X178747260Y-133368376D01*
X178638913Y-133526613D01*
X178563364Y-133702882D01*
X178523492Y-133890467D01*
X178520814Y-134082225D01*
X178555433Y-134270850D01*
X178559876Y-134282071D01*
X178427366Y-134323106D01*
X178277441Y-134421900D01*
X178160975Y-134558550D01*
X178087190Y-134722237D01*
X178061928Y-134900000D01*
X172581631Y-134900000D01*
X172492815Y-134811185D01*
X172438401Y-134766488D01*
X172384505Y-134721264D01*
X172380997Y-134719336D01*
X172377897Y-134716789D01*
X172315831Y-134683510D01*
X172254184Y-134649619D01*
X172250364Y-134648407D01*
X172246833Y-134646514D01*
X172179536Y-134625939D01*
X172112429Y-134604652D01*
X172108446Y-134604205D01*
X172104615Y-134603034D01*
X172034627Y-134595925D01*
X171964639Y-134588074D01*
X171956803Y-134588019D01*
X171956660Y-134588005D01*
X171956527Y-134588018D01*
X171954000Y-134588000D01*
X171750954Y-134588000D01*
X171678100Y-134477441D01*
X171541450Y-134360975D01*
X171377763Y-134287190D01*
X171200000Y-134261928D01*
X169700000Y-134261928D01*
X169598879Y-134269992D01*
X169427366Y-134323106D01*
X169277441Y-134421900D01*
X169160975Y-134558550D01*
X169087190Y-134722237D01*
X169061928Y-134900000D01*
X169061928Y-135800000D01*
X169069992Y-135901121D01*
X169123106Y-136072634D01*
X169221900Y-136222559D01*
X169358550Y-136339025D01*
X169522237Y-136412810D01*
X169700000Y-136438072D01*
X171200000Y-136438072D01*
X171301121Y-136430008D01*
X171472634Y-136376894D01*
X171622559Y-136278100D01*
X171706261Y-136179892D01*
X173318005Y-137791636D01*
X173265727Y-137852974D01*
X173216450Y-137810975D01*
X173052763Y-137737190D01*
X172875000Y-137711928D01*
X172125000Y-137711928D01*
X172023879Y-137719992D01*
X171852366Y-137773106D01*
X171728869Y-137854485D01*
X171678100Y-137777441D01*
X171541450Y-137660975D01*
X171377763Y-137587190D01*
X171200000Y-137561928D01*
X170139559Y-137561928D01*
X169038815Y-136461185D01*
X168984401Y-136416488D01*
X168930505Y-136371264D01*
X168926997Y-136369336D01*
X168923897Y-136366789D01*
X168861831Y-136333510D01*
X168800184Y-136299619D01*
X168796364Y-136298407D01*
X168792833Y-136296514D01*
X168725536Y-136275939D01*
X168658429Y-136254652D01*
X168654446Y-136254205D01*
X168650615Y-136253034D01*
X168634858Y-136251433D01*
X168626353Y-136242869D01*
X168467364Y-136135629D01*
X168290572Y-136061313D01*
X168102713Y-136022751D01*
X167910942Y-136021412D01*
X167722562Y-136057347D01*
X167544750Y-136129188D01*
X167384279Y-136234198D01*
X167247260Y-136368376D01*
X167138913Y-136526613D01*
X167063364Y-136702882D01*
X167023492Y-136890467D01*
X167020814Y-137082225D01*
X167055433Y-137270850D01*
X167126031Y-137449159D01*
X167229918Y-137610360D01*
X167363137Y-137748312D01*
X167520613Y-137857761D01*
X167696350Y-137934539D01*
X167883652Y-137975720D01*
X168075387Y-137979736D01*
X168264249Y-137946434D01*
X168339584Y-137917214D01*
X169061928Y-138639559D01*
X169061928Y-139100000D01*
X169063647Y-139121553D01*
X169044750Y-139129188D01*
X168884279Y-139234198D01*
X168880396Y-139238000D01*
X166918461Y-139238000D01*
X166938072Y-139100000D01*
X166938072Y-138200000D01*
X166930008Y-138098879D01*
X166876894Y-137927366D01*
X166778100Y-137777441D01*
X166641450Y-137660975D01*
X166477763Y-137587190D01*
X166312000Y-137563633D01*
X166312000Y-137022078D01*
X166305122Y-136951928D01*
X166298996Y-136881907D01*
X166297880Y-136878064D01*
X166297488Y-136874071D01*
X166277126Y-136806630D01*
X166257506Y-136739096D01*
X166255663Y-136735540D01*
X166254504Y-136731702D01*
X166221455Y-136669545D01*
X166189067Y-136607063D01*
X166186566Y-136603931D01*
X166184686Y-136600394D01*
X166140217Y-136545869D01*
X166096286Y-136490838D01*
X166090784Y-136485259D01*
X166090693Y-136485147D01*
X166090589Y-136485061D01*
X166088815Y-136483262D01*
X164416737Y-134811185D01*
X164362323Y-134766488D01*
X164308427Y-134721264D01*
X164304919Y-134719336D01*
X164301819Y-134716789D01*
X164239753Y-134683510D01*
X164178106Y-134649619D01*
X164174286Y-134648407D01*
X164170755Y-134646514D01*
X164103458Y-134625939D01*
X164036351Y-134604652D01*
X164032368Y-134604205D01*
X164028537Y-134603034D01*
X163958549Y-134595925D01*
X163888561Y-134588074D01*
X163880725Y-134588019D01*
X163880582Y-134588005D01*
X163880449Y-134588018D01*
X163877922Y-134588000D01*
X162750954Y-134588000D01*
X162678100Y-134477441D01*
X162541450Y-134360975D01*
X162377763Y-134287190D01*
X162200000Y-134261928D01*
X160700000Y-134261928D01*
X160598879Y-134269992D01*
X160427366Y-134323106D01*
X160277441Y-134421900D01*
X160160975Y-134558550D01*
X160087190Y-134722237D01*
X160061928Y-134900000D01*
X160061928Y-135800000D01*
X160069992Y-135901121D01*
X160123106Y-136072634D01*
X160221900Y-136222559D01*
X160358550Y-136339025D01*
X160522237Y-136412810D01*
X160700000Y-136438072D01*
X162200000Y-136438072D01*
X162301121Y-136430008D01*
X162472634Y-136376894D01*
X162622559Y-136278100D01*
X162739025Y-136141450D01*
X162752300Y-136112000D01*
X163562292Y-136112000D01*
X164788000Y-137337709D01*
X164788000Y-137562885D01*
X164698879Y-137569992D01*
X164527366Y-137623106D01*
X164513072Y-137632525D01*
X164513072Y-137350000D01*
X164505008Y-137248879D01*
X164451894Y-137077366D01*
X164353100Y-136927441D01*
X164216450Y-136810975D01*
X164052763Y-136737190D01*
X163875000Y-136711928D01*
X163125000Y-136711928D01*
X163023879Y-136719992D01*
X162852366Y-136773106D01*
X162702441Y-136871900D01*
X162585975Y-137008550D01*
X162512190Y-137172237D01*
X162486928Y-137350000D01*
X162486928Y-137636398D01*
X162377763Y-137587190D01*
X162200000Y-137561928D01*
X161139559Y-137561928D01*
X160038815Y-136461185D01*
X159984401Y-136416488D01*
X159930505Y-136371264D01*
X159926997Y-136369336D01*
X159923897Y-136366789D01*
X159861831Y-136333510D01*
X159800184Y-136299619D01*
X159796364Y-136298407D01*
X159792833Y-136296514D01*
X159725536Y-136275939D01*
X159658429Y-136254652D01*
X159654446Y-136254205D01*
X159650615Y-136253034D01*
X159634858Y-136251433D01*
X159626353Y-136242869D01*
X159467364Y-136135629D01*
X159290572Y-136061313D01*
X159102713Y-136022751D01*
X158910942Y-136021412D01*
X158722562Y-136057347D01*
X158544750Y-136129188D01*
X158384279Y-136234198D01*
X158247260Y-136368376D01*
X158138913Y-136526613D01*
X158063364Y-136702882D01*
X158023492Y-136890467D01*
X158020814Y-137082225D01*
X158055433Y-137270850D01*
X158126031Y-137449159D01*
X158229918Y-137610360D01*
X158363137Y-137748312D01*
X158520613Y-137857761D01*
X158696350Y-137934539D01*
X158883652Y-137975720D01*
X159075387Y-137979736D01*
X159264249Y-137946434D01*
X159339584Y-137917214D01*
X160061928Y-138639559D01*
X160061928Y-139100000D01*
X160069992Y-139201121D01*
X160123106Y-139372634D01*
X160221900Y-139522559D01*
X160358550Y-139639025D01*
X160522237Y-139712810D01*
X160700000Y-139738072D01*
X162200000Y-139738072D01*
X162301121Y-139730008D01*
X162472634Y-139676894D01*
X162622559Y-139578100D01*
X162739025Y-139441450D01*
X162760549Y-139393701D01*
X162815460Y-139377123D01*
X162882982Y-139357506D01*
X162886538Y-139355663D01*
X162890376Y-139354504D01*
X162952553Y-139321444D01*
X163015014Y-139289067D01*
X163018144Y-139286568D01*
X163021684Y-139284686D01*
X163076231Y-139240199D01*
X163131240Y-139196286D01*
X163136815Y-139190788D01*
X163136931Y-139190693D01*
X163137020Y-139190585D01*
X163138815Y-139188815D01*
X163539558Y-138788072D01*
X163875000Y-138788072D01*
X163976121Y-138780008D01*
X164147634Y-138726894D01*
X164161928Y-138717475D01*
X164161928Y-139100000D01*
X164169992Y-139201121D01*
X164223106Y-139372634D01*
X164321900Y-139522559D01*
X164414445Y-139601434D01*
X164370964Y-139702882D01*
X164331092Y-139890467D01*
X164328414Y-140082225D01*
X164363033Y-140270850D01*
X164433631Y-140449159D01*
X164537518Y-140610360D01*
X164588219Y-140662862D01*
X164530067Y-140791867D01*
X164523363Y-140783647D01*
X164298006Y-140597216D01*
X164040731Y-140458108D01*
X163761335Y-140371621D01*
X163470462Y-140341049D01*
X163179190Y-140367556D01*
X162898615Y-140450134D01*
X162639422Y-140585637D01*
X162411485Y-140768903D01*
X162223485Y-140992952D01*
X162082584Y-141249251D01*
X161994148Y-141528036D01*
X161961546Y-141818688D01*
X161961400Y-141839612D01*
X161961400Y-142160388D01*
X161989941Y-142451468D01*
X162074475Y-142731460D01*
X162105601Y-142790000D01*
X148534719Y-142790000D01*
X147667399Y-142704959D01*
X146866506Y-142463154D01*
X146127832Y-142070395D01*
X145479516Y-141541640D01*
X144946251Y-140897034D01*
X144548346Y-140161122D01*
X144300958Y-139361942D01*
X144210000Y-138496532D01*
X144210000Y-138200000D01*
X146161928Y-138200000D01*
X146161928Y-139100000D01*
X146169992Y-139201121D01*
X146223106Y-139372634D01*
X146321900Y-139522559D01*
X146458550Y-139639025D01*
X146622237Y-139712810D01*
X146800000Y-139738072D01*
X147055884Y-139738072D01*
X147023492Y-139890467D01*
X147020814Y-140082225D01*
X147055433Y-140270850D01*
X147126031Y-140449159D01*
X147229918Y-140610360D01*
X147363137Y-140748312D01*
X147520613Y-140857761D01*
X147696350Y-140934539D01*
X147883652Y-140975720D01*
X148075387Y-140979736D01*
X148264249Y-140946434D01*
X148443047Y-140877083D01*
X148604969Y-140774325D01*
X148743848Y-140642072D01*
X148854394Y-140485363D01*
X148932396Y-140310167D01*
X148974884Y-140123156D01*
X148977942Y-139904112D01*
X148940693Y-139715988D01*
X148867613Y-139538682D01*
X148818788Y-139465195D01*
X148839025Y-139441450D01*
X148912810Y-139277763D01*
X148938072Y-139100000D01*
X148938072Y-138200000D01*
X148930008Y-138098879D01*
X148876894Y-137927366D01*
X148778100Y-137777441D01*
X148641450Y-137660975D01*
X148477763Y-137587190D01*
X148300000Y-137561928D01*
X146800000Y-137561928D01*
X146698879Y-137569992D01*
X146527366Y-137623106D01*
X146377441Y-137721900D01*
X146260975Y-137858550D01*
X146187190Y-138022237D01*
X146161928Y-138200000D01*
X144210000Y-138200000D01*
X144210000Y-137082225D01*
X149020814Y-137082225D01*
X149055433Y-137270850D01*
X149126031Y-137449159D01*
X149229918Y-137610360D01*
X149363137Y-137748312D01*
X149520613Y-137857761D01*
X149696350Y-137934539D01*
X149883652Y-137975720D01*
X150075387Y-137979736D01*
X150264249Y-137946434D01*
X150339584Y-137917214D01*
X151061928Y-138639559D01*
X151061928Y-139100000D01*
X151069992Y-139201121D01*
X151123106Y-139372634D01*
X151221900Y-139522559D01*
X151358550Y-139639025D01*
X151522237Y-139712810D01*
X151700000Y-139738072D01*
X153200000Y-139738072D01*
X153301121Y-139730008D01*
X153472634Y-139676894D01*
X153622559Y-139578100D01*
X153638346Y-139559577D01*
X153646900Y-139572559D01*
X153783550Y-139689025D01*
X153947237Y-139762810D01*
X154125000Y-139788072D01*
X154875000Y-139788072D01*
X154976121Y-139780008D01*
X155147634Y-139726894D01*
X155297559Y-139628100D01*
X155359904Y-139554950D01*
X155458550Y-139639025D01*
X155622237Y-139712810D01*
X155800000Y-139738072D01*
X157300000Y-139738072D01*
X157401121Y-139730008D01*
X157572634Y-139676894D01*
X157722559Y-139578100D01*
X157839025Y-139441450D01*
X157912810Y-139277763D01*
X157938072Y-139100000D01*
X157938072Y-138200000D01*
X157930008Y-138098879D01*
X157876894Y-137927366D01*
X157778100Y-137777441D01*
X157641450Y-137660975D01*
X157477763Y-137587190D01*
X157300000Y-137561928D01*
X157205106Y-137561928D01*
X157189067Y-137530985D01*
X157186566Y-137527853D01*
X157184686Y-137524316D01*
X157140217Y-137469791D01*
X157096286Y-137414760D01*
X157090784Y-137409181D01*
X157090693Y-137409069D01*
X157090589Y-137408983D01*
X157088815Y-137407184D01*
X154492815Y-134811185D01*
X154438401Y-134766488D01*
X154384505Y-134721264D01*
X154380997Y-134719336D01*
X154377897Y-134716789D01*
X154315831Y-134683510D01*
X154254184Y-134649619D01*
X154250364Y-134648407D01*
X154246833Y-134646514D01*
X154179536Y-134625939D01*
X154112429Y-134604652D01*
X154108446Y-134604205D01*
X154104615Y-134603034D01*
X154034627Y-134595925D01*
X153964639Y-134588074D01*
X153956803Y-134588019D01*
X153956660Y-134588005D01*
X153956527Y-134588018D01*
X153954000Y-134588000D01*
X153750954Y-134588000D01*
X153678100Y-134477441D01*
X153541450Y-134360975D01*
X153377763Y-134287190D01*
X153200000Y-134261928D01*
X151700000Y-134261928D01*
X151598879Y-134269992D01*
X151427366Y-134323106D01*
X151277441Y-134421900D01*
X151160975Y-134558550D01*
X151087190Y-134722237D01*
X151061928Y-134900000D01*
X151061928Y-135800000D01*
X151069992Y-135901121D01*
X151123106Y-136072634D01*
X151221900Y-136222559D01*
X151358550Y-136339025D01*
X151522237Y-136412810D01*
X151700000Y-136438072D01*
X153200000Y-136438072D01*
X153301121Y-136430008D01*
X153472634Y-136376894D01*
X153622559Y-136278100D01*
X153706261Y-136179892D01*
X155318005Y-137791636D01*
X155265727Y-137852974D01*
X155216450Y-137810975D01*
X155052763Y-137737190D01*
X154875000Y-137711928D01*
X154125000Y-137711928D01*
X154023879Y-137719992D01*
X153852366Y-137773106D01*
X153728869Y-137854485D01*
X153678100Y-137777441D01*
X153541450Y-137660975D01*
X153377763Y-137587190D01*
X153200000Y-137561928D01*
X152139559Y-137561928D01*
X151038815Y-136461185D01*
X150984401Y-136416488D01*
X150930505Y-136371264D01*
X150926997Y-136369336D01*
X150923897Y-136366789D01*
X150861831Y-136333510D01*
X150800184Y-136299619D01*
X150796364Y-136298407D01*
X150792833Y-136296514D01*
X150725536Y-136275939D01*
X150658429Y-136254652D01*
X150654446Y-136254205D01*
X150650615Y-136253034D01*
X150634858Y-136251433D01*
X150626353Y-136242869D01*
X150467364Y-136135629D01*
X150290572Y-136061313D01*
X150102713Y-136022751D01*
X149910942Y-136021412D01*
X149722562Y-136057347D01*
X149544750Y-136129188D01*
X149384279Y-136234198D01*
X149247260Y-136368376D01*
X149138913Y-136526613D01*
X149063364Y-136702882D01*
X149023492Y-136890467D01*
X149020814Y-137082225D01*
X144210000Y-137082225D01*
X144210000Y-129200000D01*
X146161928Y-129200000D01*
X146161928Y-130100000D01*
X146169992Y-130201121D01*
X146223106Y-130372634D01*
X146321900Y-130522559D01*
X146458550Y-130639025D01*
X146622237Y-130712810D01*
X146800000Y-130738072D01*
X148300000Y-130738072D01*
X148401121Y-130730008D01*
X148572634Y-130676894D01*
X148722559Y-130578100D01*
X148839025Y-130441450D01*
X148912810Y-130277763D01*
X148938072Y-130100000D01*
X148938072Y-129200000D01*
X148930008Y-129098879D01*
X148876894Y-128927366D01*
X148778100Y-128777441D01*
X148641450Y-128660975D01*
X148477763Y-128587190D01*
X148312000Y-128563633D01*
X148312000Y-128545460D01*
X148354394Y-128485363D01*
X148432396Y-128310167D01*
X148474884Y-128123156D01*
X148475455Y-128082225D01*
X149020814Y-128082225D01*
X149055433Y-128270850D01*
X149126031Y-128449159D01*
X149229918Y-128610360D01*
X149363137Y-128748312D01*
X149520613Y-128857761D01*
X149696350Y-128934539D01*
X149883652Y-128975720D01*
X150075387Y-128979736D01*
X150264249Y-128946434D01*
X150339584Y-128917214D01*
X151061928Y-129639559D01*
X151061928Y-130100000D01*
X151069992Y-130201121D01*
X151123106Y-130372634D01*
X151221900Y-130522559D01*
X151358550Y-130639025D01*
X151522237Y-130712810D01*
X151700000Y-130738072D01*
X153200000Y-130738072D01*
X153301121Y-130730008D01*
X153472634Y-130676894D01*
X153622559Y-130578100D01*
X153638346Y-130559577D01*
X153646900Y-130572559D01*
X153783550Y-130689025D01*
X153947237Y-130762810D01*
X154125000Y-130788072D01*
X154875000Y-130788072D01*
X154976121Y-130780008D01*
X155147634Y-130726894D01*
X155297559Y-130628100D01*
X155359904Y-130554950D01*
X155458550Y-130639025D01*
X155622237Y-130712810D01*
X155800000Y-130738072D01*
X157300000Y-130738072D01*
X157401121Y-130730008D01*
X157572634Y-130676894D01*
X157722559Y-130578100D01*
X157839025Y-130441450D01*
X157912810Y-130277763D01*
X157938072Y-130100000D01*
X157938072Y-129200000D01*
X157930008Y-129098879D01*
X157876894Y-128927366D01*
X157778100Y-128777441D01*
X157641450Y-128660975D01*
X157477763Y-128587190D01*
X157300000Y-128561928D01*
X157205106Y-128561928D01*
X157189067Y-128530985D01*
X157186566Y-128527853D01*
X157184686Y-128524316D01*
X157140217Y-128469791D01*
X157096286Y-128414760D01*
X157090784Y-128409181D01*
X157090693Y-128409069D01*
X157090589Y-128408983D01*
X157088815Y-128407184D01*
X156763856Y-128082225D01*
X158020814Y-128082225D01*
X158055433Y-128270850D01*
X158126031Y-128449159D01*
X158229918Y-128610360D01*
X158363137Y-128748312D01*
X158520613Y-128857761D01*
X158696350Y-128934539D01*
X158883652Y-128975720D01*
X159075387Y-128979736D01*
X159264249Y-128946434D01*
X159339584Y-128917214D01*
X160061928Y-129639559D01*
X160061928Y-130100000D01*
X160069992Y-130201121D01*
X160123106Y-130372634D01*
X160221900Y-130522559D01*
X160358550Y-130639025D01*
X160522237Y-130712810D01*
X160700000Y-130738072D01*
X162200000Y-130738072D01*
X162301121Y-130730008D01*
X162472634Y-130676894D01*
X162622559Y-130578100D01*
X162638346Y-130559577D01*
X162646900Y-130572559D01*
X162783550Y-130689025D01*
X162947237Y-130762810D01*
X163125000Y-130788072D01*
X163875000Y-130788072D01*
X163976121Y-130780008D01*
X164147634Y-130726894D01*
X164297559Y-130628100D01*
X164359904Y-130554950D01*
X164458550Y-130639025D01*
X164622237Y-130712810D01*
X164800000Y-130738072D01*
X166300000Y-130738072D01*
X166401121Y-130730008D01*
X166572634Y-130676894D01*
X166722559Y-130578100D01*
X166839025Y-130441450D01*
X166912810Y-130277763D01*
X166938072Y-130100000D01*
X166938072Y-129200000D01*
X166930008Y-129098879D01*
X166876894Y-128927366D01*
X166778100Y-128777441D01*
X166641450Y-128660975D01*
X166477763Y-128587190D01*
X166300000Y-128561928D01*
X166205106Y-128561928D01*
X166189067Y-128530985D01*
X166186566Y-128527853D01*
X166184686Y-128524316D01*
X166140217Y-128469791D01*
X166096286Y-128414760D01*
X166090784Y-128409181D01*
X166090693Y-128409069D01*
X166090589Y-128408983D01*
X166088815Y-128407184D01*
X163492815Y-125811185D01*
X163438401Y-125766488D01*
X163384505Y-125721264D01*
X163380997Y-125719336D01*
X163377897Y-125716789D01*
X163315831Y-125683510D01*
X163254184Y-125649619D01*
X163250364Y-125648407D01*
X163246833Y-125646514D01*
X163179536Y-125625939D01*
X163112429Y-125604652D01*
X163108446Y-125604205D01*
X163104615Y-125603034D01*
X163034627Y-125595925D01*
X162964639Y-125588074D01*
X162956803Y-125588019D01*
X162956660Y-125588005D01*
X162956527Y-125588018D01*
X162954000Y-125588000D01*
X162750954Y-125588000D01*
X162678100Y-125477441D01*
X162541450Y-125360975D01*
X162377763Y-125287190D01*
X162200000Y-125261928D01*
X160700000Y-125261928D01*
X160598879Y-125269992D01*
X160427366Y-125323106D01*
X160277441Y-125421900D01*
X160160975Y-125558550D01*
X160087190Y-125722237D01*
X160061928Y-125900000D01*
X160061928Y-126800000D01*
X160069992Y-126901121D01*
X160123106Y-127072634D01*
X160221900Y-127222559D01*
X160358550Y-127339025D01*
X160522237Y-127412810D01*
X160700000Y-127438072D01*
X162200000Y-127438072D01*
X162301121Y-127430008D01*
X162472634Y-127376894D01*
X162622559Y-127278100D01*
X162706261Y-127179892D01*
X164318005Y-128791636D01*
X164265727Y-128852974D01*
X164216450Y-128810975D01*
X164052763Y-128737190D01*
X163875000Y-128711928D01*
X163125000Y-128711928D01*
X163023879Y-128719992D01*
X162852366Y-128773106D01*
X162728869Y-128854485D01*
X162678100Y-128777441D01*
X162541450Y-128660975D01*
X162377763Y-128587190D01*
X162200000Y-128561928D01*
X161139559Y-128561928D01*
X160038815Y-127461185D01*
X159984401Y-127416488D01*
X159930505Y-127371264D01*
X159926997Y-127369336D01*
X159923897Y-127366789D01*
X159861831Y-127333510D01*
X159800184Y-127299619D01*
X159796364Y-127298407D01*
X159792833Y-127296514D01*
X159725536Y-127275939D01*
X159658429Y-127254652D01*
X159654446Y-127254205D01*
X159650615Y-127253034D01*
X159634858Y-127251433D01*
X159626353Y-127242869D01*
X159467364Y-127135629D01*
X159290572Y-127061313D01*
X159102713Y-127022751D01*
X158910942Y-127021412D01*
X158722562Y-127057347D01*
X158544750Y-127129188D01*
X158384279Y-127234198D01*
X158247260Y-127368376D01*
X158138913Y-127526613D01*
X158063364Y-127702882D01*
X158023492Y-127890467D01*
X158020814Y-128082225D01*
X156763856Y-128082225D01*
X154492815Y-125811185D01*
X154438401Y-125766488D01*
X154384505Y-125721264D01*
X154380997Y-125719336D01*
X154377897Y-125716789D01*
X154315831Y-125683510D01*
X154254184Y-125649619D01*
X154250364Y-125648407D01*
X154246833Y-125646514D01*
X154179536Y-125625939D01*
X154112429Y-125604652D01*
X154108446Y-125604205D01*
X154104615Y-125603034D01*
X154034627Y-125595925D01*
X153964639Y-125588074D01*
X153956803Y-125588019D01*
X153956660Y-125588005D01*
X153956527Y-125588018D01*
X153954000Y-125588000D01*
X153750954Y-125588000D01*
X153678100Y-125477441D01*
X153541450Y-125360975D01*
X153377763Y-125287190D01*
X153200000Y-125261928D01*
X151700000Y-125261928D01*
X151598879Y-125269992D01*
X151427366Y-125323106D01*
X151277441Y-125421900D01*
X151160975Y-125558550D01*
X151087190Y-125722237D01*
X151061928Y-125900000D01*
X151061928Y-126800000D01*
X151069992Y-126901121D01*
X151123106Y-127072634D01*
X151221900Y-127222559D01*
X151358550Y-127339025D01*
X151522237Y-127412810D01*
X151700000Y-127438072D01*
X153200000Y-127438072D01*
X153301121Y-127430008D01*
X153472634Y-127376894D01*
X153622559Y-127278100D01*
X153706261Y-127179892D01*
X155318005Y-128791636D01*
X155265727Y-128852974D01*
X155216450Y-128810975D01*
X155052763Y-128737190D01*
X154875000Y-128711928D01*
X154125000Y-128711928D01*
X154023879Y-128719992D01*
X153852366Y-128773106D01*
X153728869Y-128854485D01*
X153678100Y-128777441D01*
X153541450Y-128660975D01*
X153377763Y-128587190D01*
X153200000Y-128561928D01*
X152139559Y-128561928D01*
X151038815Y-127461185D01*
X150984401Y-127416488D01*
X150930505Y-127371264D01*
X150926997Y-127369336D01*
X150923897Y-127366789D01*
X150861831Y-127333510D01*
X150800184Y-127299619D01*
X150796364Y-127298407D01*
X150792833Y-127296514D01*
X150725536Y-127275939D01*
X150658429Y-127254652D01*
X150654446Y-127254205D01*
X150650615Y-127253034D01*
X150634858Y-127251433D01*
X150626353Y-127242869D01*
X150467364Y-127135629D01*
X150290572Y-127061313D01*
X150102713Y-127022751D01*
X149910942Y-127021412D01*
X149722562Y-127057347D01*
X149544750Y-127129188D01*
X149384279Y-127234198D01*
X149247260Y-127368376D01*
X149138913Y-127526613D01*
X149063364Y-127702882D01*
X149023492Y-127890467D01*
X149020814Y-128082225D01*
X148475455Y-128082225D01*
X148477942Y-127904112D01*
X148440693Y-127715988D01*
X148367613Y-127538682D01*
X148261485Y-127378948D01*
X148126353Y-127242869D01*
X147967364Y-127135629D01*
X147790572Y-127061313D01*
X147602713Y-127022751D01*
X147410942Y-127021412D01*
X147222562Y-127057347D01*
X147044750Y-127129188D01*
X146884279Y-127234198D01*
X146747260Y-127368376D01*
X146638913Y-127526613D01*
X146563364Y-127702882D01*
X146523492Y-127890467D01*
X146520814Y-128082225D01*
X146555433Y-128270850D01*
X146626031Y-128449159D01*
X146703657Y-128569611D01*
X146698879Y-128569992D01*
X146527366Y-128623106D01*
X146377441Y-128721900D01*
X146260975Y-128858550D01*
X146187190Y-129022237D01*
X146161928Y-129200000D01*
X144210000Y-129200000D01*
X144210000Y-124855838D01*
X144249251Y-124877416D01*
X144528036Y-124965852D01*
X144818688Y-124998454D01*
X144839612Y-124998600D01*
X145160388Y-124998600D01*
X145451468Y-124970059D01*
X145731460Y-124885525D01*
X145989701Y-124748216D01*
X146216353Y-124563363D01*
X146402784Y-124338006D01*
X146541892Y-124080731D01*
X146628379Y-123801335D01*
X146658951Y-123510462D01*
X146632444Y-123219190D01*
X146549866Y-122938615D01*
X146414363Y-122679422D01*
X146231097Y-122451485D01*
X146202220Y-122427255D01*
X146288634Y-122400494D01*
X146438559Y-122301700D01*
X146555025Y-122165050D01*
X146628810Y-122001363D01*
X146654072Y-121823600D01*
X146654072Y-121717334D01*
X146800000Y-121738072D01*
X148300000Y-121738072D01*
X148401121Y-121730008D01*
X148572634Y-121676894D01*
X148722559Y-121578100D01*
X148839025Y-121441450D01*
X148912810Y-121277763D01*
X148938072Y-121100000D01*
X148938072Y-120200000D01*
X148930008Y-120098879D01*
X148876894Y-119927366D01*
X148778100Y-119777441D01*
X148641450Y-119660975D01*
X148477763Y-119587190D01*
X148300000Y-119561928D01*
X148205106Y-119561928D01*
X148189067Y-119530986D01*
X148186568Y-119527856D01*
X148184686Y-119524316D01*
X148140199Y-119469769D01*
X148096286Y-119414760D01*
X148090788Y-119409185D01*
X148090693Y-119409069D01*
X148090585Y-119408980D01*
X148088815Y-119407185D01*
X147763855Y-119082225D01*
X149020814Y-119082225D01*
X149055433Y-119270850D01*
X149126031Y-119449159D01*
X149229918Y-119610360D01*
X149363137Y-119748312D01*
X149520613Y-119857761D01*
X149696350Y-119934539D01*
X149883652Y-119975720D01*
X150075387Y-119979736D01*
X150264249Y-119946434D01*
X150339584Y-119917214D01*
X151061928Y-120639559D01*
X151061928Y-121100000D01*
X151069992Y-121201121D01*
X151123106Y-121372634D01*
X151221900Y-121522559D01*
X151358550Y-121639025D01*
X151522237Y-121712810D01*
X151700000Y-121738072D01*
X153200000Y-121738072D01*
X153301121Y-121730008D01*
X153472634Y-121676894D01*
X153622559Y-121578100D01*
X153638346Y-121559577D01*
X153646900Y-121572559D01*
X153783550Y-121689025D01*
X153947237Y-121762810D01*
X154125000Y-121788072D01*
X154875000Y-121788072D01*
X154976121Y-121780008D01*
X155147634Y-121726894D01*
X155297559Y-121628100D01*
X155359904Y-121554950D01*
X155458550Y-121639025D01*
X155622237Y-121712810D01*
X155800000Y-121738072D01*
X157300000Y-121738072D01*
X157401121Y-121730008D01*
X157572634Y-121676894D01*
X157722559Y-121578100D01*
X157839025Y-121441450D01*
X157912810Y-121277763D01*
X157938072Y-121100000D01*
X157938072Y-120200000D01*
X157930008Y-120098879D01*
X157876894Y-119927366D01*
X157778100Y-119777441D01*
X157641450Y-119660975D01*
X157477763Y-119587190D01*
X157300000Y-119561928D01*
X157205106Y-119561928D01*
X157189067Y-119530985D01*
X157186566Y-119527853D01*
X157184686Y-119524316D01*
X157140217Y-119469791D01*
X157096286Y-119414760D01*
X157090784Y-119409181D01*
X157090693Y-119409069D01*
X157090589Y-119408983D01*
X157088815Y-119407184D01*
X156763856Y-119082225D01*
X158020814Y-119082225D01*
X158055433Y-119270850D01*
X158126031Y-119449159D01*
X158229918Y-119610360D01*
X158363137Y-119748312D01*
X158520613Y-119857761D01*
X158696350Y-119934539D01*
X158883652Y-119975720D01*
X159075387Y-119979736D01*
X159264249Y-119946434D01*
X159339584Y-119917214D01*
X160061928Y-120639559D01*
X160061928Y-121100000D01*
X160069992Y-121201121D01*
X160123106Y-121372634D01*
X160221900Y-121522559D01*
X160358550Y-121639025D01*
X160522237Y-121712810D01*
X160700000Y-121738072D01*
X162200000Y-121738072D01*
X162301121Y-121730008D01*
X162472634Y-121676894D01*
X162622559Y-121578100D01*
X162638346Y-121559577D01*
X162646900Y-121572559D01*
X162783550Y-121689025D01*
X162947237Y-121762810D01*
X163125000Y-121788072D01*
X163875000Y-121788072D01*
X163976121Y-121780008D01*
X164147634Y-121726894D01*
X164297559Y-121628100D01*
X164359904Y-121554950D01*
X164458550Y-121639025D01*
X164622237Y-121712810D01*
X164800000Y-121738072D01*
X166300000Y-121738072D01*
X166401121Y-121730008D01*
X166572634Y-121676894D01*
X166722559Y-121578100D01*
X166839025Y-121441450D01*
X166912810Y-121277763D01*
X166938072Y-121100000D01*
X166938072Y-120200000D01*
X166930008Y-120098879D01*
X166876894Y-119927366D01*
X166778100Y-119777441D01*
X166641450Y-119660975D01*
X166477763Y-119587190D01*
X166300000Y-119561928D01*
X166205106Y-119561928D01*
X166189067Y-119530985D01*
X166186566Y-119527853D01*
X166184686Y-119524316D01*
X166140217Y-119469791D01*
X166096286Y-119414760D01*
X166090784Y-119409181D01*
X166090693Y-119409069D01*
X166090589Y-119408983D01*
X166088815Y-119407184D01*
X163492815Y-116811185D01*
X163438401Y-116766488D01*
X163384505Y-116721264D01*
X163380997Y-116719336D01*
X163377897Y-116716789D01*
X163315831Y-116683510D01*
X163254184Y-116649619D01*
X163250364Y-116648407D01*
X163246833Y-116646514D01*
X163179536Y-116625939D01*
X163112429Y-116604652D01*
X163108446Y-116604205D01*
X163104615Y-116603034D01*
X163034627Y-116595925D01*
X162964639Y-116588074D01*
X162956803Y-116588019D01*
X162956660Y-116588005D01*
X162956527Y-116588018D01*
X162954000Y-116588000D01*
X162750954Y-116588000D01*
X162678100Y-116477441D01*
X162541450Y-116360975D01*
X162377763Y-116287190D01*
X162200000Y-116261928D01*
X160700000Y-116261928D01*
X160598879Y-116269992D01*
X160427366Y-116323106D01*
X160277441Y-116421900D01*
X160160975Y-116558550D01*
X160087190Y-116722237D01*
X160061928Y-116900000D01*
X160061928Y-117800000D01*
X160069992Y-117901121D01*
X160123106Y-118072634D01*
X160221900Y-118222559D01*
X160358550Y-118339025D01*
X160522237Y-118412810D01*
X160700000Y-118438072D01*
X162200000Y-118438072D01*
X162301121Y-118430008D01*
X162472634Y-118376894D01*
X162622559Y-118278100D01*
X162706261Y-118179892D01*
X164318005Y-119791636D01*
X164265727Y-119852974D01*
X164216450Y-119810975D01*
X164052763Y-119737190D01*
X163875000Y-119711928D01*
X163125000Y-119711928D01*
X163023879Y-119719992D01*
X162852366Y-119773106D01*
X162728869Y-119854485D01*
X162678100Y-119777441D01*
X162541450Y-119660975D01*
X162377763Y-119587190D01*
X162200000Y-119561928D01*
X161139559Y-119561928D01*
X160038815Y-118461185D01*
X159984401Y-118416488D01*
X159930505Y-118371264D01*
X159926997Y-118369336D01*
X159923897Y-118366789D01*
X159861831Y-118333510D01*
X159800184Y-118299619D01*
X159796364Y-118298407D01*
X159792833Y-118296514D01*
X159725536Y-118275939D01*
X159658429Y-118254652D01*
X159654446Y-118254205D01*
X159650615Y-118253034D01*
X159634858Y-118251433D01*
X159626353Y-118242869D01*
X159467364Y-118135629D01*
X159290572Y-118061313D01*
X159102713Y-118022751D01*
X158910942Y-118021412D01*
X158722562Y-118057347D01*
X158544750Y-118129188D01*
X158384279Y-118234198D01*
X158247260Y-118368376D01*
X158138913Y-118526613D01*
X158063364Y-118702882D01*
X158023492Y-118890467D01*
X158020814Y-119082225D01*
X156763856Y-119082225D01*
X154492815Y-116811185D01*
X154438401Y-116766488D01*
X154384505Y-116721264D01*
X154380997Y-116719336D01*
X154377897Y-116716789D01*
X154315831Y-116683510D01*
X154254184Y-116649619D01*
X154250364Y-116648407D01*
X154246833Y-116646514D01*
X154179536Y-116625939D01*
X154112429Y-116604652D01*
X154108446Y-116604205D01*
X154104615Y-116603034D01*
X154034627Y-116595925D01*
X153964639Y-116588074D01*
X153956803Y-116588019D01*
X153956660Y-116588005D01*
X153956527Y-116588018D01*
X153954000Y-116588000D01*
X153750954Y-116588000D01*
X153678100Y-116477441D01*
X153541450Y-116360975D01*
X153377763Y-116287190D01*
X153200000Y-116261928D01*
X151700000Y-116261928D01*
X151598879Y-116269992D01*
X151427366Y-116323106D01*
X151277441Y-116421900D01*
X151160975Y-116558550D01*
X151087190Y-116722237D01*
X151061928Y-116900000D01*
X151061928Y-117800000D01*
X151069992Y-117901121D01*
X151123106Y-118072634D01*
X151221900Y-118222559D01*
X151358550Y-118339025D01*
X151522237Y-118412810D01*
X151700000Y-118438072D01*
X153200000Y-118438072D01*
X153301121Y-118430008D01*
X153472634Y-118376894D01*
X153622559Y-118278100D01*
X153706261Y-118179892D01*
X155318005Y-119791636D01*
X155265727Y-119852974D01*
X155216450Y-119810975D01*
X155052763Y-119737190D01*
X154875000Y-119711928D01*
X154125000Y-119711928D01*
X154023879Y-119719992D01*
X153852366Y-119773106D01*
X153728869Y-119854485D01*
X153678100Y-119777441D01*
X153541450Y-119660975D01*
X153377763Y-119587190D01*
X153200000Y-119561928D01*
X152139559Y-119561928D01*
X151038815Y-118461185D01*
X150984401Y-118416488D01*
X150930505Y-118371264D01*
X150926997Y-118369336D01*
X150923897Y-118366789D01*
X150861831Y-118333510D01*
X150800184Y-118299619D01*
X150796364Y-118298407D01*
X150792833Y-118296514D01*
X150725536Y-118275939D01*
X150658429Y-118254652D01*
X150654446Y-118254205D01*
X150650615Y-118253034D01*
X150634858Y-118251433D01*
X150626353Y-118242869D01*
X150467364Y-118135629D01*
X150290572Y-118061313D01*
X150102713Y-118022751D01*
X149910942Y-118021412D01*
X149722562Y-118057347D01*
X149544750Y-118129188D01*
X149384279Y-118234198D01*
X149247260Y-118368376D01*
X149138913Y-118526613D01*
X149063364Y-118702882D01*
X149023492Y-118890467D01*
X149020814Y-119082225D01*
X147763855Y-119082225D01*
X146762000Y-118080370D01*
X146762000Y-117315630D01*
X148815630Y-115262000D01*
X155382831Y-115262000D01*
X155520613Y-115357761D01*
X155696350Y-115434539D01*
X155883652Y-115475720D01*
X156075387Y-115479736D01*
X156264249Y-115446434D01*
X156443047Y-115377083D01*
X156604969Y-115274325D01*
X156743848Y-115142072D01*
X156854394Y-114985363D01*
X156932396Y-114810167D01*
X156974884Y-114623156D01*
X156977942Y-114404112D01*
X156940693Y-114215988D01*
X156867613Y-114038682D01*
X156761485Y-113878948D01*
X156626353Y-113742869D01*
X156467364Y-113635629D01*
X156290572Y-113561313D01*
X156102713Y-113522751D01*
X155910942Y-113521412D01*
X155722562Y-113557347D01*
X155544750Y-113629188D01*
X155384279Y-113734198D01*
X155380396Y-113738000D01*
X148500000Y-113738000D01*
X148429936Y-113744870D01*
X148359830Y-113751003D01*
X148355982Y-113752121D01*
X148351993Y-113752512D01*
X148284582Y-113772865D01*
X148217018Y-113792494D01*
X148213462Y-113794337D01*
X148209624Y-113795496D01*
X148147447Y-113828556D01*
X148084986Y-113860933D01*
X148081856Y-113863432D01*
X148078316Y-113865314D01*
X148023769Y-113909801D01*
X147968760Y-113953714D01*
X147963185Y-113959212D01*
X147963069Y-113959307D01*
X147962980Y-113959415D01*
X147961185Y-113961185D01*
X145461185Y-116461185D01*
X145416488Y-116515599D01*
X145371264Y-116569495D01*
X145369336Y-116573003D01*
X145366789Y-116576103D01*
X145333510Y-116638169D01*
X145299619Y-116699816D01*
X145298407Y-116703636D01*
X145296514Y-116707167D01*
X145275939Y-116774464D01*
X145254652Y-116841571D01*
X145254205Y-116845554D01*
X145253034Y-116849385D01*
X145245925Y-116919373D01*
X145238074Y-116989361D01*
X145238019Y-116997197D01*
X145238005Y-116997340D01*
X145238018Y-116997473D01*
X145238000Y-117000000D01*
X145238000Y-118396000D01*
X145244875Y-118466114D01*
X145251004Y-118536170D01*
X145252120Y-118540013D01*
X145252512Y-118544007D01*
X145272877Y-118611460D01*
X145292494Y-118678982D01*
X145294337Y-118682538D01*
X145295496Y-118686376D01*
X145328556Y-118748553D01*
X145360933Y-118811014D01*
X145363432Y-118814144D01*
X145365314Y-118817684D01*
X145409801Y-118872231D01*
X145453714Y-118927240D01*
X145459212Y-118932815D01*
X145459307Y-118932931D01*
X145459415Y-118933020D01*
X145461185Y-118934815D01*
X145984698Y-119458328D01*
X144210000Y-119458328D01*
X144210000Y-108534720D01*
X144295041Y-107667399D01*
X144536846Y-106866506D01*
X144929604Y-106127835D01*
X145458357Y-105479518D01*
X146102963Y-104946253D01*
X146838878Y-104548346D01*
X147638060Y-104300958D01*
X148503469Y-104210000D01*
X162184162Y-104210000D01*
X162162584Y-104249251D01*
X162162584Y-104249251D01*
G37*
X162162584Y-104249251D02*
X162074148Y-104528036D01*
X162041546Y-104818688D01*
X162041400Y-104839612D01*
X162041400Y-105160388D01*
X162069941Y-105451468D01*
X162154475Y-105731460D01*
X162291784Y-105989701D01*
X162476637Y-106216353D01*
X162498188Y-106234182D01*
X162494370Y-106238000D01*
X148119134Y-106238000D01*
X147967364Y-106135629D01*
X147790572Y-106061313D01*
X147602713Y-106022751D01*
X147410942Y-106021412D01*
X147222562Y-106057347D01*
X147044750Y-106129188D01*
X146884279Y-106234198D01*
X146880396Y-106238000D01*
X146500000Y-106238000D01*
X146429936Y-106244870D01*
X146359830Y-106251003D01*
X146355982Y-106252121D01*
X146351993Y-106252512D01*
X146284582Y-106272865D01*
X146217018Y-106292494D01*
X146213462Y-106294337D01*
X146209624Y-106295496D01*
X146147447Y-106328556D01*
X146084986Y-106360933D01*
X146081856Y-106363432D01*
X146078316Y-106365314D01*
X146023769Y-106409801D01*
X145968760Y-106453714D01*
X145963181Y-106459216D01*
X145963069Y-106459307D01*
X145962983Y-106459411D01*
X145961185Y-106461184D01*
X145461185Y-106961185D01*
X145416488Y-107015599D01*
X145371264Y-107069495D01*
X145369336Y-107073003D01*
X145366789Y-107076103D01*
X145333510Y-107138169D01*
X145299619Y-107199816D01*
X145298407Y-107203636D01*
X145296514Y-107207167D01*
X145275939Y-107274464D01*
X145254652Y-107341571D01*
X145254205Y-107345554D01*
X145253034Y-107349385D01*
X145245925Y-107419373D01*
X145238074Y-107489361D01*
X145238019Y-107497197D01*
X145238005Y-107497340D01*
X145238018Y-107497473D01*
X145238000Y-107500000D01*
X145238000Y-109396000D01*
X145244875Y-109466114D01*
X145251004Y-109536170D01*
X145252120Y-109540013D01*
X145252512Y-109544007D01*
X145272877Y-109611460D01*
X145292494Y-109678982D01*
X145294337Y-109682538D01*
X145295496Y-109686376D01*
X145328556Y-109748553D01*
X145360933Y-109811014D01*
X145363432Y-109814144D01*
X145365314Y-109817684D01*
X145409801Y-109872231D01*
X145453714Y-109927240D01*
X145459212Y-109932815D01*
X145459307Y-109932931D01*
X145459415Y-109933020D01*
X145461185Y-109934815D01*
X146318006Y-110791636D01*
X146260975Y-110858550D01*
X146187190Y-111022237D01*
X146161928Y-111200000D01*
X146161928Y-112100000D01*
X146169992Y-112201121D01*
X146223106Y-112372634D01*
X146321900Y-112522559D01*
X146458550Y-112639025D01*
X146622237Y-112712810D01*
X146800000Y-112738072D01*
X148300000Y-112738072D01*
X148401121Y-112730008D01*
X148572634Y-112676894D01*
X148722559Y-112578100D01*
X148839025Y-112441450D01*
X148912810Y-112277763D01*
X148938072Y-112100000D01*
X148938072Y-111200000D01*
X148930008Y-111098879D01*
X148876894Y-110927366D01*
X148778100Y-110777441D01*
X148641450Y-110660975D01*
X148477763Y-110587190D01*
X148300000Y-110561928D01*
X148205106Y-110561928D01*
X148189067Y-110530986D01*
X148186568Y-110527856D01*
X148184686Y-110524316D01*
X148140199Y-110469769D01*
X148096286Y-110414760D01*
X148090788Y-110409185D01*
X148090693Y-110409069D01*
X148090585Y-110408980D01*
X148088815Y-110407185D01*
X146762000Y-109080370D01*
X146762000Y-107815630D01*
X146815631Y-107762000D01*
X146882831Y-107762000D01*
X147020613Y-107857761D01*
X147196350Y-107934539D01*
X147383652Y-107975720D01*
X147575387Y-107979736D01*
X147764249Y-107946434D01*
X147943047Y-107877083D01*
X148104969Y-107774325D01*
X148117911Y-107762000D01*
X151081539Y-107762000D01*
X151061928Y-107900000D01*
X151061928Y-108800000D01*
X151069992Y-108901121D01*
X151123106Y-109072634D01*
X151221900Y-109222559D01*
X151358550Y-109339025D01*
X151522237Y-109412810D01*
X151700000Y-109438072D01*
X153200000Y-109438072D01*
X153301121Y-109430008D01*
X153472634Y-109376894D01*
X153622559Y-109278100D01*
X153706261Y-109179892D01*
X155318005Y-110791636D01*
X155265727Y-110852974D01*
X155216450Y-110810975D01*
X155052763Y-110737190D01*
X154875000Y-110711928D01*
X154125000Y-110711928D01*
X154023879Y-110719992D01*
X153852366Y-110773106D01*
X153728869Y-110854485D01*
X153678100Y-110777441D01*
X153541450Y-110660975D01*
X153377763Y-110587190D01*
X153200000Y-110561928D01*
X152139559Y-110561928D01*
X151038815Y-109461185D01*
X150984401Y-109416488D01*
X150930505Y-109371264D01*
X150926997Y-109369336D01*
X150923897Y-109366789D01*
X150861831Y-109333510D01*
X150800184Y-109299619D01*
X150796364Y-109298407D01*
X150792833Y-109296514D01*
X150725536Y-109275939D01*
X150658429Y-109254652D01*
X150654446Y-109254205D01*
X150650615Y-109253034D01*
X150634858Y-109251433D01*
X150626353Y-109242869D01*
X150467364Y-109135629D01*
X150290572Y-109061313D01*
X150102713Y-109022751D01*
X149910942Y-109021412D01*
X149722562Y-109057347D01*
X149544750Y-109129188D01*
X149384279Y-109234198D01*
X149247260Y-109368376D01*
X149138913Y-109526613D01*
X149063364Y-109702882D01*
X149023492Y-109890467D01*
X149020814Y-110082225D01*
X149055433Y-110270850D01*
X149126031Y-110449159D01*
X149229918Y-110610360D01*
X149363137Y-110748312D01*
X149520613Y-110857761D01*
X149696350Y-110934539D01*
X149883652Y-110975720D01*
X150075387Y-110979736D01*
X150264249Y-110946434D01*
X150339584Y-110917214D01*
X151061928Y-111639559D01*
X151061928Y-112100000D01*
X151069992Y-112201121D01*
X151123106Y-112372634D01*
X151221900Y-112522559D01*
X151358550Y-112639025D01*
X151522237Y-112712810D01*
X151700000Y-112738072D01*
X153200000Y-112738072D01*
X153301121Y-112730008D01*
X153472634Y-112676894D01*
X153622559Y-112578100D01*
X153638346Y-112559577D01*
X153646900Y-112572559D01*
X153783550Y-112689025D01*
X153947237Y-112762810D01*
X154125000Y-112788072D01*
X154875000Y-112788072D01*
X154976121Y-112780008D01*
X155147634Y-112726894D01*
X155297559Y-112628100D01*
X155359904Y-112554950D01*
X155458550Y-112639025D01*
X155622237Y-112712810D01*
X155800000Y-112738072D01*
X157300000Y-112738072D01*
X157401121Y-112730008D01*
X157572634Y-112676894D01*
X157722559Y-112578100D01*
X157839025Y-112441450D01*
X157912810Y-112277763D01*
X157938072Y-112100000D01*
X157938072Y-111200000D01*
X157930008Y-111098879D01*
X157876894Y-110927366D01*
X157778100Y-110777441D01*
X157641450Y-110660975D01*
X157477763Y-110587190D01*
X157300000Y-110561928D01*
X157205106Y-110561928D01*
X157189067Y-110530985D01*
X157186566Y-110527853D01*
X157184686Y-110524316D01*
X157140217Y-110469791D01*
X157096286Y-110414760D01*
X157090784Y-110409181D01*
X157090693Y-110409069D01*
X157090589Y-110408983D01*
X157088815Y-110407184D01*
X154492815Y-107811185D01*
X154438401Y-107766488D01*
X154433052Y-107762000D01*
X160081539Y-107762000D01*
X160061928Y-107900000D01*
X160061928Y-108800000D01*
X160069992Y-108901121D01*
X160123106Y-109072634D01*
X160221900Y-109222559D01*
X160358550Y-109339025D01*
X160522237Y-109412810D01*
X160700000Y-109438072D01*
X162200000Y-109438072D01*
X162301121Y-109430008D01*
X162472634Y-109376894D01*
X162622559Y-109278100D01*
X162706261Y-109179892D01*
X164318005Y-110791636D01*
X164265727Y-110852974D01*
X164216450Y-110810975D01*
X164052763Y-110737190D01*
X163875000Y-110711928D01*
X163125000Y-110711928D01*
X163023879Y-110719992D01*
X162852366Y-110773106D01*
X162728869Y-110854485D01*
X162678100Y-110777441D01*
X162541450Y-110660975D01*
X162377763Y-110587190D01*
X162200000Y-110561928D01*
X161139559Y-110561928D01*
X160038815Y-109461185D01*
X159984401Y-109416488D01*
X159930505Y-109371264D01*
X159926997Y-109369336D01*
X159923897Y-109366789D01*
X159861831Y-109333510D01*
X159800184Y-109299619D01*
X159796364Y-109298407D01*
X159792833Y-109296514D01*
X159725536Y-109275939D01*
X159658429Y-109254652D01*
X159654446Y-109254205D01*
X159650615Y-109253034D01*
X159634858Y-109251433D01*
X159626353Y-109242869D01*
X159467364Y-109135629D01*
X159290572Y-109061313D01*
X159102713Y-109022751D01*
X158910942Y-109021412D01*
X158722562Y-109057347D01*
X158544750Y-109129188D01*
X158384279Y-109234198D01*
X158247260Y-109368376D01*
X158138913Y-109526613D01*
X158063364Y-109702882D01*
X158023492Y-109890467D01*
X158020814Y-110082225D01*
X158055433Y-110270850D01*
X158126031Y-110449159D01*
X158229918Y-110610360D01*
X158363137Y-110748312D01*
X158520613Y-110857761D01*
X158696350Y-110934539D01*
X158883652Y-110975720D01*
X159075387Y-110979736D01*
X159264249Y-110946434D01*
X159339584Y-110917214D01*
X160061928Y-111639559D01*
X160061928Y-112100000D01*
X160069992Y-112201121D01*
X160123106Y-112372634D01*
X160221900Y-112522559D01*
X160358550Y-112639025D01*
X160522237Y-112712810D01*
X160700000Y-112738072D01*
X162200000Y-112738072D01*
X162301121Y-112730008D01*
X162472634Y-112676894D01*
X162622559Y-112578100D01*
X162638346Y-112559577D01*
X162646900Y-112572559D01*
X162783550Y-112689025D01*
X162947237Y-112762810D01*
X163125000Y-112788072D01*
X163875000Y-112788072D01*
X163976121Y-112780008D01*
X164147634Y-112726894D01*
X164297559Y-112628100D01*
X164359904Y-112554950D01*
X164458550Y-112639025D01*
X164622237Y-112712810D01*
X164800000Y-112738072D01*
X166300000Y-112738072D01*
X166401121Y-112730008D01*
X166572634Y-112676894D01*
X166722559Y-112578100D01*
X166839025Y-112441450D01*
X166912810Y-112277763D01*
X166938072Y-112100000D01*
X166938072Y-111200000D01*
X166930008Y-111098879D01*
X166876894Y-110927366D01*
X166778100Y-110777441D01*
X166641450Y-110660975D01*
X166477763Y-110587190D01*
X166300000Y-110561928D01*
X166205106Y-110561928D01*
X166189067Y-110530985D01*
X166186566Y-110527853D01*
X166184686Y-110524316D01*
X166140217Y-110469791D01*
X166096286Y-110414760D01*
X166090784Y-110409181D01*
X166090693Y-110409069D01*
X166090589Y-110408983D01*
X166088815Y-110407184D01*
X165763856Y-110082225D01*
X167020814Y-110082225D01*
X167055433Y-110270850D01*
X167126031Y-110449159D01*
X167229918Y-110610360D01*
X167363137Y-110748312D01*
X167520613Y-110857761D01*
X167696350Y-110934539D01*
X167883652Y-110975720D01*
X168075387Y-110979736D01*
X168264249Y-110946434D01*
X168339584Y-110917214D01*
X169061928Y-111639559D01*
X169061928Y-112100000D01*
X169069992Y-112201121D01*
X169123106Y-112372634D01*
X169221900Y-112522559D01*
X169358550Y-112639025D01*
X169522237Y-112712810D01*
X169700000Y-112738072D01*
X171200000Y-112738072D01*
X171301121Y-112730008D01*
X171472634Y-112676894D01*
X171622559Y-112578100D01*
X171638346Y-112559577D01*
X171646900Y-112572559D01*
X171783550Y-112689025D01*
X171947237Y-112762810D01*
X172125000Y-112788072D01*
X172875000Y-112788072D01*
X172976121Y-112780008D01*
X173147634Y-112726894D01*
X173297559Y-112628100D01*
X173359904Y-112554950D01*
X173458550Y-112639025D01*
X173622237Y-112712810D01*
X173800000Y-112738072D01*
X174688298Y-112738072D01*
X173903547Y-113522823D01*
X173722562Y-113557347D01*
X173544750Y-113629188D01*
X173384279Y-113734198D01*
X173247260Y-113868376D01*
X173138913Y-114026613D01*
X173063364Y-114202882D01*
X173023492Y-114390467D01*
X173020814Y-114582225D01*
X173055433Y-114770850D01*
X173126031Y-114949159D01*
X173229918Y-115110360D01*
X173363137Y-115248312D01*
X173520613Y-115357761D01*
X173696350Y-115434539D01*
X173883652Y-115475720D01*
X174075387Y-115479736D01*
X174264249Y-115446434D01*
X174443047Y-115377083D01*
X174604969Y-115274325D01*
X174743848Y-115142072D01*
X174854394Y-114985363D01*
X174932396Y-114810167D01*
X174974884Y-114623156D01*
X174975116Y-114606514D01*
X176916513Y-112665117D01*
X176961210Y-112610703D01*
X177006434Y-112556807D01*
X177008362Y-112553299D01*
X177010909Y-112550199D01*
X177044188Y-112488133D01*
X177078079Y-112426486D01*
X177079291Y-112422666D01*
X177081184Y-112419135D01*
X177101759Y-112351838D01*
X177123046Y-112284731D01*
X177123493Y-112280748D01*
X177124664Y-112276917D01*
X177131773Y-112206929D01*
X177139624Y-112136941D01*
X177139679Y-112129105D01*
X177139693Y-112128962D01*
X177139680Y-112128829D01*
X177139698Y-112126302D01*
X177139698Y-110968396D01*
X177264249Y-110946434D01*
X177339584Y-110917214D01*
X178061928Y-111639559D01*
X178061928Y-112100000D01*
X178069992Y-112201121D01*
X178123106Y-112372634D01*
X178221900Y-112522559D01*
X178358550Y-112639025D01*
X178413169Y-112663646D01*
X178310975Y-112783550D01*
X178237190Y-112947237D01*
X178211928Y-113125000D01*
X178211928Y-113875000D01*
X178219992Y-113976121D01*
X178273106Y-114147634D01*
X178371900Y-114297559D01*
X178508550Y-114414025D01*
X178672237Y-114487810D01*
X178850000Y-114513072D01*
X179650000Y-114513072D01*
X179751121Y-114505008D01*
X179922634Y-114451894D01*
X180072559Y-114353100D01*
X180189025Y-114216450D01*
X180262810Y-114052763D01*
X180288072Y-113875000D01*
X180288072Y-113125000D01*
X180280008Y-113023879D01*
X180226894Y-112852366D01*
X180212000Y-112829764D01*
X180212000Y-112737115D01*
X180301121Y-112730008D01*
X180472634Y-112676894D01*
X180622559Y-112578100D01*
X180739025Y-112441450D01*
X180812810Y-112277763D01*
X180838072Y-112100000D01*
X180838072Y-111200000D01*
X180830008Y-111098879D01*
X180776894Y-110927366D01*
X180678100Y-110777441D01*
X180541450Y-110660975D01*
X180377763Y-110587190D01*
X180200000Y-110561928D01*
X179139559Y-110561928D01*
X178038815Y-109461185D01*
X177984401Y-109416488D01*
X177930505Y-109371264D01*
X177926997Y-109369336D01*
X177923897Y-109366789D01*
X177861831Y-109333510D01*
X177836848Y-109319775D01*
X178044623Y-109112000D01*
X178149046Y-109112000D01*
X178221900Y-109222559D01*
X178358550Y-109339025D01*
X178522237Y-109412810D01*
X178700000Y-109438072D01*
X180200000Y-109438072D01*
X180301121Y-109430008D01*
X180472634Y-109376894D01*
X180622559Y-109278100D01*
X180739025Y-109141450D01*
X180812810Y-108977763D01*
X180838072Y-108800000D01*
X180838072Y-107900000D01*
X180830008Y-107798879D01*
X180776894Y-107627366D01*
X180678100Y-107477441D01*
X180541450Y-107360975D01*
X180377763Y-107287190D01*
X180200000Y-107261928D01*
X178700000Y-107261928D01*
X178598879Y-107269992D01*
X178427366Y-107323106D01*
X178277441Y-107421900D01*
X178160975Y-107558550D01*
X178147700Y-107588000D01*
X177728992Y-107588000D01*
X177658887Y-107594874D01*
X177588821Y-107601004D01*
X177584978Y-107602120D01*
X177580985Y-107602512D01*
X177513544Y-107622874D01*
X177446010Y-107642494D01*
X177442454Y-107644337D01*
X177438616Y-107645496D01*
X177376459Y-107678545D01*
X177313977Y-107710933D01*
X177310845Y-107713434D01*
X177307308Y-107715314D01*
X177252783Y-107759783D01*
X177197752Y-107803714D01*
X177192173Y-107809216D01*
X177192061Y-107809307D01*
X177191975Y-107809411D01*
X177190176Y-107811185D01*
X175838883Y-109162479D01*
X175794186Y-109216893D01*
X175748962Y-109270789D01*
X175747034Y-109274297D01*
X175744487Y-109277397D01*
X175711208Y-109339463D01*
X175677317Y-109401110D01*
X175676105Y-109404930D01*
X175674212Y-109408461D01*
X175653637Y-109475758D01*
X175632350Y-109542865D01*
X175631903Y-109546848D01*
X175630732Y-109550679D01*
X175623623Y-109620667D01*
X175615772Y-109690655D01*
X175615717Y-109698491D01*
X175615703Y-109698634D01*
X175615716Y-109698767D01*
X175615698Y-109701294D01*
X175615698Y-110649367D01*
X175477763Y-110587190D01*
X175300000Y-110561928D01*
X175205106Y-110561928D01*
X175189067Y-110530985D01*
X175186566Y-110527853D01*
X175184686Y-110524316D01*
X175140217Y-110469791D01*
X175096286Y-110414760D01*
X175090784Y-110409181D01*
X175090693Y-110409069D01*
X175090589Y-110408983D01*
X175088815Y-110407184D01*
X172492815Y-107811185D01*
X172438401Y-107766488D01*
X172384505Y-107721264D01*
X172380997Y-107719336D01*
X172377897Y-107716789D01*
X172315831Y-107683510D01*
X172254184Y-107649619D01*
X172250364Y-107648407D01*
X172246833Y-107646514D01*
X172179536Y-107625939D01*
X172112429Y-107604652D01*
X172108446Y-107604205D01*
X172104615Y-107603034D01*
X172034627Y-107595925D01*
X171964639Y-107588074D01*
X171956803Y-107588019D01*
X171956660Y-107588005D01*
X171956527Y-107588018D01*
X171954000Y-107588000D01*
X171750954Y-107588000D01*
X171678100Y-107477441D01*
X171541450Y-107360975D01*
X171377763Y-107287190D01*
X171200000Y-107261928D01*
X169700000Y-107261928D01*
X169598879Y-107269992D01*
X169427366Y-107323106D01*
X169277441Y-107421900D01*
X169160975Y-107558550D01*
X169087190Y-107722237D01*
X169061928Y-107900000D01*
X169061928Y-108800000D01*
X169069992Y-108901121D01*
X169123106Y-109072634D01*
X169221900Y-109222559D01*
X169358550Y-109339025D01*
X169522237Y-109412810D01*
X169700000Y-109438072D01*
X171200000Y-109438072D01*
X171301121Y-109430008D01*
X171472634Y-109376894D01*
X171622559Y-109278100D01*
X171706261Y-109179892D01*
X173318005Y-110791636D01*
X173265727Y-110852974D01*
X173216450Y-110810975D01*
X173052763Y-110737190D01*
X172875000Y-110711928D01*
X172125000Y-110711928D01*
X172023879Y-110719992D01*
X171852366Y-110773106D01*
X171728869Y-110854485D01*
X171678100Y-110777441D01*
X171541450Y-110660975D01*
X171377763Y-110587190D01*
X171200000Y-110561928D01*
X170139559Y-110561928D01*
X169038815Y-109461185D01*
X168984401Y-109416488D01*
X168930505Y-109371264D01*
X168926997Y-109369336D01*
X168923897Y-109366789D01*
X168861831Y-109333510D01*
X168800184Y-109299619D01*
X168796364Y-109298407D01*
X168792833Y-109296514D01*
X168725536Y-109275939D01*
X168658429Y-109254652D01*
X168654446Y-109254205D01*
X168650615Y-109253034D01*
X168634858Y-109251433D01*
X168626353Y-109242869D01*
X168467364Y-109135629D01*
X168290572Y-109061313D01*
X168102713Y-109022751D01*
X167910942Y-109021412D01*
X167722562Y-109057347D01*
X167544750Y-109129188D01*
X167384279Y-109234198D01*
X167247260Y-109368376D01*
X167138913Y-109526613D01*
X167063364Y-109702882D01*
X167023492Y-109890467D01*
X167020814Y-110082225D01*
X165763856Y-110082225D01*
X163492815Y-107811185D01*
X163438401Y-107766488D01*
X163384505Y-107721264D01*
X163380997Y-107719336D01*
X163377897Y-107716789D01*
X163315831Y-107683510D01*
X163254184Y-107649619D01*
X163250364Y-107648407D01*
X163246833Y-107646514D01*
X163224072Y-107639555D01*
X163225014Y-107639067D01*
X163228144Y-107636568D01*
X163231684Y-107634686D01*
X163286231Y-107590199D01*
X163341240Y-107546286D01*
X163346815Y-107540788D01*
X163346931Y-107540693D01*
X163347020Y-107540585D01*
X163348815Y-107538815D01*
X164078815Y-106808815D01*
X164123512Y-106754401D01*
X164168736Y-106700505D01*
X164170664Y-106696997D01*
X164173211Y-106693897D01*
X164206490Y-106631831D01*
X164240381Y-106570184D01*
X164241593Y-106566364D01*
X164243486Y-106562833D01*
X164264061Y-106495536D01*
X164275741Y-106458715D01*
X164360578Y-106414363D01*
X164588515Y-106231097D01*
X164612745Y-106202220D01*
X164639506Y-106288634D01*
X164738300Y-106438559D01*
X164874950Y-106555025D01*
X165038637Y-106628810D01*
X165216400Y-106654072D01*
X166943600Y-106654072D01*
X167044721Y-106646008D01*
X167216234Y-106592894D01*
X167366159Y-106494100D01*
X167482625Y-106357450D01*
X167556410Y-106193763D01*
X167581672Y-106016000D01*
X167581672Y-104210000D01*
X178465280Y-104210000D01*
X179332601Y-104295041D01*
X180133494Y-104536846D01*
X180872165Y-104929604D01*
X181520482Y-105458357D01*
X182053747Y-106102963D01*
X182451654Y-106838878D01*
X182699042Y-107638060D01*
X182790000Y-108503469D01*
X182790000Y-119418328D01*
X180984000Y-119418328D01*
X180882879Y-119426392D01*
X180711366Y-119479506D01*
X180561441Y-119578300D01*
X180504986Y-119644538D01*
X180377763Y-119587190D01*
X180200000Y-119561928D01*
X179139559Y-119561928D01*
X178038815Y-118461185D01*
X177984401Y-118416488D01*
X177930505Y-118371264D01*
X177926997Y-118369336D01*
X177923897Y-118366789D01*
X177861831Y-118333510D01*
X177836848Y-118319775D01*
X178044623Y-118112000D01*
X178149046Y-118112000D01*
X178221900Y-118222559D01*
X178358550Y-118339025D01*
X178522237Y-118412810D01*
X178700000Y-118438072D01*
X180200000Y-118438072D01*
X180301121Y-118430008D01*
X180472634Y-118376894D01*
X180622559Y-118278100D01*
X180739025Y-118141450D01*
X180812810Y-117977763D01*
X180838072Y-117800000D01*
X180838072Y-116900000D01*
X180830008Y-116798879D01*
X180776894Y-116627366D01*
X180678100Y-116477441D01*
X180541450Y-116360975D01*
X180377763Y-116287190D01*
X180200000Y-116261928D01*
X178700000Y-116261928D01*
X178598879Y-116269992D01*
X178427366Y-116323106D01*
X178277441Y-116421900D01*
X178160975Y-116558550D01*
X178147700Y-116588000D01*
X177728992Y-116588000D01*
X177658887Y-116594874D01*
X177588821Y-116601004D01*
X177584978Y-116602120D01*
X177580985Y-116602512D01*
X177513544Y-116622874D01*
X177446010Y-116642494D01*
X177442454Y-116644337D01*
X177438616Y-116645496D01*
X177376459Y-116678545D01*
X177313977Y-116710933D01*
X177310845Y-116713434D01*
X177307308Y-116715314D01*
X177252783Y-116759783D01*
X177197752Y-116803714D01*
X177192173Y-116809216D01*
X177192061Y-116809307D01*
X177191975Y-116809411D01*
X177190176Y-116811185D01*
X175838883Y-118162479D01*
X175794186Y-118216893D01*
X175748962Y-118270789D01*
X175747034Y-118274297D01*
X175744487Y-118277397D01*
X175711208Y-118339463D01*
X175677317Y-118401110D01*
X175676105Y-118404930D01*
X175674212Y-118408461D01*
X175653637Y-118475758D01*
X175632350Y-118542865D01*
X175631903Y-118546848D01*
X175630732Y-118550679D01*
X175623623Y-118620667D01*
X175615772Y-118690655D01*
X175615717Y-118698491D01*
X175615703Y-118698634D01*
X175615716Y-118698767D01*
X175615698Y-118701294D01*
X175615698Y-119649367D01*
X175477763Y-119587190D01*
X175300000Y-119561928D01*
X175205106Y-119561928D01*
X175189067Y-119530985D01*
X175186566Y-119527853D01*
X175184686Y-119524316D01*
X175140217Y-119469791D01*
X175096286Y-119414760D01*
X175090784Y-119409181D01*
X175090693Y-119409069D01*
X175090589Y-119408983D01*
X175088815Y-119407184D01*
X172492815Y-116811185D01*
X172438401Y-116766488D01*
X172384505Y-116721264D01*
X172380997Y-116719336D01*
X172377897Y-116716789D01*
X172315831Y-116683510D01*
X172254184Y-116649619D01*
X172250364Y-116648407D01*
X172246833Y-116646514D01*
X172179536Y-116625939D01*
X172112429Y-116604652D01*
X172108446Y-116604205D01*
X172104615Y-116603034D01*
X172034627Y-116595925D01*
X171964639Y-116588074D01*
X171956803Y-116588019D01*
X171956660Y-116588005D01*
X171956527Y-116588018D01*
X171954000Y-116588000D01*
X171750954Y-116588000D01*
X171678100Y-116477441D01*
X171541450Y-116360975D01*
X171377763Y-116287190D01*
X171200000Y-116261928D01*
X169700000Y-116261928D01*
X169598879Y-116269992D01*
X169427366Y-116323106D01*
X169277441Y-116421900D01*
X169160975Y-116558550D01*
X169087190Y-116722237D01*
X169061928Y-116900000D01*
X169061928Y-117800000D01*
X169069992Y-117901121D01*
X169123106Y-118072634D01*
X169221900Y-118222559D01*
X169358550Y-118339025D01*
X169522237Y-118412810D01*
X169700000Y-118438072D01*
X171200000Y-118438072D01*
X171301121Y-118430008D01*
X171472634Y-118376894D01*
X171622559Y-118278100D01*
X171706261Y-118179892D01*
X173318005Y-119791636D01*
X173265727Y-119852974D01*
X173216450Y-119810975D01*
X173052763Y-119737190D01*
X172875000Y-119711928D01*
X172125000Y-119711928D01*
X172023879Y-119719992D01*
X171852366Y-119773106D01*
X171728869Y-119854485D01*
X171678100Y-119777441D01*
X171541450Y-119660975D01*
X171377763Y-119587190D01*
X171200000Y-119561928D01*
X170139559Y-119561928D01*
X169038815Y-118461185D01*
X168984401Y-118416488D01*
X168930505Y-118371264D01*
X168926997Y-118369336D01*
X168923897Y-118366789D01*
X168861831Y-118333510D01*
X168800184Y-118299619D01*
X168796364Y-118298407D01*
X168792833Y-118296514D01*
X168725536Y-118275939D01*
X168658429Y-118254652D01*
X168654446Y-118254205D01*
X168650615Y-118253034D01*
X168634858Y-118251433D01*
X168626353Y-118242869D01*
X168467364Y-118135629D01*
X168290572Y-118061313D01*
X168102713Y-118022751D01*
X167910942Y-118021412D01*
X167722562Y-118057347D01*
X167544750Y-118129188D01*
X167384279Y-118234198D01*
X167247260Y-118368376D01*
X167138913Y-118526613D01*
X167063364Y-118702882D01*
X167023492Y-118890467D01*
X167020814Y-119082225D01*
X167055433Y-119270850D01*
X167126031Y-119449159D01*
X167229918Y-119610360D01*
X167363137Y-119748312D01*
X167520613Y-119857761D01*
X167696350Y-119934539D01*
X167883652Y-119975720D01*
X168075387Y-119979736D01*
X168264249Y-119946434D01*
X168339584Y-119917214D01*
X169061928Y-120639559D01*
X169061928Y-121100000D01*
X169069992Y-121201121D01*
X169123106Y-121372634D01*
X169221900Y-121522559D01*
X169358550Y-121639025D01*
X169522237Y-121712810D01*
X169700000Y-121738072D01*
X171200000Y-121738072D01*
X171301121Y-121730008D01*
X171472634Y-121676894D01*
X171622559Y-121578100D01*
X171638346Y-121559577D01*
X171646900Y-121572559D01*
X171783550Y-121689025D01*
X171947237Y-121762810D01*
X172125000Y-121788072D01*
X172875000Y-121788072D01*
X172976121Y-121780008D01*
X173147634Y-121726894D01*
X173297559Y-121628100D01*
X173359904Y-121554950D01*
X173458550Y-121639025D01*
X173622237Y-121712810D01*
X173800000Y-121738072D01*
X174688298Y-121738072D01*
X174402605Y-122023765D01*
X174226562Y-122057347D01*
X174048750Y-122129188D01*
X173888279Y-122234198D01*
X173751260Y-122368376D01*
X173642913Y-122526613D01*
X173567364Y-122702882D01*
X173527492Y-122890467D01*
X173524814Y-123082225D01*
X173559433Y-123270850D01*
X173630031Y-123449159D01*
X173733918Y-123610360D01*
X173867137Y-123748312D01*
X174024613Y-123857761D01*
X174200350Y-123934539D01*
X174387652Y-123975720D01*
X174579387Y-123979736D01*
X174768249Y-123946434D01*
X174947047Y-123877083D01*
X175108969Y-123774325D01*
X175247848Y-123642072D01*
X175358394Y-123485363D01*
X175436396Y-123310167D01*
X175478884Y-123123156D01*
X175479173Y-123102457D01*
X176916513Y-121665117D01*
X176961188Y-121610729D01*
X177006434Y-121556807D01*
X177008364Y-121553296D01*
X177010908Y-121550199D01*
X177044167Y-121488172D01*
X177078079Y-121426486D01*
X177079291Y-121422666D01*
X177081184Y-121419135D01*
X177101759Y-121351838D01*
X177123046Y-121284731D01*
X177123493Y-121280748D01*
X177124664Y-121276917D01*
X177131773Y-121206929D01*
X177139624Y-121136941D01*
X177139679Y-121129105D01*
X177139693Y-121128962D01*
X177139680Y-121128829D01*
X177139698Y-121126302D01*
X177139698Y-119968396D01*
X177264249Y-119946434D01*
X177339584Y-119917214D01*
X178061928Y-120639559D01*
X178061928Y-120660442D01*
X177211185Y-121511185D01*
X177166488Y-121565599D01*
X177121264Y-121619495D01*
X177119336Y-121623003D01*
X177116789Y-121626103D01*
X177083510Y-121688169D01*
X177049619Y-121749816D01*
X177048407Y-121753636D01*
X177046514Y-121757167D01*
X177025939Y-121824464D01*
X177004652Y-121891571D01*
X177004205Y-121895554D01*
X177003034Y-121899385D01*
X176995925Y-121969373D01*
X176988074Y-122039361D01*
X176988019Y-122047197D01*
X176988005Y-122047340D01*
X176988018Y-122047473D01*
X176988000Y-122050000D01*
X176988000Y-122106994D01*
X176927441Y-122146900D01*
X176810975Y-122283550D01*
X176737190Y-122447237D01*
X176711928Y-122625000D01*
X176711928Y-123375000D01*
X176719992Y-123476121D01*
X176773106Y-123647634D01*
X176871900Y-123797559D01*
X177008550Y-123914025D01*
X177172237Y-123987810D01*
X177350000Y-124013072D01*
X177409297Y-124013072D01*
X176398604Y-125023766D01*
X176222562Y-125057347D01*
X176044750Y-125129188D01*
X175884279Y-125234198D01*
X175747260Y-125368376D01*
X175638913Y-125526613D01*
X175563364Y-125702882D01*
X175523492Y-125890467D01*
X175520814Y-126082225D01*
X175555433Y-126270850D01*
X175626031Y-126449159D01*
X175729918Y-126610360D01*
X175863137Y-126748312D01*
X176020613Y-126857761D01*
X176106206Y-126895156D01*
X175838883Y-127162479D01*
X175794186Y-127216893D01*
X175748962Y-127270789D01*
X175747034Y-127274297D01*
X175744487Y-127277397D01*
X175711208Y-127339463D01*
X175677317Y-127401110D01*
X175676105Y-127404930D01*
X175674212Y-127408461D01*
X175653637Y-127475758D01*
X175632350Y-127542865D01*
X175631903Y-127546848D01*
X175630732Y-127550679D01*
X175623623Y-127620667D01*
X175615772Y-127690655D01*
X175615717Y-127698491D01*
X175615703Y-127698634D01*
X175615716Y-127698767D01*
X175615698Y-127701294D01*
X175615698Y-128649367D01*
X175477763Y-128587190D01*
X175300000Y-128561928D01*
X175205106Y-128561928D01*
X175189067Y-128530985D01*
X175186566Y-128527853D01*
X175184686Y-128524316D01*
X175140217Y-128469791D01*
X175096286Y-128414760D01*
X175090784Y-128409181D01*
X175090693Y-128409069D01*
X175090589Y-128408983D01*
X175088815Y-128407184D01*
X172492815Y-125811185D01*
X172438401Y-125766488D01*
X172384505Y-125721264D01*
X172380997Y-125719336D01*
X172377897Y-125716789D01*
X172315831Y-125683510D01*
X172254184Y-125649619D01*
X172250364Y-125648407D01*
X172246833Y-125646514D01*
X172179536Y-125625939D01*
X172112429Y-125604652D01*
X172108446Y-125604205D01*
X172104615Y-125603034D01*
X172034627Y-125595925D01*
X171964639Y-125588074D01*
X171956803Y-125588019D01*
X171956660Y-125588005D01*
X171956527Y-125588018D01*
X171954000Y-125588000D01*
X171750954Y-125588000D01*
X171678100Y-125477441D01*
X171541450Y-125360975D01*
X171377763Y-125287190D01*
X171200000Y-125261928D01*
X169700000Y-125261928D01*
X169598879Y-125269992D01*
X169427366Y-125323106D01*
X169277441Y-125421900D01*
X169160975Y-125558550D01*
X169087190Y-125722237D01*
X169061928Y-125900000D01*
X169061928Y-126800000D01*
X169069992Y-126901121D01*
X169123106Y-127072634D01*
X169221900Y-127222559D01*
X169358550Y-127339025D01*
X169522237Y-127412810D01*
X169700000Y-127438072D01*
X171200000Y-127438072D01*
X171301121Y-127430008D01*
X171472634Y-127376894D01*
X171622559Y-127278100D01*
X171706261Y-127179892D01*
X173318005Y-128791636D01*
X173265727Y-128852974D01*
X173216450Y-128810975D01*
X173052763Y-128737190D01*
X172875000Y-128711928D01*
X172125000Y-128711928D01*
X172023879Y-128719992D01*
X171852366Y-128773106D01*
X171728869Y-128854485D01*
X171678100Y-128777441D01*
X171541450Y-128660975D01*
X171377763Y-128587190D01*
X171200000Y-128561928D01*
X170139559Y-128561928D01*
X169038815Y-127461185D01*
X168984401Y-127416488D01*
X168930505Y-127371264D01*
X168926997Y-127369336D01*
X168923897Y-127366789D01*
X168861831Y-127333510D01*
X168800184Y-127299619D01*
X168796364Y-127298407D01*
X168792833Y-127296514D01*
X168725536Y-127275939D01*
X168658429Y-127254652D01*
X168654446Y-127254205D01*
X168650615Y-127253034D01*
X168634858Y-127251433D01*
X168626353Y-127242869D01*
X168467364Y-127135629D01*
X168290572Y-127061313D01*
X168102713Y-127022751D01*
X167910942Y-127021412D01*
X167722562Y-127057347D01*
X167544750Y-127129188D01*
X167384279Y-127234198D01*
X167247260Y-127368376D01*
X167138913Y-127526613D01*
X167063364Y-127702882D01*
X167023492Y-127890467D01*
X167020814Y-128082225D01*
X167055433Y-128270850D01*
X167126031Y-128449159D01*
X167229918Y-128610360D01*
X167363137Y-128748312D01*
X167520613Y-128857761D01*
X167696350Y-128934539D01*
X167883652Y-128975720D01*
X168075387Y-128979736D01*
X168264249Y-128946434D01*
X168339584Y-128917214D01*
X169061928Y-129639559D01*
X169061928Y-130100000D01*
X169069992Y-130201121D01*
X169123106Y-130372634D01*
X169221900Y-130522559D01*
X169358550Y-130639025D01*
X169522237Y-130712810D01*
X169700000Y-130738072D01*
X171200000Y-130738072D01*
X171301121Y-130730008D01*
X171472634Y-130676894D01*
X171622559Y-130578100D01*
X171638346Y-130559577D01*
X171646900Y-130572559D01*
X171783550Y-130689025D01*
X171947237Y-130762810D01*
X172125000Y-130788072D01*
X172875000Y-130788072D01*
X172976121Y-130780008D01*
X173147634Y-130726894D01*
X173297559Y-130628100D01*
X173359904Y-130554950D01*
X173458550Y-130639025D01*
X173622237Y-130712810D01*
X173800000Y-130738072D01*
X174688298Y-130738072D01*
X173688370Y-131738000D01*
X153615134Y-131738000D01*
X153463364Y-131635629D01*
X153286572Y-131561313D01*
X153098713Y-131522751D01*
X152906942Y-131521412D01*
X152718562Y-131557347D01*
X152540750Y-131629188D01*
X152380279Y-131734198D01*
X152243260Y-131868376D01*
X152134913Y-132026613D01*
X152059364Y-132202882D01*
X152019492Y-132390467D01*
X152016814Y-132582225D01*
X152051433Y-132770850D01*
X152122031Y-132949159D01*
X152225918Y-133110360D01*
X152359137Y-133248312D01*
X152516613Y-133357761D01*
X152692350Y-133434539D01*
X152879652Y-133475720D01*
X153071387Y-133479736D01*
X153260249Y-133446434D01*
X153439047Y-133377083D01*
X153600969Y-133274325D01*
X153613911Y-133262000D01*
X174004000Y-133262000D01*
X174074114Y-133255125D01*
X174144170Y-133248996D01*
X174148013Y-133247880D01*
X174152007Y-133247488D01*
X174219460Y-133227123D01*
X174286982Y-133207506D01*
X174290538Y-133205663D01*
X174294376Y-133204504D01*
X174356553Y-133171444D01*
X174419014Y-133139067D01*
X174422144Y-133136568D01*
X174425684Y-133134686D01*
X174480231Y-133090199D01*
X174535240Y-133046286D01*
X174540815Y-133040788D01*
X174540931Y-133040693D01*
X174541020Y-133040585D01*
X174542815Y-133038815D01*
X176916513Y-130665117D01*
X176961210Y-130610703D01*
X177006434Y-130556807D01*
X177008362Y-130553299D01*
X177010909Y-130550199D01*
X177044188Y-130488133D01*
X177078079Y-130426486D01*
X177079291Y-130422666D01*
X177081184Y-130419135D01*
X177101759Y-130351838D01*
X177123046Y-130284731D01*
X177123493Y-130280748D01*
X177124664Y-130276917D01*
X177131773Y-130206929D01*
X177139624Y-130136941D01*
X177139679Y-130129105D01*
X177139693Y-130128962D01*
X177139680Y-130128829D01*
X177139698Y-130126302D01*
X177139698Y-128968396D01*
X177264249Y-128946434D01*
X177339584Y-128917214D01*
X178061928Y-129639559D01*
X178061928Y-130100000D01*
X178069992Y-130201121D01*
X178123106Y-130372634D01*
X178221900Y-130522559D01*
X178358550Y-130639025D01*
X178413169Y-130663646D01*
X178310975Y-130783550D01*
X178237190Y-130947237D01*
X178211928Y-131125000D01*
X178211928Y-131875000D01*
X178219992Y-131976121D01*
X178273106Y-132147634D01*
X178371900Y-132297559D01*
X178508550Y-132414025D01*
X178672237Y-132487810D01*
X178850000Y-132513072D01*
X179650000Y-132513072D01*
X179751121Y-132505008D01*
X179922634Y-132451894D01*
X180072559Y-132353100D01*
X180189025Y-132216450D01*
X180262810Y-132052763D01*
X180288072Y-131875000D01*
X180288072Y-131125000D01*
X180280008Y-131023879D01*
X180226894Y-130852366D01*
X180212000Y-130829764D01*
X180212000Y-130737115D01*
X180301121Y-130730008D01*
X180472634Y-130676894D01*
X180622559Y-130578100D01*
X180739025Y-130441450D01*
X180812810Y-130277763D01*
X180838072Y-130100000D01*
X180838072Y-129200000D01*
X180830008Y-129098879D01*
X180776894Y-128927366D01*
X180678100Y-128777441D01*
X180541450Y-128660975D01*
X180377763Y-128587190D01*
X180200000Y-128561928D01*
X179139559Y-128561928D01*
X178038815Y-127461185D01*
X177984401Y-127416488D01*
X177930505Y-127371264D01*
X177926997Y-127369336D01*
X177923897Y-127366789D01*
X177861831Y-127333510D01*
X177836848Y-127319775D01*
X178044623Y-127112000D01*
X178149046Y-127112000D01*
X178221900Y-127222559D01*
X178358550Y-127339025D01*
X178522237Y-127412810D01*
X178700000Y-127438072D01*
X180200000Y-127438072D01*
X180301121Y-127430008D01*
X180472634Y-127376894D01*
X180622559Y-127278100D01*
X180739025Y-127141450D01*
X180812810Y-126977763D01*
X180838072Y-126800000D01*
X180838072Y-125900000D01*
X180830008Y-125798879D01*
X180776894Y-125627366D01*
X180678100Y-125477441D01*
X180541450Y-125360975D01*
X180377763Y-125287190D01*
X180200000Y-125261928D01*
X178700000Y-125261928D01*
X178598879Y-125269992D01*
X178427366Y-125323106D01*
X178277441Y-125421900D01*
X178160975Y-125558550D01*
X178147700Y-125588000D01*
X177989630Y-125588000D01*
X179355631Y-124222000D01*
X180555013Y-124222000D01*
X180585637Y-124280578D01*
X180768903Y-124508515D01*
X180992952Y-124696515D01*
X181249251Y-124837416D01*
X181528036Y-124925852D01*
X181818688Y-124958454D01*
X181839612Y-124958600D01*
X182160388Y-124958600D01*
X182451468Y-124930059D01*
X182731460Y-124845525D01*
X182790000Y-124814399D01*
X182790000Y-138465281D01*
X182704959Y-139332601D01*
X182463154Y-140133494D01*
X182070395Y-140872168D01*
X181541640Y-141520484D01*
X180897034Y-142053749D01*
X180161122Y-142451654D01*
X179361942Y-142699042D01*
X178496532Y-142790000D01*
X167501672Y-142790000D01*
X167501672Y-140984000D01*
X167493608Y-140882879D01*
X167456174Y-140762000D01*
X168882831Y-140762000D01*
X169020613Y-140857761D01*
X169196350Y-140934539D01*
X169383652Y-140975720D01*
X169575387Y-140979736D01*
X169764249Y-140946434D01*
X169943047Y-140877083D01*
X170104969Y-140774325D01*
X170243848Y-140642072D01*
X170354394Y-140485363D01*
X170432396Y-140310167D01*
X170474884Y-140123156D01*
X170477942Y-139904112D01*
X170445066Y-139738072D01*
X171200000Y-139738072D01*
X171301121Y-139730008D01*
X171472634Y-139676894D01*
X171622559Y-139578100D01*
X171638346Y-139559577D01*
X171646900Y-139572559D01*
X171783550Y-139689025D01*
X171947237Y-139762810D01*
X172125000Y-139788072D01*
X172875000Y-139788072D01*
X172976121Y-139780008D01*
X173147634Y-139726894D01*
X173297559Y-139628100D01*
X173359904Y-139554950D01*
X173458550Y-139639025D01*
X173622237Y-139712810D01*
X173800000Y-139738072D01*
X175300000Y-139738072D01*
X175401121Y-139730008D01*
X175572634Y-139676894D01*
X175722559Y-139578100D01*
X175839025Y-139441450D01*
X175912810Y-139277763D01*
X175938072Y-139100000D01*
X175938072Y-138200000D01*
X175930008Y-138098879D01*
X175876894Y-137927366D01*
X175778100Y-137777441D01*
X175641450Y-137660975D01*
X175477763Y-137587190D01*
X175300000Y-137561928D01*
X175205106Y-137561928D01*
X175189067Y-137530985D01*
X175186566Y-137527853D01*
X175184686Y-137524316D01*
X175140217Y-137469791D01*
X175096286Y-137414760D01*
X175090784Y-137409181D01*
X175090693Y-137409069D01*
X175090589Y-137408983D01*
X175088815Y-137407184D01*
X174763856Y-137082225D01*
X176020814Y-137082225D01*
X176055433Y-137270850D01*
X176126031Y-137449159D01*
X176229918Y-137610360D01*
X176363137Y-137748312D01*
X176520613Y-137857761D01*
X176696350Y-137934539D01*
X176883652Y-137975720D01*
X177075387Y-137979736D01*
X177264249Y-137946434D01*
X177339584Y-137917214D01*
X178061928Y-138639559D01*
X178061928Y-139100000D01*
X178069992Y-139201121D01*
X178123106Y-139372634D01*
X178221900Y-139522559D01*
X178358550Y-139639025D01*
X178522237Y-139712810D01*
X178700000Y-139738072D01*
X180200000Y-139738072D01*
X180301121Y-139730008D01*
X180472634Y-139676894D01*
X180622559Y-139578100D01*
X180638346Y-139559577D01*
X180646900Y-139572559D01*
X180783550Y-139689025D01*
X180947237Y-139762810D01*
X181125000Y-139788072D01*
X181875000Y-139788072D01*
X181976121Y-139780008D01*
X182147634Y-139726894D01*
X182297559Y-139628100D01*
X182414025Y-139491450D01*
X182487810Y-139327763D01*
X182513072Y-139150000D01*
X182513072Y-138350000D01*
X182505008Y-138248879D01*
X182451894Y-138077366D01*
X182353100Y-137927441D01*
X182216450Y-137810975D01*
X182052763Y-137737190D01*
X181875000Y-137711928D01*
X181125000Y-137711928D01*
X181023879Y-137719992D01*
X180852366Y-137773106D01*
X180728869Y-137854485D01*
X180678100Y-137777441D01*
X180541450Y-137660975D01*
X180377763Y-137587190D01*
X180200000Y-137561928D01*
X179139559Y-137561928D01*
X178038815Y-136461185D01*
X177984401Y-136416488D01*
X177930505Y-136371264D01*
X177926997Y-136369336D01*
X177923897Y-136366789D01*
X177861831Y-136333510D01*
X177800184Y-136299619D01*
X177796364Y-136298407D01*
X177792833Y-136296514D01*
X177725536Y-136275939D01*
X177658429Y-136254652D01*
X177654446Y-136254205D01*
X177650615Y-136253034D01*
X177634858Y-136251433D01*
X177626353Y-136242869D01*
X177467364Y-136135629D01*
X177290572Y-136061313D01*
X177102713Y-136022751D01*
X176910942Y-136021412D01*
X176722562Y-136057347D01*
X176544750Y-136129188D01*
X176384279Y-136234198D01*
X176247260Y-136368376D01*
X176138913Y-136526613D01*
X176063364Y-136702882D01*
X176023492Y-136890467D01*
X176020814Y-137082225D01*
X174763856Y-137082225D01*
X172581631Y-134900000D01*
X178061928Y-134900000D01*
X178061928Y-135800000D01*
X178069992Y-135901121D01*
X178123106Y-136072634D01*
X178221900Y-136222559D01*
X178358550Y-136339025D01*
X178522237Y-136412810D01*
X178700000Y-136438072D01*
X180200000Y-136438072D01*
X180301121Y-136430008D01*
X180472634Y-136376894D01*
X180622559Y-136278100D01*
X180739025Y-136141450D01*
X180812810Y-135977763D01*
X180838072Y-135800000D01*
X180838072Y-134900000D01*
X180830008Y-134798879D01*
X180776894Y-134627366D01*
X180678100Y-134477441D01*
X180541450Y-134360975D01*
X180431784Y-134311541D01*
X180432396Y-134310167D01*
X180474884Y-134123156D01*
X180477942Y-133904112D01*
X180440693Y-133715988D01*
X180367613Y-133538682D01*
X180261485Y-133378948D01*
X180126353Y-133242869D01*
X179967364Y-133135629D01*
X179790572Y-133061313D01*
X179602713Y-133022751D01*
X179410942Y-133021412D01*
X179222562Y-133057347D01*
X179044750Y-133129188D01*
X178884279Y-133234198D01*
X178747260Y-133368376D01*
X178638913Y-133526613D01*
X178563364Y-133702882D01*
X178523492Y-133890467D01*
X178520814Y-134082225D01*
X178555433Y-134270850D01*
X178559876Y-134282071D01*
X178427366Y-134323106D01*
X178277441Y-134421900D01*
X178160975Y-134558550D01*
X178087190Y-134722237D01*
X178061928Y-134900000D01*
X172581631Y-134900000D01*
X172492815Y-134811185D01*
X172438401Y-134766488D01*
X172384505Y-134721264D01*
X172380997Y-134719336D01*
X172377897Y-134716789D01*
X172315831Y-134683510D01*
X172254184Y-134649619D01*
X172250364Y-134648407D01*
X172246833Y-134646514D01*
X172179536Y-134625939D01*
X172112429Y-134604652D01*
X172108446Y-134604205D01*
X172104615Y-134603034D01*
X172034627Y-134595925D01*
X171964639Y-134588074D01*
X171956803Y-134588019D01*
X171956660Y-134588005D01*
X171956527Y-134588018D01*
X171954000Y-134588000D01*
X171750954Y-134588000D01*
X171678100Y-134477441D01*
X171541450Y-134360975D01*
X171377763Y-134287190D01*
X171200000Y-134261928D01*
X169700000Y-134261928D01*
X169598879Y-134269992D01*
X169427366Y-134323106D01*
X169277441Y-134421900D01*
X169160975Y-134558550D01*
X169087190Y-134722237D01*
X169061928Y-134900000D01*
X169061928Y-135800000D01*
X169069992Y-135901121D01*
X169123106Y-136072634D01*
X169221900Y-136222559D01*
X169358550Y-136339025D01*
X169522237Y-136412810D01*
X169700000Y-136438072D01*
X171200000Y-136438072D01*
X171301121Y-136430008D01*
X171472634Y-136376894D01*
X171622559Y-136278100D01*
X171706261Y-136179892D01*
X173318005Y-137791636D01*
X173265727Y-137852974D01*
X173216450Y-137810975D01*
X173052763Y-137737190D01*
X172875000Y-137711928D01*
X172125000Y-137711928D01*
X172023879Y-137719992D01*
X171852366Y-137773106D01*
X171728869Y-137854485D01*
X171678100Y-137777441D01*
X171541450Y-137660975D01*
X171377763Y-137587190D01*
X171200000Y-137561928D01*
X170139559Y-137561928D01*
X169038815Y-136461185D01*
X168984401Y-136416488D01*
X168930505Y-136371264D01*
X168926997Y-136369336D01*
X168923897Y-136366789D01*
X168861831Y-136333510D01*
X168800184Y-136299619D01*
X168796364Y-136298407D01*
X168792833Y-136296514D01*
X168725536Y-136275939D01*
X168658429Y-136254652D01*
X168654446Y-136254205D01*
X168650615Y-136253034D01*
X168634858Y-136251433D01*
X168626353Y-136242869D01*
X168467364Y-136135629D01*
X168290572Y-136061313D01*
X168102713Y-136022751D01*
X167910942Y-136021412D01*
X167722562Y-136057347D01*
X167544750Y-136129188D01*
X167384279Y-136234198D01*
X167247260Y-136368376D01*
X167138913Y-136526613D01*
X167063364Y-136702882D01*
X167023492Y-136890467D01*
X167020814Y-137082225D01*
X167055433Y-137270850D01*
X167126031Y-137449159D01*
X167229918Y-137610360D01*
X167363137Y-137748312D01*
X167520613Y-137857761D01*
X167696350Y-137934539D01*
X167883652Y-137975720D01*
X168075387Y-137979736D01*
X168264249Y-137946434D01*
X168339584Y-137917214D01*
X169061928Y-138639559D01*
X169061928Y-139100000D01*
X169063647Y-139121553D01*
X169044750Y-139129188D01*
X168884279Y-139234198D01*
X168880396Y-139238000D01*
X166918461Y-139238000D01*
X166938072Y-139100000D01*
X166938072Y-138200000D01*
X166930008Y-138098879D01*
X166876894Y-137927366D01*
X166778100Y-137777441D01*
X166641450Y-137660975D01*
X166477763Y-137587190D01*
X166312000Y-137563633D01*
X166312000Y-137022078D01*
X166305122Y-136951928D01*
X166298996Y-136881907D01*
X166297880Y-136878064D01*
X166297488Y-136874071D01*
X166277126Y-136806630D01*
X166257506Y-136739096D01*
X166255663Y-136735540D01*
X166254504Y-136731702D01*
X166221455Y-136669545D01*
X166189067Y-136607063D01*
X166186566Y-136603931D01*
X166184686Y-136600394D01*
X166140217Y-136545869D01*
X166096286Y-136490838D01*
X166090784Y-136485259D01*
X166090693Y-136485147D01*
X166090589Y-136485061D01*
X166088815Y-136483262D01*
X164416737Y-134811185D01*
X164362323Y-134766488D01*
X164308427Y-134721264D01*
X164304919Y-134719336D01*
X164301819Y-134716789D01*
X164239753Y-134683510D01*
X164178106Y-134649619D01*
X164174286Y-134648407D01*
X164170755Y-134646514D01*
X164103458Y-134625939D01*
X164036351Y-134604652D01*
X164032368Y-134604205D01*
X164028537Y-134603034D01*
X163958549Y-134595925D01*
X163888561Y-134588074D01*
X163880725Y-134588019D01*
X163880582Y-134588005D01*
X163880449Y-134588018D01*
X163877922Y-134588000D01*
X162750954Y-134588000D01*
X162678100Y-134477441D01*
X162541450Y-134360975D01*
X162377763Y-134287190D01*
X162200000Y-134261928D01*
X160700000Y-134261928D01*
X160598879Y-134269992D01*
X160427366Y-134323106D01*
X160277441Y-134421900D01*
X160160975Y-134558550D01*
X160087190Y-134722237D01*
X160061928Y-134900000D01*
X160061928Y-135800000D01*
X160069992Y-135901121D01*
X160123106Y-136072634D01*
X160221900Y-136222559D01*
X160358550Y-136339025D01*
X160522237Y-136412810D01*
X160700000Y-136438072D01*
X162200000Y-136438072D01*
X162301121Y-136430008D01*
X162472634Y-136376894D01*
X162622559Y-136278100D01*
X162739025Y-136141450D01*
X162752300Y-136112000D01*
X163562292Y-136112000D01*
X164788000Y-137337709D01*
X164788000Y-137562885D01*
X164698879Y-137569992D01*
X164527366Y-137623106D01*
X164513072Y-137632525D01*
X164513072Y-137350000D01*
X164505008Y-137248879D01*
X164451894Y-137077366D01*
X164353100Y-136927441D01*
X164216450Y-136810975D01*
X164052763Y-136737190D01*
X163875000Y-136711928D01*
X163125000Y-136711928D01*
X163023879Y-136719992D01*
X162852366Y-136773106D01*
X162702441Y-136871900D01*
X162585975Y-137008550D01*
X162512190Y-137172237D01*
X162486928Y-137350000D01*
X162486928Y-137636398D01*
X162377763Y-137587190D01*
X162200000Y-137561928D01*
X161139559Y-137561928D01*
X160038815Y-136461185D01*
X159984401Y-136416488D01*
X159930505Y-136371264D01*
X159926997Y-136369336D01*
X159923897Y-136366789D01*
X159861831Y-136333510D01*
X159800184Y-136299619D01*
X159796364Y-136298407D01*
X159792833Y-136296514D01*
X159725536Y-136275939D01*
X159658429Y-136254652D01*
X159654446Y-136254205D01*
X159650615Y-136253034D01*
X159634858Y-136251433D01*
X159626353Y-136242869D01*
X159467364Y-136135629D01*
X159290572Y-136061313D01*
X159102713Y-136022751D01*
X158910942Y-136021412D01*
X158722562Y-136057347D01*
X158544750Y-136129188D01*
X158384279Y-136234198D01*
X158247260Y-136368376D01*
X158138913Y-136526613D01*
X158063364Y-136702882D01*
X158023492Y-136890467D01*
X158020814Y-137082225D01*
X158055433Y-137270850D01*
X158126031Y-137449159D01*
X158229918Y-137610360D01*
X158363137Y-137748312D01*
X158520613Y-137857761D01*
X158696350Y-137934539D01*
X158883652Y-137975720D01*
X159075387Y-137979736D01*
X159264249Y-137946434D01*
X159339584Y-137917214D01*
X160061928Y-138639559D01*
X160061928Y-139100000D01*
X160069992Y-139201121D01*
X160123106Y-139372634D01*
X160221900Y-139522559D01*
X160358550Y-139639025D01*
X160522237Y-139712810D01*
X160700000Y-139738072D01*
X162200000Y-139738072D01*
X162301121Y-139730008D01*
X162472634Y-139676894D01*
X162622559Y-139578100D01*
X162739025Y-139441450D01*
X162760549Y-139393701D01*
X162815460Y-139377123D01*
X162882982Y-139357506D01*
X162886538Y-139355663D01*
X162890376Y-139354504D01*
X162952553Y-139321444D01*
X163015014Y-139289067D01*
X163018144Y-139286568D01*
X163021684Y-139284686D01*
X163076231Y-139240199D01*
X163131240Y-139196286D01*
X163136815Y-139190788D01*
X163136931Y-139190693D01*
X163137020Y-139190585D01*
X163138815Y-139188815D01*
X163539558Y-138788072D01*
X163875000Y-138788072D01*
X163976121Y-138780008D01*
X164147634Y-138726894D01*
X164161928Y-138717475D01*
X164161928Y-139100000D01*
X164169992Y-139201121D01*
X164223106Y-139372634D01*
X164321900Y-139522559D01*
X164414445Y-139601434D01*
X164370964Y-139702882D01*
X164331092Y-139890467D01*
X164328414Y-140082225D01*
X164363033Y-140270850D01*
X164433631Y-140449159D01*
X164537518Y-140610360D01*
X164588219Y-140662862D01*
X164530067Y-140791867D01*
X164523363Y-140783647D01*
X164298006Y-140597216D01*
X164040731Y-140458108D01*
X163761335Y-140371621D01*
X163470462Y-140341049D01*
X163179190Y-140367556D01*
X162898615Y-140450134D01*
X162639422Y-140585637D01*
X162411485Y-140768903D01*
X162223485Y-140992952D01*
X162082584Y-141249251D01*
X161994148Y-141528036D01*
X161961546Y-141818688D01*
X161961400Y-141839612D01*
X161961400Y-142160388D01*
X161989941Y-142451468D01*
X162074475Y-142731460D01*
X162105601Y-142790000D01*
X148534719Y-142790000D01*
X147667399Y-142704959D01*
X146866506Y-142463154D01*
X146127832Y-142070395D01*
X145479516Y-141541640D01*
X144946251Y-140897034D01*
X144548346Y-140161122D01*
X144300958Y-139361942D01*
X144210000Y-138496532D01*
X144210000Y-138200000D01*
X146161928Y-138200000D01*
X146161928Y-139100000D01*
X146169992Y-139201121D01*
X146223106Y-139372634D01*
X146321900Y-139522559D01*
X146458550Y-139639025D01*
X146622237Y-139712810D01*
X146800000Y-139738072D01*
X147055884Y-139738072D01*
X147023492Y-139890467D01*
X147020814Y-140082225D01*
X147055433Y-140270850D01*
X147126031Y-140449159D01*
X147229918Y-140610360D01*
X147363137Y-140748312D01*
X147520613Y-140857761D01*
X147696350Y-140934539D01*
X147883652Y-140975720D01*
X148075387Y-140979736D01*
X148264249Y-140946434D01*
X148443047Y-140877083D01*
X148604969Y-140774325D01*
X148743848Y-140642072D01*
X148854394Y-140485363D01*
X148932396Y-140310167D01*
X148974884Y-140123156D01*
X148977942Y-139904112D01*
X148940693Y-139715988D01*
X148867613Y-139538682D01*
X148818788Y-139465195D01*
X148839025Y-139441450D01*
X148912810Y-139277763D01*
X148938072Y-139100000D01*
X148938072Y-138200000D01*
X148930008Y-138098879D01*
X148876894Y-137927366D01*
X148778100Y-137777441D01*
X148641450Y-137660975D01*
X148477763Y-137587190D01*
X148300000Y-137561928D01*
X146800000Y-137561928D01*
X146698879Y-137569992D01*
X146527366Y-137623106D01*
X146377441Y-137721900D01*
X146260975Y-137858550D01*
X146187190Y-138022237D01*
X146161928Y-138200000D01*
X144210000Y-138200000D01*
X144210000Y-137082225D01*
X149020814Y-137082225D01*
X149055433Y-137270850D01*
X149126031Y-137449159D01*
X149229918Y-137610360D01*
X149363137Y-137748312D01*
X149520613Y-137857761D01*
X149696350Y-137934539D01*
X149883652Y-137975720D01*
X150075387Y-137979736D01*
X150264249Y-137946434D01*
X150339584Y-137917214D01*
X151061928Y-138639559D01*
X151061928Y-139100000D01*
X151069992Y-139201121D01*
X151123106Y-139372634D01*
X151221900Y-139522559D01*
X151358550Y-139639025D01*
X151522237Y-139712810D01*
X151700000Y-139738072D01*
X153200000Y-139738072D01*
X153301121Y-139730008D01*
X153472634Y-139676894D01*
X153622559Y-139578100D01*
X153638346Y-139559577D01*
X153646900Y-139572559D01*
X153783550Y-139689025D01*
X153947237Y-139762810D01*
X154125000Y-139788072D01*
X154875000Y-139788072D01*
X154976121Y-139780008D01*
X155147634Y-139726894D01*
X155297559Y-139628100D01*
X155359904Y-139554950D01*
X155458550Y-139639025D01*
X155622237Y-139712810D01*
X155800000Y-139738072D01*
X157300000Y-139738072D01*
X157401121Y-139730008D01*
X157572634Y-139676894D01*
X157722559Y-139578100D01*
X157839025Y-139441450D01*
X157912810Y-139277763D01*
X157938072Y-139100000D01*
X157938072Y-138200000D01*
X157930008Y-138098879D01*
X157876894Y-137927366D01*
X157778100Y-137777441D01*
X157641450Y-137660975D01*
X157477763Y-137587190D01*
X157300000Y-137561928D01*
X157205106Y-137561928D01*
X157189067Y-137530985D01*
X157186566Y-137527853D01*
X157184686Y-137524316D01*
X157140217Y-137469791D01*
X157096286Y-137414760D01*
X157090784Y-137409181D01*
X157090693Y-137409069D01*
X157090589Y-137408983D01*
X157088815Y-137407184D01*
X154492815Y-134811185D01*
X154438401Y-134766488D01*
X154384505Y-134721264D01*
X154380997Y-134719336D01*
X154377897Y-134716789D01*
X154315831Y-134683510D01*
X154254184Y-134649619D01*
X154250364Y-134648407D01*
X154246833Y-134646514D01*
X154179536Y-134625939D01*
X154112429Y-134604652D01*
X154108446Y-134604205D01*
X154104615Y-134603034D01*
X154034627Y-134595925D01*
X153964639Y-134588074D01*
X153956803Y-134588019D01*
X153956660Y-134588005D01*
X153956527Y-134588018D01*
X153954000Y-134588000D01*
X153750954Y-134588000D01*
X153678100Y-134477441D01*
X153541450Y-134360975D01*
X153377763Y-134287190D01*
X153200000Y-134261928D01*
X151700000Y-134261928D01*
X151598879Y-134269992D01*
X151427366Y-134323106D01*
X151277441Y-134421900D01*
X151160975Y-134558550D01*
X151087190Y-134722237D01*
X151061928Y-134900000D01*
X151061928Y-135800000D01*
X151069992Y-135901121D01*
X151123106Y-136072634D01*
X151221900Y-136222559D01*
X151358550Y-136339025D01*
X151522237Y-136412810D01*
X151700000Y-136438072D01*
X153200000Y-136438072D01*
X153301121Y-136430008D01*
X153472634Y-136376894D01*
X153622559Y-136278100D01*
X153706261Y-136179892D01*
X155318005Y-137791636D01*
X155265727Y-137852974D01*
X155216450Y-137810975D01*
X155052763Y-137737190D01*
X154875000Y-137711928D01*
X154125000Y-137711928D01*
X154023879Y-137719992D01*
X153852366Y-137773106D01*
X153728869Y-137854485D01*
X153678100Y-137777441D01*
X153541450Y-137660975D01*
X153377763Y-137587190D01*
X153200000Y-137561928D01*
X152139559Y-137561928D01*
X151038815Y-136461185D01*
X150984401Y-136416488D01*
X150930505Y-136371264D01*
X150926997Y-136369336D01*
X150923897Y-136366789D01*
X150861831Y-136333510D01*
X150800184Y-136299619D01*
X150796364Y-136298407D01*
X150792833Y-136296514D01*
X150725536Y-136275939D01*
X150658429Y-136254652D01*
X150654446Y-136254205D01*
X150650615Y-136253034D01*
X150634858Y-136251433D01*
X150626353Y-136242869D01*
X150467364Y-136135629D01*
X150290572Y-136061313D01*
X150102713Y-136022751D01*
X149910942Y-136021412D01*
X149722562Y-136057347D01*
X149544750Y-136129188D01*
X149384279Y-136234198D01*
X149247260Y-136368376D01*
X149138913Y-136526613D01*
X149063364Y-136702882D01*
X149023492Y-136890467D01*
X149020814Y-137082225D01*
X144210000Y-137082225D01*
X144210000Y-129200000D01*
X146161928Y-129200000D01*
X146161928Y-130100000D01*
X146169992Y-130201121D01*
X146223106Y-130372634D01*
X146321900Y-130522559D01*
X146458550Y-130639025D01*
X146622237Y-130712810D01*
X146800000Y-130738072D01*
X148300000Y-130738072D01*
X148401121Y-130730008D01*
X148572634Y-130676894D01*
X148722559Y-130578100D01*
X148839025Y-130441450D01*
X148912810Y-130277763D01*
X148938072Y-130100000D01*
X148938072Y-129200000D01*
X148930008Y-129098879D01*
X148876894Y-128927366D01*
X148778100Y-128777441D01*
X148641450Y-128660975D01*
X148477763Y-128587190D01*
X148312000Y-128563633D01*
X148312000Y-128545460D01*
X148354394Y-128485363D01*
X148432396Y-128310167D01*
X148474884Y-128123156D01*
X148475455Y-128082225D01*
X149020814Y-128082225D01*
X149055433Y-128270850D01*
X149126031Y-128449159D01*
X149229918Y-128610360D01*
X149363137Y-128748312D01*
X149520613Y-128857761D01*
X149696350Y-128934539D01*
X149883652Y-128975720D01*
X150075387Y-128979736D01*
X150264249Y-128946434D01*
X150339584Y-128917214D01*
X151061928Y-129639559D01*
X151061928Y-130100000D01*
X151069992Y-130201121D01*
X151123106Y-130372634D01*
X151221900Y-130522559D01*
X151358550Y-130639025D01*
X151522237Y-130712810D01*
X151700000Y-130738072D01*
X153200000Y-130738072D01*
X153301121Y-130730008D01*
X153472634Y-130676894D01*
X153622559Y-130578100D01*
X153638346Y-130559577D01*
X153646900Y-130572559D01*
X153783550Y-130689025D01*
X153947237Y-130762810D01*
X154125000Y-130788072D01*
X154875000Y-130788072D01*
X154976121Y-130780008D01*
X155147634Y-130726894D01*
X155297559Y-130628100D01*
X155359904Y-130554950D01*
X155458550Y-130639025D01*
X155622237Y-130712810D01*
X155800000Y-130738072D01*
X157300000Y-130738072D01*
X157401121Y-130730008D01*
X157572634Y-130676894D01*
X157722559Y-130578100D01*
X157839025Y-130441450D01*
X157912810Y-130277763D01*
X157938072Y-130100000D01*
X157938072Y-129200000D01*
X157930008Y-129098879D01*
X157876894Y-128927366D01*
X157778100Y-128777441D01*
X157641450Y-128660975D01*
X157477763Y-128587190D01*
X157300000Y-128561928D01*
X157205106Y-128561928D01*
X157189067Y-128530985D01*
X157186566Y-128527853D01*
X157184686Y-128524316D01*
X157140217Y-128469791D01*
X157096286Y-128414760D01*
X157090784Y-128409181D01*
X157090693Y-128409069D01*
X157090589Y-128408983D01*
X157088815Y-128407184D01*
X156763856Y-128082225D01*
X158020814Y-128082225D01*
X158055433Y-128270850D01*
X158126031Y-128449159D01*
X158229918Y-128610360D01*
X158363137Y-128748312D01*
X158520613Y-128857761D01*
X158696350Y-128934539D01*
X158883652Y-128975720D01*
X159075387Y-128979736D01*
X159264249Y-128946434D01*
X159339584Y-128917214D01*
X160061928Y-129639559D01*
X160061928Y-130100000D01*
X160069992Y-130201121D01*
X160123106Y-130372634D01*
X160221900Y-130522559D01*
X160358550Y-130639025D01*
X160522237Y-130712810D01*
X160700000Y-130738072D01*
X162200000Y-130738072D01*
X162301121Y-130730008D01*
X162472634Y-130676894D01*
X162622559Y-130578100D01*
X162638346Y-130559577D01*
X162646900Y-130572559D01*
X162783550Y-130689025D01*
X162947237Y-130762810D01*
X163125000Y-130788072D01*
X163875000Y-130788072D01*
X163976121Y-130780008D01*
X164147634Y-130726894D01*
X164297559Y-130628100D01*
X164359904Y-130554950D01*
X164458550Y-130639025D01*
X164622237Y-130712810D01*
X164800000Y-130738072D01*
X166300000Y-130738072D01*
X166401121Y-130730008D01*
X166572634Y-130676894D01*
X166722559Y-130578100D01*
X166839025Y-130441450D01*
X166912810Y-130277763D01*
X166938072Y-130100000D01*
X166938072Y-129200000D01*
X166930008Y-129098879D01*
X166876894Y-128927366D01*
X166778100Y-128777441D01*
X166641450Y-128660975D01*
X166477763Y-128587190D01*
X166300000Y-128561928D01*
X166205106Y-128561928D01*
X166189067Y-128530985D01*
X166186566Y-128527853D01*
X166184686Y-128524316D01*
X166140217Y-128469791D01*
X166096286Y-128414760D01*
X166090784Y-128409181D01*
X166090693Y-128409069D01*
X166090589Y-128408983D01*
X166088815Y-128407184D01*
X163492815Y-125811185D01*
X163438401Y-125766488D01*
X163384505Y-125721264D01*
X163380997Y-125719336D01*
X163377897Y-125716789D01*
X163315831Y-125683510D01*
X163254184Y-125649619D01*
X163250364Y-125648407D01*
X163246833Y-125646514D01*
X163179536Y-125625939D01*
X163112429Y-125604652D01*
X163108446Y-125604205D01*
X163104615Y-125603034D01*
X163034627Y-125595925D01*
X162964639Y-125588074D01*
X162956803Y-125588019D01*
X162956660Y-125588005D01*
X162956527Y-125588018D01*
X162954000Y-125588000D01*
X162750954Y-125588000D01*
X162678100Y-125477441D01*
X162541450Y-125360975D01*
X162377763Y-125287190D01*
X162200000Y-125261928D01*
X160700000Y-125261928D01*
X160598879Y-125269992D01*
X160427366Y-125323106D01*
X160277441Y-125421900D01*
X160160975Y-125558550D01*
X160087190Y-125722237D01*
X160061928Y-125900000D01*
X160061928Y-126800000D01*
X160069992Y-126901121D01*
X160123106Y-127072634D01*
X160221900Y-127222559D01*
X160358550Y-127339025D01*
X160522237Y-127412810D01*
X160700000Y-127438072D01*
X162200000Y-127438072D01*
X162301121Y-127430008D01*
X162472634Y-127376894D01*
X162622559Y-127278100D01*
X162706261Y-127179892D01*
X164318005Y-128791636D01*
X164265727Y-128852974D01*
X164216450Y-128810975D01*
X164052763Y-128737190D01*
X163875000Y-128711928D01*
X163125000Y-128711928D01*
X163023879Y-128719992D01*
X162852366Y-128773106D01*
X162728869Y-128854485D01*
X162678100Y-128777441D01*
X162541450Y-128660975D01*
X162377763Y-128587190D01*
X162200000Y-128561928D01*
X161139559Y-128561928D01*
X160038815Y-127461185D01*
X159984401Y-127416488D01*
X159930505Y-127371264D01*
X159926997Y-127369336D01*
X159923897Y-127366789D01*
X159861831Y-127333510D01*
X159800184Y-127299619D01*
X159796364Y-127298407D01*
X159792833Y-127296514D01*
X159725536Y-127275939D01*
X159658429Y-127254652D01*
X159654446Y-127254205D01*
X159650615Y-127253034D01*
X159634858Y-127251433D01*
X159626353Y-127242869D01*
X159467364Y-127135629D01*
X159290572Y-127061313D01*
X159102713Y-127022751D01*
X158910942Y-127021412D01*
X158722562Y-127057347D01*
X158544750Y-127129188D01*
X158384279Y-127234198D01*
X158247260Y-127368376D01*
X158138913Y-127526613D01*
X158063364Y-127702882D01*
X158023492Y-127890467D01*
X158020814Y-128082225D01*
X156763856Y-128082225D01*
X154492815Y-125811185D01*
X154438401Y-125766488D01*
X154384505Y-125721264D01*
X154380997Y-125719336D01*
X154377897Y-125716789D01*
X154315831Y-125683510D01*
X154254184Y-125649619D01*
X154250364Y-125648407D01*
X154246833Y-125646514D01*
X154179536Y-125625939D01*
X154112429Y-125604652D01*
X154108446Y-125604205D01*
X154104615Y-125603034D01*
X154034627Y-125595925D01*
X153964639Y-125588074D01*
X153956803Y-125588019D01*
X153956660Y-125588005D01*
X153956527Y-125588018D01*
X153954000Y-125588000D01*
X153750954Y-125588000D01*
X153678100Y-125477441D01*
X153541450Y-125360975D01*
X153377763Y-125287190D01*
X153200000Y-125261928D01*
X151700000Y-125261928D01*
X151598879Y-125269992D01*
X151427366Y-125323106D01*
X151277441Y-125421900D01*
X151160975Y-125558550D01*
X151087190Y-125722237D01*
X151061928Y-125900000D01*
X151061928Y-126800000D01*
X151069992Y-126901121D01*
X151123106Y-127072634D01*
X151221900Y-127222559D01*
X151358550Y-127339025D01*
X151522237Y-127412810D01*
X151700000Y-127438072D01*
X153200000Y-127438072D01*
X153301121Y-127430008D01*
X153472634Y-127376894D01*
X153622559Y-127278100D01*
X153706261Y-127179892D01*
X155318005Y-128791636D01*
X155265727Y-128852974D01*
X155216450Y-128810975D01*
X155052763Y-128737190D01*
X154875000Y-128711928D01*
X154125000Y-128711928D01*
X154023879Y-128719992D01*
X153852366Y-128773106D01*
X153728869Y-128854485D01*
X153678100Y-128777441D01*
X153541450Y-128660975D01*
X153377763Y-128587190D01*
X153200000Y-128561928D01*
X152139559Y-128561928D01*
X151038815Y-127461185D01*
X150984401Y-127416488D01*
X150930505Y-127371264D01*
X150926997Y-127369336D01*
X150923897Y-127366789D01*
X150861831Y-127333510D01*
X150800184Y-127299619D01*
X150796364Y-127298407D01*
X150792833Y-127296514D01*
X150725536Y-127275939D01*
X150658429Y-127254652D01*
X150654446Y-127254205D01*
X150650615Y-127253034D01*
X150634858Y-127251433D01*
X150626353Y-127242869D01*
X150467364Y-127135629D01*
X150290572Y-127061313D01*
X150102713Y-127022751D01*
X149910942Y-127021412D01*
X149722562Y-127057347D01*
X149544750Y-127129188D01*
X149384279Y-127234198D01*
X149247260Y-127368376D01*
X149138913Y-127526613D01*
X149063364Y-127702882D01*
X149023492Y-127890467D01*
X149020814Y-128082225D01*
X148475455Y-128082225D01*
X148477942Y-127904112D01*
X148440693Y-127715988D01*
X148367613Y-127538682D01*
X148261485Y-127378948D01*
X148126353Y-127242869D01*
X147967364Y-127135629D01*
X147790572Y-127061313D01*
X147602713Y-127022751D01*
X147410942Y-127021412D01*
X147222562Y-127057347D01*
X147044750Y-127129188D01*
X146884279Y-127234198D01*
X146747260Y-127368376D01*
X146638913Y-127526613D01*
X146563364Y-127702882D01*
X146523492Y-127890467D01*
X146520814Y-128082225D01*
X146555433Y-128270850D01*
X146626031Y-128449159D01*
X146703657Y-128569611D01*
X146698879Y-128569992D01*
X146527366Y-128623106D01*
X146377441Y-128721900D01*
X146260975Y-128858550D01*
X146187190Y-129022237D01*
X146161928Y-129200000D01*
X144210000Y-129200000D01*
X144210000Y-124855838D01*
X144249251Y-124877416D01*
X144528036Y-124965852D01*
X144818688Y-124998454D01*
X144839612Y-124998600D01*
X145160388Y-124998600D01*
X145451468Y-124970059D01*
X145731460Y-124885525D01*
X145989701Y-124748216D01*
X146216353Y-124563363D01*
X146402784Y-124338006D01*
X146541892Y-124080731D01*
X146628379Y-123801335D01*
X146658951Y-123510462D01*
X146632444Y-123219190D01*
X146549866Y-122938615D01*
X146414363Y-122679422D01*
X146231097Y-122451485D01*
X146202220Y-122427255D01*
X146288634Y-122400494D01*
X146438559Y-122301700D01*
X146555025Y-122165050D01*
X146628810Y-122001363D01*
X146654072Y-121823600D01*
X146654072Y-121717334D01*
X146800000Y-121738072D01*
X148300000Y-121738072D01*
X148401121Y-121730008D01*
X148572634Y-121676894D01*
X148722559Y-121578100D01*
X148839025Y-121441450D01*
X148912810Y-121277763D01*
X148938072Y-121100000D01*
X148938072Y-120200000D01*
X148930008Y-120098879D01*
X148876894Y-119927366D01*
X148778100Y-119777441D01*
X148641450Y-119660975D01*
X148477763Y-119587190D01*
X148300000Y-119561928D01*
X148205106Y-119561928D01*
X148189067Y-119530986D01*
X148186568Y-119527856D01*
X148184686Y-119524316D01*
X148140199Y-119469769D01*
X148096286Y-119414760D01*
X148090788Y-119409185D01*
X148090693Y-119409069D01*
X148090585Y-119408980D01*
X148088815Y-119407185D01*
X147763855Y-119082225D01*
X149020814Y-119082225D01*
X149055433Y-119270850D01*
X149126031Y-119449159D01*
X149229918Y-119610360D01*
X149363137Y-119748312D01*
X149520613Y-119857761D01*
X149696350Y-119934539D01*
X149883652Y-119975720D01*
X150075387Y-119979736D01*
X150264249Y-119946434D01*
X150339584Y-119917214D01*
X151061928Y-120639559D01*
X151061928Y-121100000D01*
X151069992Y-121201121D01*
X151123106Y-121372634D01*
X151221900Y-121522559D01*
X151358550Y-121639025D01*
X151522237Y-121712810D01*
X151700000Y-121738072D01*
X153200000Y-121738072D01*
X153301121Y-121730008D01*
X153472634Y-121676894D01*
X153622559Y-121578100D01*
X153638346Y-121559577D01*
X153646900Y-121572559D01*
X153783550Y-121689025D01*
X153947237Y-121762810D01*
X154125000Y-121788072D01*
X154875000Y-121788072D01*
X154976121Y-121780008D01*
X155147634Y-121726894D01*
X155297559Y-121628100D01*
X155359904Y-121554950D01*
X155458550Y-121639025D01*
X155622237Y-121712810D01*
X155800000Y-121738072D01*
X157300000Y-121738072D01*
X157401121Y-121730008D01*
X157572634Y-121676894D01*
X157722559Y-121578100D01*
X157839025Y-121441450D01*
X157912810Y-121277763D01*
X157938072Y-121100000D01*
X157938072Y-120200000D01*
X157930008Y-120098879D01*
X157876894Y-119927366D01*
X157778100Y-119777441D01*
X157641450Y-119660975D01*
X157477763Y-119587190D01*
X157300000Y-119561928D01*
X157205106Y-119561928D01*
X157189067Y-119530985D01*
X157186566Y-119527853D01*
X157184686Y-119524316D01*
X157140217Y-119469791D01*
X157096286Y-119414760D01*
X157090784Y-119409181D01*
X157090693Y-119409069D01*
X157090589Y-119408983D01*
X157088815Y-119407184D01*
X156763856Y-119082225D01*
X158020814Y-119082225D01*
X158055433Y-119270850D01*
X158126031Y-119449159D01*
X158229918Y-119610360D01*
X158363137Y-119748312D01*
X158520613Y-119857761D01*
X158696350Y-119934539D01*
X158883652Y-119975720D01*
X159075387Y-119979736D01*
X159264249Y-119946434D01*
X159339584Y-119917214D01*
X160061928Y-120639559D01*
X160061928Y-121100000D01*
X160069992Y-121201121D01*
X160123106Y-121372634D01*
X160221900Y-121522559D01*
X160358550Y-121639025D01*
X160522237Y-121712810D01*
X160700000Y-121738072D01*
X162200000Y-121738072D01*
X162301121Y-121730008D01*
X162472634Y-121676894D01*
X162622559Y-121578100D01*
X162638346Y-121559577D01*
X162646900Y-121572559D01*
X162783550Y-121689025D01*
X162947237Y-121762810D01*
X163125000Y-121788072D01*
X163875000Y-121788072D01*
X163976121Y-121780008D01*
X164147634Y-121726894D01*
X164297559Y-121628100D01*
X164359904Y-121554950D01*
X164458550Y-121639025D01*
X164622237Y-121712810D01*
X164800000Y-121738072D01*
X166300000Y-121738072D01*
X166401121Y-121730008D01*
X166572634Y-121676894D01*
X166722559Y-121578100D01*
X166839025Y-121441450D01*
X166912810Y-121277763D01*
X166938072Y-121100000D01*
X166938072Y-120200000D01*
X166930008Y-120098879D01*
X166876894Y-119927366D01*
X166778100Y-119777441D01*
X166641450Y-119660975D01*
X166477763Y-119587190D01*
X166300000Y-119561928D01*
X166205106Y-119561928D01*
X166189067Y-119530985D01*
X166186566Y-119527853D01*
X166184686Y-119524316D01*
X166140217Y-119469791D01*
X166096286Y-119414760D01*
X166090784Y-119409181D01*
X166090693Y-119409069D01*
X166090589Y-119408983D01*
X166088815Y-119407184D01*
X163492815Y-116811185D01*
X163438401Y-116766488D01*
X163384505Y-116721264D01*
X163380997Y-116719336D01*
X163377897Y-116716789D01*
X163315831Y-116683510D01*
X163254184Y-116649619D01*
X163250364Y-116648407D01*
X163246833Y-116646514D01*
X163179536Y-116625939D01*
X163112429Y-116604652D01*
X163108446Y-116604205D01*
X163104615Y-116603034D01*
X163034627Y-116595925D01*
X162964639Y-116588074D01*
X162956803Y-116588019D01*
X162956660Y-116588005D01*
X162956527Y-116588018D01*
X162954000Y-116588000D01*
X162750954Y-116588000D01*
X162678100Y-116477441D01*
X162541450Y-116360975D01*
X162377763Y-116287190D01*
X162200000Y-116261928D01*
X160700000Y-116261928D01*
X160598879Y-116269992D01*
X160427366Y-116323106D01*
X160277441Y-116421900D01*
X160160975Y-116558550D01*
X160087190Y-116722237D01*
X160061928Y-116900000D01*
X160061928Y-117800000D01*
X160069992Y-117901121D01*
X160123106Y-118072634D01*
X160221900Y-118222559D01*
X160358550Y-118339025D01*
X160522237Y-118412810D01*
X160700000Y-118438072D01*
X162200000Y-118438072D01*
X162301121Y-118430008D01*
X162472634Y-118376894D01*
X162622559Y-118278100D01*
X162706261Y-118179892D01*
X164318005Y-119791636D01*
X164265727Y-119852974D01*
X164216450Y-119810975D01*
X164052763Y-119737190D01*
X163875000Y-119711928D01*
X163125000Y-119711928D01*
X163023879Y-119719992D01*
X162852366Y-119773106D01*
X162728869Y-119854485D01*
X162678100Y-119777441D01*
X162541450Y-119660975D01*
X162377763Y-119587190D01*
X162200000Y-119561928D01*
X161139559Y-119561928D01*
X160038815Y-118461185D01*
X159984401Y-118416488D01*
X159930505Y-118371264D01*
X159926997Y-118369336D01*
X159923897Y-118366789D01*
X159861831Y-118333510D01*
X159800184Y-118299619D01*
X159796364Y-118298407D01*
X159792833Y-118296514D01*
X159725536Y-118275939D01*
X159658429Y-118254652D01*
X159654446Y-118254205D01*
X159650615Y-118253034D01*
X159634858Y-118251433D01*
X159626353Y-118242869D01*
X159467364Y-118135629D01*
X159290572Y-118061313D01*
X159102713Y-118022751D01*
X158910942Y-118021412D01*
X158722562Y-118057347D01*
X158544750Y-118129188D01*
X158384279Y-118234198D01*
X158247260Y-118368376D01*
X158138913Y-118526613D01*
X158063364Y-118702882D01*
X158023492Y-118890467D01*
X158020814Y-119082225D01*
X156763856Y-119082225D01*
X154492815Y-116811185D01*
X154438401Y-116766488D01*
X154384505Y-116721264D01*
X154380997Y-116719336D01*
X154377897Y-116716789D01*
X154315831Y-116683510D01*
X154254184Y-116649619D01*
X154250364Y-116648407D01*
X154246833Y-116646514D01*
X154179536Y-116625939D01*
X154112429Y-116604652D01*
X154108446Y-116604205D01*
X154104615Y-116603034D01*
X154034627Y-116595925D01*
X153964639Y-116588074D01*
X153956803Y-116588019D01*
X153956660Y-116588005D01*
X153956527Y-116588018D01*
X153954000Y-116588000D01*
X153750954Y-116588000D01*
X153678100Y-116477441D01*
X153541450Y-116360975D01*
X153377763Y-116287190D01*
X153200000Y-116261928D01*
X151700000Y-116261928D01*
X151598879Y-116269992D01*
X151427366Y-116323106D01*
X151277441Y-116421900D01*
X151160975Y-116558550D01*
X151087190Y-116722237D01*
X151061928Y-116900000D01*
X151061928Y-117800000D01*
X151069992Y-117901121D01*
X151123106Y-118072634D01*
X151221900Y-118222559D01*
X151358550Y-118339025D01*
X151522237Y-118412810D01*
X151700000Y-118438072D01*
X153200000Y-118438072D01*
X153301121Y-118430008D01*
X153472634Y-118376894D01*
X153622559Y-118278100D01*
X153706261Y-118179892D01*
X155318005Y-119791636D01*
X155265727Y-119852974D01*
X155216450Y-119810975D01*
X155052763Y-119737190D01*
X154875000Y-119711928D01*
X154125000Y-119711928D01*
X154023879Y-119719992D01*
X153852366Y-119773106D01*
X153728869Y-119854485D01*
X153678100Y-119777441D01*
X153541450Y-119660975D01*
X153377763Y-119587190D01*
X153200000Y-119561928D01*
X152139559Y-119561928D01*
X151038815Y-118461185D01*
X150984401Y-118416488D01*
X150930505Y-118371264D01*
X150926997Y-118369336D01*
X150923897Y-118366789D01*
X150861831Y-118333510D01*
X150800184Y-118299619D01*
X150796364Y-118298407D01*
X150792833Y-118296514D01*
X150725536Y-118275939D01*
X150658429Y-118254652D01*
X150654446Y-118254205D01*
X150650615Y-118253034D01*
X150634858Y-118251433D01*
X150626353Y-118242869D01*
X150467364Y-118135629D01*
X150290572Y-118061313D01*
X150102713Y-118022751D01*
X149910942Y-118021412D01*
X149722562Y-118057347D01*
X149544750Y-118129188D01*
X149384279Y-118234198D01*
X149247260Y-118368376D01*
X149138913Y-118526613D01*
X149063364Y-118702882D01*
X149023492Y-118890467D01*
X149020814Y-119082225D01*
X147763855Y-119082225D01*
X146762000Y-118080370D01*
X146762000Y-117315630D01*
X148815630Y-115262000D01*
X155382831Y-115262000D01*
X155520613Y-115357761D01*
X155696350Y-115434539D01*
X155883652Y-115475720D01*
X156075387Y-115479736D01*
X156264249Y-115446434D01*
X156443047Y-115377083D01*
X156604969Y-115274325D01*
X156743848Y-115142072D01*
X156854394Y-114985363D01*
X156932396Y-114810167D01*
X156974884Y-114623156D01*
X156977942Y-114404112D01*
X156940693Y-114215988D01*
X156867613Y-114038682D01*
X156761485Y-113878948D01*
X156626353Y-113742869D01*
X156467364Y-113635629D01*
X156290572Y-113561313D01*
X156102713Y-113522751D01*
X155910942Y-113521412D01*
X155722562Y-113557347D01*
X155544750Y-113629188D01*
X155384279Y-113734198D01*
X155380396Y-113738000D01*
X148500000Y-113738000D01*
X148429936Y-113744870D01*
X148359830Y-113751003D01*
X148355982Y-113752121D01*
X148351993Y-113752512D01*
X148284582Y-113772865D01*
X148217018Y-113792494D01*
X148213462Y-113794337D01*
X148209624Y-113795496D01*
X148147447Y-113828556D01*
X148084986Y-113860933D01*
X148081856Y-113863432D01*
X148078316Y-113865314D01*
X148023769Y-113909801D01*
X147968760Y-113953714D01*
X147963185Y-113959212D01*
X147963069Y-113959307D01*
X147962980Y-113959415D01*
X147961185Y-113961185D01*
X145461185Y-116461185D01*
X145416488Y-116515599D01*
X145371264Y-116569495D01*
X145369336Y-116573003D01*
X145366789Y-116576103D01*
X145333510Y-116638169D01*
X145299619Y-116699816D01*
X145298407Y-116703636D01*
X145296514Y-116707167D01*
X145275939Y-116774464D01*
X145254652Y-116841571D01*
X145254205Y-116845554D01*
X145253034Y-116849385D01*
X145245925Y-116919373D01*
X145238074Y-116989361D01*
X145238019Y-116997197D01*
X145238005Y-116997340D01*
X145238018Y-116997473D01*
X145238000Y-117000000D01*
X145238000Y-118396000D01*
X145244875Y-118466114D01*
X145251004Y-118536170D01*
X145252120Y-118540013D01*
X145252512Y-118544007D01*
X145272877Y-118611460D01*
X145292494Y-118678982D01*
X145294337Y-118682538D01*
X145295496Y-118686376D01*
X145328556Y-118748553D01*
X145360933Y-118811014D01*
X145363432Y-118814144D01*
X145365314Y-118817684D01*
X145409801Y-118872231D01*
X145453714Y-118927240D01*
X145459212Y-118932815D01*
X145459307Y-118932931D01*
X145459415Y-118933020D01*
X145461185Y-118934815D01*
X145984698Y-119458328D01*
X144210000Y-119458328D01*
X144210000Y-108534720D01*
X144295041Y-107667399D01*
X144536846Y-106866506D01*
X144929604Y-106127835D01*
X145458357Y-105479518D01*
X146102963Y-104946253D01*
X146838878Y-104548346D01*
X147638060Y-104300958D01*
X148503469Y-104210000D01*
X162184162Y-104210000D01*
X162162584Y-104249251D01*
M02*
