M48
;DRILL file {KiCad 4.0.4-stable} date Mon Sep 26 22:20:27 2016
;FORMAT={2:4/ absolute / inch / suppress trailing zeros}
FMAT,2
INCH,LZ
T1C0.013
T2C0.040
%
G90
G05
M72
T1
X058071Y-042126
X058071Y-050394
X058268Y-055118
X059055Y-043307
X059055Y-04685
X059055Y-050394
X059055Y-053937
X060235Y-052165
X061417Y-045079
X062598Y-043307
X062598Y-04685
X062598Y-050394
X062598Y-053937
X065082Y-055118
X066142Y-043307
X066142Y-04685
X066142Y-050394
X066142Y-053937
X066732Y-055118
X068504Y-045079
X068702Y-048425
X069488Y-049606
X069685Y-043307
X069685Y-04685
X069685Y-050394
X069685Y-053937
X070669Y-052756
T2
X057087Y-043701
X057087Y-044701
X057087Y-045701
X057087Y-047622
X057087Y-048622
X057087Y-049622
X057087Y-051559
X057087Y-052559
X057087Y-053559
X059433Y-041339
X059433Y-055906
X060433Y-041339
X060433Y-055906
X061433Y-041339
X061433Y-055906
X063354Y-055906
X063386Y-041339
X064354Y-055906
X064386Y-041339
X065354Y-055906
X065386Y-041339
X067307Y-041339
X067323Y-055906
X068307Y-041339
X068323Y-055906
X069307Y-041339
X069323Y-055906
X071654Y-043669
X071654Y-044669
X071654Y-045669
X071654Y-047606
X071654Y-048606
X071654Y-049606
X071654Y-051362
X071654Y-052362
X071654Y-053362
T0
M30
