G04 #@! TF.FileFunction,Legend,Bot*
%FSLAX46Y46*%
G04 Gerber Fmt 4.6, Leading zero omitted, Abs format (unit mm)*
G04 Created by KiCad (PCBNEW 4.0.4-stable) date Mon Sep 26 22:20:25 2016*
%MOMM*%
%LPD*%
G01*
G04 APERTURE LIST*
%ADD10C,0.100000*%
%ADD11C,0.010000*%
%ADD12C,2.032000*%
%ADD13R,1.727200X2.032000*%
%ADD14O,1.727200X2.032000*%
%ADD15R,2.032000X1.727200*%
%ADD16O,2.032000X1.727200*%
G04 APERTURE END LIST*
D10*
D11*
G36*
X156278043Y-132753412D02*
X156045591Y-132849953D01*
X155843611Y-132997409D01*
X155600128Y-133279296D01*
X155449269Y-133604858D01*
X155385364Y-133962256D01*
X155402739Y-134339655D01*
X155495722Y-134725215D01*
X155658641Y-135107101D01*
X155885825Y-135473473D01*
X156171600Y-135812496D01*
X156510295Y-136112331D01*
X156896237Y-136361141D01*
X157323754Y-136547089D01*
X157579148Y-136619335D01*
X157924282Y-136686586D01*
X158370982Y-136754181D01*
X158907938Y-136821009D01*
X159523837Y-136885958D01*
X160207366Y-136947918D01*
X160947214Y-137005776D01*
X161732068Y-137058420D01*
X162484000Y-137101285D01*
X162766051Y-137112453D01*
X163147591Y-137122138D01*
X163615228Y-137130345D01*
X164155572Y-137137078D01*
X164755231Y-137142342D01*
X165400815Y-137146143D01*
X166078932Y-137148483D01*
X166776193Y-137149369D01*
X167479206Y-137148805D01*
X168174580Y-137146795D01*
X168848924Y-137143344D01*
X169488848Y-137138458D01*
X170080961Y-137132140D01*
X170611871Y-137124396D01*
X171068188Y-137115230D01*
X171436521Y-137104647D01*
X171599778Y-137098084D01*
X172253519Y-137062637D01*
X172797891Y-137021667D01*
X173236305Y-136974625D01*
X173572171Y-136920962D01*
X173808901Y-136860127D01*
X173949904Y-136791570D01*
X173998591Y-136714742D01*
X173998666Y-136711386D01*
X173954541Y-136605788D01*
X173906035Y-136571643D01*
X173785834Y-136540033D01*
X173597921Y-136512750D01*
X173336806Y-136489601D01*
X172996997Y-136470398D01*
X172573004Y-136454949D01*
X172059336Y-136443064D01*
X171450503Y-136434552D01*
X170741013Y-136429224D01*
X169925377Y-136426888D01*
X169729602Y-136426756D01*
X166674093Y-136425778D01*
X166756936Y-136185889D01*
X166811143Y-135900817D01*
X166777155Y-135596277D01*
X166652328Y-135251977D01*
X166628677Y-135201972D01*
X166435972Y-134899789D01*
X166187690Y-134653223D01*
X165901414Y-134466999D01*
X165594729Y-134345842D01*
X165285220Y-134294476D01*
X164990470Y-134317626D01*
X164728065Y-134420018D01*
X164515588Y-134606376D01*
X164498019Y-134629462D01*
X164385649Y-134872740D01*
X164353227Y-135166488D01*
X164396676Y-135485786D01*
X164511919Y-135805712D01*
X164694879Y-136101348D01*
X164749621Y-136167292D01*
X164977149Y-136425778D01*
X163485745Y-136425778D01*
X162977537Y-136424112D01*
X162397634Y-136419453D01*
X161787178Y-136412309D01*
X161187308Y-136403186D01*
X160639165Y-136392593D01*
X160459880Y-136388455D01*
X158925420Y-136351133D01*
X159032997Y-136233233D01*
X159191070Y-136026529D01*
X159289678Y-135803939D01*
X159339271Y-135532802D01*
X159350695Y-135240445D01*
X159345743Y-134989816D01*
X159324229Y-134801392D01*
X159275281Y-134627745D01*
X159188027Y-134421446D01*
X159139128Y-134317401D01*
X158872806Y-133871713D01*
X158527036Y-133468856D01*
X158126001Y-133133437D01*
X157770889Y-132925027D01*
X157516649Y-132815655D01*
X157288381Y-132751780D01*
X157027218Y-132718689D01*
X156917172Y-132711658D01*
X156558894Y-132709889D01*
X156278043Y-132753412D01*
X156278043Y-132753412D01*
G37*
X156278043Y-132753412D02*
X156045591Y-132849953D01*
X155843611Y-132997409D01*
X155600128Y-133279296D01*
X155449269Y-133604858D01*
X155385364Y-133962256D01*
X155402739Y-134339655D01*
X155495722Y-134725215D01*
X155658641Y-135107101D01*
X155885825Y-135473473D01*
X156171600Y-135812496D01*
X156510295Y-136112331D01*
X156896237Y-136361141D01*
X157323754Y-136547089D01*
X157579148Y-136619335D01*
X157924282Y-136686586D01*
X158370982Y-136754181D01*
X158907938Y-136821009D01*
X159523837Y-136885958D01*
X160207366Y-136947918D01*
X160947214Y-137005776D01*
X161732068Y-137058420D01*
X162484000Y-137101285D01*
X162766051Y-137112453D01*
X163147591Y-137122138D01*
X163615228Y-137130345D01*
X164155572Y-137137078D01*
X164755231Y-137142342D01*
X165400815Y-137146143D01*
X166078932Y-137148483D01*
X166776193Y-137149369D01*
X167479206Y-137148805D01*
X168174580Y-137146795D01*
X168848924Y-137143344D01*
X169488848Y-137138458D01*
X170080961Y-137132140D01*
X170611871Y-137124396D01*
X171068188Y-137115230D01*
X171436521Y-137104647D01*
X171599778Y-137098084D01*
X172253519Y-137062637D01*
X172797891Y-137021667D01*
X173236305Y-136974625D01*
X173572171Y-136920962D01*
X173808901Y-136860127D01*
X173949904Y-136791570D01*
X173998591Y-136714742D01*
X173998666Y-136711386D01*
X173954541Y-136605788D01*
X173906035Y-136571643D01*
X173785834Y-136540033D01*
X173597921Y-136512750D01*
X173336806Y-136489601D01*
X172996997Y-136470398D01*
X172573004Y-136454949D01*
X172059336Y-136443064D01*
X171450503Y-136434552D01*
X170741013Y-136429224D01*
X169925377Y-136426888D01*
X169729602Y-136426756D01*
X166674093Y-136425778D01*
X166756936Y-136185889D01*
X166811143Y-135900817D01*
X166777155Y-135596277D01*
X166652328Y-135251977D01*
X166628677Y-135201972D01*
X166435972Y-134899789D01*
X166187690Y-134653223D01*
X165901414Y-134466999D01*
X165594729Y-134345842D01*
X165285220Y-134294476D01*
X164990470Y-134317626D01*
X164728065Y-134420018D01*
X164515588Y-134606376D01*
X164498019Y-134629462D01*
X164385649Y-134872740D01*
X164353227Y-135166488D01*
X164396676Y-135485786D01*
X164511919Y-135805712D01*
X164694879Y-136101348D01*
X164749621Y-136167292D01*
X164977149Y-136425778D01*
X163485745Y-136425778D01*
X162977537Y-136424112D01*
X162397634Y-136419453D01*
X161787178Y-136412309D01*
X161187308Y-136403186D01*
X160639165Y-136392593D01*
X160459880Y-136388455D01*
X158925420Y-136351133D01*
X159032997Y-136233233D01*
X159191070Y-136026529D01*
X159289678Y-135803939D01*
X159339271Y-135532802D01*
X159350695Y-135240445D01*
X159345743Y-134989816D01*
X159324229Y-134801392D01*
X159275281Y-134627745D01*
X159188027Y-134421446D01*
X159139128Y-134317401D01*
X158872806Y-133871713D01*
X158527036Y-133468856D01*
X158126001Y-133133437D01*
X157770889Y-132925027D01*
X157516649Y-132815655D01*
X157288381Y-132751780D01*
X157027218Y-132718689D01*
X156917172Y-132711658D01*
X156558894Y-132709889D01*
X156278043Y-132753412D01*
G36*
X154477062Y-125584938D02*
X154420500Y-125731405D01*
X154338887Y-125959288D01*
X154236501Y-126255409D01*
X154117620Y-126606590D01*
X153986524Y-126999653D01*
X153847489Y-127421422D01*
X153704796Y-127858719D01*
X153562721Y-128298367D01*
X153425543Y-128727187D01*
X153297542Y-129132002D01*
X153182994Y-129499636D01*
X153086179Y-129816910D01*
X153011374Y-130070647D01*
X152962859Y-130247670D01*
X152944911Y-130334801D01*
X152944889Y-130336076D01*
X152996026Y-130395384D01*
X153141992Y-130488763D01*
X153371616Y-130611445D01*
X153673730Y-130758663D01*
X154037163Y-130925651D01*
X154450745Y-131107641D01*
X154903307Y-131299867D01*
X155383680Y-131497561D01*
X155880692Y-131695957D01*
X156383176Y-131890289D01*
X156879961Y-132075788D01*
X157359877Y-132247689D01*
X157686222Y-132359530D01*
X159465230Y-132907881D01*
X161239680Y-133356623D01*
X163025338Y-133708470D01*
X164837969Y-133966131D01*
X166693338Y-134132320D01*
X168421587Y-134206115D01*
X170041174Y-134241301D01*
X170071011Y-134105873D01*
X170088631Y-134003342D01*
X170117452Y-133808688D01*
X170155714Y-133535665D01*
X170201653Y-133198025D01*
X170253505Y-132809523D01*
X170309510Y-132383912D01*
X170367904Y-131934946D01*
X170426924Y-131476378D01*
X170484808Y-131021963D01*
X170539794Y-130585454D01*
X170553977Y-130471352D01*
X168059703Y-130471352D01*
X168027979Y-130834526D01*
X167900642Y-131181432D01*
X167687672Y-131479917D01*
X167401760Y-131707039D01*
X167063340Y-131849351D01*
X166698094Y-131903466D01*
X166331708Y-131865999D01*
X165989864Y-131733562D01*
X165948596Y-131709211D01*
X165698799Y-131501804D01*
X165485490Y-131225638D01*
X165335460Y-130920303D01*
X165285186Y-130728888D01*
X165279793Y-130362215D01*
X165373429Y-130016662D01*
X165552361Y-129707951D01*
X165799839Y-129454889D01*
X163271743Y-129454889D01*
X163219222Y-129847777D01*
X163067823Y-130197447D01*
X162826794Y-130489400D01*
X162505381Y-130709139D01*
X162457030Y-130732166D01*
X162192606Y-130808378D01*
X161880230Y-130833974D01*
X161572746Y-130808072D01*
X161367409Y-130750355D01*
X161119665Y-130603751D01*
X160878367Y-130387705D01*
X160683074Y-130140695D01*
X160615844Y-130019333D01*
X160541132Y-129775587D01*
X160509963Y-129483053D01*
X160509684Y-129458599D01*
X160557896Y-129085218D01*
X160694776Y-128759384D01*
X160904309Y-128488269D01*
X160953036Y-128449966D01*
X158622632Y-128449966D01*
X158570374Y-128794518D01*
X158426381Y-129117863D01*
X158193862Y-129404067D01*
X157876024Y-129637194D01*
X157742666Y-129704456D01*
X157385011Y-129806431D01*
X157013416Y-129797311D01*
X156779972Y-129736004D01*
X156423507Y-129556510D01*
X156140843Y-129292828D01*
X156008258Y-129100199D01*
X155918948Y-128926912D01*
X155871157Y-128761906D01*
X155853219Y-128555874D01*
X155851778Y-128438889D01*
X155878886Y-128092182D01*
X155969550Y-127810684D01*
X156137780Y-127558168D01*
X156232408Y-127454622D01*
X156545390Y-127207116D01*
X156889351Y-127062357D01*
X157248399Y-127020397D01*
X157606639Y-127081285D01*
X157948179Y-127245072D01*
X158196910Y-127448423D01*
X158439108Y-127760983D01*
X158579946Y-128100142D01*
X158622632Y-128449966D01*
X160953036Y-128449966D01*
X161170477Y-128279045D01*
X161477266Y-128138882D01*
X161808657Y-128074954D01*
X162148636Y-128094431D01*
X162481186Y-128204486D01*
X162790290Y-128412290D01*
X162808874Y-128429063D01*
X163058867Y-128708819D01*
X163208244Y-129007022D01*
X163268985Y-129350222D01*
X163271743Y-129454889D01*
X165799839Y-129454889D01*
X165802859Y-129451801D01*
X166111190Y-129263934D01*
X166463625Y-129160070D01*
X166669147Y-129144445D01*
X167005212Y-129173773D01*
X167285502Y-129272694D01*
X167553816Y-129457610D01*
X167591160Y-129489750D01*
X167840296Y-129778412D01*
X167996810Y-130112463D01*
X168059703Y-130471352D01*
X170553977Y-130471352D01*
X170590118Y-130180604D01*
X170634018Y-129821168D01*
X170669731Y-129520899D01*
X170695495Y-129293551D01*
X170709548Y-129152877D01*
X170711038Y-129111779D01*
X170654325Y-129097131D01*
X170494792Y-129059929D01*
X170239886Y-129001814D01*
X169897050Y-128924433D01*
X169473731Y-128829428D01*
X168977374Y-128718443D01*
X168415423Y-128593124D01*
X167795325Y-128455113D01*
X167124523Y-128306055D01*
X166410464Y-128147593D01*
X165660593Y-127981373D01*
X164882356Y-127809037D01*
X164083196Y-127632230D01*
X163270560Y-127452596D01*
X162451892Y-127271779D01*
X161634639Y-127091423D01*
X160826244Y-126913172D01*
X160034154Y-126738670D01*
X159265814Y-126569561D01*
X158528669Y-126407489D01*
X157830164Y-126254098D01*
X157177744Y-126111033D01*
X156578856Y-125979936D01*
X156040942Y-125862453D01*
X155571451Y-125760227D01*
X155177825Y-125674903D01*
X154867511Y-125608123D01*
X154647954Y-125561533D01*
X154526599Y-125536777D01*
X154504294Y-125533063D01*
X154477062Y-125584938D01*
X154477062Y-125584938D01*
G37*
X154477062Y-125584938D02*
X154420500Y-125731405D01*
X154338887Y-125959288D01*
X154236501Y-126255409D01*
X154117620Y-126606590D01*
X153986524Y-126999653D01*
X153847489Y-127421422D01*
X153704796Y-127858719D01*
X153562721Y-128298367D01*
X153425543Y-128727187D01*
X153297542Y-129132002D01*
X153182994Y-129499636D01*
X153086179Y-129816910D01*
X153011374Y-130070647D01*
X152962859Y-130247670D01*
X152944911Y-130334801D01*
X152944889Y-130336076D01*
X152996026Y-130395384D01*
X153141992Y-130488763D01*
X153371616Y-130611445D01*
X153673730Y-130758663D01*
X154037163Y-130925651D01*
X154450745Y-131107641D01*
X154903307Y-131299867D01*
X155383680Y-131497561D01*
X155880692Y-131695957D01*
X156383176Y-131890289D01*
X156879961Y-132075788D01*
X157359877Y-132247689D01*
X157686222Y-132359530D01*
X159465230Y-132907881D01*
X161239680Y-133356623D01*
X163025338Y-133708470D01*
X164837969Y-133966131D01*
X166693338Y-134132320D01*
X168421587Y-134206115D01*
X170041174Y-134241301D01*
X170071011Y-134105873D01*
X170088631Y-134003342D01*
X170117452Y-133808688D01*
X170155714Y-133535665D01*
X170201653Y-133198025D01*
X170253505Y-132809523D01*
X170309510Y-132383912D01*
X170367904Y-131934946D01*
X170426924Y-131476378D01*
X170484808Y-131021963D01*
X170539794Y-130585454D01*
X170553977Y-130471352D01*
X168059703Y-130471352D01*
X168027979Y-130834526D01*
X167900642Y-131181432D01*
X167687672Y-131479917D01*
X167401760Y-131707039D01*
X167063340Y-131849351D01*
X166698094Y-131903466D01*
X166331708Y-131865999D01*
X165989864Y-131733562D01*
X165948596Y-131709211D01*
X165698799Y-131501804D01*
X165485490Y-131225638D01*
X165335460Y-130920303D01*
X165285186Y-130728888D01*
X165279793Y-130362215D01*
X165373429Y-130016662D01*
X165552361Y-129707951D01*
X165799839Y-129454889D01*
X163271743Y-129454889D01*
X163219222Y-129847777D01*
X163067823Y-130197447D01*
X162826794Y-130489400D01*
X162505381Y-130709139D01*
X162457030Y-130732166D01*
X162192606Y-130808378D01*
X161880230Y-130833974D01*
X161572746Y-130808072D01*
X161367409Y-130750355D01*
X161119665Y-130603751D01*
X160878367Y-130387705D01*
X160683074Y-130140695D01*
X160615844Y-130019333D01*
X160541132Y-129775587D01*
X160509963Y-129483053D01*
X160509684Y-129458599D01*
X160557896Y-129085218D01*
X160694776Y-128759384D01*
X160904309Y-128488269D01*
X160953036Y-128449966D01*
X158622632Y-128449966D01*
X158570374Y-128794518D01*
X158426381Y-129117863D01*
X158193862Y-129404067D01*
X157876024Y-129637194D01*
X157742666Y-129704456D01*
X157385011Y-129806431D01*
X157013416Y-129797311D01*
X156779972Y-129736004D01*
X156423507Y-129556510D01*
X156140843Y-129292828D01*
X156008258Y-129100199D01*
X155918948Y-128926912D01*
X155871157Y-128761906D01*
X155853219Y-128555874D01*
X155851778Y-128438889D01*
X155878886Y-128092182D01*
X155969550Y-127810684D01*
X156137780Y-127558168D01*
X156232408Y-127454622D01*
X156545390Y-127207116D01*
X156889351Y-127062357D01*
X157248399Y-127020397D01*
X157606639Y-127081285D01*
X157948179Y-127245072D01*
X158196910Y-127448423D01*
X158439108Y-127760983D01*
X158579946Y-128100142D01*
X158622632Y-128449966D01*
X160953036Y-128449966D01*
X161170477Y-128279045D01*
X161477266Y-128138882D01*
X161808657Y-128074954D01*
X162148636Y-128094431D01*
X162481186Y-128204486D01*
X162790290Y-128412290D01*
X162808874Y-128429063D01*
X163058867Y-128708819D01*
X163208244Y-129007022D01*
X163268985Y-129350222D01*
X163271743Y-129454889D01*
X165799839Y-129454889D01*
X165802859Y-129451801D01*
X166111190Y-129263934D01*
X166463625Y-129160070D01*
X166669147Y-129144445D01*
X167005212Y-129173773D01*
X167285502Y-129272694D01*
X167553816Y-129457610D01*
X167591160Y-129489750D01*
X167840296Y-129778412D01*
X167996810Y-130112463D01*
X168059703Y-130471352D01*
X170553977Y-130471352D01*
X170590118Y-130180604D01*
X170634018Y-129821168D01*
X170669731Y-129520899D01*
X170695495Y-129293551D01*
X170709548Y-129152877D01*
X170711038Y-129111779D01*
X170654325Y-129097131D01*
X170494792Y-129059929D01*
X170239886Y-129001814D01*
X169897050Y-128924433D01*
X169473731Y-128829428D01*
X168977374Y-128718443D01*
X168415423Y-128593124D01*
X167795325Y-128455113D01*
X167124523Y-128306055D01*
X166410464Y-128147593D01*
X165660593Y-127981373D01*
X164882356Y-127809037D01*
X164083196Y-127632230D01*
X163270560Y-127452596D01*
X162451892Y-127271779D01*
X161634639Y-127091423D01*
X160826244Y-126913172D01*
X160034154Y-126738670D01*
X159265814Y-126569561D01*
X158528669Y-126407489D01*
X157830164Y-126254098D01*
X157177744Y-126111033D01*
X156578856Y-125979936D01*
X156040942Y-125862453D01*
X155571451Y-125760227D01*
X155177825Y-125674903D01*
X154867511Y-125608123D01*
X154647954Y-125561533D01*
X154526599Y-125536777D01*
X154504294Y-125533063D01*
X154477062Y-125584938D01*
G36*
X155891920Y-117881265D02*
X155877535Y-117939427D01*
X155845061Y-118097260D01*
X155796536Y-118343771D01*
X155733995Y-118667968D01*
X155659475Y-119058857D01*
X155575013Y-119505445D01*
X155482646Y-119996740D01*
X155384409Y-120521749D01*
X155282340Y-121069478D01*
X155178475Y-121628934D01*
X155074851Y-122189125D01*
X154973504Y-122739058D01*
X154876471Y-123267739D01*
X154785789Y-123764177D01*
X154703494Y-124217376D01*
X154631622Y-124616346D01*
X154572211Y-124950092D01*
X154527296Y-125207622D01*
X154498915Y-125377943D01*
X154489104Y-125450062D01*
X154489387Y-125451750D01*
X154545481Y-125457134D01*
X154707759Y-125471874D01*
X154969953Y-125495413D01*
X155325793Y-125527195D01*
X155769010Y-125566664D01*
X156293336Y-125613265D01*
X156892502Y-125666440D01*
X157560239Y-125725634D01*
X158290278Y-125790292D01*
X159076350Y-125859856D01*
X159912186Y-125933771D01*
X160791519Y-126011481D01*
X161708077Y-126092430D01*
X162625111Y-126173372D01*
X163575198Y-126257292D01*
X164496269Y-126338819D01*
X165381873Y-126417372D01*
X166225559Y-126492372D01*
X167020876Y-126563241D01*
X167761374Y-126629400D01*
X168440601Y-126690269D01*
X169052106Y-126745269D01*
X169589439Y-126793822D01*
X170046149Y-126835348D01*
X170415784Y-126869268D01*
X170691895Y-126895003D01*
X170868029Y-126911975D01*
X170936555Y-126919402D01*
X171120000Y-126948227D01*
X171120000Y-121087326D01*
X169347981Y-121087326D01*
X169321377Y-121428253D01*
X169208103Y-121755951D01*
X169008213Y-122053372D01*
X168721758Y-122303466D01*
X168578968Y-122388544D01*
X168408510Y-122472567D01*
X168268395Y-122518507D01*
X168114910Y-122534286D01*
X167904342Y-122527825D01*
X167834465Y-122523455D01*
X167399375Y-122494998D01*
X167001908Y-122983388D01*
X166804254Y-123238402D01*
X166682290Y-123424111D01*
X166638455Y-123536644D01*
X166641273Y-123556445D01*
X166675158Y-123655684D01*
X166723661Y-123822195D01*
X166760237Y-123958548D01*
X166804580Y-124157418D01*
X166812060Y-124311087D01*
X166781662Y-124479072D01*
X166749375Y-124595882D01*
X166589037Y-124951848D01*
X166338235Y-125254189D01*
X166014247Y-125482966D01*
X165955333Y-125512084D01*
X165601666Y-125624221D01*
X165243797Y-125627593D01*
X164960338Y-125558647D01*
X164617379Y-125389378D01*
X164350003Y-125152202D01*
X164159675Y-124864362D01*
X164047862Y-124543104D01*
X164016029Y-124205670D01*
X164065643Y-123869305D01*
X164101929Y-123782222D01*
X161917076Y-123782222D01*
X161867136Y-124160199D01*
X161727604Y-124494169D01*
X161513908Y-124774006D01*
X161241480Y-124989582D01*
X160925750Y-125130772D01*
X160582148Y-125187448D01*
X160226104Y-125149486D01*
X159972222Y-125058583D01*
X159638682Y-124846172D01*
X159384433Y-124571805D01*
X159215570Y-124252502D01*
X159138189Y-123905282D01*
X159158387Y-123547164D01*
X159282259Y-123195166D01*
X159295697Y-123169858D01*
X159448905Y-122888363D01*
X159061453Y-122266702D01*
X158674000Y-121645041D01*
X158469454Y-121675485D01*
X158201485Y-121671032D01*
X157901520Y-121596558D01*
X157612453Y-121466513D01*
X157397579Y-121314373D01*
X157146774Y-121039296D01*
X156995872Y-120746666D01*
X156932332Y-120408905D01*
X156928398Y-120282667D01*
X156978170Y-119886767D01*
X157126678Y-119545187D01*
X157372704Y-119259771D01*
X157715035Y-119032361D01*
X157770889Y-119005112D01*
X158133310Y-118893276D01*
X158498653Y-118890129D01*
X158852328Y-118992836D01*
X159179744Y-119198562D01*
X159291602Y-119300514D01*
X159531497Y-119613465D01*
X159670074Y-119961783D01*
X159704940Y-120328938D01*
X159633702Y-120698397D01*
X159528062Y-120934290D01*
X159390192Y-121180965D01*
X159776965Y-121790149D01*
X160163739Y-122399333D01*
X160491314Y-122402997D01*
X160883578Y-122457528D01*
X161231860Y-122603275D01*
X161522699Y-122827219D01*
X161742636Y-123116341D01*
X161878213Y-123457620D01*
X161917076Y-123782222D01*
X164101929Y-123782222D01*
X164198170Y-123551253D01*
X164415076Y-123268757D01*
X164717826Y-123039061D01*
X164744850Y-123023998D01*
X165062650Y-122902344D01*
X165409532Y-122854060D01*
X165737213Y-122885281D01*
X165769828Y-122893780D01*
X165840449Y-122905854D01*
X165907690Y-122889552D01*
X165988043Y-122831455D01*
X166097999Y-122718145D01*
X166254049Y-122536206D01*
X166347557Y-122423712D01*
X166772124Y-121910752D01*
X166675663Y-121731709D01*
X166604132Y-121513619D01*
X166575769Y-121235099D01*
X166589698Y-120939664D01*
X166637801Y-120706000D01*
X164457076Y-120706000D01*
X164405865Y-121099474D01*
X164260197Y-121443292D01*
X164032019Y-121725505D01*
X163733277Y-121934167D01*
X163375920Y-122057332D01*
X163076666Y-122086410D01*
X162782720Y-122061126D01*
X162532095Y-121992443D01*
X162510969Y-121983277D01*
X162180079Y-121774352D01*
X161927552Y-121490893D01*
X161763002Y-121147908D01*
X161696045Y-120760407D01*
X161695017Y-120709710D01*
X161740511Y-120334193D01*
X161884110Y-120005841D01*
X162132014Y-119711259D01*
X162174943Y-119672349D01*
X162501924Y-119453121D01*
X162855311Y-119338498D01*
X163219308Y-119328381D01*
X163578116Y-119422673D01*
X163915939Y-119621276D01*
X163991217Y-119683639D01*
X164243965Y-119959281D01*
X164394866Y-120261262D01*
X164454945Y-120613772D01*
X164457076Y-120706000D01*
X166637801Y-120706000D01*
X166645042Y-120670828D01*
X166699729Y-120536667D01*
X166927019Y-120219120D01*
X167217628Y-119982345D01*
X167552940Y-119832305D01*
X167914344Y-119774960D01*
X168283225Y-119816272D01*
X168586634Y-119932301D01*
X168907241Y-120155658D01*
X169140966Y-120433980D01*
X169287862Y-120750219D01*
X169347981Y-121087326D01*
X171120000Y-121087326D01*
X171120000Y-119215338D01*
X170936555Y-119185275D01*
X170853431Y-119175847D01*
X170666417Y-119157364D01*
X170384085Y-119130605D01*
X170015004Y-119096349D01*
X169567745Y-119055376D01*
X169050878Y-119008463D01*
X168472975Y-118956390D01*
X167842605Y-118899936D01*
X167168338Y-118839879D01*
X166458747Y-118776999D01*
X165955333Y-118732577D01*
X165150490Y-118661643D01*
X164319645Y-118588350D01*
X163478077Y-118514050D01*
X162641064Y-118440095D01*
X161823886Y-118367836D01*
X161041821Y-118298625D01*
X160310148Y-118233814D01*
X159644145Y-118174753D01*
X159059091Y-118122796D01*
X158570265Y-118079292D01*
X158543440Y-118076901D01*
X158011839Y-118030360D01*
X157514928Y-117988497D01*
X157063953Y-117952140D01*
X156670158Y-117922120D01*
X156344787Y-117899266D01*
X156099086Y-117884408D01*
X155944299Y-117878375D01*
X155891920Y-117881265D01*
X155891920Y-117881265D01*
G37*
X155891920Y-117881265D02*
X155877535Y-117939427D01*
X155845061Y-118097260D01*
X155796536Y-118343771D01*
X155733995Y-118667968D01*
X155659475Y-119058857D01*
X155575013Y-119505445D01*
X155482646Y-119996740D01*
X155384409Y-120521749D01*
X155282340Y-121069478D01*
X155178475Y-121628934D01*
X155074851Y-122189125D01*
X154973504Y-122739058D01*
X154876471Y-123267739D01*
X154785789Y-123764177D01*
X154703494Y-124217376D01*
X154631622Y-124616346D01*
X154572211Y-124950092D01*
X154527296Y-125207622D01*
X154498915Y-125377943D01*
X154489104Y-125450062D01*
X154489387Y-125451750D01*
X154545481Y-125457134D01*
X154707759Y-125471874D01*
X154969953Y-125495413D01*
X155325793Y-125527195D01*
X155769010Y-125566664D01*
X156293336Y-125613265D01*
X156892502Y-125666440D01*
X157560239Y-125725634D01*
X158290278Y-125790292D01*
X159076350Y-125859856D01*
X159912186Y-125933771D01*
X160791519Y-126011481D01*
X161708077Y-126092430D01*
X162625111Y-126173372D01*
X163575198Y-126257292D01*
X164496269Y-126338819D01*
X165381873Y-126417372D01*
X166225559Y-126492372D01*
X167020876Y-126563241D01*
X167761374Y-126629400D01*
X168440601Y-126690269D01*
X169052106Y-126745269D01*
X169589439Y-126793822D01*
X170046149Y-126835348D01*
X170415784Y-126869268D01*
X170691895Y-126895003D01*
X170868029Y-126911975D01*
X170936555Y-126919402D01*
X171120000Y-126948227D01*
X171120000Y-121087326D01*
X169347981Y-121087326D01*
X169321377Y-121428253D01*
X169208103Y-121755951D01*
X169008213Y-122053372D01*
X168721758Y-122303466D01*
X168578968Y-122388544D01*
X168408510Y-122472567D01*
X168268395Y-122518507D01*
X168114910Y-122534286D01*
X167904342Y-122527825D01*
X167834465Y-122523455D01*
X167399375Y-122494998D01*
X167001908Y-122983388D01*
X166804254Y-123238402D01*
X166682290Y-123424111D01*
X166638455Y-123536644D01*
X166641273Y-123556445D01*
X166675158Y-123655684D01*
X166723661Y-123822195D01*
X166760237Y-123958548D01*
X166804580Y-124157418D01*
X166812060Y-124311087D01*
X166781662Y-124479072D01*
X166749375Y-124595882D01*
X166589037Y-124951848D01*
X166338235Y-125254189D01*
X166014247Y-125482966D01*
X165955333Y-125512084D01*
X165601666Y-125624221D01*
X165243797Y-125627593D01*
X164960338Y-125558647D01*
X164617379Y-125389378D01*
X164350003Y-125152202D01*
X164159675Y-124864362D01*
X164047862Y-124543104D01*
X164016029Y-124205670D01*
X164065643Y-123869305D01*
X164101929Y-123782222D01*
X161917076Y-123782222D01*
X161867136Y-124160199D01*
X161727604Y-124494169D01*
X161513908Y-124774006D01*
X161241480Y-124989582D01*
X160925750Y-125130772D01*
X160582148Y-125187448D01*
X160226104Y-125149486D01*
X159972222Y-125058583D01*
X159638682Y-124846172D01*
X159384433Y-124571805D01*
X159215570Y-124252502D01*
X159138189Y-123905282D01*
X159158387Y-123547164D01*
X159282259Y-123195166D01*
X159295697Y-123169858D01*
X159448905Y-122888363D01*
X159061453Y-122266702D01*
X158674000Y-121645041D01*
X158469454Y-121675485D01*
X158201485Y-121671032D01*
X157901520Y-121596558D01*
X157612453Y-121466513D01*
X157397579Y-121314373D01*
X157146774Y-121039296D01*
X156995872Y-120746666D01*
X156932332Y-120408905D01*
X156928398Y-120282667D01*
X156978170Y-119886767D01*
X157126678Y-119545187D01*
X157372704Y-119259771D01*
X157715035Y-119032361D01*
X157770889Y-119005112D01*
X158133310Y-118893276D01*
X158498653Y-118890129D01*
X158852328Y-118992836D01*
X159179744Y-119198562D01*
X159291602Y-119300514D01*
X159531497Y-119613465D01*
X159670074Y-119961783D01*
X159704940Y-120328938D01*
X159633702Y-120698397D01*
X159528062Y-120934290D01*
X159390192Y-121180965D01*
X159776965Y-121790149D01*
X160163739Y-122399333D01*
X160491314Y-122402997D01*
X160883578Y-122457528D01*
X161231860Y-122603275D01*
X161522699Y-122827219D01*
X161742636Y-123116341D01*
X161878213Y-123457620D01*
X161917076Y-123782222D01*
X164101929Y-123782222D01*
X164198170Y-123551253D01*
X164415076Y-123268757D01*
X164717826Y-123039061D01*
X164744850Y-123023998D01*
X165062650Y-122902344D01*
X165409532Y-122854060D01*
X165737213Y-122885281D01*
X165769828Y-122893780D01*
X165840449Y-122905854D01*
X165907690Y-122889552D01*
X165988043Y-122831455D01*
X166097999Y-122718145D01*
X166254049Y-122536206D01*
X166347557Y-122423712D01*
X166772124Y-121910752D01*
X166675663Y-121731709D01*
X166604132Y-121513619D01*
X166575769Y-121235099D01*
X166589698Y-120939664D01*
X166637801Y-120706000D01*
X164457076Y-120706000D01*
X164405865Y-121099474D01*
X164260197Y-121443292D01*
X164032019Y-121725505D01*
X163733277Y-121934167D01*
X163375920Y-122057332D01*
X163076666Y-122086410D01*
X162782720Y-122061126D01*
X162532095Y-121992443D01*
X162510969Y-121983277D01*
X162180079Y-121774352D01*
X161927552Y-121490893D01*
X161763002Y-121147908D01*
X161696045Y-120760407D01*
X161695017Y-120709710D01*
X161740511Y-120334193D01*
X161884110Y-120005841D01*
X162132014Y-119711259D01*
X162174943Y-119672349D01*
X162501924Y-119453121D01*
X162855311Y-119338498D01*
X163219308Y-119328381D01*
X163578116Y-119422673D01*
X163915939Y-119621276D01*
X163991217Y-119683639D01*
X164243965Y-119959281D01*
X164394866Y-120261262D01*
X164454945Y-120613772D01*
X164457076Y-120706000D01*
X166637801Y-120706000D01*
X166645042Y-120670828D01*
X166699729Y-120536667D01*
X166927019Y-120219120D01*
X167217628Y-119982345D01*
X167552940Y-119832305D01*
X167914344Y-119774960D01*
X168283225Y-119816272D01*
X168586634Y-119932301D01*
X168907241Y-120155658D01*
X169140966Y-120433980D01*
X169287862Y-120750219D01*
X169347981Y-121087326D01*
X171120000Y-121087326D01*
X171120000Y-119215338D01*
X170936555Y-119185275D01*
X170853431Y-119175847D01*
X170666417Y-119157364D01*
X170384085Y-119130605D01*
X170015004Y-119096349D01*
X169567745Y-119055376D01*
X169050878Y-119008463D01*
X168472975Y-118956390D01*
X167842605Y-118899936D01*
X167168338Y-118839879D01*
X166458747Y-118776999D01*
X165955333Y-118732577D01*
X165150490Y-118661643D01*
X164319645Y-118588350D01*
X163478077Y-118514050D01*
X162641064Y-118440095D01*
X161823886Y-118367836D01*
X161041821Y-118298625D01*
X160310148Y-118233814D01*
X159644145Y-118174753D01*
X159059091Y-118122796D01*
X158570265Y-118079292D01*
X158543440Y-118076901D01*
X158011839Y-118030360D01*
X157514928Y-117988497D01*
X157063953Y-117952140D01*
X156670158Y-117922120D01*
X156344787Y-117899266D01*
X156099086Y-117884408D01*
X155944299Y-117878375D01*
X155891920Y-117881265D01*
G36*
X161779854Y-109865681D02*
X161432802Y-109910732D01*
X161355111Y-109926936D01*
X160714594Y-110121131D01*
X160100586Y-110404005D01*
X159502942Y-110781783D01*
X158911516Y-111260688D01*
X158443109Y-111713487D01*
X157750196Y-112500431D01*
X157158324Y-113326043D01*
X156832110Y-113873677D01*
X156677708Y-114153353D01*
X159425632Y-115102740D01*
X159937497Y-115279581D01*
X160540203Y-115487800D01*
X161217887Y-115721917D01*
X161954690Y-115976453D01*
X162734747Y-116245927D01*
X163542198Y-116524861D01*
X164361181Y-116807775D01*
X165175833Y-117089189D01*
X165970293Y-117363625D01*
X166604444Y-117582680D01*
X167283546Y-117817280D01*
X167932401Y-118041470D01*
X168543022Y-118252486D01*
X169107421Y-118447568D01*
X169617611Y-118623953D01*
X170065601Y-118778877D01*
X170443406Y-118909580D01*
X170743037Y-119013299D01*
X170956505Y-119087271D01*
X171075822Y-119128735D01*
X171098660Y-119136771D01*
X171137716Y-119094310D01*
X171184093Y-118944268D01*
X171236442Y-118691616D01*
X171265461Y-118522043D01*
X171317467Y-118108434D01*
X171352229Y-117634754D01*
X171369679Y-117130213D01*
X171369750Y-116624025D01*
X171352374Y-116145400D01*
X171317484Y-115723550D01*
X171272627Y-115424433D01*
X171068680Y-114640619D01*
X171048576Y-114590645D01*
X168915177Y-114590645D01*
X168906698Y-114799484D01*
X168857093Y-115182598D01*
X168761495Y-115463020D01*
X168610009Y-115684768D01*
X168392691Y-115914054D01*
X168145324Y-116118778D01*
X167903692Y-116266839D01*
X167830724Y-116298010D01*
X167562118Y-116358193D01*
X167241018Y-116373030D01*
X166912910Y-116344940D01*
X166623279Y-116276340D01*
X166507166Y-116227635D01*
X166157983Y-115990263D01*
X165888838Y-115689017D01*
X165702513Y-115341040D01*
X165601789Y-114963477D01*
X165589445Y-114573474D01*
X165668264Y-114188174D01*
X165841025Y-113824722D01*
X166070989Y-113538551D01*
X166403102Y-113278954D01*
X166745482Y-113127751D01*
X163986622Y-113127751D01*
X163913885Y-113498741D01*
X163834262Y-113685904D01*
X163702054Y-113878995D01*
X163510204Y-114079765D01*
X163294284Y-114256472D01*
X163089864Y-114377374D01*
X163036305Y-114397951D01*
X162740706Y-114452389D01*
X162417757Y-114448847D01*
X162131107Y-114388357D01*
X161792711Y-114211731D01*
X161520285Y-113957343D01*
X161323881Y-113644417D01*
X161213550Y-113292176D01*
X161199344Y-112919843D01*
X161242687Y-112689227D01*
X161340831Y-112464278D01*
X161502157Y-112226529D01*
X161560401Y-112157987D01*
X161866752Y-111891258D01*
X162204218Y-111727434D01*
X162558222Y-111666968D01*
X162914189Y-111710317D01*
X163257541Y-111857936D01*
X163559132Y-112095534D01*
X163807158Y-112414079D01*
X163950351Y-112762175D01*
X163986622Y-113127751D01*
X166745482Y-113127751D01*
X166769499Y-113117145D01*
X167153875Y-113049994D01*
X167539924Y-113074372D01*
X167911340Y-113187147D01*
X168251818Y-113385191D01*
X168545051Y-113665373D01*
X168774733Y-114024564D01*
X168791806Y-114060825D01*
X168866605Y-114242808D01*
X168905296Y-114403777D01*
X168915177Y-114590645D01*
X171048576Y-114590645D01*
X170783734Y-113932319D01*
X170419236Y-113301430D01*
X169976633Y-112749852D01*
X169457372Y-112279482D01*
X168862898Y-111892217D01*
X168416259Y-111677243D01*
X168238877Y-111606954D01*
X167975704Y-111508559D01*
X167641146Y-111387011D01*
X167249608Y-111247263D01*
X166815496Y-111094268D01*
X166353214Y-110932980D01*
X165877168Y-110768354D01*
X165401765Y-110605341D01*
X164941408Y-110448897D01*
X164510503Y-110303973D01*
X164123456Y-110175524D01*
X163794672Y-110068504D01*
X163538557Y-109987866D01*
X163369516Y-109938563D01*
X163334788Y-109929898D01*
X163003527Y-109877303D01*
X162606456Y-109849028D01*
X162184818Y-109845133D01*
X161779854Y-109865681D01*
X161779854Y-109865681D01*
G37*
X161779854Y-109865681D02*
X161432802Y-109910732D01*
X161355111Y-109926936D01*
X160714594Y-110121131D01*
X160100586Y-110404005D01*
X159502942Y-110781783D01*
X158911516Y-111260688D01*
X158443109Y-111713487D01*
X157750196Y-112500431D01*
X157158324Y-113326043D01*
X156832110Y-113873677D01*
X156677708Y-114153353D01*
X159425632Y-115102740D01*
X159937497Y-115279581D01*
X160540203Y-115487800D01*
X161217887Y-115721917D01*
X161954690Y-115976453D01*
X162734747Y-116245927D01*
X163542198Y-116524861D01*
X164361181Y-116807775D01*
X165175833Y-117089189D01*
X165970293Y-117363625D01*
X166604444Y-117582680D01*
X167283546Y-117817280D01*
X167932401Y-118041470D01*
X168543022Y-118252486D01*
X169107421Y-118447568D01*
X169617611Y-118623953D01*
X170065601Y-118778877D01*
X170443406Y-118909580D01*
X170743037Y-119013299D01*
X170956505Y-119087271D01*
X171075822Y-119128735D01*
X171098660Y-119136771D01*
X171137716Y-119094310D01*
X171184093Y-118944268D01*
X171236442Y-118691616D01*
X171265461Y-118522043D01*
X171317467Y-118108434D01*
X171352229Y-117634754D01*
X171369679Y-117130213D01*
X171369750Y-116624025D01*
X171352374Y-116145400D01*
X171317484Y-115723550D01*
X171272627Y-115424433D01*
X171068680Y-114640619D01*
X171048576Y-114590645D01*
X168915177Y-114590645D01*
X168906698Y-114799484D01*
X168857093Y-115182598D01*
X168761495Y-115463020D01*
X168610009Y-115684768D01*
X168392691Y-115914054D01*
X168145324Y-116118778D01*
X167903692Y-116266839D01*
X167830724Y-116298010D01*
X167562118Y-116358193D01*
X167241018Y-116373030D01*
X166912910Y-116344940D01*
X166623279Y-116276340D01*
X166507166Y-116227635D01*
X166157983Y-115990263D01*
X165888838Y-115689017D01*
X165702513Y-115341040D01*
X165601789Y-114963477D01*
X165589445Y-114573474D01*
X165668264Y-114188174D01*
X165841025Y-113824722D01*
X166070989Y-113538551D01*
X166403102Y-113278954D01*
X166745482Y-113127751D01*
X163986622Y-113127751D01*
X163913885Y-113498741D01*
X163834262Y-113685904D01*
X163702054Y-113878995D01*
X163510204Y-114079765D01*
X163294284Y-114256472D01*
X163089864Y-114377374D01*
X163036305Y-114397951D01*
X162740706Y-114452389D01*
X162417757Y-114448847D01*
X162131107Y-114388357D01*
X161792711Y-114211731D01*
X161520285Y-113957343D01*
X161323881Y-113644417D01*
X161213550Y-113292176D01*
X161199344Y-112919843D01*
X161242687Y-112689227D01*
X161340831Y-112464278D01*
X161502157Y-112226529D01*
X161560401Y-112157987D01*
X161866752Y-111891258D01*
X162204218Y-111727434D01*
X162558222Y-111666968D01*
X162914189Y-111710317D01*
X163257541Y-111857936D01*
X163559132Y-112095534D01*
X163807158Y-112414079D01*
X163950351Y-112762175D01*
X163986622Y-113127751D01*
X166745482Y-113127751D01*
X166769499Y-113117145D01*
X167153875Y-113049994D01*
X167539924Y-113074372D01*
X167911340Y-113187147D01*
X168251818Y-113385191D01*
X168545051Y-113665373D01*
X168774733Y-114024564D01*
X168791806Y-114060825D01*
X168866605Y-114242808D01*
X168905296Y-114403777D01*
X168915177Y-114590645D01*
X171048576Y-114590645D01*
X170783734Y-113932319D01*
X170419236Y-113301430D01*
X169976633Y-112749852D01*
X169457372Y-112279482D01*
X168862898Y-111892217D01*
X168416259Y-111677243D01*
X168238877Y-111606954D01*
X167975704Y-111508559D01*
X167641146Y-111387011D01*
X167249608Y-111247263D01*
X166815496Y-111094268D01*
X166353214Y-110932980D01*
X165877168Y-110768354D01*
X165401765Y-110605341D01*
X164941408Y-110448897D01*
X164510503Y-110303973D01*
X164123456Y-110175524D01*
X163794672Y-110068504D01*
X163538557Y-109987866D01*
X163369516Y-109938563D01*
X163334788Y-109929898D01*
X163003527Y-109877303D01*
X162606456Y-109849028D01*
X162184818Y-109845133D01*
X161779854Y-109865681D01*
%LPC*%
D12*
X171000000Y-142000000D03*
X173540000Y-142000000D03*
X176080000Y-142000000D03*
D13*
X166000000Y-142000000D03*
D14*
X163460000Y-142000000D03*
X160920000Y-142000000D03*
D15*
X182000000Y-120920000D03*
D16*
X182000000Y-123460000D03*
X182000000Y-126000000D03*
D15*
X145000000Y-120960000D03*
D16*
X145000000Y-123500000D03*
X145000000Y-126040000D03*
D13*
X166080000Y-105000000D03*
D14*
X163540000Y-105000000D03*
X161000000Y-105000000D03*
D12*
X150960000Y-142000000D03*
X153500000Y-142000000D03*
X156040000Y-142000000D03*
X145000000Y-136040000D03*
X145000000Y-133500000D03*
X145000000Y-130960000D03*
X182000000Y-135540000D03*
X182000000Y-133000000D03*
X182000000Y-130460000D03*
X145000000Y-116080000D03*
X145000000Y-113540000D03*
X145000000Y-111000000D03*
X182000000Y-116000000D03*
X182000000Y-113460000D03*
X182000000Y-110920000D03*
X150960000Y-105000000D03*
X153500000Y-105000000D03*
X156040000Y-105000000D03*
X170960000Y-105000000D03*
X173500000Y-105000000D03*
X176040000Y-105000000D03*
M02*
