G04 #@! TF.FileFunction,Soldermask,Top*
%FSLAX46Y46*%
G04 Gerber Fmt 4.6, Leading zero omitted, Abs format (unit mm)*
G04 Created by KiCad (PCBNEW 4.0.4-stable) date Mon Sep 26 22:20:25 2016*
%MOMM*%
%LPD*%
G01*
G04 APERTURE LIST*
%ADD10C,0.100000*%
%ADD11R,1.700000X1.100000*%
%ADD12C,2.032000*%
%ADD13R,1.727200X2.032000*%
%ADD14O,1.727200X2.032000*%
%ADD15R,2.032000X1.727200*%
%ADD16O,2.032000X1.727200*%
%ADD17R,0.750000X0.800000*%
%ADD18R,0.800000X0.750000*%
G04 APERTURE END LIST*
D10*
D11*
X179450000Y-111650000D03*
X179450000Y-108350000D03*
X174550000Y-108350000D03*
X174550000Y-111650000D03*
X170450000Y-111650000D03*
X170450000Y-108350000D03*
X165550000Y-108350000D03*
X165550000Y-111650000D03*
X161450000Y-111650000D03*
X161450000Y-108350000D03*
X156550000Y-108350000D03*
X156550000Y-111650000D03*
X152450000Y-111650000D03*
X152450000Y-108350000D03*
X147550000Y-108350000D03*
X147550000Y-111650000D03*
D12*
X171000000Y-142000000D03*
X173540000Y-142000000D03*
X176080000Y-142000000D03*
D13*
X166000000Y-142000000D03*
D14*
X163460000Y-142000000D03*
X160920000Y-142000000D03*
D15*
X182000000Y-120920000D03*
D16*
X182000000Y-123460000D03*
X182000000Y-126000000D03*
D15*
X145000000Y-120960000D03*
D16*
X145000000Y-123500000D03*
X145000000Y-126040000D03*
D13*
X166080000Y-105000000D03*
D14*
X163540000Y-105000000D03*
X161000000Y-105000000D03*
D17*
X154500000Y-111750000D03*
X154500000Y-110250000D03*
D11*
X152450000Y-120650000D03*
X152450000Y-117350000D03*
X147550000Y-117350000D03*
X147550000Y-120650000D03*
X161450000Y-120650000D03*
X161450000Y-117350000D03*
X156550000Y-117350000D03*
X156550000Y-120650000D03*
X170450000Y-120650000D03*
X170450000Y-117350000D03*
X165550000Y-117350000D03*
X165550000Y-120650000D03*
X179450000Y-120650000D03*
X179450000Y-117350000D03*
X174550000Y-117350000D03*
X174550000Y-120650000D03*
X152450000Y-129650000D03*
X152450000Y-126350000D03*
X147550000Y-126350000D03*
X147550000Y-129650000D03*
X161450000Y-129650000D03*
X161450000Y-126350000D03*
X156550000Y-126350000D03*
X156550000Y-129650000D03*
X170450000Y-129650000D03*
X170450000Y-126350000D03*
X165550000Y-126350000D03*
X165550000Y-129650000D03*
X179450000Y-129650000D03*
X179450000Y-126350000D03*
X174550000Y-126350000D03*
X174550000Y-129650000D03*
X152450000Y-138650000D03*
X152450000Y-135350000D03*
X147550000Y-135350000D03*
X147550000Y-138650000D03*
X161450000Y-138650000D03*
X161450000Y-135350000D03*
X156550000Y-135350000D03*
X156550000Y-138650000D03*
X170450000Y-138650000D03*
X170450000Y-135350000D03*
X165550000Y-135350000D03*
X165550000Y-138650000D03*
X179450000Y-138650000D03*
X179450000Y-135350000D03*
X174550000Y-135350000D03*
X174550000Y-138650000D03*
D17*
X163500000Y-111750000D03*
X163500000Y-110250000D03*
X172500000Y-111750000D03*
X172500000Y-110250000D03*
X154500000Y-120750000D03*
X154500000Y-119250000D03*
X163500000Y-120750000D03*
X163500000Y-119250000D03*
X172500000Y-120750000D03*
X172500000Y-119250000D03*
D18*
X177750000Y-123000000D03*
X176250000Y-123000000D03*
D17*
X154500000Y-129750000D03*
X154500000Y-128250000D03*
X163500000Y-129750000D03*
X163500000Y-128250000D03*
X172500000Y-129750000D03*
X172500000Y-128250000D03*
D18*
X179250000Y-131500000D03*
X177750000Y-131500000D03*
D17*
X154500000Y-138750000D03*
X154500000Y-137250000D03*
X163500000Y-137750000D03*
X163500000Y-136250000D03*
X172500000Y-138750000D03*
X172500000Y-137250000D03*
X181500000Y-138750000D03*
X181500000Y-137250000D03*
D18*
X179250000Y-113500000D03*
X177750000Y-113500000D03*
D12*
X150960000Y-142000000D03*
X153500000Y-142000000D03*
X156040000Y-142000000D03*
X145000000Y-136040000D03*
X145000000Y-133500000D03*
X145000000Y-130960000D03*
X182000000Y-135540000D03*
X182000000Y-133000000D03*
X182000000Y-130460000D03*
X145000000Y-116080000D03*
X145000000Y-113540000D03*
X145000000Y-111000000D03*
X182000000Y-116000000D03*
X182000000Y-113460000D03*
X182000000Y-110920000D03*
X150960000Y-105000000D03*
X153500000Y-105000000D03*
X156040000Y-105000000D03*
X170960000Y-105000000D03*
X173500000Y-105000000D03*
X176040000Y-105000000D03*
M02*
