G04 #@! TF.FileFunction,Copper,L2,Bot,Signal*
%FSLAX46Y46*%
G04 Gerber Fmt 4.6, Leading zero omitted, Abs format (unit mm)*
G04 Created by KiCad (PCBNEW 4.0.4-stable) date Mon Sep 26 22:20:25 2016*
%MOMM*%
%LPD*%
G01*
G04 APERTURE LIST*
%ADD10C,0.100000*%
%ADD11C,2.032000*%
%ADD12R,1.727200X2.032000*%
%ADD13O,1.727200X2.032000*%
%ADD14R,2.032000X1.727200*%
%ADD15O,2.032000X1.727200*%
%ADD16C,0.685800*%
%ADD17C,0.254000*%
G04 APERTURE END LIST*
D10*
D11*
X171000000Y-142000000D03*
X173540000Y-142000000D03*
X176080000Y-142000000D03*
D12*
X166000000Y-142000000D03*
D13*
X163460000Y-142000000D03*
X160920000Y-142000000D03*
D14*
X182000000Y-120920000D03*
D15*
X182000000Y-123460000D03*
X182000000Y-126000000D03*
D14*
X145000000Y-120960000D03*
D15*
X145000000Y-123500000D03*
X145000000Y-126040000D03*
D12*
X166080000Y-105000000D03*
D13*
X163540000Y-105000000D03*
X161000000Y-105000000D03*
D11*
X150960000Y-142000000D03*
X153500000Y-142000000D03*
X156040000Y-142000000D03*
X145000000Y-136040000D03*
X145000000Y-133500000D03*
X145000000Y-130960000D03*
X182000000Y-135540000D03*
X182000000Y-133000000D03*
X182000000Y-130460000D03*
X145000000Y-116080000D03*
X145000000Y-113540000D03*
X145000000Y-111000000D03*
X182000000Y-116000000D03*
X182000000Y-113460000D03*
X182000000Y-110920000D03*
X150960000Y-105000000D03*
X153500000Y-105000000D03*
X156040000Y-105000000D03*
X170960000Y-105000000D03*
X173500000Y-105000000D03*
X176040000Y-105000000D03*
D16*
X177000000Y-128000000D03*
X177000000Y-137000000D03*
X168000000Y-137000000D03*
X159000000Y-137000000D03*
X150000000Y-137000000D03*
X168000000Y-128000000D03*
X159000000Y-128000000D03*
X150000000Y-128000000D03*
X177000000Y-119000000D03*
X168000000Y-119000000D03*
X159000000Y-119000000D03*
X150000000Y-119000000D03*
X177000000Y-110000000D03*
X150000000Y-110000000D03*
X168000000Y-110000000D03*
X159000000Y-110000000D03*
X147500000Y-107000000D03*
X156000000Y-114500000D03*
X174000000Y-114500000D03*
X174504000Y-123000000D03*
X147500000Y-128000000D03*
X148000000Y-140000000D03*
X152996000Y-132500000D03*
X176500000Y-126000000D03*
X169500000Y-140000000D03*
X179500000Y-134000000D03*
X165307600Y-140000000D03*
D17*
X147500000Y-121112400D02*
X147500000Y-110896000D01*
X147500000Y-110896000D02*
X147500000Y-107000000D01*
X145000000Y-123460000D02*
X145152400Y-123460000D01*
X145152400Y-123460000D02*
X147500000Y-121112400D01*
X147500000Y-121112400D02*
X147500000Y-120960000D01*
X171000000Y-114500000D02*
X169922370Y-114500000D01*
X169922370Y-114500000D02*
X156000000Y-114500000D01*
X174000000Y-114500000D02*
X171000000Y-114500000D01*
X175000000Y-122504000D02*
X174504000Y-123000000D01*
X171000000Y-123000000D02*
X152500000Y-123000000D01*
X152500000Y-123000000D02*
X147500000Y-128000000D01*
X174504000Y-123000000D02*
X171000000Y-123000000D01*
X148000000Y-137496000D02*
X148000000Y-140000000D01*
X152996000Y-132500000D02*
X148000000Y-137496000D01*
X176500000Y-126000000D02*
X169500000Y-133000000D01*
X169500000Y-133000000D02*
X169500000Y-140000000D01*
X178500000Y-140000000D02*
X169500000Y-140000000D01*
X179500000Y-134000000D02*
X179500000Y-139000000D01*
X165307600Y-140000000D02*
X163460000Y-141847600D01*
X163460000Y-141847600D02*
X163460000Y-142000000D01*
X179500000Y-139000000D02*
X178500000Y-140000000D01*
G36*
X149378668Y-104498372D02*
X149311351Y-104815074D01*
X149306830Y-105138821D01*
X149365278Y-105457279D01*
X149484469Y-105758320D01*
X149659862Y-106030477D01*
X149884777Y-106263383D01*
X150150647Y-106448167D01*
X150447345Y-106577791D01*
X150763569Y-106647318D01*
X151087276Y-106654099D01*
X151406135Y-106597875D01*
X151708000Y-106480789D01*
X151981375Y-106307300D01*
X152215846Y-106084017D01*
X152230924Y-106062643D01*
X152424777Y-106263383D01*
X152690647Y-106448167D01*
X152987345Y-106577791D01*
X153303569Y-106647318D01*
X153627276Y-106654099D01*
X153946135Y-106597875D01*
X154248000Y-106480789D01*
X154521375Y-106307300D01*
X154755846Y-106084017D01*
X154770924Y-106062643D01*
X154964777Y-106263383D01*
X155230647Y-106448167D01*
X155527345Y-106577791D01*
X155843569Y-106647318D01*
X156167276Y-106654099D01*
X156486135Y-106597875D01*
X156788000Y-106480789D01*
X157061375Y-106307300D01*
X157295846Y-106084017D01*
X157482482Y-105819444D01*
X157614174Y-105523658D01*
X157685906Y-105207926D01*
X157691070Y-104838111D01*
X157628182Y-104520500D01*
X157504799Y-104221152D01*
X157497390Y-104210000D01*
X159644162Y-104210000D01*
X159622584Y-104249251D01*
X159534148Y-104528036D01*
X159501546Y-104818688D01*
X159501400Y-104839612D01*
X159501400Y-105160388D01*
X159529941Y-105451468D01*
X159614475Y-105731460D01*
X159751784Y-105989701D01*
X159936637Y-106216353D01*
X160161994Y-106402784D01*
X160419269Y-106541892D01*
X160698665Y-106628379D01*
X160989538Y-106658951D01*
X161280810Y-106632444D01*
X161561385Y-106549866D01*
X161820578Y-106414363D01*
X162048515Y-106231097D01*
X162236515Y-106007048D01*
X162269299Y-105947413D01*
X162291784Y-105989701D01*
X162476637Y-106216353D01*
X162701994Y-106402784D01*
X162959269Y-106541892D01*
X163238665Y-106628379D01*
X163529538Y-106658951D01*
X163820810Y-106632444D01*
X164101385Y-106549866D01*
X164360578Y-106414363D01*
X164588515Y-106231097D01*
X164776515Y-106007048D01*
X164917416Y-105750749D01*
X165005852Y-105471964D01*
X165038454Y-105181312D01*
X165038600Y-105160388D01*
X165038600Y-104839612D01*
X165010059Y-104548532D01*
X164925525Y-104268540D01*
X164894399Y-104210000D01*
X169502265Y-104210000D01*
X169378668Y-104498372D01*
X169311351Y-104815074D01*
X169306830Y-105138821D01*
X169365278Y-105457279D01*
X169484469Y-105758320D01*
X169659862Y-106030477D01*
X169884777Y-106263383D01*
X170150647Y-106448167D01*
X170447345Y-106577791D01*
X170763569Y-106647318D01*
X171087276Y-106654099D01*
X171406135Y-106597875D01*
X171708000Y-106480789D01*
X171981375Y-106307300D01*
X172215846Y-106084017D01*
X172230924Y-106062643D01*
X172424777Y-106263383D01*
X172690647Y-106448167D01*
X172987345Y-106577791D01*
X173303569Y-106647318D01*
X173627276Y-106654099D01*
X173946135Y-106597875D01*
X174248000Y-106480789D01*
X174521375Y-106307300D01*
X174755846Y-106084017D01*
X174770924Y-106062643D01*
X174964777Y-106263383D01*
X175230647Y-106448167D01*
X175527345Y-106577791D01*
X175843569Y-106647318D01*
X176167276Y-106654099D01*
X176486135Y-106597875D01*
X176788000Y-106480789D01*
X177061375Y-106307300D01*
X177295846Y-106084017D01*
X177482482Y-105819444D01*
X177614174Y-105523658D01*
X177685906Y-105207926D01*
X177691070Y-104838111D01*
X177628182Y-104520500D01*
X177504799Y-104221152D01*
X177497390Y-104210000D01*
X178465280Y-104210000D01*
X179332601Y-104295041D01*
X180133494Y-104536846D01*
X180872165Y-104929604D01*
X181520482Y-105458357D01*
X182053747Y-106102963D01*
X182451654Y-106838878D01*
X182699042Y-107638060D01*
X182790000Y-108503469D01*
X182790000Y-109461311D01*
X182789055Y-109460674D01*
X182490576Y-109335205D01*
X182173411Y-109270100D01*
X181849642Y-109267840D01*
X181531599Y-109328510D01*
X181231397Y-109449799D01*
X180960472Y-109627088D01*
X180729141Y-109853623D01*
X180546218Y-110120776D01*
X180418668Y-110418372D01*
X180351351Y-110735074D01*
X180346830Y-111058821D01*
X180405278Y-111377279D01*
X180524469Y-111678320D01*
X180699862Y-111950477D01*
X180924777Y-112183383D01*
X180935922Y-112191129D01*
X180729141Y-112393623D01*
X180546218Y-112660776D01*
X180418668Y-112958372D01*
X180351351Y-113275074D01*
X180346830Y-113598821D01*
X180405278Y-113917279D01*
X180524469Y-114218320D01*
X180699862Y-114490477D01*
X180924777Y-114723383D01*
X180935922Y-114731129D01*
X180729141Y-114933623D01*
X180546218Y-115200776D01*
X180418668Y-115498372D01*
X180351351Y-115815074D01*
X180346830Y-116138821D01*
X180405278Y-116457279D01*
X180524469Y-116758320D01*
X180699862Y-117030477D01*
X180924777Y-117263383D01*
X181190647Y-117448167D01*
X181487345Y-117577791D01*
X181803569Y-117647318D01*
X182127276Y-117654099D01*
X182446135Y-117597875D01*
X182748000Y-117480789D01*
X182790000Y-117454135D01*
X182790000Y-122104162D01*
X182750749Y-122082584D01*
X182471964Y-121994148D01*
X182181312Y-121961546D01*
X182160388Y-121961400D01*
X181839612Y-121961400D01*
X181548532Y-121989941D01*
X181268540Y-122074475D01*
X181010299Y-122211784D01*
X180783647Y-122396637D01*
X180597216Y-122621994D01*
X180458108Y-122879269D01*
X180371621Y-123158665D01*
X180341049Y-123449538D01*
X180367556Y-123740810D01*
X180450134Y-124021385D01*
X180585637Y-124280578D01*
X180768903Y-124508515D01*
X180992952Y-124696515D01*
X181052587Y-124729299D01*
X181010299Y-124751784D01*
X180783647Y-124936637D01*
X180597216Y-125161994D01*
X180458108Y-125419269D01*
X180371621Y-125698665D01*
X180341049Y-125989538D01*
X180367556Y-126280810D01*
X180450134Y-126561385D01*
X180585637Y-126820578D01*
X180768903Y-127048515D01*
X180992952Y-127236515D01*
X181249251Y-127377416D01*
X181528036Y-127465852D01*
X181818688Y-127498454D01*
X181839612Y-127498600D01*
X182160388Y-127498600D01*
X182451468Y-127470059D01*
X182731460Y-127385525D01*
X182790000Y-127354399D01*
X182790000Y-129001311D01*
X182789055Y-129000674D01*
X182490576Y-128875205D01*
X182173411Y-128810100D01*
X181849642Y-128807840D01*
X181531599Y-128868510D01*
X181231397Y-128989799D01*
X180960472Y-129167088D01*
X180729141Y-129393623D01*
X180546218Y-129660776D01*
X180418668Y-129958372D01*
X180351351Y-130275074D01*
X180346830Y-130598821D01*
X180405278Y-130917279D01*
X180524469Y-131218320D01*
X180699862Y-131490477D01*
X180924777Y-131723383D01*
X180935922Y-131731129D01*
X180729141Y-131933623D01*
X180546218Y-132200776D01*
X180418668Y-132498372D01*
X180351351Y-132815074D01*
X180346830Y-133138821D01*
X180405278Y-133457279D01*
X180524469Y-133758320D01*
X180699862Y-134030477D01*
X180924777Y-134263383D01*
X180935922Y-134271129D01*
X180729141Y-134473623D01*
X180546218Y-134740776D01*
X180418668Y-135038372D01*
X180351351Y-135355074D01*
X180346830Y-135678821D01*
X180405278Y-135997279D01*
X180524469Y-136298320D01*
X180699862Y-136570477D01*
X180924777Y-136803383D01*
X181190647Y-136988167D01*
X181487345Y-137117791D01*
X181803569Y-137187318D01*
X182127276Y-137194099D01*
X182446135Y-137137875D01*
X182748000Y-137020789D01*
X182790000Y-136994135D01*
X182790000Y-138465281D01*
X182704959Y-139332601D01*
X182463154Y-140133494D01*
X182070395Y-140872168D01*
X181541640Y-141520484D01*
X180897034Y-142053749D01*
X180161122Y-142451654D01*
X179361942Y-142699042D01*
X178496532Y-142790000D01*
X177535591Y-142790000D01*
X177654174Y-142523658D01*
X177725906Y-142207926D01*
X177731070Y-141838111D01*
X177668182Y-141520500D01*
X177544799Y-141221152D01*
X177365624Y-140951471D01*
X177177471Y-140762000D01*
X178500000Y-140762000D01*
X178570114Y-140755125D01*
X178640170Y-140748996D01*
X178644013Y-140747880D01*
X178648007Y-140747488D01*
X178715460Y-140727123D01*
X178782982Y-140707506D01*
X178786538Y-140705663D01*
X178790376Y-140704504D01*
X178852553Y-140671444D01*
X178915014Y-140639067D01*
X178918144Y-140636568D01*
X178921684Y-140634686D01*
X178976231Y-140590199D01*
X179031240Y-140546286D01*
X179036815Y-140540788D01*
X179036931Y-140540693D01*
X179037020Y-140540585D01*
X179038815Y-140538815D01*
X180038816Y-139538815D01*
X180083537Y-139484371D01*
X180128736Y-139430505D01*
X180130664Y-139426997D01*
X180133211Y-139423897D01*
X180166499Y-139361815D01*
X180200381Y-139300184D01*
X180201592Y-139296366D01*
X180203487Y-139292832D01*
X180224084Y-139225463D01*
X180245348Y-139158429D01*
X180245794Y-139154451D01*
X180246967Y-139150615D01*
X180254086Y-139080533D01*
X180261926Y-139010639D01*
X180261980Y-139002813D01*
X180261996Y-139002660D01*
X180261982Y-139002517D01*
X180262000Y-139000000D01*
X180262000Y-134616340D01*
X180354394Y-134485363D01*
X180432396Y-134310167D01*
X180474884Y-134123156D01*
X180477942Y-133904112D01*
X180440693Y-133715988D01*
X180367613Y-133538682D01*
X180261485Y-133378948D01*
X180126353Y-133242869D01*
X179967364Y-133135629D01*
X179790572Y-133061313D01*
X179602713Y-133022751D01*
X179410942Y-133021412D01*
X179222562Y-133057347D01*
X179044750Y-133129188D01*
X178884279Y-133234198D01*
X178747260Y-133368376D01*
X178638913Y-133526613D01*
X178563364Y-133702882D01*
X178523492Y-133890467D01*
X178520814Y-134082225D01*
X178555433Y-134270850D01*
X178626031Y-134449159D01*
X178729918Y-134610360D01*
X178738000Y-134618729D01*
X178738000Y-138684369D01*
X178184370Y-139238000D01*
X170262000Y-139238000D01*
X170262000Y-133315630D01*
X176602712Y-126974918D01*
X176764249Y-126946434D01*
X176943047Y-126877083D01*
X177104969Y-126774325D01*
X177243848Y-126642072D01*
X177354394Y-126485363D01*
X177432396Y-126310167D01*
X177474884Y-126123156D01*
X177477942Y-125904112D01*
X177440693Y-125715988D01*
X177367613Y-125538682D01*
X177261485Y-125378948D01*
X177126353Y-125242869D01*
X176967364Y-125135629D01*
X176790572Y-125061313D01*
X176602713Y-125022751D01*
X176410942Y-125021412D01*
X176222562Y-125057347D01*
X176044750Y-125129188D01*
X175884279Y-125234198D01*
X175747260Y-125368376D01*
X175638913Y-125526613D01*
X175563364Y-125702882D01*
X175523492Y-125890467D01*
X175523373Y-125898997D01*
X168961185Y-132461185D01*
X168916488Y-132515599D01*
X168871264Y-132569495D01*
X168869336Y-132573003D01*
X168866789Y-132576103D01*
X168833510Y-132638169D01*
X168799619Y-132699816D01*
X168798407Y-132703636D01*
X168796514Y-132707167D01*
X168775939Y-132774464D01*
X168754652Y-132841571D01*
X168754205Y-132845554D01*
X168753034Y-132849385D01*
X168745925Y-132919373D01*
X168738074Y-132989361D01*
X168738019Y-132997197D01*
X168738005Y-132997340D01*
X168738018Y-132997473D01*
X168738000Y-133000000D01*
X168738000Y-139381900D01*
X168638913Y-139526613D01*
X168563364Y-139702882D01*
X168523492Y-139890467D01*
X168520814Y-140082225D01*
X168555433Y-140270850D01*
X168626031Y-140449159D01*
X168729918Y-140610360D01*
X168863137Y-140748312D01*
X169020613Y-140857761D01*
X169196350Y-140934539D01*
X169383652Y-140975720D01*
X169575387Y-140979736D01*
X169714344Y-140955234D01*
X169546218Y-141200776D01*
X169418668Y-141498372D01*
X169351351Y-141815074D01*
X169346830Y-142138821D01*
X169405278Y-142457279D01*
X169524469Y-142758320D01*
X169544885Y-142790000D01*
X164815838Y-142790000D01*
X164837416Y-142750749D01*
X164925852Y-142471964D01*
X164958454Y-142181312D01*
X164958600Y-142160388D01*
X164958600Y-141839612D01*
X164930059Y-141548532D01*
X164908408Y-141476822D01*
X165410312Y-140974918D01*
X165571849Y-140946434D01*
X165750647Y-140877083D01*
X165912569Y-140774325D01*
X166051448Y-140642072D01*
X166161994Y-140485363D01*
X166239996Y-140310167D01*
X166282484Y-140123156D01*
X166285542Y-139904112D01*
X166248293Y-139715988D01*
X166175213Y-139538682D01*
X166069085Y-139378948D01*
X165933953Y-139242869D01*
X165774964Y-139135629D01*
X165598172Y-139061313D01*
X165410313Y-139022751D01*
X165218542Y-139021412D01*
X165030162Y-139057347D01*
X164852350Y-139129188D01*
X164691879Y-139234198D01*
X164554860Y-139368376D01*
X164446513Y-139526613D01*
X164370964Y-139702882D01*
X164331092Y-139890467D01*
X164330973Y-139898997D01*
X163835417Y-140394553D01*
X163761335Y-140371621D01*
X163470462Y-140341049D01*
X163179190Y-140367556D01*
X162898615Y-140450134D01*
X162639422Y-140585637D01*
X162411485Y-140768903D01*
X162223485Y-140992952D01*
X162190701Y-141052587D01*
X162168216Y-141010299D01*
X161983363Y-140783647D01*
X161758006Y-140597216D01*
X161500731Y-140458108D01*
X161221335Y-140371621D01*
X160930462Y-140341049D01*
X160639190Y-140367556D01*
X160358615Y-140450134D01*
X160099422Y-140585637D01*
X159871485Y-140768903D01*
X159683485Y-140992952D01*
X159542584Y-141249251D01*
X159454148Y-141528036D01*
X159421546Y-141818688D01*
X159421400Y-141839612D01*
X159421400Y-142160388D01*
X159449941Y-142451468D01*
X159534475Y-142731460D01*
X159565601Y-142790000D01*
X157495591Y-142790000D01*
X157614174Y-142523658D01*
X157685906Y-142207926D01*
X157691070Y-141838111D01*
X157628182Y-141520500D01*
X157504799Y-141221152D01*
X157325624Y-140951471D01*
X157097479Y-140721728D01*
X156829055Y-140540674D01*
X156530576Y-140415205D01*
X156213411Y-140350100D01*
X155889642Y-140347840D01*
X155571599Y-140408510D01*
X155271397Y-140529799D01*
X155000472Y-140707088D01*
X154769141Y-140933623D01*
X154768635Y-140934363D01*
X154557479Y-140721728D01*
X154289055Y-140540674D01*
X153990576Y-140415205D01*
X153673411Y-140350100D01*
X153349642Y-140347840D01*
X153031599Y-140408510D01*
X152731397Y-140529799D01*
X152460472Y-140707088D01*
X152229141Y-140933623D01*
X152228635Y-140934363D01*
X152017479Y-140721728D01*
X151749055Y-140540674D01*
X151450576Y-140415205D01*
X151133411Y-140350100D01*
X150809642Y-140347840D01*
X150491599Y-140408510D01*
X150191397Y-140529799D01*
X149920472Y-140707088D01*
X149689141Y-140933623D01*
X149506218Y-141200776D01*
X149378668Y-141498372D01*
X149311351Y-141815074D01*
X149306830Y-142138821D01*
X149365278Y-142457279D01*
X149484469Y-142758320D01*
X149504885Y-142790000D01*
X148534719Y-142790000D01*
X147667399Y-142704959D01*
X146866506Y-142463154D01*
X146127832Y-142070395D01*
X145479516Y-141541640D01*
X144946251Y-140897034D01*
X144548346Y-140161122D01*
X144523924Y-140082225D01*
X147020814Y-140082225D01*
X147055433Y-140270850D01*
X147126031Y-140449159D01*
X147229918Y-140610360D01*
X147363137Y-140748312D01*
X147520613Y-140857761D01*
X147696350Y-140934539D01*
X147883652Y-140975720D01*
X148075387Y-140979736D01*
X148264249Y-140946434D01*
X148443047Y-140877083D01*
X148604969Y-140774325D01*
X148743848Y-140642072D01*
X148854394Y-140485363D01*
X148932396Y-140310167D01*
X148974884Y-140123156D01*
X148977942Y-139904112D01*
X148940693Y-139715988D01*
X148867613Y-139538682D01*
X148762000Y-139379723D01*
X148762000Y-137811630D01*
X153098712Y-133474918D01*
X153260249Y-133446434D01*
X153439047Y-133377083D01*
X153600969Y-133274325D01*
X153739848Y-133142072D01*
X153850394Y-132985363D01*
X153928396Y-132810167D01*
X153970884Y-132623156D01*
X153973942Y-132404112D01*
X153936693Y-132215988D01*
X153863613Y-132038682D01*
X153757485Y-131878948D01*
X153622353Y-131742869D01*
X153463364Y-131635629D01*
X153286572Y-131561313D01*
X153098713Y-131522751D01*
X152906942Y-131521412D01*
X152718562Y-131557347D01*
X152540750Y-131629188D01*
X152380279Y-131734198D01*
X152243260Y-131868376D01*
X152134913Y-132026613D01*
X152059364Y-132202882D01*
X152019492Y-132390467D01*
X152019373Y-132398997D01*
X147461185Y-136957185D01*
X147416488Y-137011599D01*
X147371264Y-137065495D01*
X147369336Y-137069003D01*
X147366789Y-137072103D01*
X147333510Y-137134169D01*
X147299619Y-137195816D01*
X147298407Y-137199636D01*
X147296514Y-137203167D01*
X147275939Y-137270464D01*
X147254652Y-137337571D01*
X147254205Y-137341554D01*
X147253034Y-137345385D01*
X147245925Y-137415373D01*
X147238074Y-137485361D01*
X147238019Y-137493197D01*
X147238005Y-137493340D01*
X147238018Y-137493473D01*
X147238000Y-137496000D01*
X147238000Y-139381900D01*
X147138913Y-139526613D01*
X147063364Y-139702882D01*
X147023492Y-139890467D01*
X147020814Y-140082225D01*
X144523924Y-140082225D01*
X144300958Y-139361942D01*
X144210000Y-138496532D01*
X144210000Y-137496622D01*
X144487345Y-137617791D01*
X144803569Y-137687318D01*
X145127276Y-137694099D01*
X145446135Y-137637875D01*
X145748000Y-137520789D01*
X146021375Y-137347300D01*
X146255846Y-137124017D01*
X146442482Y-136859444D01*
X146574174Y-136563658D01*
X146645906Y-136247926D01*
X146651070Y-135878111D01*
X146588182Y-135560500D01*
X146464799Y-135261152D01*
X146285624Y-134991471D01*
X146063191Y-134767480D01*
X146255846Y-134584017D01*
X146442482Y-134319444D01*
X146574174Y-134023658D01*
X146645906Y-133707926D01*
X146651070Y-133338111D01*
X146588182Y-133020500D01*
X146464799Y-132721152D01*
X146285624Y-132451471D01*
X146063191Y-132227480D01*
X146255846Y-132044017D01*
X146442482Y-131779444D01*
X146574174Y-131483658D01*
X146645906Y-131167926D01*
X146651070Y-130798111D01*
X146588182Y-130480500D01*
X146464799Y-130181152D01*
X146285624Y-129911471D01*
X146057479Y-129681728D01*
X145789055Y-129500674D01*
X145490576Y-129375205D01*
X145173411Y-129310100D01*
X144849642Y-129307840D01*
X144531599Y-129368510D01*
X144231397Y-129489799D01*
X144210000Y-129503801D01*
X144210000Y-128082225D01*
X146520814Y-128082225D01*
X146555433Y-128270850D01*
X146626031Y-128449159D01*
X146729918Y-128610360D01*
X146863137Y-128748312D01*
X147020613Y-128857761D01*
X147196350Y-128934539D01*
X147383652Y-128975720D01*
X147575387Y-128979736D01*
X147764249Y-128946434D01*
X147943047Y-128877083D01*
X148104969Y-128774325D01*
X148243848Y-128642072D01*
X148354394Y-128485363D01*
X148432396Y-128310167D01*
X148474884Y-128123156D01*
X148475173Y-128102457D01*
X152815631Y-123762000D01*
X173886831Y-123762000D01*
X174024613Y-123857761D01*
X174200350Y-123934539D01*
X174387652Y-123975720D01*
X174579387Y-123979736D01*
X174768249Y-123946434D01*
X174947047Y-123877083D01*
X175108969Y-123774325D01*
X175247848Y-123642072D01*
X175358394Y-123485363D01*
X175436396Y-123310167D01*
X175478884Y-123123156D01*
X175479173Y-123102457D01*
X175538815Y-123042815D01*
X175633211Y-122927897D01*
X175703486Y-122796833D01*
X175746966Y-122654615D01*
X175761995Y-122506660D01*
X175748000Y-122358603D01*
X175705514Y-122216085D01*
X175636154Y-122084534D01*
X175542564Y-121968960D01*
X175428307Y-121873764D01*
X175297737Y-121802575D01*
X175155826Y-121758103D01*
X175007980Y-121742042D01*
X174859830Y-121755003D01*
X174717018Y-121796494D01*
X174584986Y-121864933D01*
X174468760Y-121957714D01*
X174461185Y-121965185D01*
X174402605Y-122023765D01*
X174226562Y-122057347D01*
X174048750Y-122129188D01*
X173888279Y-122234198D01*
X173884396Y-122238000D01*
X152500000Y-122238000D01*
X152429936Y-122244870D01*
X152359830Y-122251003D01*
X152355982Y-122252121D01*
X152351993Y-122252512D01*
X152284582Y-122272865D01*
X152217018Y-122292494D01*
X152213462Y-122294337D01*
X152209624Y-122295496D01*
X152147447Y-122328556D01*
X152084986Y-122360933D01*
X152081856Y-122363432D01*
X152078316Y-122365314D01*
X152023769Y-122409801D01*
X151968760Y-122453714D01*
X151963181Y-122459216D01*
X151963069Y-122459307D01*
X151962983Y-122459411D01*
X151961185Y-122461184D01*
X147398604Y-127023765D01*
X147222562Y-127057347D01*
X147044750Y-127129188D01*
X146884279Y-127234198D01*
X146747260Y-127368376D01*
X146638913Y-127526613D01*
X146563364Y-127702882D01*
X146523492Y-127890467D01*
X146520814Y-128082225D01*
X144210000Y-128082225D01*
X144210000Y-127395838D01*
X144249251Y-127417416D01*
X144528036Y-127505852D01*
X144818688Y-127538454D01*
X144839612Y-127538600D01*
X145160388Y-127538600D01*
X145451468Y-127510059D01*
X145731460Y-127425525D01*
X145989701Y-127288216D01*
X146216353Y-127103363D01*
X146402784Y-126878006D01*
X146541892Y-126620731D01*
X146628379Y-126341335D01*
X146658951Y-126050462D01*
X146632444Y-125759190D01*
X146549866Y-125478615D01*
X146414363Y-125219422D01*
X146231097Y-124991485D01*
X146007048Y-124803485D01*
X145947413Y-124770701D01*
X145989701Y-124748216D01*
X146216353Y-124563363D01*
X146402784Y-124338006D01*
X146541892Y-124080731D01*
X146628379Y-123801335D01*
X146658951Y-123510462D01*
X146632444Y-123219190D01*
X146595697Y-123094334D01*
X148038816Y-121651215D01*
X148083537Y-121596771D01*
X148128736Y-121542905D01*
X148130664Y-121539397D01*
X148133211Y-121536297D01*
X148166509Y-121474196D01*
X148200381Y-121412584D01*
X148201591Y-121408768D01*
X148203487Y-121405233D01*
X148224088Y-121337849D01*
X148245348Y-121270829D01*
X148245794Y-121266851D01*
X148246967Y-121263015D01*
X148254081Y-121192978D01*
X148261926Y-121123039D01*
X148261981Y-121115203D01*
X148261995Y-121115060D01*
X148261982Y-121114927D01*
X148262000Y-121112400D01*
X148262000Y-114582225D01*
X155020814Y-114582225D01*
X155055433Y-114770850D01*
X155126031Y-114949159D01*
X155229918Y-115110360D01*
X155363137Y-115248312D01*
X155520613Y-115357761D01*
X155696350Y-115434539D01*
X155883652Y-115475720D01*
X156075387Y-115479736D01*
X156264249Y-115446434D01*
X156443047Y-115377083D01*
X156604969Y-115274325D01*
X156617911Y-115262000D01*
X173382831Y-115262000D01*
X173520613Y-115357761D01*
X173696350Y-115434539D01*
X173883652Y-115475720D01*
X174075387Y-115479736D01*
X174264249Y-115446434D01*
X174443047Y-115377083D01*
X174604969Y-115274325D01*
X174743848Y-115142072D01*
X174854394Y-114985363D01*
X174932396Y-114810167D01*
X174974884Y-114623156D01*
X174977942Y-114404112D01*
X174940693Y-114215988D01*
X174867613Y-114038682D01*
X174761485Y-113878948D01*
X174626353Y-113742869D01*
X174467364Y-113635629D01*
X174290572Y-113561313D01*
X174102713Y-113522751D01*
X173910942Y-113521412D01*
X173722562Y-113557347D01*
X173544750Y-113629188D01*
X173384279Y-113734198D01*
X173380396Y-113738000D01*
X156619134Y-113738000D01*
X156467364Y-113635629D01*
X156290572Y-113561313D01*
X156102713Y-113522751D01*
X155910942Y-113521412D01*
X155722562Y-113557347D01*
X155544750Y-113629188D01*
X155384279Y-113734198D01*
X155247260Y-113868376D01*
X155138913Y-114026613D01*
X155063364Y-114202882D01*
X155023492Y-114390467D01*
X155020814Y-114582225D01*
X148262000Y-114582225D01*
X148262000Y-107616340D01*
X148354394Y-107485363D01*
X148432396Y-107310167D01*
X148474884Y-107123156D01*
X148477942Y-106904112D01*
X148440693Y-106715988D01*
X148367613Y-106538682D01*
X148261485Y-106378948D01*
X148126353Y-106242869D01*
X147967364Y-106135629D01*
X147790572Y-106061313D01*
X147602713Y-106022751D01*
X147410942Y-106021412D01*
X147222562Y-106057347D01*
X147044750Y-106129188D01*
X146884279Y-106234198D01*
X146747260Y-106368376D01*
X146638913Y-106526613D01*
X146563364Y-106702882D01*
X146523492Y-106890467D01*
X146520814Y-107082225D01*
X146555433Y-107270850D01*
X146626031Y-107449159D01*
X146729918Y-107610360D01*
X146738000Y-107618729D01*
X146738000Y-120796769D01*
X145493720Y-122041049D01*
X145471964Y-122034148D01*
X145181312Y-122001546D01*
X145160388Y-122001400D01*
X144839612Y-122001400D01*
X144548532Y-122029941D01*
X144268540Y-122114475D01*
X144210000Y-122145601D01*
X144210000Y-117536622D01*
X144487345Y-117657791D01*
X144803569Y-117727318D01*
X145127276Y-117734099D01*
X145446135Y-117677875D01*
X145748000Y-117560789D01*
X146021375Y-117387300D01*
X146255846Y-117164017D01*
X146442482Y-116899444D01*
X146574174Y-116603658D01*
X146645906Y-116287926D01*
X146651070Y-115918111D01*
X146588182Y-115600500D01*
X146464799Y-115301152D01*
X146285624Y-115031471D01*
X146063191Y-114807480D01*
X146255846Y-114624017D01*
X146442482Y-114359444D01*
X146574174Y-114063658D01*
X146645906Y-113747926D01*
X146651070Y-113378111D01*
X146588182Y-113060500D01*
X146464799Y-112761152D01*
X146285624Y-112491471D01*
X146063191Y-112267480D01*
X146255846Y-112084017D01*
X146442482Y-111819444D01*
X146574174Y-111523658D01*
X146645906Y-111207926D01*
X146651070Y-110838111D01*
X146588182Y-110520500D01*
X146464799Y-110221152D01*
X146285624Y-109951471D01*
X146057479Y-109721728D01*
X145789055Y-109540674D01*
X145490576Y-109415205D01*
X145173411Y-109350100D01*
X144849642Y-109347840D01*
X144531599Y-109408510D01*
X144231397Y-109529799D01*
X144210000Y-109543801D01*
X144210000Y-108534720D01*
X144295041Y-107667399D01*
X144536846Y-106866506D01*
X144929604Y-106127835D01*
X145458357Y-105479518D01*
X146102963Y-104946253D01*
X146838878Y-104548346D01*
X147638060Y-104300958D01*
X148503469Y-104210000D01*
X149502265Y-104210000D01*
X149378668Y-104498372D01*
X149378668Y-104498372D01*
G37*
X149378668Y-104498372D02*
X149311351Y-104815074D01*
X149306830Y-105138821D01*
X149365278Y-105457279D01*
X149484469Y-105758320D01*
X149659862Y-106030477D01*
X149884777Y-106263383D01*
X150150647Y-106448167D01*
X150447345Y-106577791D01*
X150763569Y-106647318D01*
X151087276Y-106654099D01*
X151406135Y-106597875D01*
X151708000Y-106480789D01*
X151981375Y-106307300D01*
X152215846Y-106084017D01*
X152230924Y-106062643D01*
X152424777Y-106263383D01*
X152690647Y-106448167D01*
X152987345Y-106577791D01*
X153303569Y-106647318D01*
X153627276Y-106654099D01*
X153946135Y-106597875D01*
X154248000Y-106480789D01*
X154521375Y-106307300D01*
X154755846Y-106084017D01*
X154770924Y-106062643D01*
X154964777Y-106263383D01*
X155230647Y-106448167D01*
X155527345Y-106577791D01*
X155843569Y-106647318D01*
X156167276Y-106654099D01*
X156486135Y-106597875D01*
X156788000Y-106480789D01*
X157061375Y-106307300D01*
X157295846Y-106084017D01*
X157482482Y-105819444D01*
X157614174Y-105523658D01*
X157685906Y-105207926D01*
X157691070Y-104838111D01*
X157628182Y-104520500D01*
X157504799Y-104221152D01*
X157497390Y-104210000D01*
X159644162Y-104210000D01*
X159622584Y-104249251D01*
X159534148Y-104528036D01*
X159501546Y-104818688D01*
X159501400Y-104839612D01*
X159501400Y-105160388D01*
X159529941Y-105451468D01*
X159614475Y-105731460D01*
X159751784Y-105989701D01*
X159936637Y-106216353D01*
X160161994Y-106402784D01*
X160419269Y-106541892D01*
X160698665Y-106628379D01*
X160989538Y-106658951D01*
X161280810Y-106632444D01*
X161561385Y-106549866D01*
X161820578Y-106414363D01*
X162048515Y-106231097D01*
X162236515Y-106007048D01*
X162269299Y-105947413D01*
X162291784Y-105989701D01*
X162476637Y-106216353D01*
X162701994Y-106402784D01*
X162959269Y-106541892D01*
X163238665Y-106628379D01*
X163529538Y-106658951D01*
X163820810Y-106632444D01*
X164101385Y-106549866D01*
X164360578Y-106414363D01*
X164588515Y-106231097D01*
X164776515Y-106007048D01*
X164917416Y-105750749D01*
X165005852Y-105471964D01*
X165038454Y-105181312D01*
X165038600Y-105160388D01*
X165038600Y-104839612D01*
X165010059Y-104548532D01*
X164925525Y-104268540D01*
X164894399Y-104210000D01*
X169502265Y-104210000D01*
X169378668Y-104498372D01*
X169311351Y-104815074D01*
X169306830Y-105138821D01*
X169365278Y-105457279D01*
X169484469Y-105758320D01*
X169659862Y-106030477D01*
X169884777Y-106263383D01*
X170150647Y-106448167D01*
X170447345Y-106577791D01*
X170763569Y-106647318D01*
X171087276Y-106654099D01*
X171406135Y-106597875D01*
X171708000Y-106480789D01*
X171981375Y-106307300D01*
X172215846Y-106084017D01*
X172230924Y-106062643D01*
X172424777Y-106263383D01*
X172690647Y-106448167D01*
X172987345Y-106577791D01*
X173303569Y-106647318D01*
X173627276Y-106654099D01*
X173946135Y-106597875D01*
X174248000Y-106480789D01*
X174521375Y-106307300D01*
X174755846Y-106084017D01*
X174770924Y-106062643D01*
X174964777Y-106263383D01*
X175230647Y-106448167D01*
X175527345Y-106577791D01*
X175843569Y-106647318D01*
X176167276Y-106654099D01*
X176486135Y-106597875D01*
X176788000Y-106480789D01*
X177061375Y-106307300D01*
X177295846Y-106084017D01*
X177482482Y-105819444D01*
X177614174Y-105523658D01*
X177685906Y-105207926D01*
X177691070Y-104838111D01*
X177628182Y-104520500D01*
X177504799Y-104221152D01*
X177497390Y-104210000D01*
X178465280Y-104210000D01*
X179332601Y-104295041D01*
X180133494Y-104536846D01*
X180872165Y-104929604D01*
X181520482Y-105458357D01*
X182053747Y-106102963D01*
X182451654Y-106838878D01*
X182699042Y-107638060D01*
X182790000Y-108503469D01*
X182790000Y-109461311D01*
X182789055Y-109460674D01*
X182490576Y-109335205D01*
X182173411Y-109270100D01*
X181849642Y-109267840D01*
X181531599Y-109328510D01*
X181231397Y-109449799D01*
X180960472Y-109627088D01*
X180729141Y-109853623D01*
X180546218Y-110120776D01*
X180418668Y-110418372D01*
X180351351Y-110735074D01*
X180346830Y-111058821D01*
X180405278Y-111377279D01*
X180524469Y-111678320D01*
X180699862Y-111950477D01*
X180924777Y-112183383D01*
X180935922Y-112191129D01*
X180729141Y-112393623D01*
X180546218Y-112660776D01*
X180418668Y-112958372D01*
X180351351Y-113275074D01*
X180346830Y-113598821D01*
X180405278Y-113917279D01*
X180524469Y-114218320D01*
X180699862Y-114490477D01*
X180924777Y-114723383D01*
X180935922Y-114731129D01*
X180729141Y-114933623D01*
X180546218Y-115200776D01*
X180418668Y-115498372D01*
X180351351Y-115815074D01*
X180346830Y-116138821D01*
X180405278Y-116457279D01*
X180524469Y-116758320D01*
X180699862Y-117030477D01*
X180924777Y-117263383D01*
X181190647Y-117448167D01*
X181487345Y-117577791D01*
X181803569Y-117647318D01*
X182127276Y-117654099D01*
X182446135Y-117597875D01*
X182748000Y-117480789D01*
X182790000Y-117454135D01*
X182790000Y-122104162D01*
X182750749Y-122082584D01*
X182471964Y-121994148D01*
X182181312Y-121961546D01*
X182160388Y-121961400D01*
X181839612Y-121961400D01*
X181548532Y-121989941D01*
X181268540Y-122074475D01*
X181010299Y-122211784D01*
X180783647Y-122396637D01*
X180597216Y-122621994D01*
X180458108Y-122879269D01*
X180371621Y-123158665D01*
X180341049Y-123449538D01*
X180367556Y-123740810D01*
X180450134Y-124021385D01*
X180585637Y-124280578D01*
X180768903Y-124508515D01*
X180992952Y-124696515D01*
X181052587Y-124729299D01*
X181010299Y-124751784D01*
X180783647Y-124936637D01*
X180597216Y-125161994D01*
X180458108Y-125419269D01*
X180371621Y-125698665D01*
X180341049Y-125989538D01*
X180367556Y-126280810D01*
X180450134Y-126561385D01*
X180585637Y-126820578D01*
X180768903Y-127048515D01*
X180992952Y-127236515D01*
X181249251Y-127377416D01*
X181528036Y-127465852D01*
X181818688Y-127498454D01*
X181839612Y-127498600D01*
X182160388Y-127498600D01*
X182451468Y-127470059D01*
X182731460Y-127385525D01*
X182790000Y-127354399D01*
X182790000Y-129001311D01*
X182789055Y-129000674D01*
X182490576Y-128875205D01*
X182173411Y-128810100D01*
X181849642Y-128807840D01*
X181531599Y-128868510D01*
X181231397Y-128989799D01*
X180960472Y-129167088D01*
X180729141Y-129393623D01*
X180546218Y-129660776D01*
X180418668Y-129958372D01*
X180351351Y-130275074D01*
X180346830Y-130598821D01*
X180405278Y-130917279D01*
X180524469Y-131218320D01*
X180699862Y-131490477D01*
X180924777Y-131723383D01*
X180935922Y-131731129D01*
X180729141Y-131933623D01*
X180546218Y-132200776D01*
X180418668Y-132498372D01*
X180351351Y-132815074D01*
X180346830Y-133138821D01*
X180405278Y-133457279D01*
X180524469Y-133758320D01*
X180699862Y-134030477D01*
X180924777Y-134263383D01*
X180935922Y-134271129D01*
X180729141Y-134473623D01*
X180546218Y-134740776D01*
X180418668Y-135038372D01*
X180351351Y-135355074D01*
X180346830Y-135678821D01*
X180405278Y-135997279D01*
X180524469Y-136298320D01*
X180699862Y-136570477D01*
X180924777Y-136803383D01*
X181190647Y-136988167D01*
X181487345Y-137117791D01*
X181803569Y-137187318D01*
X182127276Y-137194099D01*
X182446135Y-137137875D01*
X182748000Y-137020789D01*
X182790000Y-136994135D01*
X182790000Y-138465281D01*
X182704959Y-139332601D01*
X182463154Y-140133494D01*
X182070395Y-140872168D01*
X181541640Y-141520484D01*
X180897034Y-142053749D01*
X180161122Y-142451654D01*
X179361942Y-142699042D01*
X178496532Y-142790000D01*
X177535591Y-142790000D01*
X177654174Y-142523658D01*
X177725906Y-142207926D01*
X177731070Y-141838111D01*
X177668182Y-141520500D01*
X177544799Y-141221152D01*
X177365624Y-140951471D01*
X177177471Y-140762000D01*
X178500000Y-140762000D01*
X178570114Y-140755125D01*
X178640170Y-140748996D01*
X178644013Y-140747880D01*
X178648007Y-140747488D01*
X178715460Y-140727123D01*
X178782982Y-140707506D01*
X178786538Y-140705663D01*
X178790376Y-140704504D01*
X178852553Y-140671444D01*
X178915014Y-140639067D01*
X178918144Y-140636568D01*
X178921684Y-140634686D01*
X178976231Y-140590199D01*
X179031240Y-140546286D01*
X179036815Y-140540788D01*
X179036931Y-140540693D01*
X179037020Y-140540585D01*
X179038815Y-140538815D01*
X180038816Y-139538815D01*
X180083537Y-139484371D01*
X180128736Y-139430505D01*
X180130664Y-139426997D01*
X180133211Y-139423897D01*
X180166499Y-139361815D01*
X180200381Y-139300184D01*
X180201592Y-139296366D01*
X180203487Y-139292832D01*
X180224084Y-139225463D01*
X180245348Y-139158429D01*
X180245794Y-139154451D01*
X180246967Y-139150615D01*
X180254086Y-139080533D01*
X180261926Y-139010639D01*
X180261980Y-139002813D01*
X180261996Y-139002660D01*
X180261982Y-139002517D01*
X180262000Y-139000000D01*
X180262000Y-134616340D01*
X180354394Y-134485363D01*
X180432396Y-134310167D01*
X180474884Y-134123156D01*
X180477942Y-133904112D01*
X180440693Y-133715988D01*
X180367613Y-133538682D01*
X180261485Y-133378948D01*
X180126353Y-133242869D01*
X179967364Y-133135629D01*
X179790572Y-133061313D01*
X179602713Y-133022751D01*
X179410942Y-133021412D01*
X179222562Y-133057347D01*
X179044750Y-133129188D01*
X178884279Y-133234198D01*
X178747260Y-133368376D01*
X178638913Y-133526613D01*
X178563364Y-133702882D01*
X178523492Y-133890467D01*
X178520814Y-134082225D01*
X178555433Y-134270850D01*
X178626031Y-134449159D01*
X178729918Y-134610360D01*
X178738000Y-134618729D01*
X178738000Y-138684369D01*
X178184370Y-139238000D01*
X170262000Y-139238000D01*
X170262000Y-133315630D01*
X176602712Y-126974918D01*
X176764249Y-126946434D01*
X176943047Y-126877083D01*
X177104969Y-126774325D01*
X177243848Y-126642072D01*
X177354394Y-126485363D01*
X177432396Y-126310167D01*
X177474884Y-126123156D01*
X177477942Y-125904112D01*
X177440693Y-125715988D01*
X177367613Y-125538682D01*
X177261485Y-125378948D01*
X177126353Y-125242869D01*
X176967364Y-125135629D01*
X176790572Y-125061313D01*
X176602713Y-125022751D01*
X176410942Y-125021412D01*
X176222562Y-125057347D01*
X176044750Y-125129188D01*
X175884279Y-125234198D01*
X175747260Y-125368376D01*
X175638913Y-125526613D01*
X175563364Y-125702882D01*
X175523492Y-125890467D01*
X175523373Y-125898997D01*
X168961185Y-132461185D01*
X168916488Y-132515599D01*
X168871264Y-132569495D01*
X168869336Y-132573003D01*
X168866789Y-132576103D01*
X168833510Y-132638169D01*
X168799619Y-132699816D01*
X168798407Y-132703636D01*
X168796514Y-132707167D01*
X168775939Y-132774464D01*
X168754652Y-132841571D01*
X168754205Y-132845554D01*
X168753034Y-132849385D01*
X168745925Y-132919373D01*
X168738074Y-132989361D01*
X168738019Y-132997197D01*
X168738005Y-132997340D01*
X168738018Y-132997473D01*
X168738000Y-133000000D01*
X168738000Y-139381900D01*
X168638913Y-139526613D01*
X168563364Y-139702882D01*
X168523492Y-139890467D01*
X168520814Y-140082225D01*
X168555433Y-140270850D01*
X168626031Y-140449159D01*
X168729918Y-140610360D01*
X168863137Y-140748312D01*
X169020613Y-140857761D01*
X169196350Y-140934539D01*
X169383652Y-140975720D01*
X169575387Y-140979736D01*
X169714344Y-140955234D01*
X169546218Y-141200776D01*
X169418668Y-141498372D01*
X169351351Y-141815074D01*
X169346830Y-142138821D01*
X169405278Y-142457279D01*
X169524469Y-142758320D01*
X169544885Y-142790000D01*
X164815838Y-142790000D01*
X164837416Y-142750749D01*
X164925852Y-142471964D01*
X164958454Y-142181312D01*
X164958600Y-142160388D01*
X164958600Y-141839612D01*
X164930059Y-141548532D01*
X164908408Y-141476822D01*
X165410312Y-140974918D01*
X165571849Y-140946434D01*
X165750647Y-140877083D01*
X165912569Y-140774325D01*
X166051448Y-140642072D01*
X166161994Y-140485363D01*
X166239996Y-140310167D01*
X166282484Y-140123156D01*
X166285542Y-139904112D01*
X166248293Y-139715988D01*
X166175213Y-139538682D01*
X166069085Y-139378948D01*
X165933953Y-139242869D01*
X165774964Y-139135629D01*
X165598172Y-139061313D01*
X165410313Y-139022751D01*
X165218542Y-139021412D01*
X165030162Y-139057347D01*
X164852350Y-139129188D01*
X164691879Y-139234198D01*
X164554860Y-139368376D01*
X164446513Y-139526613D01*
X164370964Y-139702882D01*
X164331092Y-139890467D01*
X164330973Y-139898997D01*
X163835417Y-140394553D01*
X163761335Y-140371621D01*
X163470462Y-140341049D01*
X163179190Y-140367556D01*
X162898615Y-140450134D01*
X162639422Y-140585637D01*
X162411485Y-140768903D01*
X162223485Y-140992952D01*
X162190701Y-141052587D01*
X162168216Y-141010299D01*
X161983363Y-140783647D01*
X161758006Y-140597216D01*
X161500731Y-140458108D01*
X161221335Y-140371621D01*
X160930462Y-140341049D01*
X160639190Y-140367556D01*
X160358615Y-140450134D01*
X160099422Y-140585637D01*
X159871485Y-140768903D01*
X159683485Y-140992952D01*
X159542584Y-141249251D01*
X159454148Y-141528036D01*
X159421546Y-141818688D01*
X159421400Y-141839612D01*
X159421400Y-142160388D01*
X159449941Y-142451468D01*
X159534475Y-142731460D01*
X159565601Y-142790000D01*
X157495591Y-142790000D01*
X157614174Y-142523658D01*
X157685906Y-142207926D01*
X157691070Y-141838111D01*
X157628182Y-141520500D01*
X157504799Y-141221152D01*
X157325624Y-140951471D01*
X157097479Y-140721728D01*
X156829055Y-140540674D01*
X156530576Y-140415205D01*
X156213411Y-140350100D01*
X155889642Y-140347840D01*
X155571599Y-140408510D01*
X155271397Y-140529799D01*
X155000472Y-140707088D01*
X154769141Y-140933623D01*
X154768635Y-140934363D01*
X154557479Y-140721728D01*
X154289055Y-140540674D01*
X153990576Y-140415205D01*
X153673411Y-140350100D01*
X153349642Y-140347840D01*
X153031599Y-140408510D01*
X152731397Y-140529799D01*
X152460472Y-140707088D01*
X152229141Y-140933623D01*
X152228635Y-140934363D01*
X152017479Y-140721728D01*
X151749055Y-140540674D01*
X151450576Y-140415205D01*
X151133411Y-140350100D01*
X150809642Y-140347840D01*
X150491599Y-140408510D01*
X150191397Y-140529799D01*
X149920472Y-140707088D01*
X149689141Y-140933623D01*
X149506218Y-141200776D01*
X149378668Y-141498372D01*
X149311351Y-141815074D01*
X149306830Y-142138821D01*
X149365278Y-142457279D01*
X149484469Y-142758320D01*
X149504885Y-142790000D01*
X148534719Y-142790000D01*
X147667399Y-142704959D01*
X146866506Y-142463154D01*
X146127832Y-142070395D01*
X145479516Y-141541640D01*
X144946251Y-140897034D01*
X144548346Y-140161122D01*
X144523924Y-140082225D01*
X147020814Y-140082225D01*
X147055433Y-140270850D01*
X147126031Y-140449159D01*
X147229918Y-140610360D01*
X147363137Y-140748312D01*
X147520613Y-140857761D01*
X147696350Y-140934539D01*
X147883652Y-140975720D01*
X148075387Y-140979736D01*
X148264249Y-140946434D01*
X148443047Y-140877083D01*
X148604969Y-140774325D01*
X148743848Y-140642072D01*
X148854394Y-140485363D01*
X148932396Y-140310167D01*
X148974884Y-140123156D01*
X148977942Y-139904112D01*
X148940693Y-139715988D01*
X148867613Y-139538682D01*
X148762000Y-139379723D01*
X148762000Y-137811630D01*
X153098712Y-133474918D01*
X153260249Y-133446434D01*
X153439047Y-133377083D01*
X153600969Y-133274325D01*
X153739848Y-133142072D01*
X153850394Y-132985363D01*
X153928396Y-132810167D01*
X153970884Y-132623156D01*
X153973942Y-132404112D01*
X153936693Y-132215988D01*
X153863613Y-132038682D01*
X153757485Y-131878948D01*
X153622353Y-131742869D01*
X153463364Y-131635629D01*
X153286572Y-131561313D01*
X153098713Y-131522751D01*
X152906942Y-131521412D01*
X152718562Y-131557347D01*
X152540750Y-131629188D01*
X152380279Y-131734198D01*
X152243260Y-131868376D01*
X152134913Y-132026613D01*
X152059364Y-132202882D01*
X152019492Y-132390467D01*
X152019373Y-132398997D01*
X147461185Y-136957185D01*
X147416488Y-137011599D01*
X147371264Y-137065495D01*
X147369336Y-137069003D01*
X147366789Y-137072103D01*
X147333510Y-137134169D01*
X147299619Y-137195816D01*
X147298407Y-137199636D01*
X147296514Y-137203167D01*
X147275939Y-137270464D01*
X147254652Y-137337571D01*
X147254205Y-137341554D01*
X147253034Y-137345385D01*
X147245925Y-137415373D01*
X147238074Y-137485361D01*
X147238019Y-137493197D01*
X147238005Y-137493340D01*
X147238018Y-137493473D01*
X147238000Y-137496000D01*
X147238000Y-139381900D01*
X147138913Y-139526613D01*
X147063364Y-139702882D01*
X147023492Y-139890467D01*
X147020814Y-140082225D01*
X144523924Y-140082225D01*
X144300958Y-139361942D01*
X144210000Y-138496532D01*
X144210000Y-137496622D01*
X144487345Y-137617791D01*
X144803569Y-137687318D01*
X145127276Y-137694099D01*
X145446135Y-137637875D01*
X145748000Y-137520789D01*
X146021375Y-137347300D01*
X146255846Y-137124017D01*
X146442482Y-136859444D01*
X146574174Y-136563658D01*
X146645906Y-136247926D01*
X146651070Y-135878111D01*
X146588182Y-135560500D01*
X146464799Y-135261152D01*
X146285624Y-134991471D01*
X146063191Y-134767480D01*
X146255846Y-134584017D01*
X146442482Y-134319444D01*
X146574174Y-134023658D01*
X146645906Y-133707926D01*
X146651070Y-133338111D01*
X146588182Y-133020500D01*
X146464799Y-132721152D01*
X146285624Y-132451471D01*
X146063191Y-132227480D01*
X146255846Y-132044017D01*
X146442482Y-131779444D01*
X146574174Y-131483658D01*
X146645906Y-131167926D01*
X146651070Y-130798111D01*
X146588182Y-130480500D01*
X146464799Y-130181152D01*
X146285624Y-129911471D01*
X146057479Y-129681728D01*
X145789055Y-129500674D01*
X145490576Y-129375205D01*
X145173411Y-129310100D01*
X144849642Y-129307840D01*
X144531599Y-129368510D01*
X144231397Y-129489799D01*
X144210000Y-129503801D01*
X144210000Y-128082225D01*
X146520814Y-128082225D01*
X146555433Y-128270850D01*
X146626031Y-128449159D01*
X146729918Y-128610360D01*
X146863137Y-128748312D01*
X147020613Y-128857761D01*
X147196350Y-128934539D01*
X147383652Y-128975720D01*
X147575387Y-128979736D01*
X147764249Y-128946434D01*
X147943047Y-128877083D01*
X148104969Y-128774325D01*
X148243848Y-128642072D01*
X148354394Y-128485363D01*
X148432396Y-128310167D01*
X148474884Y-128123156D01*
X148475173Y-128102457D01*
X152815631Y-123762000D01*
X173886831Y-123762000D01*
X174024613Y-123857761D01*
X174200350Y-123934539D01*
X174387652Y-123975720D01*
X174579387Y-123979736D01*
X174768249Y-123946434D01*
X174947047Y-123877083D01*
X175108969Y-123774325D01*
X175247848Y-123642072D01*
X175358394Y-123485363D01*
X175436396Y-123310167D01*
X175478884Y-123123156D01*
X175479173Y-123102457D01*
X175538815Y-123042815D01*
X175633211Y-122927897D01*
X175703486Y-122796833D01*
X175746966Y-122654615D01*
X175761995Y-122506660D01*
X175748000Y-122358603D01*
X175705514Y-122216085D01*
X175636154Y-122084534D01*
X175542564Y-121968960D01*
X175428307Y-121873764D01*
X175297737Y-121802575D01*
X175155826Y-121758103D01*
X175007980Y-121742042D01*
X174859830Y-121755003D01*
X174717018Y-121796494D01*
X174584986Y-121864933D01*
X174468760Y-121957714D01*
X174461185Y-121965185D01*
X174402605Y-122023765D01*
X174226562Y-122057347D01*
X174048750Y-122129188D01*
X173888279Y-122234198D01*
X173884396Y-122238000D01*
X152500000Y-122238000D01*
X152429936Y-122244870D01*
X152359830Y-122251003D01*
X152355982Y-122252121D01*
X152351993Y-122252512D01*
X152284582Y-122272865D01*
X152217018Y-122292494D01*
X152213462Y-122294337D01*
X152209624Y-122295496D01*
X152147447Y-122328556D01*
X152084986Y-122360933D01*
X152081856Y-122363432D01*
X152078316Y-122365314D01*
X152023769Y-122409801D01*
X151968760Y-122453714D01*
X151963181Y-122459216D01*
X151963069Y-122459307D01*
X151962983Y-122459411D01*
X151961185Y-122461184D01*
X147398604Y-127023765D01*
X147222562Y-127057347D01*
X147044750Y-127129188D01*
X146884279Y-127234198D01*
X146747260Y-127368376D01*
X146638913Y-127526613D01*
X146563364Y-127702882D01*
X146523492Y-127890467D01*
X146520814Y-128082225D01*
X144210000Y-128082225D01*
X144210000Y-127395838D01*
X144249251Y-127417416D01*
X144528036Y-127505852D01*
X144818688Y-127538454D01*
X144839612Y-127538600D01*
X145160388Y-127538600D01*
X145451468Y-127510059D01*
X145731460Y-127425525D01*
X145989701Y-127288216D01*
X146216353Y-127103363D01*
X146402784Y-126878006D01*
X146541892Y-126620731D01*
X146628379Y-126341335D01*
X146658951Y-126050462D01*
X146632444Y-125759190D01*
X146549866Y-125478615D01*
X146414363Y-125219422D01*
X146231097Y-124991485D01*
X146007048Y-124803485D01*
X145947413Y-124770701D01*
X145989701Y-124748216D01*
X146216353Y-124563363D01*
X146402784Y-124338006D01*
X146541892Y-124080731D01*
X146628379Y-123801335D01*
X146658951Y-123510462D01*
X146632444Y-123219190D01*
X146595697Y-123094334D01*
X148038816Y-121651215D01*
X148083537Y-121596771D01*
X148128736Y-121542905D01*
X148130664Y-121539397D01*
X148133211Y-121536297D01*
X148166509Y-121474196D01*
X148200381Y-121412584D01*
X148201591Y-121408768D01*
X148203487Y-121405233D01*
X148224088Y-121337849D01*
X148245348Y-121270829D01*
X148245794Y-121266851D01*
X148246967Y-121263015D01*
X148254081Y-121192978D01*
X148261926Y-121123039D01*
X148261981Y-121115203D01*
X148261995Y-121115060D01*
X148261982Y-121114927D01*
X148262000Y-121112400D01*
X148262000Y-114582225D01*
X155020814Y-114582225D01*
X155055433Y-114770850D01*
X155126031Y-114949159D01*
X155229918Y-115110360D01*
X155363137Y-115248312D01*
X155520613Y-115357761D01*
X155696350Y-115434539D01*
X155883652Y-115475720D01*
X156075387Y-115479736D01*
X156264249Y-115446434D01*
X156443047Y-115377083D01*
X156604969Y-115274325D01*
X156617911Y-115262000D01*
X173382831Y-115262000D01*
X173520613Y-115357761D01*
X173696350Y-115434539D01*
X173883652Y-115475720D01*
X174075387Y-115479736D01*
X174264249Y-115446434D01*
X174443047Y-115377083D01*
X174604969Y-115274325D01*
X174743848Y-115142072D01*
X174854394Y-114985363D01*
X174932396Y-114810167D01*
X174974884Y-114623156D01*
X174977942Y-114404112D01*
X174940693Y-114215988D01*
X174867613Y-114038682D01*
X174761485Y-113878948D01*
X174626353Y-113742869D01*
X174467364Y-113635629D01*
X174290572Y-113561313D01*
X174102713Y-113522751D01*
X173910942Y-113521412D01*
X173722562Y-113557347D01*
X173544750Y-113629188D01*
X173384279Y-113734198D01*
X173380396Y-113738000D01*
X156619134Y-113738000D01*
X156467364Y-113635629D01*
X156290572Y-113561313D01*
X156102713Y-113522751D01*
X155910942Y-113521412D01*
X155722562Y-113557347D01*
X155544750Y-113629188D01*
X155384279Y-113734198D01*
X155247260Y-113868376D01*
X155138913Y-114026613D01*
X155063364Y-114202882D01*
X155023492Y-114390467D01*
X155020814Y-114582225D01*
X148262000Y-114582225D01*
X148262000Y-107616340D01*
X148354394Y-107485363D01*
X148432396Y-107310167D01*
X148474884Y-107123156D01*
X148477942Y-106904112D01*
X148440693Y-106715988D01*
X148367613Y-106538682D01*
X148261485Y-106378948D01*
X148126353Y-106242869D01*
X147967364Y-106135629D01*
X147790572Y-106061313D01*
X147602713Y-106022751D01*
X147410942Y-106021412D01*
X147222562Y-106057347D01*
X147044750Y-106129188D01*
X146884279Y-106234198D01*
X146747260Y-106368376D01*
X146638913Y-106526613D01*
X146563364Y-106702882D01*
X146523492Y-106890467D01*
X146520814Y-107082225D01*
X146555433Y-107270850D01*
X146626031Y-107449159D01*
X146729918Y-107610360D01*
X146738000Y-107618729D01*
X146738000Y-120796769D01*
X145493720Y-122041049D01*
X145471964Y-122034148D01*
X145181312Y-122001546D01*
X145160388Y-122001400D01*
X144839612Y-122001400D01*
X144548532Y-122029941D01*
X144268540Y-122114475D01*
X144210000Y-122145601D01*
X144210000Y-117536622D01*
X144487345Y-117657791D01*
X144803569Y-117727318D01*
X145127276Y-117734099D01*
X145446135Y-117677875D01*
X145748000Y-117560789D01*
X146021375Y-117387300D01*
X146255846Y-117164017D01*
X146442482Y-116899444D01*
X146574174Y-116603658D01*
X146645906Y-116287926D01*
X146651070Y-115918111D01*
X146588182Y-115600500D01*
X146464799Y-115301152D01*
X146285624Y-115031471D01*
X146063191Y-114807480D01*
X146255846Y-114624017D01*
X146442482Y-114359444D01*
X146574174Y-114063658D01*
X146645906Y-113747926D01*
X146651070Y-113378111D01*
X146588182Y-113060500D01*
X146464799Y-112761152D01*
X146285624Y-112491471D01*
X146063191Y-112267480D01*
X146255846Y-112084017D01*
X146442482Y-111819444D01*
X146574174Y-111523658D01*
X146645906Y-111207926D01*
X146651070Y-110838111D01*
X146588182Y-110520500D01*
X146464799Y-110221152D01*
X146285624Y-109951471D01*
X146057479Y-109721728D01*
X145789055Y-109540674D01*
X145490576Y-109415205D01*
X145173411Y-109350100D01*
X144849642Y-109347840D01*
X144531599Y-109408510D01*
X144231397Y-109529799D01*
X144210000Y-109543801D01*
X144210000Y-108534720D01*
X144295041Y-107667399D01*
X144536846Y-106866506D01*
X144929604Y-106127835D01*
X145458357Y-105479518D01*
X146102963Y-104946253D01*
X146838878Y-104548346D01*
X147638060Y-104300958D01*
X148503469Y-104210000D01*
X149502265Y-104210000D01*
X149378668Y-104498372D01*
M02*
