G04 #@! TF.FileFunction,Legend,Top*
%FSLAX46Y46*%
G04 Gerber Fmt 4.6, Leading zero omitted, Abs format (unit mm)*
G04 Created by KiCad (PCBNEW 4.0.4-stable) date Fri Nov  4 09:48:08 2016*
%MOMM*%
%LPD*%
G01*
G04 APERTURE LIST*
%ADD10C,0.100000*%
%ADD11C,0.300000*%
%ADD12C,0.200000*%
%ADD13C,0.150000*%
%ADD14R,1.700000X1.100000*%
%ADD15C,2.032000*%
%ADD16R,1.727200X2.032000*%
%ADD17O,1.727200X2.032000*%
%ADD18R,0.750000X0.800000*%
%ADD19R,0.800000X0.750000*%
%ADD20R,2.032000X1.727200*%
%ADD21O,2.032000X1.727200*%
G04 APERTURE END LIST*
D10*
D11*
X147250285Y-133765857D02*
X147250285Y-132565857D01*
X147821714Y-133765857D02*
X147821714Y-132565857D01*
X148507429Y-133765857D01*
X148507429Y-132565857D01*
X148907429Y-132565857D02*
X149593143Y-132565857D01*
X149250286Y-133765857D02*
X149250286Y-132565857D01*
X158071428Y-132078571D02*
X158642857Y-132078571D01*
X158285714Y-131578571D02*
X158285714Y-132864286D01*
X158357142Y-133007143D01*
X158500000Y-133078571D01*
X158642857Y-133078571D01*
X159142857Y-133078571D02*
X159142857Y-131578571D01*
X159785714Y-133078571D02*
X159785714Y-132292857D01*
X159714285Y-132150000D01*
X159571428Y-132078571D01*
X159357143Y-132078571D01*
X159214285Y-132150000D01*
X159142857Y-132221429D01*
X160500000Y-133078571D02*
X160500000Y-132078571D01*
X160500000Y-131578571D02*
X160428571Y-131650000D01*
X160500000Y-131721429D01*
X160571428Y-131650000D01*
X160500000Y-131578571D01*
X160500000Y-131721429D01*
X161214286Y-133078571D02*
X161214286Y-132078571D01*
X161214286Y-132221429D02*
X161285714Y-132150000D01*
X161428572Y-132078571D01*
X161642857Y-132078571D01*
X161785714Y-132150000D01*
X161857143Y-132292857D01*
X161857143Y-133078571D01*
X161857143Y-132292857D02*
X161928572Y-132150000D01*
X162071429Y-132078571D01*
X162285714Y-132078571D01*
X162428572Y-132150000D01*
X162500000Y-132292857D01*
X162500000Y-133078571D01*
X163214286Y-133078571D02*
X163214286Y-131578571D01*
X163214286Y-132150000D02*
X163357143Y-132078571D01*
X163642857Y-132078571D01*
X163785714Y-132150000D01*
X163857143Y-132221429D01*
X163928572Y-132364286D01*
X163928572Y-132792857D01*
X163857143Y-132935714D01*
X163785714Y-133007143D01*
X163642857Y-133078571D01*
X163357143Y-133078571D01*
X163214286Y-133007143D01*
X164785715Y-133078571D02*
X164642857Y-133007143D01*
X164571429Y-132864286D01*
X164571429Y-131578571D01*
X165928571Y-133007143D02*
X165785714Y-133078571D01*
X165500000Y-133078571D01*
X165357143Y-133007143D01*
X165285714Y-132864286D01*
X165285714Y-132292857D01*
X165357143Y-132150000D01*
X165500000Y-132078571D01*
X165785714Y-132078571D01*
X165928571Y-132150000D01*
X166000000Y-132292857D01*
X166000000Y-132435714D01*
X165285714Y-132578571D01*
X166642857Y-132935714D02*
X166714285Y-133007143D01*
X166642857Y-133078571D01*
X166571428Y-133007143D01*
X166642857Y-132935714D01*
X166642857Y-133078571D01*
X167357143Y-133078571D02*
X167357143Y-132078571D01*
X167357143Y-131578571D02*
X167285714Y-131650000D01*
X167357143Y-131721429D01*
X167428571Y-131650000D01*
X167357143Y-131578571D01*
X167357143Y-131721429D01*
X168285715Y-133078571D02*
X168142857Y-133007143D01*
X168071429Y-132935714D01*
X168000000Y-132792857D01*
X168000000Y-132364286D01*
X168071429Y-132221429D01*
X168142857Y-132150000D01*
X168285715Y-132078571D01*
X168500000Y-132078571D01*
X168642857Y-132150000D01*
X168714286Y-132221429D01*
X168785715Y-132364286D01*
X168785715Y-132792857D01*
X168714286Y-132935714D01*
X168642857Y-133007143D01*
X168500000Y-133078571D01*
X168285715Y-133078571D01*
X155357143Y-122678571D02*
X156214286Y-122678571D01*
X155785715Y-124178571D02*
X155785715Y-122678571D01*
X156928572Y-124178571D02*
X156785714Y-124107143D01*
X156714286Y-124035714D01*
X156642857Y-123892857D01*
X156642857Y-123464286D01*
X156714286Y-123321429D01*
X156785714Y-123250000D01*
X156928572Y-123178571D01*
X157142857Y-123178571D01*
X157285714Y-123250000D01*
X157357143Y-123321429D01*
X157428572Y-123464286D01*
X157428572Y-123892857D01*
X157357143Y-124035714D01*
X157285714Y-124107143D01*
X157142857Y-124178571D01*
X156928572Y-124178571D01*
X158071429Y-123178571D02*
X158071429Y-124678571D01*
X158071429Y-123250000D02*
X158214286Y-123178571D01*
X158500000Y-123178571D01*
X158642857Y-123250000D01*
X158714286Y-123321429D01*
X158785715Y-123464286D01*
X158785715Y-123892857D01*
X158714286Y-124035714D01*
X158642857Y-124107143D01*
X158500000Y-124178571D01*
X158214286Y-124178571D01*
X158071429Y-124107143D01*
X160571429Y-124178571D02*
X160571429Y-122678571D01*
X161285715Y-123178571D02*
X161285715Y-124178571D01*
X161285715Y-123321429D02*
X161357143Y-123250000D01*
X161500001Y-123178571D01*
X161714286Y-123178571D01*
X161857143Y-123250000D01*
X161928572Y-123392857D01*
X161928572Y-124178571D01*
X162642858Y-123178571D02*
X162642858Y-124678571D01*
X162642858Y-123250000D02*
X162785715Y-123178571D01*
X163071429Y-123178571D01*
X163214286Y-123250000D01*
X163285715Y-123321429D01*
X163357144Y-123464286D01*
X163357144Y-123892857D01*
X163285715Y-124035714D01*
X163214286Y-124107143D01*
X163071429Y-124178571D01*
X162785715Y-124178571D01*
X162642858Y-124107143D01*
X164642858Y-123178571D02*
X164642858Y-124178571D01*
X164000001Y-123178571D02*
X164000001Y-123964286D01*
X164071429Y-124107143D01*
X164214287Y-124178571D01*
X164428572Y-124178571D01*
X164571429Y-124107143D01*
X164642858Y-124035714D01*
X165142858Y-123178571D02*
X165714287Y-123178571D01*
X165357144Y-122678571D02*
X165357144Y-123964286D01*
X165428572Y-124107143D01*
X165571430Y-124178571D01*
X165714287Y-124178571D01*
X167285715Y-124107143D02*
X167500001Y-124178571D01*
X167857144Y-124178571D01*
X168000001Y-124107143D01*
X168071430Y-124035714D01*
X168142858Y-123892857D01*
X168142858Y-123750000D01*
X168071430Y-123607143D01*
X168000001Y-123535714D01*
X167857144Y-123464286D01*
X167571430Y-123392857D01*
X167428572Y-123321429D01*
X167357144Y-123250000D01*
X167285715Y-123107143D01*
X167285715Y-122964286D01*
X167357144Y-122821429D01*
X167428572Y-122750000D01*
X167571430Y-122678571D01*
X167928572Y-122678571D01*
X168142858Y-122750000D01*
X168785715Y-124178571D02*
X168785715Y-123178571D01*
X168785715Y-122678571D02*
X168714286Y-122750000D01*
X168785715Y-122821429D01*
X168857143Y-122750000D01*
X168785715Y-122678571D01*
X168785715Y-122821429D01*
X170142858Y-124178571D02*
X170142858Y-122678571D01*
X170142858Y-124107143D02*
X170000001Y-124178571D01*
X169714287Y-124178571D01*
X169571429Y-124107143D01*
X169500001Y-124035714D01*
X169428572Y-123892857D01*
X169428572Y-123464286D01*
X169500001Y-123321429D01*
X169571429Y-123250000D01*
X169714287Y-123178571D01*
X170000001Y-123178571D01*
X170142858Y-123250000D01*
X171428572Y-124107143D02*
X171285715Y-124178571D01*
X171000001Y-124178571D01*
X170857144Y-124107143D01*
X170785715Y-123964286D01*
X170785715Y-123392857D01*
X170857144Y-123250000D01*
X171000001Y-123178571D01*
X171285715Y-123178571D01*
X171428572Y-123250000D01*
X171500001Y-123392857D01*
X171500001Y-123535714D01*
X170785715Y-123678571D01*
X159214286Y-115078571D02*
X158500000Y-115078571D01*
X158500000Y-113578571D01*
X159714286Y-114292857D02*
X160214286Y-114292857D01*
X160428572Y-115078571D02*
X159714286Y-115078571D01*
X159714286Y-113578571D01*
X160428572Y-113578571D01*
X161071429Y-115078571D02*
X161071429Y-113578571D01*
X161428572Y-113578571D01*
X161642857Y-113650000D01*
X161785715Y-113792857D01*
X161857143Y-113935714D01*
X161928572Y-114221429D01*
X161928572Y-114435714D01*
X161857143Y-114721429D01*
X161785715Y-114864286D01*
X161642857Y-115007143D01*
X161428572Y-115078571D01*
X161071429Y-115078571D01*
X164571429Y-114935714D02*
X164500000Y-115007143D01*
X164285714Y-115078571D01*
X164142857Y-115078571D01*
X163928572Y-115007143D01*
X163785714Y-114864286D01*
X163714286Y-114721429D01*
X163642857Y-114435714D01*
X163642857Y-114221429D01*
X163714286Y-113935714D01*
X163785714Y-113792857D01*
X163928572Y-113650000D01*
X164142857Y-113578571D01*
X164285714Y-113578571D01*
X164500000Y-113650000D01*
X164571429Y-113721429D01*
X165857143Y-114078571D02*
X165857143Y-115078571D01*
X165214286Y-114078571D02*
X165214286Y-114864286D01*
X165285714Y-115007143D01*
X165428572Y-115078571D01*
X165642857Y-115078571D01*
X165785714Y-115007143D01*
X165857143Y-114935714D01*
X166571429Y-115078571D02*
X166571429Y-113578571D01*
X166571429Y-114150000D02*
X166714286Y-114078571D01*
X167000000Y-114078571D01*
X167142857Y-114150000D01*
X167214286Y-114221429D01*
X167285715Y-114364286D01*
X167285715Y-114792857D01*
X167214286Y-114935714D01*
X167142857Y-115007143D01*
X167000000Y-115078571D01*
X166714286Y-115078571D01*
X166571429Y-115007143D01*
X168500000Y-115007143D02*
X168357143Y-115078571D01*
X168071429Y-115078571D01*
X167928572Y-115007143D01*
X167857143Y-114864286D01*
X167857143Y-114292857D01*
X167928572Y-114150000D01*
X168071429Y-114078571D01*
X168357143Y-114078571D01*
X168500000Y-114150000D01*
X168571429Y-114292857D01*
X168571429Y-114435714D01*
X167857143Y-114578571D01*
D12*
X148300000Y-114800000D02*
X149200000Y-114800000D01*
X145800000Y-117100000D02*
X148300000Y-114800000D01*
D11*
X148910857Y-131772000D02*
X149482286Y-131772000D01*
X148796572Y-132114857D02*
X149196572Y-130914857D01*
X149596572Y-132114857D01*
X149996571Y-132114857D02*
X149996571Y-130914857D01*
X150282286Y-130914857D01*
X150453714Y-130972000D01*
X150568000Y-131086286D01*
X150625143Y-131200571D01*
X150682286Y-131429143D01*
X150682286Y-131600571D01*
X150625143Y-131829143D01*
X150568000Y-131943429D01*
X150453714Y-132057714D01*
X150282286Y-132114857D01*
X149996571Y-132114857D01*
X151425143Y-130914857D02*
X151539428Y-130914857D01*
X151653714Y-130972000D01*
X151710857Y-131029143D01*
X151768000Y-131143429D01*
X151825143Y-131372000D01*
X151825143Y-131657714D01*
X151768000Y-131886286D01*
X151710857Y-132000571D01*
X151653714Y-132057714D01*
X151539428Y-132114857D01*
X151425143Y-132114857D01*
X151310857Y-132057714D01*
X151253714Y-132000571D01*
X151196571Y-131886286D01*
X151139428Y-131657714D01*
X151139428Y-131372000D01*
X151196571Y-131143429D01*
X151253714Y-131029143D01*
X151310857Y-130972000D01*
X151425143Y-130914857D01*
D12*
X145500000Y-130500000D02*
X148590000Y-131445000D01*
D11*
X147005857Y-124785714D02*
X147177286Y-124842857D01*
X147463000Y-124842857D01*
X147577286Y-124785714D01*
X147634429Y-124728571D01*
X147691572Y-124614286D01*
X147691572Y-124500000D01*
X147634429Y-124385714D01*
X147577286Y-124328571D01*
X147463000Y-124271429D01*
X147234429Y-124214286D01*
X147120143Y-124157143D01*
X147063000Y-124100000D01*
X147005857Y-123985714D01*
X147005857Y-123871429D01*
X147063000Y-123757143D01*
X147120143Y-123700000D01*
X147234429Y-123642857D01*
X147520143Y-123642857D01*
X147691572Y-123700000D01*
X148205857Y-124842857D02*
X148205857Y-123642857D01*
X148491572Y-123642857D01*
X148663000Y-123700000D01*
X148777286Y-123814286D01*
X148834429Y-123928571D01*
X148891572Y-124157143D01*
X148891572Y-124328571D01*
X148834429Y-124557143D01*
X148777286Y-124671429D01*
X148663000Y-124785714D01*
X148491572Y-124842857D01*
X148205857Y-124842857D01*
X149348714Y-124500000D02*
X149920143Y-124500000D01*
X149234429Y-124842857D02*
X149634429Y-123642857D01*
X150034429Y-124842857D01*
X147034428Y-122985714D02*
X147205857Y-123042857D01*
X147491571Y-123042857D01*
X147605857Y-122985714D01*
X147663000Y-122928571D01*
X147720143Y-122814286D01*
X147720143Y-122700000D01*
X147663000Y-122585714D01*
X147605857Y-122528571D01*
X147491571Y-122471429D01*
X147263000Y-122414286D01*
X147148714Y-122357143D01*
X147091571Y-122300000D01*
X147034428Y-122185714D01*
X147034428Y-122071429D01*
X147091571Y-121957143D01*
X147148714Y-121900000D01*
X147263000Y-121842857D01*
X147548714Y-121842857D01*
X147720143Y-121900000D01*
X148920143Y-122928571D02*
X148863000Y-122985714D01*
X148691571Y-123042857D01*
X148577285Y-123042857D01*
X148405857Y-122985714D01*
X148291571Y-122871429D01*
X148234428Y-122757143D01*
X148177285Y-122528571D01*
X148177285Y-122357143D01*
X148234428Y-122128571D01*
X148291571Y-122014286D01*
X148405857Y-121900000D01*
X148577285Y-121842857D01*
X148691571Y-121842857D01*
X148863000Y-121900000D01*
X148920143Y-121957143D01*
X150005857Y-123042857D02*
X149434428Y-123042857D01*
X149434428Y-121842857D01*
X163357143Y-138678571D02*
X163642857Y-138678571D01*
X163785715Y-138750000D01*
X163928572Y-138892857D01*
X164000000Y-139178571D01*
X164000000Y-139678571D01*
X163928572Y-139964286D01*
X163785715Y-140107143D01*
X163642857Y-140178571D01*
X163357143Y-140178571D01*
X163214286Y-140107143D01*
X163071429Y-139964286D01*
X163000000Y-139678571D01*
X163000000Y-139178571D01*
X163071429Y-138892857D01*
X163214286Y-138750000D01*
X163357143Y-138678571D01*
X147571428Y-119592857D02*
X146428571Y-119592857D01*
X167928572Y-142107143D02*
X169071429Y-142107143D01*
X168500000Y-142678571D02*
X168500000Y-141535714D01*
X157928572Y-142107143D02*
X159071429Y-142107143D01*
X149814286Y-115478571D02*
X149814286Y-113978571D01*
X150528572Y-115478571D02*
X150528572Y-113978571D01*
X151385715Y-115478571D01*
X151385715Y-113978571D01*
X145007143Y-112571428D02*
X145007143Y-111428571D01*
X145578571Y-112000000D02*
X144435714Y-112000000D01*
X167928572Y-105107143D02*
X169071429Y-105107143D01*
X168500000Y-105678571D02*
X168500000Y-104535714D01*
X157928572Y-105107143D02*
X159071429Y-105107143D01*
X162714286Y-108178571D02*
X162714286Y-106678571D01*
X163428572Y-108178571D02*
X163428572Y-106678571D01*
X164285715Y-108178571D01*
X164285715Y-106678571D01*
D13*
X175000000Y-125000000D02*
X175500000Y-125500000D01*
X174500000Y-125500000D02*
X175000000Y-125000000D01*
X174500000Y-125500000D02*
X174500000Y-130500000D01*
X179500000Y-125500000D02*
X174500000Y-125500000D01*
X179500000Y-130500000D02*
X179500000Y-125500000D01*
X174500000Y-130500000D02*
X179500000Y-130500000D01*
X175000000Y-107000000D02*
X175500000Y-107500000D01*
X174500000Y-107500000D02*
X175000000Y-107000000D01*
X174500000Y-107500000D02*
X174500000Y-112500000D01*
X179500000Y-107500000D02*
X174500000Y-107500000D01*
X179500000Y-112500000D02*
X179500000Y-107500000D01*
X174500000Y-112500000D02*
X179500000Y-112500000D01*
X166000000Y-107000000D02*
X166500000Y-107500000D01*
X165500000Y-107500000D02*
X166000000Y-107000000D01*
X165500000Y-107500000D02*
X165500000Y-112500000D01*
X170500000Y-107500000D02*
X165500000Y-107500000D01*
X170500000Y-112500000D02*
X170500000Y-107500000D01*
X165500000Y-112500000D02*
X170500000Y-112500000D01*
X157000000Y-107000000D02*
X157500000Y-107500000D01*
X156500000Y-107500000D02*
X157000000Y-107000000D01*
X156500000Y-107500000D02*
X156500000Y-112500000D01*
X161500000Y-107500000D02*
X156500000Y-107500000D01*
X161500000Y-112500000D02*
X161500000Y-107500000D01*
X156500000Y-112500000D02*
X161500000Y-112500000D01*
X148000000Y-107000000D02*
X148500000Y-107500000D01*
X147500000Y-107500000D02*
X148000000Y-107000000D01*
X147500000Y-107500000D02*
X147500000Y-112500000D01*
X152500000Y-107500000D02*
X147500000Y-107500000D01*
X152500000Y-112500000D02*
X152500000Y-107500000D01*
X147500000Y-112500000D02*
X152500000Y-112500000D01*
X164730000Y-140730000D02*
X159650000Y-140730000D01*
X159650000Y-140730000D02*
X159650000Y-143270000D01*
X159650000Y-143270000D02*
X164730000Y-143270000D01*
X167550000Y-143550000D02*
X166000000Y-143550000D01*
X164730000Y-143270000D02*
X164730000Y-140730000D01*
X166000000Y-140450000D02*
X167550000Y-140450000D01*
X167550000Y-140450000D02*
X167550000Y-143550000D01*
X164810000Y-103730000D02*
X159730000Y-103730000D01*
X159730000Y-103730000D02*
X159730000Y-106270000D01*
X159730000Y-106270000D02*
X164810000Y-106270000D01*
X167630000Y-106550000D02*
X166080000Y-106550000D01*
X164810000Y-106270000D02*
X164810000Y-103730000D01*
X166080000Y-103450000D02*
X167630000Y-103450000D01*
X167630000Y-103450000D02*
X167630000Y-106550000D01*
X153900000Y-111350000D02*
X153900000Y-110650000D01*
X155100000Y-110650000D02*
X155100000Y-111350000D01*
X148000000Y-116000000D02*
X148500000Y-116500000D01*
X147500000Y-116500000D02*
X148000000Y-116000000D01*
X147500000Y-116500000D02*
X147500000Y-121500000D01*
X152500000Y-116500000D02*
X147500000Y-116500000D01*
X152500000Y-121500000D02*
X152500000Y-116500000D01*
X147500000Y-121500000D02*
X152500000Y-121500000D01*
X157000000Y-116000000D02*
X157500000Y-116500000D01*
X156500000Y-116500000D02*
X157000000Y-116000000D01*
X156500000Y-116500000D02*
X156500000Y-121500000D01*
X161500000Y-116500000D02*
X156500000Y-116500000D01*
X161500000Y-121500000D02*
X161500000Y-116500000D01*
X156500000Y-121500000D02*
X161500000Y-121500000D01*
X166000000Y-116000000D02*
X166500000Y-116500000D01*
X165500000Y-116500000D02*
X166000000Y-116000000D01*
X165500000Y-116500000D02*
X165500000Y-121500000D01*
X170500000Y-116500000D02*
X165500000Y-116500000D01*
X170500000Y-121500000D02*
X170500000Y-116500000D01*
X165500000Y-121500000D02*
X170500000Y-121500000D01*
X175000000Y-116000000D02*
X175500000Y-116500000D01*
X174500000Y-116500000D02*
X175000000Y-116000000D01*
X174500000Y-116500000D02*
X174500000Y-121500000D01*
X179500000Y-116500000D02*
X174500000Y-116500000D01*
X179500000Y-121500000D02*
X179500000Y-116500000D01*
X174500000Y-121500000D02*
X179500000Y-121500000D01*
X148000000Y-125000000D02*
X148500000Y-125500000D01*
X147500000Y-125500000D02*
X148000000Y-125000000D01*
X147500000Y-125500000D02*
X147500000Y-130500000D01*
X152500000Y-125500000D02*
X147500000Y-125500000D01*
X152500000Y-130500000D02*
X152500000Y-125500000D01*
X147500000Y-130500000D02*
X152500000Y-130500000D01*
X157000000Y-125000000D02*
X157500000Y-125500000D01*
X156500000Y-125500000D02*
X157000000Y-125000000D01*
X156500000Y-125500000D02*
X156500000Y-130500000D01*
X161500000Y-125500000D02*
X156500000Y-125500000D01*
X161500000Y-130500000D02*
X161500000Y-125500000D01*
X156500000Y-130500000D02*
X161500000Y-130500000D01*
X166000000Y-125000000D02*
X166500000Y-125500000D01*
X165500000Y-125500000D02*
X166000000Y-125000000D01*
X165500000Y-125500000D02*
X165500000Y-130500000D01*
X170500000Y-125500000D02*
X165500000Y-125500000D01*
X170500000Y-130500000D02*
X170500000Y-125500000D01*
X165500000Y-130500000D02*
X170500000Y-130500000D01*
X148000000Y-134000000D02*
X148500000Y-134500000D01*
X147500000Y-134500000D02*
X148000000Y-134000000D01*
X147500000Y-134500000D02*
X147500000Y-139500000D01*
X152500000Y-134500000D02*
X147500000Y-134500000D01*
X152500000Y-139500000D02*
X152500000Y-134500000D01*
X147500000Y-139500000D02*
X152500000Y-139500000D01*
X157000000Y-134000000D02*
X157500000Y-134500000D01*
X156500000Y-134500000D02*
X157000000Y-134000000D01*
X156500000Y-134500000D02*
X156500000Y-139500000D01*
X161500000Y-134500000D02*
X156500000Y-134500000D01*
X161500000Y-139500000D02*
X161500000Y-134500000D01*
X156500000Y-139500000D02*
X161500000Y-139500000D01*
X166000000Y-134000000D02*
X166500000Y-134500000D01*
X165500000Y-134500000D02*
X166000000Y-134000000D01*
X165500000Y-134500000D02*
X165500000Y-139500000D01*
X170500000Y-134500000D02*
X165500000Y-134500000D01*
X170500000Y-139500000D02*
X170500000Y-134500000D01*
X165500000Y-139500000D02*
X170500000Y-139500000D01*
X175000000Y-134000000D02*
X175500000Y-134500000D01*
X174500000Y-134500000D02*
X175000000Y-134000000D01*
X174500000Y-134500000D02*
X174500000Y-139500000D01*
X179500000Y-134500000D02*
X174500000Y-134500000D01*
X179500000Y-139500000D02*
X179500000Y-134500000D01*
X174500000Y-139500000D02*
X179500000Y-139500000D01*
X162900000Y-111350000D02*
X162900000Y-110650000D01*
X164100000Y-110650000D02*
X164100000Y-111350000D01*
X171900000Y-111350000D02*
X171900000Y-110650000D01*
X173100000Y-110650000D02*
X173100000Y-111350000D01*
X153900000Y-120350000D02*
X153900000Y-119650000D01*
X155100000Y-119650000D02*
X155100000Y-120350000D01*
X162900000Y-120350000D02*
X162900000Y-119650000D01*
X164100000Y-119650000D02*
X164100000Y-120350000D01*
X171900000Y-120350000D02*
X171900000Y-119650000D01*
X173100000Y-119650000D02*
X173100000Y-120350000D01*
X177350000Y-123600000D02*
X176650000Y-123600000D01*
X176650000Y-122400000D02*
X177350000Y-122400000D01*
X153900000Y-129350000D02*
X153900000Y-128650000D01*
X155100000Y-128650000D02*
X155100000Y-129350000D01*
X162900000Y-129350000D02*
X162900000Y-128650000D01*
X164100000Y-128650000D02*
X164100000Y-129350000D01*
X171900000Y-129350000D02*
X171900000Y-128650000D01*
X173100000Y-128650000D02*
X173100000Y-129350000D01*
X178850000Y-132100000D02*
X178150000Y-132100000D01*
X178150000Y-130900000D02*
X178850000Y-130900000D01*
X153900000Y-138350000D02*
X153900000Y-137650000D01*
X155100000Y-137650000D02*
X155100000Y-138350000D01*
X162900000Y-137350000D02*
X162900000Y-136650000D01*
X164100000Y-136650000D02*
X164100000Y-137350000D01*
X171900000Y-138350000D02*
X171900000Y-137650000D01*
X173100000Y-137650000D02*
X173100000Y-138350000D01*
X180900000Y-138350000D02*
X180900000Y-137650000D01*
X182100000Y-137650000D02*
X182100000Y-138350000D01*
X178850000Y-114100000D02*
X178150000Y-114100000D01*
X178150000Y-112900000D02*
X178850000Y-112900000D01*
X146270000Y-115880000D02*
X146270000Y-133660000D01*
X146270000Y-133660000D02*
X143730000Y-133660000D01*
X143730000Y-133660000D02*
X143730000Y-115880000D01*
X146550000Y-113060000D02*
X146550000Y-114610000D01*
X146270000Y-115880000D02*
X143730000Y-115880000D01*
X143450000Y-114610000D02*
X143450000Y-113060000D01*
X143450000Y-113060000D02*
X146550000Y-113060000D01*
X180730000Y-131080000D02*
X180730000Y-113300000D01*
X180730000Y-113300000D02*
X183270000Y-113300000D01*
X183270000Y-113300000D02*
X183270000Y-131080000D01*
X180450000Y-133900000D02*
X180450000Y-132350000D01*
X180730000Y-131080000D02*
X183270000Y-131080000D01*
X183550000Y-132350000D02*
X183550000Y-133900000D01*
X183550000Y-133900000D02*
X180450000Y-133900000D01*
%LPC*%
D14*
X179450000Y-129650000D03*
X179450000Y-126350000D03*
X174550000Y-126350000D03*
X174550000Y-129650000D03*
X179450000Y-111650000D03*
X179450000Y-108350000D03*
X174550000Y-108350000D03*
X174550000Y-111650000D03*
X170450000Y-111650000D03*
X170450000Y-108350000D03*
X165550000Y-108350000D03*
X165550000Y-111650000D03*
X161450000Y-111650000D03*
X161450000Y-108350000D03*
X156550000Y-108350000D03*
X156550000Y-111650000D03*
X152450000Y-111650000D03*
X152450000Y-108350000D03*
X147550000Y-108350000D03*
X147550000Y-111650000D03*
D15*
X171000000Y-142000000D03*
X173540000Y-142000000D03*
X176080000Y-142000000D03*
D16*
X166000000Y-142000000D03*
D17*
X163460000Y-142000000D03*
X160920000Y-142000000D03*
D16*
X166080000Y-105000000D03*
D17*
X163540000Y-105000000D03*
X161000000Y-105000000D03*
D18*
X154500000Y-111750000D03*
X154500000Y-110250000D03*
D14*
X152450000Y-120650000D03*
X152450000Y-117350000D03*
X147550000Y-117350000D03*
X147550000Y-120650000D03*
X161450000Y-120650000D03*
X161450000Y-117350000D03*
X156550000Y-117350000D03*
X156550000Y-120650000D03*
X170450000Y-120650000D03*
X170450000Y-117350000D03*
X165550000Y-117350000D03*
X165550000Y-120650000D03*
X179450000Y-120650000D03*
X179450000Y-117350000D03*
X174550000Y-117350000D03*
X174550000Y-120650000D03*
X152450000Y-129650000D03*
X152450000Y-126350000D03*
X147550000Y-126350000D03*
X147550000Y-129650000D03*
X161450000Y-129650000D03*
X161450000Y-126350000D03*
X156550000Y-126350000D03*
X156550000Y-129650000D03*
X170450000Y-129650000D03*
X170450000Y-126350000D03*
X165550000Y-126350000D03*
X165550000Y-129650000D03*
X152450000Y-138650000D03*
X152450000Y-135350000D03*
X147550000Y-135350000D03*
X147550000Y-138650000D03*
X161450000Y-138650000D03*
X161450000Y-135350000D03*
X156550000Y-135350000D03*
X156550000Y-138650000D03*
X170450000Y-138650000D03*
X170450000Y-135350000D03*
X165550000Y-135350000D03*
X165550000Y-138650000D03*
X179450000Y-138650000D03*
X179450000Y-135350000D03*
X174550000Y-135350000D03*
X174550000Y-138650000D03*
D18*
X163500000Y-111750000D03*
X163500000Y-110250000D03*
X172500000Y-111750000D03*
X172500000Y-110250000D03*
X154500000Y-120750000D03*
X154500000Y-119250000D03*
X163500000Y-120750000D03*
X163500000Y-119250000D03*
X172500000Y-120750000D03*
X172500000Y-119250000D03*
D19*
X177750000Y-123000000D03*
X176250000Y-123000000D03*
D18*
X154500000Y-129750000D03*
X154500000Y-128250000D03*
X163500000Y-129750000D03*
X163500000Y-128250000D03*
X172500000Y-129750000D03*
X172500000Y-128250000D03*
D19*
X179250000Y-131500000D03*
X177750000Y-131500000D03*
D18*
X154500000Y-138750000D03*
X154500000Y-137250000D03*
X163500000Y-137750000D03*
X163500000Y-136250000D03*
X172500000Y-138750000D03*
X172500000Y-137250000D03*
X181500000Y-138750000D03*
X181500000Y-137250000D03*
D19*
X179250000Y-113500000D03*
X177750000Y-113500000D03*
D15*
X150960000Y-142000000D03*
X153500000Y-142000000D03*
X156040000Y-142000000D03*
X150960000Y-105000000D03*
X153500000Y-105000000D03*
X156040000Y-105000000D03*
X170960000Y-105000000D03*
X173500000Y-105000000D03*
X176040000Y-105000000D03*
D20*
X145000000Y-114610000D03*
D21*
X145000000Y-117150000D03*
X145000000Y-119690000D03*
X145000000Y-122230000D03*
X145000000Y-124770000D03*
X145000000Y-127310000D03*
X145000000Y-129850000D03*
X145000000Y-132390000D03*
D20*
X182000000Y-132350000D03*
D21*
X182000000Y-129810000D03*
X182000000Y-127270000D03*
X182000000Y-124730000D03*
X182000000Y-122190000D03*
X182000000Y-119650000D03*
X182000000Y-117110000D03*
X182000000Y-114570000D03*
M02*
