G04 #@! TF.FileFunction,Copper,L2,Bot,Signal*
%FSLAX46Y46*%
G04 Gerber Fmt 4.6, Leading zero omitted, Abs format (unit mm)*
G04 Created by KiCad (PCBNEW 4.0.4-stable) date Fri Nov  4 09:48:08 2016*
%MOMM*%
%LPD*%
G01*
G04 APERTURE LIST*
%ADD10C,0.100000*%
%ADD11C,2.032000*%
%ADD12R,1.727200X2.032000*%
%ADD13O,1.727200X2.032000*%
%ADD14R,2.032000X1.727200*%
%ADD15O,2.032000X1.727200*%
%ADD16C,0.685800*%
%ADD17C,0.254000*%
%ADD18C,0.500000*%
%ADD19C,0.152400*%
G04 APERTURE END LIST*
D10*
D11*
X171000000Y-142000000D03*
X173540000Y-142000000D03*
X176080000Y-142000000D03*
D12*
X166000000Y-142000000D03*
D13*
X163460000Y-142000000D03*
X160920000Y-142000000D03*
D12*
X166080000Y-105000000D03*
D13*
X163540000Y-105000000D03*
X161000000Y-105000000D03*
D11*
X150960000Y-142000000D03*
X153500000Y-142000000D03*
X156040000Y-142000000D03*
X150960000Y-105000000D03*
X153500000Y-105000000D03*
X156040000Y-105000000D03*
X170960000Y-105000000D03*
X173500000Y-105000000D03*
X176040000Y-105000000D03*
D14*
X145000000Y-114610000D03*
D15*
X145000000Y-117150000D03*
X145000000Y-119690000D03*
X145000000Y-122230000D03*
X145000000Y-124770000D03*
X145000000Y-127310000D03*
X145000000Y-129850000D03*
X145000000Y-132390000D03*
D14*
X182000000Y-132350000D03*
D15*
X182000000Y-129810000D03*
X182000000Y-127270000D03*
X182000000Y-124730000D03*
X182000000Y-122190000D03*
X182000000Y-119650000D03*
X182000000Y-117110000D03*
X182000000Y-114570000D03*
D16*
X177800000Y-133700000D03*
X178874508Y-122224103D03*
X177274908Y-128000000D03*
X175100000Y-127700000D03*
X177000000Y-137000000D03*
X168000000Y-137000000D03*
X159000000Y-137000000D03*
X150000000Y-137000000D03*
X168000000Y-128000000D03*
X159000000Y-128000000D03*
X150000000Y-128000000D03*
X168000000Y-119000000D03*
X159000000Y-119000000D03*
X150000000Y-119000000D03*
X177000000Y-110000000D03*
X150000000Y-110000000D03*
X168000000Y-110000000D03*
X159000000Y-110000000D03*
X154300000Y-122300000D03*
X150600000Y-123600000D03*
X176230335Y-125884447D03*
X155300000Y-126100000D03*
X153400000Y-127700000D03*
X174600000Y-116000000D03*
X177622300Y-120400000D03*
X176200000Y-123900000D03*
X172965246Y-125850941D03*
X171000000Y-128000000D03*
X155100000Y-116200000D03*
X153200000Y-118900000D03*
X147500000Y-107000000D03*
X156000000Y-114500000D03*
X174000000Y-114500000D03*
X170603554Y-122950165D03*
X162300000Y-123100000D03*
X147949095Y-128240203D03*
X174504000Y-123000000D03*
X152838720Y-133572385D03*
X158064938Y-133581404D03*
X169600000Y-132500000D03*
X148000000Y-140000000D03*
X177146204Y-135429143D03*
X173800000Y-124100000D03*
X166600000Y-124100000D03*
X156400000Y-124100000D03*
X153700000Y-124500000D03*
X171482306Y-125268614D03*
X149820755Y-125067281D03*
X159000000Y-125155555D03*
X152886832Y-130951365D03*
X167100000Y-130700000D03*
X157700000Y-130700000D03*
D17*
X178874508Y-122709036D02*
X178874508Y-122224103D01*
X178874508Y-124410425D02*
X178874508Y-122709036D01*
X175584933Y-127700000D02*
X178874508Y-124410425D01*
X175100000Y-127700000D02*
X175584933Y-127700000D01*
X181847600Y-114570000D02*
X182000000Y-114570000D01*
X150600000Y-123600000D02*
X151900000Y-122300000D01*
X151900000Y-122300000D02*
X154300000Y-122300000D01*
X145000000Y-119690000D02*
X145152400Y-119690000D01*
X145152400Y-119690000D02*
X149062400Y-123600000D01*
X149062400Y-123600000D02*
X150600000Y-123600000D01*
X176230335Y-125884447D02*
X176230335Y-123930335D01*
X176230335Y-123930335D02*
X176200000Y-123900000D01*
D18*
X153400000Y-127700000D02*
X155000000Y-126100000D01*
X155000000Y-126100000D02*
X155300000Y-126100000D01*
D17*
X177622300Y-120400000D02*
X177622300Y-118701294D01*
X177622300Y-118701294D02*
X174921006Y-116000000D01*
X174921006Y-116000000D02*
X174600000Y-116000000D01*
X176188399Y-123911601D02*
X176200000Y-123900000D01*
X172965246Y-126034754D02*
X172965246Y-125850941D01*
X171000000Y-128000000D02*
X172965246Y-126034754D01*
X153200000Y-118900000D02*
X155100000Y-117000000D01*
X155100000Y-117000000D02*
X155100000Y-116200000D01*
X145000000Y-117150000D02*
X146270000Y-117150000D01*
X146270000Y-117150000D02*
X147500000Y-115920000D01*
X147500000Y-115920000D02*
X147500000Y-110896000D01*
X147500000Y-110896000D02*
X147500000Y-107000000D01*
X171000000Y-114500000D02*
X169922370Y-114500000D01*
X169922370Y-114500000D02*
X156000000Y-114500000D01*
X174000000Y-114500000D02*
X171000000Y-114500000D01*
X170653389Y-123000000D02*
X170603554Y-122950165D01*
X174504000Y-123000000D02*
X170653389Y-123000000D01*
X162300000Y-123100000D02*
X153089298Y-123100000D01*
X153089298Y-123100000D02*
X148291994Y-127897304D01*
X148291994Y-127897304D02*
X147949095Y-128240203D01*
X152838720Y-134057318D02*
X152838720Y-133572385D01*
X152838720Y-135161280D02*
X152838720Y-134057318D01*
X148000000Y-140000000D02*
X152838720Y-135161280D01*
D19*
X158549871Y-133581404D02*
X158064938Y-133581404D01*
X168518596Y-133581404D02*
X158549871Y-133581404D01*
X169600000Y-132500000D02*
X168518596Y-133581404D01*
D17*
X163460000Y-142000000D02*
X163460000Y-141847600D01*
X163460000Y-141847600D02*
X165429616Y-139877984D01*
X165429616Y-139877984D02*
X172697363Y-139877984D01*
X172697363Y-139877984D02*
X176803305Y-135772042D01*
X176803305Y-135772042D02*
X177146204Y-135429143D01*
X166600000Y-124100000D02*
X173800000Y-124100000D01*
X153700000Y-124500000D02*
X154100000Y-124100000D01*
X154100000Y-124100000D02*
X156400000Y-124100000D01*
X171369247Y-125155555D02*
X171482306Y-125268614D01*
X159000000Y-125155555D02*
X171369247Y-125155555D01*
X149523474Y-124770000D02*
X149820755Y-125067281D01*
X145000000Y-124770000D02*
X149523474Y-124770000D01*
D19*
X182000000Y-132350000D02*
X181050000Y-132350000D01*
X181050000Y-132350000D02*
X180578099Y-131878099D01*
X155357378Y-132390000D02*
X145000000Y-132390000D01*
X180578099Y-131878099D02*
X180578099Y-131877699D01*
X180578099Y-131877699D02*
X180100400Y-131400000D01*
X180100400Y-131400000D02*
X156347378Y-131400000D01*
X156347378Y-131400000D02*
X155357378Y-132390000D01*
D17*
X153138197Y-130700000D02*
X152886832Y-130951365D01*
X157700000Y-130700000D02*
X153138197Y-130700000D01*
X167100000Y-130700000D02*
X175951304Y-130700000D01*
X182000000Y-129810000D02*
X176841304Y-129810000D01*
X176841304Y-129810000D02*
X175951304Y-130700000D01*
G36*
X169960472Y-140707088D02*
X169729141Y-140933623D01*
X169546218Y-141200776D01*
X169418668Y-141498372D01*
X169351351Y-141815074D01*
X169346830Y-142138821D01*
X169405278Y-142457279D01*
X169524469Y-142758320D01*
X169544885Y-142790000D01*
X164815838Y-142790000D01*
X164837416Y-142750749D01*
X164925852Y-142471964D01*
X164958454Y-142181312D01*
X164958600Y-142160388D01*
X164958600Y-141839612D01*
X164930059Y-141548532D01*
X164908409Y-141476822D01*
X165745247Y-140639984D01*
X170063017Y-140639984D01*
X169960472Y-140707088D01*
X169960472Y-140707088D01*
G37*
X169960472Y-140707088D02*
X169729141Y-140933623D01*
X169546218Y-141200776D01*
X169418668Y-141498372D01*
X169351351Y-141815074D01*
X169346830Y-142138821D01*
X169405278Y-142457279D01*
X169524469Y-142758320D01*
X169544885Y-142790000D01*
X164815838Y-142790000D01*
X164837416Y-142750749D01*
X164925852Y-142471964D01*
X164958454Y-142181312D01*
X164958600Y-142160388D01*
X164958600Y-141839612D01*
X164930059Y-141548532D01*
X164908409Y-141476822D01*
X165745247Y-140639984D01*
X170063017Y-140639984D01*
X169960472Y-140707088D01*
G36*
X168663364Y-132202882D02*
X168623492Y-132390467D01*
X168622355Y-132471857D01*
X168224008Y-132870204D01*
X158736902Y-132870204D01*
X158691291Y-132824273D01*
X158532302Y-132717033D01*
X158355510Y-132642717D01*
X158167651Y-132604155D01*
X157975880Y-132602816D01*
X157787500Y-132638751D01*
X157609688Y-132710592D01*
X157449217Y-132815602D01*
X157312198Y-132949780D01*
X157203851Y-133108017D01*
X157128302Y-133284286D01*
X157088430Y-133471871D01*
X157085752Y-133663629D01*
X157120371Y-133852254D01*
X157190969Y-134030563D01*
X157294856Y-134191764D01*
X157428075Y-134329716D01*
X157585551Y-134439165D01*
X157761288Y-134515943D01*
X157948590Y-134557124D01*
X158140325Y-134561140D01*
X158329187Y-134527838D01*
X158507985Y-134458487D01*
X158669907Y-134355729D01*
X158736195Y-134292604D01*
X168518596Y-134292604D01*
X168583942Y-134286197D01*
X168649422Y-134280468D01*
X168653017Y-134279424D01*
X168656735Y-134279059D01*
X168719586Y-134260083D01*
X168782713Y-134241743D01*
X168786034Y-134240022D01*
X168789613Y-134238941D01*
X168847608Y-134208105D01*
X168905943Y-134177867D01*
X168908866Y-134175534D01*
X168912168Y-134173778D01*
X168963083Y-134132253D01*
X169014420Y-134091271D01*
X169019620Y-134086142D01*
X169019732Y-134086051D01*
X169019818Y-134085947D01*
X169021490Y-134084298D01*
X169627064Y-133478724D01*
X169675387Y-133479736D01*
X169864249Y-133446434D01*
X170043047Y-133377083D01*
X170204969Y-133274325D01*
X170343848Y-133142072D01*
X170454394Y-132985363D01*
X170532396Y-132810167D01*
X170574884Y-132623156D01*
X170577942Y-132404112D01*
X170540693Y-132215988D01*
X170497503Y-132111200D01*
X179805812Y-132111200D01*
X180067037Y-132372426D01*
X180068232Y-132373923D01*
X180073361Y-132379123D01*
X180073452Y-132379235D01*
X180073556Y-132379321D01*
X180075205Y-132380993D01*
X180345928Y-132651716D01*
X180345928Y-133213600D01*
X180353992Y-133314721D01*
X180407106Y-133486234D01*
X180505900Y-133636159D01*
X180642550Y-133752625D01*
X180806237Y-133826410D01*
X180984000Y-133851672D01*
X182790000Y-133851672D01*
X182790000Y-138465281D01*
X182704959Y-139332601D01*
X182463154Y-140133494D01*
X182070395Y-140872168D01*
X181541640Y-141520484D01*
X180897034Y-142053749D01*
X180161122Y-142451654D01*
X179361942Y-142699042D01*
X178496532Y-142790000D01*
X177535591Y-142790000D01*
X177654174Y-142523658D01*
X177725906Y-142207926D01*
X177731070Y-141838111D01*
X177668182Y-141520500D01*
X177544799Y-141221152D01*
X177365624Y-140951471D01*
X177137479Y-140721728D01*
X176869055Y-140540674D01*
X176570576Y-140415205D01*
X176253411Y-140350100D01*
X175929642Y-140347840D01*
X175611599Y-140408510D01*
X175311397Y-140529799D01*
X175040472Y-140707088D01*
X174809141Y-140933623D01*
X174808635Y-140934363D01*
X174597479Y-140721728D01*
X174329055Y-140540674D01*
X174030576Y-140415205D01*
X173713411Y-140350100D01*
X173389642Y-140347840D01*
X173285217Y-140367760D01*
X177248916Y-136404061D01*
X177410453Y-136375577D01*
X177589251Y-136306226D01*
X177751173Y-136203468D01*
X177890052Y-136071215D01*
X178000598Y-135914506D01*
X178078600Y-135739310D01*
X178121088Y-135552299D01*
X178124146Y-135333255D01*
X178086897Y-135145131D01*
X178013817Y-134967825D01*
X177907689Y-134808091D01*
X177772557Y-134672012D01*
X177613568Y-134564772D01*
X177436776Y-134490456D01*
X177248917Y-134451894D01*
X177057146Y-134450555D01*
X176868766Y-134486490D01*
X176690954Y-134558331D01*
X176530483Y-134663341D01*
X176393464Y-134797519D01*
X176285117Y-134955756D01*
X176209568Y-135132025D01*
X176169696Y-135319610D01*
X176169577Y-135328140D01*
X172381733Y-139115984D01*
X165429616Y-139115984D01*
X165359552Y-139122854D01*
X165289446Y-139128987D01*
X165285598Y-139130105D01*
X165281609Y-139130496D01*
X165214244Y-139150835D01*
X165146634Y-139170477D01*
X165143074Y-139172323D01*
X165139240Y-139173480D01*
X165077098Y-139206521D01*
X165014602Y-139238917D01*
X165011472Y-139241416D01*
X165007932Y-139243298D01*
X164953385Y-139287785D01*
X164898376Y-139331698D01*
X164892797Y-139337200D01*
X164892685Y-139337291D01*
X164892599Y-139337395D01*
X164890801Y-139339168D01*
X163835417Y-140394553D01*
X163761335Y-140371621D01*
X163470462Y-140341049D01*
X163179190Y-140367556D01*
X162898615Y-140450134D01*
X162639422Y-140585637D01*
X162411485Y-140768903D01*
X162223485Y-140992952D01*
X162190701Y-141052587D01*
X162168216Y-141010299D01*
X161983363Y-140783647D01*
X161758006Y-140597216D01*
X161500731Y-140458108D01*
X161221335Y-140371621D01*
X160930462Y-140341049D01*
X160639190Y-140367556D01*
X160358615Y-140450134D01*
X160099422Y-140585637D01*
X159871485Y-140768903D01*
X159683485Y-140992952D01*
X159542584Y-141249251D01*
X159454148Y-141528036D01*
X159421546Y-141818688D01*
X159421400Y-141839612D01*
X159421400Y-142160388D01*
X159449941Y-142451468D01*
X159534475Y-142731460D01*
X159565601Y-142790000D01*
X157495591Y-142790000D01*
X157614174Y-142523658D01*
X157685906Y-142207926D01*
X157691070Y-141838111D01*
X157628182Y-141520500D01*
X157504799Y-141221152D01*
X157325624Y-140951471D01*
X157097479Y-140721728D01*
X156829055Y-140540674D01*
X156530576Y-140415205D01*
X156213411Y-140350100D01*
X155889642Y-140347840D01*
X155571599Y-140408510D01*
X155271397Y-140529799D01*
X155000472Y-140707088D01*
X154769141Y-140933623D01*
X154768635Y-140934363D01*
X154557479Y-140721728D01*
X154289055Y-140540674D01*
X153990576Y-140415205D01*
X153673411Y-140350100D01*
X153349642Y-140347840D01*
X153031599Y-140408510D01*
X152731397Y-140529799D01*
X152460472Y-140707088D01*
X152229141Y-140933623D01*
X152228635Y-140934363D01*
X152017479Y-140721728D01*
X151749055Y-140540674D01*
X151450576Y-140415205D01*
X151133411Y-140350100D01*
X150809642Y-140347840D01*
X150491599Y-140408510D01*
X150191397Y-140529799D01*
X149920472Y-140707088D01*
X149689141Y-140933623D01*
X149506218Y-141200776D01*
X149378668Y-141498372D01*
X149311351Y-141815074D01*
X149306830Y-142138821D01*
X149365278Y-142457279D01*
X149484469Y-142758320D01*
X149504885Y-142790000D01*
X148534719Y-142790000D01*
X147667399Y-142704959D01*
X146866506Y-142463154D01*
X146127832Y-142070395D01*
X145479516Y-141541640D01*
X144946251Y-140897034D01*
X144548346Y-140161122D01*
X144300958Y-139361942D01*
X144210000Y-138496532D01*
X144210000Y-133745838D01*
X144249251Y-133767416D01*
X144528036Y-133855852D01*
X144818688Y-133888454D01*
X144839612Y-133888600D01*
X145160388Y-133888600D01*
X145451468Y-133860059D01*
X145731460Y-133775525D01*
X145989701Y-133638216D01*
X146216353Y-133453363D01*
X146402784Y-133228006D01*
X146471348Y-133101200D01*
X151976689Y-133101200D01*
X151902084Y-133275267D01*
X151862212Y-133462852D01*
X151859534Y-133654610D01*
X151894153Y-133843235D01*
X151964751Y-134021544D01*
X152068638Y-134182745D01*
X152076720Y-134191114D01*
X152076720Y-134845649D01*
X147898604Y-139023765D01*
X147722562Y-139057347D01*
X147544750Y-139129188D01*
X147384279Y-139234198D01*
X147247260Y-139368376D01*
X147138913Y-139526613D01*
X147063364Y-139702882D01*
X147023492Y-139890467D01*
X147020814Y-140082225D01*
X147055433Y-140270850D01*
X147126031Y-140449159D01*
X147229918Y-140610360D01*
X147363137Y-140748312D01*
X147520613Y-140857761D01*
X147696350Y-140934539D01*
X147883652Y-140975720D01*
X148075387Y-140979736D01*
X148264249Y-140946434D01*
X148443047Y-140877083D01*
X148604969Y-140774325D01*
X148743848Y-140642072D01*
X148854394Y-140485363D01*
X148932396Y-140310167D01*
X148974884Y-140123156D01*
X148975173Y-140102457D01*
X153377535Y-135700096D01*
X153422230Y-135645683D01*
X153467456Y-135591785D01*
X153469386Y-135588274D01*
X153471930Y-135585177D01*
X153505189Y-135523150D01*
X153539101Y-135461464D01*
X153540313Y-135457644D01*
X153542206Y-135454113D01*
X153562781Y-135386816D01*
X153584068Y-135319709D01*
X153584515Y-135315726D01*
X153585686Y-135311895D01*
X153592795Y-135241907D01*
X153600646Y-135171919D01*
X153600701Y-135164083D01*
X153600715Y-135163940D01*
X153600702Y-135163807D01*
X153600720Y-135161280D01*
X153600720Y-134188725D01*
X153693114Y-134057748D01*
X153771116Y-133882552D01*
X153813604Y-133695541D01*
X153816662Y-133476497D01*
X153779413Y-133288373D01*
X153706333Y-133111067D01*
X153699777Y-133101200D01*
X155357378Y-133101200D01*
X155422724Y-133094793D01*
X155488204Y-133089064D01*
X155491799Y-133088020D01*
X155495517Y-133087655D01*
X155558368Y-133068679D01*
X155621495Y-133050339D01*
X155624816Y-133048618D01*
X155628395Y-133047537D01*
X155686390Y-133016701D01*
X155744725Y-132986463D01*
X155747648Y-132984130D01*
X155750950Y-132982374D01*
X155801865Y-132940849D01*
X155853202Y-132899867D01*
X155858402Y-132894738D01*
X155858514Y-132894647D01*
X155858600Y-132894543D01*
X155860272Y-132892894D01*
X156641967Y-132111200D01*
X168702659Y-132111200D01*
X168663364Y-132202882D01*
X168663364Y-132202882D01*
G37*
X168663364Y-132202882D02*
X168623492Y-132390467D01*
X168622355Y-132471857D01*
X168224008Y-132870204D01*
X158736902Y-132870204D01*
X158691291Y-132824273D01*
X158532302Y-132717033D01*
X158355510Y-132642717D01*
X158167651Y-132604155D01*
X157975880Y-132602816D01*
X157787500Y-132638751D01*
X157609688Y-132710592D01*
X157449217Y-132815602D01*
X157312198Y-132949780D01*
X157203851Y-133108017D01*
X157128302Y-133284286D01*
X157088430Y-133471871D01*
X157085752Y-133663629D01*
X157120371Y-133852254D01*
X157190969Y-134030563D01*
X157294856Y-134191764D01*
X157428075Y-134329716D01*
X157585551Y-134439165D01*
X157761288Y-134515943D01*
X157948590Y-134557124D01*
X158140325Y-134561140D01*
X158329187Y-134527838D01*
X158507985Y-134458487D01*
X158669907Y-134355729D01*
X158736195Y-134292604D01*
X168518596Y-134292604D01*
X168583942Y-134286197D01*
X168649422Y-134280468D01*
X168653017Y-134279424D01*
X168656735Y-134279059D01*
X168719586Y-134260083D01*
X168782713Y-134241743D01*
X168786034Y-134240022D01*
X168789613Y-134238941D01*
X168847608Y-134208105D01*
X168905943Y-134177867D01*
X168908866Y-134175534D01*
X168912168Y-134173778D01*
X168963083Y-134132253D01*
X169014420Y-134091271D01*
X169019620Y-134086142D01*
X169019732Y-134086051D01*
X169019818Y-134085947D01*
X169021490Y-134084298D01*
X169627064Y-133478724D01*
X169675387Y-133479736D01*
X169864249Y-133446434D01*
X170043047Y-133377083D01*
X170204969Y-133274325D01*
X170343848Y-133142072D01*
X170454394Y-132985363D01*
X170532396Y-132810167D01*
X170574884Y-132623156D01*
X170577942Y-132404112D01*
X170540693Y-132215988D01*
X170497503Y-132111200D01*
X179805812Y-132111200D01*
X180067037Y-132372426D01*
X180068232Y-132373923D01*
X180073361Y-132379123D01*
X180073452Y-132379235D01*
X180073556Y-132379321D01*
X180075205Y-132380993D01*
X180345928Y-132651716D01*
X180345928Y-133213600D01*
X180353992Y-133314721D01*
X180407106Y-133486234D01*
X180505900Y-133636159D01*
X180642550Y-133752625D01*
X180806237Y-133826410D01*
X180984000Y-133851672D01*
X182790000Y-133851672D01*
X182790000Y-138465281D01*
X182704959Y-139332601D01*
X182463154Y-140133494D01*
X182070395Y-140872168D01*
X181541640Y-141520484D01*
X180897034Y-142053749D01*
X180161122Y-142451654D01*
X179361942Y-142699042D01*
X178496532Y-142790000D01*
X177535591Y-142790000D01*
X177654174Y-142523658D01*
X177725906Y-142207926D01*
X177731070Y-141838111D01*
X177668182Y-141520500D01*
X177544799Y-141221152D01*
X177365624Y-140951471D01*
X177137479Y-140721728D01*
X176869055Y-140540674D01*
X176570576Y-140415205D01*
X176253411Y-140350100D01*
X175929642Y-140347840D01*
X175611599Y-140408510D01*
X175311397Y-140529799D01*
X175040472Y-140707088D01*
X174809141Y-140933623D01*
X174808635Y-140934363D01*
X174597479Y-140721728D01*
X174329055Y-140540674D01*
X174030576Y-140415205D01*
X173713411Y-140350100D01*
X173389642Y-140347840D01*
X173285217Y-140367760D01*
X177248916Y-136404061D01*
X177410453Y-136375577D01*
X177589251Y-136306226D01*
X177751173Y-136203468D01*
X177890052Y-136071215D01*
X178000598Y-135914506D01*
X178078600Y-135739310D01*
X178121088Y-135552299D01*
X178124146Y-135333255D01*
X178086897Y-135145131D01*
X178013817Y-134967825D01*
X177907689Y-134808091D01*
X177772557Y-134672012D01*
X177613568Y-134564772D01*
X177436776Y-134490456D01*
X177248917Y-134451894D01*
X177057146Y-134450555D01*
X176868766Y-134486490D01*
X176690954Y-134558331D01*
X176530483Y-134663341D01*
X176393464Y-134797519D01*
X176285117Y-134955756D01*
X176209568Y-135132025D01*
X176169696Y-135319610D01*
X176169577Y-135328140D01*
X172381733Y-139115984D01*
X165429616Y-139115984D01*
X165359552Y-139122854D01*
X165289446Y-139128987D01*
X165285598Y-139130105D01*
X165281609Y-139130496D01*
X165214244Y-139150835D01*
X165146634Y-139170477D01*
X165143074Y-139172323D01*
X165139240Y-139173480D01*
X165077098Y-139206521D01*
X165014602Y-139238917D01*
X165011472Y-139241416D01*
X165007932Y-139243298D01*
X164953385Y-139287785D01*
X164898376Y-139331698D01*
X164892797Y-139337200D01*
X164892685Y-139337291D01*
X164892599Y-139337395D01*
X164890801Y-139339168D01*
X163835417Y-140394553D01*
X163761335Y-140371621D01*
X163470462Y-140341049D01*
X163179190Y-140367556D01*
X162898615Y-140450134D01*
X162639422Y-140585637D01*
X162411485Y-140768903D01*
X162223485Y-140992952D01*
X162190701Y-141052587D01*
X162168216Y-141010299D01*
X161983363Y-140783647D01*
X161758006Y-140597216D01*
X161500731Y-140458108D01*
X161221335Y-140371621D01*
X160930462Y-140341049D01*
X160639190Y-140367556D01*
X160358615Y-140450134D01*
X160099422Y-140585637D01*
X159871485Y-140768903D01*
X159683485Y-140992952D01*
X159542584Y-141249251D01*
X159454148Y-141528036D01*
X159421546Y-141818688D01*
X159421400Y-141839612D01*
X159421400Y-142160388D01*
X159449941Y-142451468D01*
X159534475Y-142731460D01*
X159565601Y-142790000D01*
X157495591Y-142790000D01*
X157614174Y-142523658D01*
X157685906Y-142207926D01*
X157691070Y-141838111D01*
X157628182Y-141520500D01*
X157504799Y-141221152D01*
X157325624Y-140951471D01*
X157097479Y-140721728D01*
X156829055Y-140540674D01*
X156530576Y-140415205D01*
X156213411Y-140350100D01*
X155889642Y-140347840D01*
X155571599Y-140408510D01*
X155271397Y-140529799D01*
X155000472Y-140707088D01*
X154769141Y-140933623D01*
X154768635Y-140934363D01*
X154557479Y-140721728D01*
X154289055Y-140540674D01*
X153990576Y-140415205D01*
X153673411Y-140350100D01*
X153349642Y-140347840D01*
X153031599Y-140408510D01*
X152731397Y-140529799D01*
X152460472Y-140707088D01*
X152229141Y-140933623D01*
X152228635Y-140934363D01*
X152017479Y-140721728D01*
X151749055Y-140540674D01*
X151450576Y-140415205D01*
X151133411Y-140350100D01*
X150809642Y-140347840D01*
X150491599Y-140408510D01*
X150191397Y-140529799D01*
X149920472Y-140707088D01*
X149689141Y-140933623D01*
X149506218Y-141200776D01*
X149378668Y-141498372D01*
X149311351Y-141815074D01*
X149306830Y-142138821D01*
X149365278Y-142457279D01*
X149484469Y-142758320D01*
X149504885Y-142790000D01*
X148534719Y-142790000D01*
X147667399Y-142704959D01*
X146866506Y-142463154D01*
X146127832Y-142070395D01*
X145479516Y-141541640D01*
X144946251Y-140897034D01*
X144548346Y-140161122D01*
X144300958Y-139361942D01*
X144210000Y-138496532D01*
X144210000Y-133745838D01*
X144249251Y-133767416D01*
X144528036Y-133855852D01*
X144818688Y-133888454D01*
X144839612Y-133888600D01*
X145160388Y-133888600D01*
X145451468Y-133860059D01*
X145731460Y-133775525D01*
X145989701Y-133638216D01*
X146216353Y-133453363D01*
X146402784Y-133228006D01*
X146471348Y-133101200D01*
X151976689Y-133101200D01*
X151902084Y-133275267D01*
X151862212Y-133462852D01*
X151859534Y-133654610D01*
X151894153Y-133843235D01*
X151964751Y-134021544D01*
X152068638Y-134182745D01*
X152076720Y-134191114D01*
X152076720Y-134845649D01*
X147898604Y-139023765D01*
X147722562Y-139057347D01*
X147544750Y-139129188D01*
X147384279Y-139234198D01*
X147247260Y-139368376D01*
X147138913Y-139526613D01*
X147063364Y-139702882D01*
X147023492Y-139890467D01*
X147020814Y-140082225D01*
X147055433Y-140270850D01*
X147126031Y-140449159D01*
X147229918Y-140610360D01*
X147363137Y-140748312D01*
X147520613Y-140857761D01*
X147696350Y-140934539D01*
X147883652Y-140975720D01*
X148075387Y-140979736D01*
X148264249Y-140946434D01*
X148443047Y-140877083D01*
X148604969Y-140774325D01*
X148743848Y-140642072D01*
X148854394Y-140485363D01*
X148932396Y-140310167D01*
X148974884Y-140123156D01*
X148975173Y-140102457D01*
X153377535Y-135700096D01*
X153422230Y-135645683D01*
X153467456Y-135591785D01*
X153469386Y-135588274D01*
X153471930Y-135585177D01*
X153505189Y-135523150D01*
X153539101Y-135461464D01*
X153540313Y-135457644D01*
X153542206Y-135454113D01*
X153562781Y-135386816D01*
X153584068Y-135319709D01*
X153584515Y-135315726D01*
X153585686Y-135311895D01*
X153592795Y-135241907D01*
X153600646Y-135171919D01*
X153600701Y-135164083D01*
X153600715Y-135163940D01*
X153600702Y-135163807D01*
X153600720Y-135161280D01*
X153600720Y-134188725D01*
X153693114Y-134057748D01*
X153771116Y-133882552D01*
X153813604Y-133695541D01*
X153816662Y-133476497D01*
X153779413Y-133288373D01*
X153706333Y-133111067D01*
X153699777Y-133101200D01*
X155357378Y-133101200D01*
X155422724Y-133094793D01*
X155488204Y-133089064D01*
X155491799Y-133088020D01*
X155495517Y-133087655D01*
X155558368Y-133068679D01*
X155621495Y-133050339D01*
X155624816Y-133048618D01*
X155628395Y-133047537D01*
X155686390Y-133016701D01*
X155744725Y-132986463D01*
X155747648Y-132984130D01*
X155750950Y-132982374D01*
X155801865Y-132940849D01*
X155853202Y-132899867D01*
X155858402Y-132894738D01*
X155858514Y-132894647D01*
X155858600Y-132894543D01*
X155860272Y-132892894D01*
X156641967Y-132111200D01*
X168702659Y-132111200D01*
X168663364Y-132202882D01*
G36*
X149378668Y-104498372D02*
X149311351Y-104815074D01*
X149306830Y-105138821D01*
X149365278Y-105457279D01*
X149484469Y-105758320D01*
X149659862Y-106030477D01*
X149884777Y-106263383D01*
X150150647Y-106448167D01*
X150447345Y-106577791D01*
X150763569Y-106647318D01*
X151087276Y-106654099D01*
X151406135Y-106597875D01*
X151708000Y-106480789D01*
X151981375Y-106307300D01*
X152215846Y-106084017D01*
X152230924Y-106062643D01*
X152424777Y-106263383D01*
X152690647Y-106448167D01*
X152987345Y-106577791D01*
X153303569Y-106647318D01*
X153627276Y-106654099D01*
X153946135Y-106597875D01*
X154248000Y-106480789D01*
X154521375Y-106307300D01*
X154755846Y-106084017D01*
X154770924Y-106062643D01*
X154964777Y-106263383D01*
X155230647Y-106448167D01*
X155527345Y-106577791D01*
X155843569Y-106647318D01*
X156167276Y-106654099D01*
X156486135Y-106597875D01*
X156788000Y-106480789D01*
X157061375Y-106307300D01*
X157295846Y-106084017D01*
X157482482Y-105819444D01*
X157614174Y-105523658D01*
X157685906Y-105207926D01*
X157691070Y-104838111D01*
X157628182Y-104520500D01*
X157504799Y-104221152D01*
X157497390Y-104210000D01*
X159644162Y-104210000D01*
X159622584Y-104249251D01*
X159534148Y-104528036D01*
X159501546Y-104818688D01*
X159501400Y-104839612D01*
X159501400Y-105160388D01*
X159529941Y-105451468D01*
X159614475Y-105731460D01*
X159751784Y-105989701D01*
X159936637Y-106216353D01*
X160161994Y-106402784D01*
X160419269Y-106541892D01*
X160698665Y-106628379D01*
X160989538Y-106658951D01*
X161280810Y-106632444D01*
X161561385Y-106549866D01*
X161820578Y-106414363D01*
X162048515Y-106231097D01*
X162236515Y-106007048D01*
X162269299Y-105947413D01*
X162291784Y-105989701D01*
X162476637Y-106216353D01*
X162701994Y-106402784D01*
X162959269Y-106541892D01*
X163238665Y-106628379D01*
X163529538Y-106658951D01*
X163820810Y-106632444D01*
X164101385Y-106549866D01*
X164360578Y-106414363D01*
X164588515Y-106231097D01*
X164776515Y-106007048D01*
X164917416Y-105750749D01*
X165005852Y-105471964D01*
X165038454Y-105181312D01*
X165038600Y-105160388D01*
X165038600Y-104839612D01*
X165010059Y-104548532D01*
X164925525Y-104268540D01*
X164894399Y-104210000D01*
X169502265Y-104210000D01*
X169378668Y-104498372D01*
X169311351Y-104815074D01*
X169306830Y-105138821D01*
X169365278Y-105457279D01*
X169484469Y-105758320D01*
X169659862Y-106030477D01*
X169884777Y-106263383D01*
X170150647Y-106448167D01*
X170447345Y-106577791D01*
X170763569Y-106647318D01*
X171087276Y-106654099D01*
X171406135Y-106597875D01*
X171708000Y-106480789D01*
X171981375Y-106307300D01*
X172215846Y-106084017D01*
X172230924Y-106062643D01*
X172424777Y-106263383D01*
X172690647Y-106448167D01*
X172987345Y-106577791D01*
X173303569Y-106647318D01*
X173627276Y-106654099D01*
X173946135Y-106597875D01*
X174248000Y-106480789D01*
X174521375Y-106307300D01*
X174755846Y-106084017D01*
X174770924Y-106062643D01*
X174964777Y-106263383D01*
X175230647Y-106448167D01*
X175527345Y-106577791D01*
X175843569Y-106647318D01*
X176167276Y-106654099D01*
X176486135Y-106597875D01*
X176788000Y-106480789D01*
X177061375Y-106307300D01*
X177295846Y-106084017D01*
X177482482Y-105819444D01*
X177614174Y-105523658D01*
X177685906Y-105207926D01*
X177691070Y-104838111D01*
X177628182Y-104520500D01*
X177504799Y-104221152D01*
X177497390Y-104210000D01*
X178465280Y-104210000D01*
X179332601Y-104295041D01*
X180133494Y-104536846D01*
X180872165Y-104929604D01*
X181520482Y-105458357D01*
X182053747Y-106102963D01*
X182451654Y-106838878D01*
X182699042Y-107638060D01*
X182790000Y-108503469D01*
X182790000Y-115754162D01*
X182750749Y-115732584D01*
X182471964Y-115644148D01*
X182181312Y-115611546D01*
X182160388Y-115611400D01*
X181839612Y-115611400D01*
X181548532Y-115639941D01*
X181268540Y-115724475D01*
X181010299Y-115861784D01*
X180783647Y-116046637D01*
X180597216Y-116271994D01*
X180458108Y-116529269D01*
X180371621Y-116808665D01*
X180341049Y-117099538D01*
X180367556Y-117390810D01*
X180450134Y-117671385D01*
X180585637Y-117930578D01*
X180768903Y-118158515D01*
X180992952Y-118346515D01*
X181052587Y-118379299D01*
X181010299Y-118401784D01*
X180783647Y-118586637D01*
X180597216Y-118811994D01*
X180458108Y-119069269D01*
X180371621Y-119348665D01*
X180341049Y-119639538D01*
X180367556Y-119930810D01*
X180450134Y-120211385D01*
X180585637Y-120470578D01*
X180768903Y-120698515D01*
X180992952Y-120886515D01*
X181052587Y-120919299D01*
X181010299Y-120941784D01*
X180783647Y-121126637D01*
X180597216Y-121351994D01*
X180458108Y-121609269D01*
X180371621Y-121888665D01*
X180341049Y-122179538D01*
X180367556Y-122470810D01*
X180450134Y-122751385D01*
X180585637Y-123010578D01*
X180768903Y-123238515D01*
X180992952Y-123426515D01*
X181052587Y-123459299D01*
X181010299Y-123481784D01*
X180783647Y-123666637D01*
X180597216Y-123891994D01*
X180458108Y-124149269D01*
X180371621Y-124428665D01*
X180341049Y-124719538D01*
X180367556Y-125010810D01*
X180450134Y-125291385D01*
X180585637Y-125550578D01*
X180768903Y-125778515D01*
X180992952Y-125966515D01*
X181052587Y-125999299D01*
X181010299Y-126021784D01*
X180783647Y-126206637D01*
X180597216Y-126431994D01*
X180458108Y-126689269D01*
X180371621Y-126968665D01*
X180341049Y-127259538D01*
X180367556Y-127550810D01*
X180450134Y-127831385D01*
X180585637Y-128090578D01*
X180768903Y-128318515D01*
X180992952Y-128506515D01*
X181052587Y-128539299D01*
X181010299Y-128561784D01*
X180783647Y-128746637D01*
X180597216Y-128971994D01*
X180556120Y-129048000D01*
X176841304Y-129048000D01*
X176771195Y-129054874D01*
X176701133Y-129061004D01*
X176697290Y-129062120D01*
X176693297Y-129062512D01*
X176625856Y-129082874D01*
X176558322Y-129102494D01*
X176554766Y-129104337D01*
X176550928Y-129105496D01*
X176488751Y-129138556D01*
X176426290Y-129170933D01*
X176423160Y-129173432D01*
X176419620Y-129175314D01*
X176365073Y-129219801D01*
X176310064Y-129263714D01*
X176304489Y-129269212D01*
X176304373Y-129269307D01*
X176304284Y-129269415D01*
X176302489Y-129271185D01*
X175635674Y-129938000D01*
X167719134Y-129938000D01*
X167567364Y-129835629D01*
X167390572Y-129761313D01*
X167202713Y-129722751D01*
X167010942Y-129721412D01*
X166822562Y-129757347D01*
X166644750Y-129829188D01*
X166484279Y-129934198D01*
X166347260Y-130068376D01*
X166238913Y-130226613D01*
X166163364Y-130402882D01*
X166123492Y-130590467D01*
X166122119Y-130688800D01*
X158676760Y-130688800D01*
X158677942Y-130604112D01*
X158640693Y-130415988D01*
X158567613Y-130238682D01*
X158461485Y-130078948D01*
X158326353Y-129942869D01*
X158167364Y-129835629D01*
X157990572Y-129761313D01*
X157802713Y-129722751D01*
X157610942Y-129721412D01*
X157422562Y-129757347D01*
X157244750Y-129829188D01*
X157084279Y-129934198D01*
X157080396Y-129938000D01*
X153138197Y-129938000D01*
X153068133Y-129944870D01*
X152998027Y-129951003D01*
X152994179Y-129952121D01*
X152990190Y-129952512D01*
X152922779Y-129972865D01*
X152920140Y-129973631D01*
X152797774Y-129972777D01*
X152609394Y-130008712D01*
X152431582Y-130080553D01*
X152271111Y-130185563D01*
X152134092Y-130319741D01*
X152025745Y-130477978D01*
X151950196Y-130654247D01*
X151910324Y-130841832D01*
X151907646Y-131033590D01*
X151942265Y-131222215D01*
X152012863Y-131400524D01*
X152116750Y-131561725D01*
X152229808Y-131678800D01*
X146471545Y-131678800D01*
X146414363Y-131569422D01*
X146231097Y-131341485D01*
X146007048Y-131153485D01*
X145947413Y-131120701D01*
X145989701Y-131098216D01*
X146216353Y-130913363D01*
X146402784Y-130688006D01*
X146541892Y-130430731D01*
X146628379Y-130151335D01*
X146658951Y-129860462D01*
X146632444Y-129569190D01*
X146549866Y-129288615D01*
X146414363Y-129029422D01*
X146231097Y-128801485D01*
X146007048Y-128613485D01*
X145947413Y-128580701D01*
X145989701Y-128558216D01*
X146216353Y-128373363D01*
X146402784Y-128148006D01*
X146541892Y-127890731D01*
X146628379Y-127611335D01*
X146658951Y-127320462D01*
X146632444Y-127029190D01*
X146549866Y-126748615D01*
X146414363Y-126489422D01*
X146231097Y-126261485D01*
X146007048Y-126073485D01*
X145947413Y-126040701D01*
X145989701Y-126018216D01*
X146216353Y-125833363D01*
X146402784Y-125608006D01*
X146443880Y-125532000D01*
X148956814Y-125532000D01*
X149050673Y-125677641D01*
X149183892Y-125815593D01*
X149250076Y-125861592D01*
X147847700Y-127263968D01*
X147671657Y-127297550D01*
X147493845Y-127369391D01*
X147333374Y-127474401D01*
X147196355Y-127608579D01*
X147088008Y-127766816D01*
X147012459Y-127943085D01*
X146972587Y-128130670D01*
X146969909Y-128322428D01*
X147004528Y-128511053D01*
X147075126Y-128689362D01*
X147179013Y-128850563D01*
X147312232Y-128988515D01*
X147469708Y-129097964D01*
X147645445Y-129174742D01*
X147832747Y-129215923D01*
X148024482Y-129219939D01*
X148213344Y-129186637D01*
X148392142Y-129117286D01*
X148554064Y-129014528D01*
X148692943Y-128882275D01*
X148803489Y-128725566D01*
X148881491Y-128550370D01*
X148923979Y-128363359D01*
X148924268Y-128342660D01*
X149484703Y-127782225D01*
X152420814Y-127782225D01*
X152455433Y-127970850D01*
X152526031Y-128149159D01*
X152629918Y-128310360D01*
X152763137Y-128448312D01*
X152920613Y-128557761D01*
X153096350Y-128634539D01*
X153283652Y-128675720D01*
X153475387Y-128679736D01*
X153664249Y-128646434D01*
X153843047Y-128577083D01*
X154004969Y-128474325D01*
X154143848Y-128342072D01*
X154254394Y-128185363D01*
X154325160Y-128026420D01*
X155273968Y-127077612D01*
X155375387Y-127079736D01*
X155564249Y-127046434D01*
X155743047Y-126977083D01*
X155904969Y-126874325D01*
X156043848Y-126742072D01*
X156154394Y-126585363D01*
X156232396Y-126410167D01*
X156274884Y-126223156D01*
X156277942Y-126004112D01*
X156240693Y-125815988D01*
X156167613Y-125638682D01*
X156061485Y-125478948D01*
X155926353Y-125342869D01*
X155770553Y-125237780D01*
X158020814Y-125237780D01*
X158055433Y-125426405D01*
X158126031Y-125604714D01*
X158229918Y-125765915D01*
X158363137Y-125903867D01*
X158520613Y-126013316D01*
X158696350Y-126090094D01*
X158883652Y-126131275D01*
X159075387Y-126135291D01*
X159264249Y-126101989D01*
X159443047Y-126032638D01*
X159604969Y-125929880D01*
X159617911Y-125917555D01*
X170749481Y-125917555D01*
X170845443Y-126016926D01*
X171002919Y-126126375D01*
X171178656Y-126203153D01*
X171365958Y-126244334D01*
X171557693Y-126248350D01*
X171698922Y-126223447D01*
X170898604Y-127023766D01*
X170722562Y-127057347D01*
X170544750Y-127129188D01*
X170384279Y-127234198D01*
X170247260Y-127368376D01*
X170138913Y-127526613D01*
X170063364Y-127702882D01*
X170023492Y-127890467D01*
X170020814Y-128082225D01*
X170055433Y-128270850D01*
X170126031Y-128449159D01*
X170229918Y-128610360D01*
X170363137Y-128748312D01*
X170520613Y-128857761D01*
X170696350Y-128934539D01*
X170883652Y-128975720D01*
X171075387Y-128979736D01*
X171264249Y-128946434D01*
X171443047Y-128877083D01*
X171604969Y-128774325D01*
X171743848Y-128642072D01*
X171854394Y-128485363D01*
X171932396Y-128310167D01*
X171974884Y-128123156D01*
X171975173Y-128102457D01*
X173312421Y-126765210D01*
X173408293Y-126728024D01*
X173570215Y-126625266D01*
X173709094Y-126493013D01*
X173819640Y-126336304D01*
X173897642Y-126161108D01*
X173940130Y-125974097D01*
X173943188Y-125755053D01*
X173905939Y-125566929D01*
X173832859Y-125389623D01*
X173726731Y-125229889D01*
X173591599Y-125093810D01*
X173507294Y-125036945D01*
X173683652Y-125075720D01*
X173875387Y-125079736D01*
X174064249Y-125046434D01*
X174243047Y-124977083D01*
X174404969Y-124874325D01*
X174543848Y-124742072D01*
X174654394Y-124585363D01*
X174732396Y-124410167D01*
X174774884Y-124223156D01*
X174777942Y-124004112D01*
X174766580Y-123946728D01*
X174768249Y-123946434D01*
X174947047Y-123877083D01*
X175108969Y-123774325D01*
X175247848Y-123642072D01*
X175258133Y-123627492D01*
X175223492Y-123790467D01*
X175220814Y-123982225D01*
X175255433Y-124170850D01*
X175326031Y-124349159D01*
X175429918Y-124510360D01*
X175468335Y-124550142D01*
X175468335Y-125266347D01*
X175369248Y-125411060D01*
X175293699Y-125587329D01*
X175253827Y-125774914D01*
X175251149Y-125966672D01*
X175285768Y-126155297D01*
X175356366Y-126333606D01*
X175460253Y-126494807D01*
X175593472Y-126632759D01*
X175750948Y-126742208D01*
X175926685Y-126818986D01*
X176113987Y-126860167D01*
X176305722Y-126864183D01*
X176494584Y-126830881D01*
X176673382Y-126761530D01*
X176835304Y-126658772D01*
X176974183Y-126526519D01*
X177084729Y-126369810D01*
X177162731Y-126194614D01*
X177205219Y-126007603D01*
X177208277Y-125788559D01*
X177171028Y-125600435D01*
X177097948Y-125423129D01*
X176992335Y-125264170D01*
X176992335Y-124473337D01*
X177054394Y-124385363D01*
X177132396Y-124210167D01*
X177174884Y-124023156D01*
X177177942Y-123804112D01*
X177140693Y-123615988D01*
X177067613Y-123438682D01*
X176961485Y-123278948D01*
X176826353Y-123142869D01*
X176667364Y-123035629D01*
X176490572Y-122961313D01*
X176302713Y-122922751D01*
X176110942Y-122921412D01*
X175922562Y-122957347D01*
X175744750Y-123029188D01*
X175584279Y-123134198D01*
X175447260Y-123268376D01*
X175445211Y-123271369D01*
X175478884Y-123123156D01*
X175481942Y-122904112D01*
X175444693Y-122715988D01*
X175371613Y-122538682D01*
X175265485Y-122378948D01*
X175130353Y-122242869D01*
X174971364Y-122135629D01*
X174794572Y-122061313D01*
X174606713Y-122022751D01*
X174414942Y-122021412D01*
X174226562Y-122057347D01*
X174048750Y-122129188D01*
X173888279Y-122234198D01*
X173884396Y-122238000D01*
X171274560Y-122238000D01*
X171229907Y-122193034D01*
X171070918Y-122085794D01*
X170894126Y-122011478D01*
X170706267Y-121972916D01*
X170514496Y-121971577D01*
X170326116Y-122007512D01*
X170148304Y-122079353D01*
X169987833Y-122184363D01*
X169850814Y-122318541D01*
X169742467Y-122476778D01*
X169666918Y-122653047D01*
X169627046Y-122840632D01*
X169624368Y-123032390D01*
X169658987Y-123221015D01*
X169705305Y-123338000D01*
X167219134Y-123338000D01*
X167067364Y-123235629D01*
X166890572Y-123161313D01*
X166702713Y-123122751D01*
X166510942Y-123121412D01*
X166322562Y-123157347D01*
X166144750Y-123229188D01*
X165984279Y-123334198D01*
X165847260Y-123468376D01*
X165738913Y-123626613D01*
X165663364Y-123802882D01*
X165623492Y-123990467D01*
X165620814Y-124182225D01*
X165655433Y-124370850D01*
X165664423Y-124393555D01*
X159619134Y-124393555D01*
X159467364Y-124291184D01*
X159290572Y-124216868D01*
X159102713Y-124178306D01*
X158910942Y-124176967D01*
X158722562Y-124212902D01*
X158544750Y-124284743D01*
X158384279Y-124389753D01*
X158247260Y-124523931D01*
X158138913Y-124682168D01*
X158063364Y-124858437D01*
X158023492Y-125046022D01*
X158020814Y-125237780D01*
X155770553Y-125237780D01*
X155767364Y-125235629D01*
X155590572Y-125161313D01*
X155402713Y-125122751D01*
X155210942Y-125121412D01*
X155022562Y-125157347D01*
X154844750Y-125229188D01*
X154844302Y-125229481D01*
X154837204Y-125230102D01*
X154832733Y-125231401D01*
X154828103Y-125231855D01*
X154749915Y-125255461D01*
X154671340Y-125278289D01*
X154667203Y-125280434D01*
X154662753Y-125281777D01*
X154590627Y-125320127D01*
X154517995Y-125357776D01*
X154514357Y-125360680D01*
X154510248Y-125362865D01*
X154446938Y-125414500D01*
X154383009Y-125465533D01*
X154376528Y-125471924D01*
X154376399Y-125472030D01*
X154376300Y-125472150D01*
X154374211Y-125474210D01*
X153069726Y-126778694D01*
X152944750Y-126829188D01*
X152784279Y-126934198D01*
X152647260Y-127068376D01*
X152538913Y-127226613D01*
X152463364Y-127402882D01*
X152423492Y-127590467D01*
X152420814Y-127782225D01*
X149484703Y-127782225D01*
X152721325Y-124545603D01*
X152720814Y-124582225D01*
X152755433Y-124770850D01*
X152826031Y-124949159D01*
X152929918Y-125110360D01*
X153063137Y-125248312D01*
X153220613Y-125357761D01*
X153396350Y-125434539D01*
X153583652Y-125475720D01*
X153775387Y-125479736D01*
X153964249Y-125446434D01*
X154143047Y-125377083D01*
X154304969Y-125274325D01*
X154443848Y-125142072D01*
X154554394Y-124985363D01*
X154609319Y-124862000D01*
X155782831Y-124862000D01*
X155920613Y-124957761D01*
X156096350Y-125034539D01*
X156283652Y-125075720D01*
X156475387Y-125079736D01*
X156664249Y-125046434D01*
X156843047Y-124977083D01*
X157004969Y-124874325D01*
X157143848Y-124742072D01*
X157254394Y-124585363D01*
X157332396Y-124410167D01*
X157374884Y-124223156D01*
X157377942Y-124004112D01*
X157349803Y-123862000D01*
X161682831Y-123862000D01*
X161820613Y-123957761D01*
X161996350Y-124034539D01*
X162183652Y-124075720D01*
X162375387Y-124079736D01*
X162564249Y-124046434D01*
X162743047Y-123977083D01*
X162904969Y-123874325D01*
X163043848Y-123742072D01*
X163154394Y-123585363D01*
X163232396Y-123410167D01*
X163274884Y-123223156D01*
X163277942Y-123004112D01*
X163240693Y-122815988D01*
X163167613Y-122638682D01*
X163061485Y-122478948D01*
X162926353Y-122342869D01*
X162767364Y-122235629D01*
X162590572Y-122161313D01*
X162402713Y-122122751D01*
X162210942Y-122121412D01*
X162022562Y-122157347D01*
X161844750Y-122229188D01*
X161684279Y-122334198D01*
X161680396Y-122338000D01*
X155276073Y-122338000D01*
X155277942Y-122204112D01*
X155240693Y-122015988D01*
X155167613Y-121838682D01*
X155061485Y-121678948D01*
X154926353Y-121542869D01*
X154767364Y-121435629D01*
X154590572Y-121361313D01*
X154402713Y-121322751D01*
X154210942Y-121321412D01*
X154022562Y-121357347D01*
X153844750Y-121429188D01*
X153684279Y-121534198D01*
X153680396Y-121538000D01*
X151900000Y-121538000D01*
X151829936Y-121544870D01*
X151759830Y-121551003D01*
X151755982Y-121552121D01*
X151751993Y-121552512D01*
X151684628Y-121572851D01*
X151617018Y-121592493D01*
X151613458Y-121594339D01*
X151609624Y-121595496D01*
X151547482Y-121628537D01*
X151484986Y-121660933D01*
X151481856Y-121663432D01*
X151478316Y-121665314D01*
X151423769Y-121709801D01*
X151368760Y-121753714D01*
X151363181Y-121759216D01*
X151363069Y-121759307D01*
X151362983Y-121759411D01*
X151361185Y-121761184D01*
X150498604Y-122623766D01*
X150322562Y-122657347D01*
X150144750Y-122729188D01*
X149984279Y-122834198D01*
X149980396Y-122838000D01*
X149378030Y-122838000D01*
X146605447Y-120065417D01*
X146628379Y-119991335D01*
X146658951Y-119700462D01*
X146632444Y-119409190D01*
X146549866Y-119128615D01*
X146473336Y-118982225D01*
X152220814Y-118982225D01*
X152255433Y-119170850D01*
X152326031Y-119349159D01*
X152429918Y-119510360D01*
X152563137Y-119648312D01*
X152720613Y-119757761D01*
X152896350Y-119834539D01*
X153083652Y-119875720D01*
X153275387Y-119879736D01*
X153464249Y-119846434D01*
X153643047Y-119777083D01*
X153804969Y-119674325D01*
X153943848Y-119542072D01*
X154054394Y-119385363D01*
X154132396Y-119210167D01*
X154174884Y-119023156D01*
X154175173Y-119002457D01*
X155638816Y-117538815D01*
X155683537Y-117484371D01*
X155728736Y-117430505D01*
X155730664Y-117426997D01*
X155733211Y-117423897D01*
X155766509Y-117361796D01*
X155800381Y-117300184D01*
X155801591Y-117296368D01*
X155803487Y-117292833D01*
X155824088Y-117225449D01*
X155845348Y-117158429D01*
X155845794Y-117154451D01*
X155846967Y-117150615D01*
X155854081Y-117080578D01*
X155861926Y-117010639D01*
X155861981Y-117002803D01*
X155861995Y-117002660D01*
X155861982Y-117002527D01*
X155862000Y-117000000D01*
X155862000Y-116816340D01*
X155954394Y-116685363D01*
X156032396Y-116510167D01*
X156074884Y-116323156D01*
X156077942Y-116104112D01*
X156040693Y-115915988D01*
X155967613Y-115738682D01*
X155861485Y-115578948D01*
X155726353Y-115442869D01*
X155722540Y-115440297D01*
X155883652Y-115475720D01*
X156075387Y-115479736D01*
X156264249Y-115446434D01*
X156443047Y-115377083D01*
X156604969Y-115274325D01*
X156617911Y-115262000D01*
X173382831Y-115262000D01*
X173520613Y-115357761D01*
X173696350Y-115434539D01*
X173788139Y-115454720D01*
X173738913Y-115526613D01*
X173663364Y-115702882D01*
X173623492Y-115890467D01*
X173620814Y-116082225D01*
X173655433Y-116270850D01*
X173726031Y-116449159D01*
X173829918Y-116610360D01*
X173963137Y-116748312D01*
X174120613Y-116857761D01*
X174296350Y-116934539D01*
X174483652Y-116975720D01*
X174675387Y-116979736D01*
X174800968Y-116957592D01*
X176860300Y-119016925D01*
X176860300Y-119781900D01*
X176761213Y-119926613D01*
X176685664Y-120102882D01*
X176645792Y-120290467D01*
X176643114Y-120482225D01*
X176677733Y-120670850D01*
X176748331Y-120849159D01*
X176852218Y-121010360D01*
X176985437Y-121148312D01*
X177142913Y-121257761D01*
X177318650Y-121334539D01*
X177505952Y-121375720D01*
X177697687Y-121379736D01*
X177886549Y-121346434D01*
X178065347Y-121277083D01*
X178227269Y-121174325D01*
X178366148Y-121042072D01*
X178476694Y-120885363D01*
X178554696Y-120710167D01*
X178597184Y-120523156D01*
X178600242Y-120304112D01*
X178562993Y-120115988D01*
X178489913Y-119938682D01*
X178384300Y-119779723D01*
X178384300Y-118701294D01*
X178377430Y-118631230D01*
X178371297Y-118561124D01*
X178370179Y-118557276D01*
X178369788Y-118553287D01*
X178349449Y-118485922D01*
X178329807Y-118418312D01*
X178327961Y-118414752D01*
X178326804Y-118410918D01*
X178293763Y-118348776D01*
X178261367Y-118286280D01*
X178258868Y-118283150D01*
X178256986Y-118279610D01*
X178212499Y-118225063D01*
X178168586Y-118170054D01*
X178163084Y-118164475D01*
X178162993Y-118164363D01*
X178162889Y-118164277D01*
X178161116Y-118162479D01*
X175459821Y-115461185D01*
X175405407Y-115416488D01*
X175362514Y-115380496D01*
X175361485Y-115378948D01*
X175226353Y-115242869D01*
X175067364Y-115135629D01*
X174890572Y-115061313D01*
X174812170Y-115045219D01*
X174854394Y-114985363D01*
X174932396Y-114810167D01*
X174974884Y-114623156D01*
X174977942Y-114404112D01*
X174940693Y-114215988D01*
X174867613Y-114038682D01*
X174761485Y-113878948D01*
X174626353Y-113742869D01*
X174467364Y-113635629D01*
X174290572Y-113561313D01*
X174102713Y-113522751D01*
X173910942Y-113521412D01*
X173722562Y-113557347D01*
X173544750Y-113629188D01*
X173384279Y-113734198D01*
X173380396Y-113738000D01*
X156619134Y-113738000D01*
X156467364Y-113635629D01*
X156290572Y-113561313D01*
X156102713Y-113522751D01*
X155910942Y-113521412D01*
X155722562Y-113557347D01*
X155544750Y-113629188D01*
X155384279Y-113734198D01*
X155247260Y-113868376D01*
X155138913Y-114026613D01*
X155063364Y-114202882D01*
X155023492Y-114390467D01*
X155020814Y-114582225D01*
X155055433Y-114770850D01*
X155126031Y-114949159D01*
X155229918Y-115110360D01*
X155363137Y-115248312D01*
X155378184Y-115258770D01*
X155202713Y-115222751D01*
X155010942Y-115221412D01*
X154822562Y-115257347D01*
X154644750Y-115329188D01*
X154484279Y-115434198D01*
X154347260Y-115568376D01*
X154238913Y-115726613D01*
X154163364Y-115902882D01*
X154123492Y-116090467D01*
X154120814Y-116282225D01*
X154155433Y-116470850D01*
X154226031Y-116649159D01*
X154283710Y-116738659D01*
X153098604Y-117923766D01*
X152922562Y-117957347D01*
X152744750Y-118029188D01*
X152584279Y-118134198D01*
X152447260Y-118268376D01*
X152338913Y-118426613D01*
X152263364Y-118602882D01*
X152223492Y-118790467D01*
X152220814Y-118982225D01*
X146473336Y-118982225D01*
X146414363Y-118869422D01*
X146231097Y-118641485D01*
X146007048Y-118453485D01*
X145947413Y-118420701D01*
X145989701Y-118398216D01*
X146216353Y-118213363D01*
X146402784Y-117988006D01*
X146458305Y-117885321D01*
X146485460Y-117877123D01*
X146552982Y-117857506D01*
X146556538Y-117855663D01*
X146560376Y-117854504D01*
X146622553Y-117821444D01*
X146685014Y-117789067D01*
X146688144Y-117786568D01*
X146691684Y-117784686D01*
X146746231Y-117740199D01*
X146801240Y-117696286D01*
X146806815Y-117690788D01*
X146806931Y-117690693D01*
X146807020Y-117690585D01*
X146808815Y-117688815D01*
X148038816Y-116458815D01*
X148083537Y-116404371D01*
X148128736Y-116350505D01*
X148130664Y-116346997D01*
X148133211Y-116343897D01*
X148166499Y-116281815D01*
X148200381Y-116220184D01*
X148201592Y-116216366D01*
X148203487Y-116212832D01*
X148224084Y-116145463D01*
X148245348Y-116078429D01*
X148245794Y-116074451D01*
X148246967Y-116070615D01*
X148254081Y-116000578D01*
X148261926Y-115930639D01*
X148261981Y-115922803D01*
X148261995Y-115922660D01*
X148261982Y-115922527D01*
X148262000Y-115920000D01*
X148262000Y-107616340D01*
X148354394Y-107485363D01*
X148432396Y-107310167D01*
X148474884Y-107123156D01*
X148477942Y-106904112D01*
X148440693Y-106715988D01*
X148367613Y-106538682D01*
X148261485Y-106378948D01*
X148126353Y-106242869D01*
X147967364Y-106135629D01*
X147790572Y-106061313D01*
X147602713Y-106022751D01*
X147410942Y-106021412D01*
X147222562Y-106057347D01*
X147044750Y-106129188D01*
X146884279Y-106234198D01*
X146747260Y-106368376D01*
X146638913Y-106526613D01*
X146563364Y-106702882D01*
X146523492Y-106890467D01*
X146520814Y-107082225D01*
X146555433Y-107270850D01*
X146626031Y-107449159D01*
X146729918Y-107610360D01*
X146738000Y-107618729D01*
X146738000Y-115604369D01*
X146235459Y-116106910D01*
X146231097Y-116101485D01*
X146007048Y-115913485D01*
X145750749Y-115772584D01*
X145471964Y-115684148D01*
X145181312Y-115651546D01*
X145160388Y-115651400D01*
X144839612Y-115651400D01*
X144548532Y-115679941D01*
X144268540Y-115764475D01*
X144210000Y-115795601D01*
X144210000Y-108534720D01*
X144295041Y-107667399D01*
X144536846Y-106866506D01*
X144929604Y-106127835D01*
X145458357Y-105479518D01*
X146102963Y-104946253D01*
X146838878Y-104548346D01*
X147638060Y-104300958D01*
X148503469Y-104210000D01*
X149502265Y-104210000D01*
X149378668Y-104498372D01*
X149378668Y-104498372D01*
G37*
X149378668Y-104498372D02*
X149311351Y-104815074D01*
X149306830Y-105138821D01*
X149365278Y-105457279D01*
X149484469Y-105758320D01*
X149659862Y-106030477D01*
X149884777Y-106263383D01*
X150150647Y-106448167D01*
X150447345Y-106577791D01*
X150763569Y-106647318D01*
X151087276Y-106654099D01*
X151406135Y-106597875D01*
X151708000Y-106480789D01*
X151981375Y-106307300D01*
X152215846Y-106084017D01*
X152230924Y-106062643D01*
X152424777Y-106263383D01*
X152690647Y-106448167D01*
X152987345Y-106577791D01*
X153303569Y-106647318D01*
X153627276Y-106654099D01*
X153946135Y-106597875D01*
X154248000Y-106480789D01*
X154521375Y-106307300D01*
X154755846Y-106084017D01*
X154770924Y-106062643D01*
X154964777Y-106263383D01*
X155230647Y-106448167D01*
X155527345Y-106577791D01*
X155843569Y-106647318D01*
X156167276Y-106654099D01*
X156486135Y-106597875D01*
X156788000Y-106480789D01*
X157061375Y-106307300D01*
X157295846Y-106084017D01*
X157482482Y-105819444D01*
X157614174Y-105523658D01*
X157685906Y-105207926D01*
X157691070Y-104838111D01*
X157628182Y-104520500D01*
X157504799Y-104221152D01*
X157497390Y-104210000D01*
X159644162Y-104210000D01*
X159622584Y-104249251D01*
X159534148Y-104528036D01*
X159501546Y-104818688D01*
X159501400Y-104839612D01*
X159501400Y-105160388D01*
X159529941Y-105451468D01*
X159614475Y-105731460D01*
X159751784Y-105989701D01*
X159936637Y-106216353D01*
X160161994Y-106402784D01*
X160419269Y-106541892D01*
X160698665Y-106628379D01*
X160989538Y-106658951D01*
X161280810Y-106632444D01*
X161561385Y-106549866D01*
X161820578Y-106414363D01*
X162048515Y-106231097D01*
X162236515Y-106007048D01*
X162269299Y-105947413D01*
X162291784Y-105989701D01*
X162476637Y-106216353D01*
X162701994Y-106402784D01*
X162959269Y-106541892D01*
X163238665Y-106628379D01*
X163529538Y-106658951D01*
X163820810Y-106632444D01*
X164101385Y-106549866D01*
X164360578Y-106414363D01*
X164588515Y-106231097D01*
X164776515Y-106007048D01*
X164917416Y-105750749D01*
X165005852Y-105471964D01*
X165038454Y-105181312D01*
X165038600Y-105160388D01*
X165038600Y-104839612D01*
X165010059Y-104548532D01*
X164925525Y-104268540D01*
X164894399Y-104210000D01*
X169502265Y-104210000D01*
X169378668Y-104498372D01*
X169311351Y-104815074D01*
X169306830Y-105138821D01*
X169365278Y-105457279D01*
X169484469Y-105758320D01*
X169659862Y-106030477D01*
X169884777Y-106263383D01*
X170150647Y-106448167D01*
X170447345Y-106577791D01*
X170763569Y-106647318D01*
X171087276Y-106654099D01*
X171406135Y-106597875D01*
X171708000Y-106480789D01*
X171981375Y-106307300D01*
X172215846Y-106084017D01*
X172230924Y-106062643D01*
X172424777Y-106263383D01*
X172690647Y-106448167D01*
X172987345Y-106577791D01*
X173303569Y-106647318D01*
X173627276Y-106654099D01*
X173946135Y-106597875D01*
X174248000Y-106480789D01*
X174521375Y-106307300D01*
X174755846Y-106084017D01*
X174770924Y-106062643D01*
X174964777Y-106263383D01*
X175230647Y-106448167D01*
X175527345Y-106577791D01*
X175843569Y-106647318D01*
X176167276Y-106654099D01*
X176486135Y-106597875D01*
X176788000Y-106480789D01*
X177061375Y-106307300D01*
X177295846Y-106084017D01*
X177482482Y-105819444D01*
X177614174Y-105523658D01*
X177685906Y-105207926D01*
X177691070Y-104838111D01*
X177628182Y-104520500D01*
X177504799Y-104221152D01*
X177497390Y-104210000D01*
X178465280Y-104210000D01*
X179332601Y-104295041D01*
X180133494Y-104536846D01*
X180872165Y-104929604D01*
X181520482Y-105458357D01*
X182053747Y-106102963D01*
X182451654Y-106838878D01*
X182699042Y-107638060D01*
X182790000Y-108503469D01*
X182790000Y-115754162D01*
X182750749Y-115732584D01*
X182471964Y-115644148D01*
X182181312Y-115611546D01*
X182160388Y-115611400D01*
X181839612Y-115611400D01*
X181548532Y-115639941D01*
X181268540Y-115724475D01*
X181010299Y-115861784D01*
X180783647Y-116046637D01*
X180597216Y-116271994D01*
X180458108Y-116529269D01*
X180371621Y-116808665D01*
X180341049Y-117099538D01*
X180367556Y-117390810D01*
X180450134Y-117671385D01*
X180585637Y-117930578D01*
X180768903Y-118158515D01*
X180992952Y-118346515D01*
X181052587Y-118379299D01*
X181010299Y-118401784D01*
X180783647Y-118586637D01*
X180597216Y-118811994D01*
X180458108Y-119069269D01*
X180371621Y-119348665D01*
X180341049Y-119639538D01*
X180367556Y-119930810D01*
X180450134Y-120211385D01*
X180585637Y-120470578D01*
X180768903Y-120698515D01*
X180992952Y-120886515D01*
X181052587Y-120919299D01*
X181010299Y-120941784D01*
X180783647Y-121126637D01*
X180597216Y-121351994D01*
X180458108Y-121609269D01*
X180371621Y-121888665D01*
X180341049Y-122179538D01*
X180367556Y-122470810D01*
X180450134Y-122751385D01*
X180585637Y-123010578D01*
X180768903Y-123238515D01*
X180992952Y-123426515D01*
X181052587Y-123459299D01*
X181010299Y-123481784D01*
X180783647Y-123666637D01*
X180597216Y-123891994D01*
X180458108Y-124149269D01*
X180371621Y-124428665D01*
X180341049Y-124719538D01*
X180367556Y-125010810D01*
X180450134Y-125291385D01*
X180585637Y-125550578D01*
X180768903Y-125778515D01*
X180992952Y-125966515D01*
X181052587Y-125999299D01*
X181010299Y-126021784D01*
X180783647Y-126206637D01*
X180597216Y-126431994D01*
X180458108Y-126689269D01*
X180371621Y-126968665D01*
X180341049Y-127259538D01*
X180367556Y-127550810D01*
X180450134Y-127831385D01*
X180585637Y-128090578D01*
X180768903Y-128318515D01*
X180992952Y-128506515D01*
X181052587Y-128539299D01*
X181010299Y-128561784D01*
X180783647Y-128746637D01*
X180597216Y-128971994D01*
X180556120Y-129048000D01*
X176841304Y-129048000D01*
X176771195Y-129054874D01*
X176701133Y-129061004D01*
X176697290Y-129062120D01*
X176693297Y-129062512D01*
X176625856Y-129082874D01*
X176558322Y-129102494D01*
X176554766Y-129104337D01*
X176550928Y-129105496D01*
X176488751Y-129138556D01*
X176426290Y-129170933D01*
X176423160Y-129173432D01*
X176419620Y-129175314D01*
X176365073Y-129219801D01*
X176310064Y-129263714D01*
X176304489Y-129269212D01*
X176304373Y-129269307D01*
X176304284Y-129269415D01*
X176302489Y-129271185D01*
X175635674Y-129938000D01*
X167719134Y-129938000D01*
X167567364Y-129835629D01*
X167390572Y-129761313D01*
X167202713Y-129722751D01*
X167010942Y-129721412D01*
X166822562Y-129757347D01*
X166644750Y-129829188D01*
X166484279Y-129934198D01*
X166347260Y-130068376D01*
X166238913Y-130226613D01*
X166163364Y-130402882D01*
X166123492Y-130590467D01*
X166122119Y-130688800D01*
X158676760Y-130688800D01*
X158677942Y-130604112D01*
X158640693Y-130415988D01*
X158567613Y-130238682D01*
X158461485Y-130078948D01*
X158326353Y-129942869D01*
X158167364Y-129835629D01*
X157990572Y-129761313D01*
X157802713Y-129722751D01*
X157610942Y-129721412D01*
X157422562Y-129757347D01*
X157244750Y-129829188D01*
X157084279Y-129934198D01*
X157080396Y-129938000D01*
X153138197Y-129938000D01*
X153068133Y-129944870D01*
X152998027Y-129951003D01*
X152994179Y-129952121D01*
X152990190Y-129952512D01*
X152922779Y-129972865D01*
X152920140Y-129973631D01*
X152797774Y-129972777D01*
X152609394Y-130008712D01*
X152431582Y-130080553D01*
X152271111Y-130185563D01*
X152134092Y-130319741D01*
X152025745Y-130477978D01*
X151950196Y-130654247D01*
X151910324Y-130841832D01*
X151907646Y-131033590D01*
X151942265Y-131222215D01*
X152012863Y-131400524D01*
X152116750Y-131561725D01*
X152229808Y-131678800D01*
X146471545Y-131678800D01*
X146414363Y-131569422D01*
X146231097Y-131341485D01*
X146007048Y-131153485D01*
X145947413Y-131120701D01*
X145989701Y-131098216D01*
X146216353Y-130913363D01*
X146402784Y-130688006D01*
X146541892Y-130430731D01*
X146628379Y-130151335D01*
X146658951Y-129860462D01*
X146632444Y-129569190D01*
X146549866Y-129288615D01*
X146414363Y-129029422D01*
X146231097Y-128801485D01*
X146007048Y-128613485D01*
X145947413Y-128580701D01*
X145989701Y-128558216D01*
X146216353Y-128373363D01*
X146402784Y-128148006D01*
X146541892Y-127890731D01*
X146628379Y-127611335D01*
X146658951Y-127320462D01*
X146632444Y-127029190D01*
X146549866Y-126748615D01*
X146414363Y-126489422D01*
X146231097Y-126261485D01*
X146007048Y-126073485D01*
X145947413Y-126040701D01*
X145989701Y-126018216D01*
X146216353Y-125833363D01*
X146402784Y-125608006D01*
X146443880Y-125532000D01*
X148956814Y-125532000D01*
X149050673Y-125677641D01*
X149183892Y-125815593D01*
X149250076Y-125861592D01*
X147847700Y-127263968D01*
X147671657Y-127297550D01*
X147493845Y-127369391D01*
X147333374Y-127474401D01*
X147196355Y-127608579D01*
X147088008Y-127766816D01*
X147012459Y-127943085D01*
X146972587Y-128130670D01*
X146969909Y-128322428D01*
X147004528Y-128511053D01*
X147075126Y-128689362D01*
X147179013Y-128850563D01*
X147312232Y-128988515D01*
X147469708Y-129097964D01*
X147645445Y-129174742D01*
X147832747Y-129215923D01*
X148024482Y-129219939D01*
X148213344Y-129186637D01*
X148392142Y-129117286D01*
X148554064Y-129014528D01*
X148692943Y-128882275D01*
X148803489Y-128725566D01*
X148881491Y-128550370D01*
X148923979Y-128363359D01*
X148924268Y-128342660D01*
X149484703Y-127782225D01*
X152420814Y-127782225D01*
X152455433Y-127970850D01*
X152526031Y-128149159D01*
X152629918Y-128310360D01*
X152763137Y-128448312D01*
X152920613Y-128557761D01*
X153096350Y-128634539D01*
X153283652Y-128675720D01*
X153475387Y-128679736D01*
X153664249Y-128646434D01*
X153843047Y-128577083D01*
X154004969Y-128474325D01*
X154143848Y-128342072D01*
X154254394Y-128185363D01*
X154325160Y-128026420D01*
X155273968Y-127077612D01*
X155375387Y-127079736D01*
X155564249Y-127046434D01*
X155743047Y-126977083D01*
X155904969Y-126874325D01*
X156043848Y-126742072D01*
X156154394Y-126585363D01*
X156232396Y-126410167D01*
X156274884Y-126223156D01*
X156277942Y-126004112D01*
X156240693Y-125815988D01*
X156167613Y-125638682D01*
X156061485Y-125478948D01*
X155926353Y-125342869D01*
X155770553Y-125237780D01*
X158020814Y-125237780D01*
X158055433Y-125426405D01*
X158126031Y-125604714D01*
X158229918Y-125765915D01*
X158363137Y-125903867D01*
X158520613Y-126013316D01*
X158696350Y-126090094D01*
X158883652Y-126131275D01*
X159075387Y-126135291D01*
X159264249Y-126101989D01*
X159443047Y-126032638D01*
X159604969Y-125929880D01*
X159617911Y-125917555D01*
X170749481Y-125917555D01*
X170845443Y-126016926D01*
X171002919Y-126126375D01*
X171178656Y-126203153D01*
X171365958Y-126244334D01*
X171557693Y-126248350D01*
X171698922Y-126223447D01*
X170898604Y-127023766D01*
X170722562Y-127057347D01*
X170544750Y-127129188D01*
X170384279Y-127234198D01*
X170247260Y-127368376D01*
X170138913Y-127526613D01*
X170063364Y-127702882D01*
X170023492Y-127890467D01*
X170020814Y-128082225D01*
X170055433Y-128270850D01*
X170126031Y-128449159D01*
X170229918Y-128610360D01*
X170363137Y-128748312D01*
X170520613Y-128857761D01*
X170696350Y-128934539D01*
X170883652Y-128975720D01*
X171075387Y-128979736D01*
X171264249Y-128946434D01*
X171443047Y-128877083D01*
X171604969Y-128774325D01*
X171743848Y-128642072D01*
X171854394Y-128485363D01*
X171932396Y-128310167D01*
X171974884Y-128123156D01*
X171975173Y-128102457D01*
X173312421Y-126765210D01*
X173408293Y-126728024D01*
X173570215Y-126625266D01*
X173709094Y-126493013D01*
X173819640Y-126336304D01*
X173897642Y-126161108D01*
X173940130Y-125974097D01*
X173943188Y-125755053D01*
X173905939Y-125566929D01*
X173832859Y-125389623D01*
X173726731Y-125229889D01*
X173591599Y-125093810D01*
X173507294Y-125036945D01*
X173683652Y-125075720D01*
X173875387Y-125079736D01*
X174064249Y-125046434D01*
X174243047Y-124977083D01*
X174404969Y-124874325D01*
X174543848Y-124742072D01*
X174654394Y-124585363D01*
X174732396Y-124410167D01*
X174774884Y-124223156D01*
X174777942Y-124004112D01*
X174766580Y-123946728D01*
X174768249Y-123946434D01*
X174947047Y-123877083D01*
X175108969Y-123774325D01*
X175247848Y-123642072D01*
X175258133Y-123627492D01*
X175223492Y-123790467D01*
X175220814Y-123982225D01*
X175255433Y-124170850D01*
X175326031Y-124349159D01*
X175429918Y-124510360D01*
X175468335Y-124550142D01*
X175468335Y-125266347D01*
X175369248Y-125411060D01*
X175293699Y-125587329D01*
X175253827Y-125774914D01*
X175251149Y-125966672D01*
X175285768Y-126155297D01*
X175356366Y-126333606D01*
X175460253Y-126494807D01*
X175593472Y-126632759D01*
X175750948Y-126742208D01*
X175926685Y-126818986D01*
X176113987Y-126860167D01*
X176305722Y-126864183D01*
X176494584Y-126830881D01*
X176673382Y-126761530D01*
X176835304Y-126658772D01*
X176974183Y-126526519D01*
X177084729Y-126369810D01*
X177162731Y-126194614D01*
X177205219Y-126007603D01*
X177208277Y-125788559D01*
X177171028Y-125600435D01*
X177097948Y-125423129D01*
X176992335Y-125264170D01*
X176992335Y-124473337D01*
X177054394Y-124385363D01*
X177132396Y-124210167D01*
X177174884Y-124023156D01*
X177177942Y-123804112D01*
X177140693Y-123615988D01*
X177067613Y-123438682D01*
X176961485Y-123278948D01*
X176826353Y-123142869D01*
X176667364Y-123035629D01*
X176490572Y-122961313D01*
X176302713Y-122922751D01*
X176110942Y-122921412D01*
X175922562Y-122957347D01*
X175744750Y-123029188D01*
X175584279Y-123134198D01*
X175447260Y-123268376D01*
X175445211Y-123271369D01*
X175478884Y-123123156D01*
X175481942Y-122904112D01*
X175444693Y-122715988D01*
X175371613Y-122538682D01*
X175265485Y-122378948D01*
X175130353Y-122242869D01*
X174971364Y-122135629D01*
X174794572Y-122061313D01*
X174606713Y-122022751D01*
X174414942Y-122021412D01*
X174226562Y-122057347D01*
X174048750Y-122129188D01*
X173888279Y-122234198D01*
X173884396Y-122238000D01*
X171274560Y-122238000D01*
X171229907Y-122193034D01*
X171070918Y-122085794D01*
X170894126Y-122011478D01*
X170706267Y-121972916D01*
X170514496Y-121971577D01*
X170326116Y-122007512D01*
X170148304Y-122079353D01*
X169987833Y-122184363D01*
X169850814Y-122318541D01*
X169742467Y-122476778D01*
X169666918Y-122653047D01*
X169627046Y-122840632D01*
X169624368Y-123032390D01*
X169658987Y-123221015D01*
X169705305Y-123338000D01*
X167219134Y-123338000D01*
X167067364Y-123235629D01*
X166890572Y-123161313D01*
X166702713Y-123122751D01*
X166510942Y-123121412D01*
X166322562Y-123157347D01*
X166144750Y-123229188D01*
X165984279Y-123334198D01*
X165847260Y-123468376D01*
X165738913Y-123626613D01*
X165663364Y-123802882D01*
X165623492Y-123990467D01*
X165620814Y-124182225D01*
X165655433Y-124370850D01*
X165664423Y-124393555D01*
X159619134Y-124393555D01*
X159467364Y-124291184D01*
X159290572Y-124216868D01*
X159102713Y-124178306D01*
X158910942Y-124176967D01*
X158722562Y-124212902D01*
X158544750Y-124284743D01*
X158384279Y-124389753D01*
X158247260Y-124523931D01*
X158138913Y-124682168D01*
X158063364Y-124858437D01*
X158023492Y-125046022D01*
X158020814Y-125237780D01*
X155770553Y-125237780D01*
X155767364Y-125235629D01*
X155590572Y-125161313D01*
X155402713Y-125122751D01*
X155210942Y-125121412D01*
X155022562Y-125157347D01*
X154844750Y-125229188D01*
X154844302Y-125229481D01*
X154837204Y-125230102D01*
X154832733Y-125231401D01*
X154828103Y-125231855D01*
X154749915Y-125255461D01*
X154671340Y-125278289D01*
X154667203Y-125280434D01*
X154662753Y-125281777D01*
X154590627Y-125320127D01*
X154517995Y-125357776D01*
X154514357Y-125360680D01*
X154510248Y-125362865D01*
X154446938Y-125414500D01*
X154383009Y-125465533D01*
X154376528Y-125471924D01*
X154376399Y-125472030D01*
X154376300Y-125472150D01*
X154374211Y-125474210D01*
X153069726Y-126778694D01*
X152944750Y-126829188D01*
X152784279Y-126934198D01*
X152647260Y-127068376D01*
X152538913Y-127226613D01*
X152463364Y-127402882D01*
X152423492Y-127590467D01*
X152420814Y-127782225D01*
X149484703Y-127782225D01*
X152721325Y-124545603D01*
X152720814Y-124582225D01*
X152755433Y-124770850D01*
X152826031Y-124949159D01*
X152929918Y-125110360D01*
X153063137Y-125248312D01*
X153220613Y-125357761D01*
X153396350Y-125434539D01*
X153583652Y-125475720D01*
X153775387Y-125479736D01*
X153964249Y-125446434D01*
X154143047Y-125377083D01*
X154304969Y-125274325D01*
X154443848Y-125142072D01*
X154554394Y-124985363D01*
X154609319Y-124862000D01*
X155782831Y-124862000D01*
X155920613Y-124957761D01*
X156096350Y-125034539D01*
X156283652Y-125075720D01*
X156475387Y-125079736D01*
X156664249Y-125046434D01*
X156843047Y-124977083D01*
X157004969Y-124874325D01*
X157143848Y-124742072D01*
X157254394Y-124585363D01*
X157332396Y-124410167D01*
X157374884Y-124223156D01*
X157377942Y-124004112D01*
X157349803Y-123862000D01*
X161682831Y-123862000D01*
X161820613Y-123957761D01*
X161996350Y-124034539D01*
X162183652Y-124075720D01*
X162375387Y-124079736D01*
X162564249Y-124046434D01*
X162743047Y-123977083D01*
X162904969Y-123874325D01*
X163043848Y-123742072D01*
X163154394Y-123585363D01*
X163232396Y-123410167D01*
X163274884Y-123223156D01*
X163277942Y-123004112D01*
X163240693Y-122815988D01*
X163167613Y-122638682D01*
X163061485Y-122478948D01*
X162926353Y-122342869D01*
X162767364Y-122235629D01*
X162590572Y-122161313D01*
X162402713Y-122122751D01*
X162210942Y-122121412D01*
X162022562Y-122157347D01*
X161844750Y-122229188D01*
X161684279Y-122334198D01*
X161680396Y-122338000D01*
X155276073Y-122338000D01*
X155277942Y-122204112D01*
X155240693Y-122015988D01*
X155167613Y-121838682D01*
X155061485Y-121678948D01*
X154926353Y-121542869D01*
X154767364Y-121435629D01*
X154590572Y-121361313D01*
X154402713Y-121322751D01*
X154210942Y-121321412D01*
X154022562Y-121357347D01*
X153844750Y-121429188D01*
X153684279Y-121534198D01*
X153680396Y-121538000D01*
X151900000Y-121538000D01*
X151829936Y-121544870D01*
X151759830Y-121551003D01*
X151755982Y-121552121D01*
X151751993Y-121552512D01*
X151684628Y-121572851D01*
X151617018Y-121592493D01*
X151613458Y-121594339D01*
X151609624Y-121595496D01*
X151547482Y-121628537D01*
X151484986Y-121660933D01*
X151481856Y-121663432D01*
X151478316Y-121665314D01*
X151423769Y-121709801D01*
X151368760Y-121753714D01*
X151363181Y-121759216D01*
X151363069Y-121759307D01*
X151362983Y-121759411D01*
X151361185Y-121761184D01*
X150498604Y-122623766D01*
X150322562Y-122657347D01*
X150144750Y-122729188D01*
X149984279Y-122834198D01*
X149980396Y-122838000D01*
X149378030Y-122838000D01*
X146605447Y-120065417D01*
X146628379Y-119991335D01*
X146658951Y-119700462D01*
X146632444Y-119409190D01*
X146549866Y-119128615D01*
X146473336Y-118982225D01*
X152220814Y-118982225D01*
X152255433Y-119170850D01*
X152326031Y-119349159D01*
X152429918Y-119510360D01*
X152563137Y-119648312D01*
X152720613Y-119757761D01*
X152896350Y-119834539D01*
X153083652Y-119875720D01*
X153275387Y-119879736D01*
X153464249Y-119846434D01*
X153643047Y-119777083D01*
X153804969Y-119674325D01*
X153943848Y-119542072D01*
X154054394Y-119385363D01*
X154132396Y-119210167D01*
X154174884Y-119023156D01*
X154175173Y-119002457D01*
X155638816Y-117538815D01*
X155683537Y-117484371D01*
X155728736Y-117430505D01*
X155730664Y-117426997D01*
X155733211Y-117423897D01*
X155766509Y-117361796D01*
X155800381Y-117300184D01*
X155801591Y-117296368D01*
X155803487Y-117292833D01*
X155824088Y-117225449D01*
X155845348Y-117158429D01*
X155845794Y-117154451D01*
X155846967Y-117150615D01*
X155854081Y-117080578D01*
X155861926Y-117010639D01*
X155861981Y-117002803D01*
X155861995Y-117002660D01*
X155861982Y-117002527D01*
X155862000Y-117000000D01*
X155862000Y-116816340D01*
X155954394Y-116685363D01*
X156032396Y-116510167D01*
X156074884Y-116323156D01*
X156077942Y-116104112D01*
X156040693Y-115915988D01*
X155967613Y-115738682D01*
X155861485Y-115578948D01*
X155726353Y-115442869D01*
X155722540Y-115440297D01*
X155883652Y-115475720D01*
X156075387Y-115479736D01*
X156264249Y-115446434D01*
X156443047Y-115377083D01*
X156604969Y-115274325D01*
X156617911Y-115262000D01*
X173382831Y-115262000D01*
X173520613Y-115357761D01*
X173696350Y-115434539D01*
X173788139Y-115454720D01*
X173738913Y-115526613D01*
X173663364Y-115702882D01*
X173623492Y-115890467D01*
X173620814Y-116082225D01*
X173655433Y-116270850D01*
X173726031Y-116449159D01*
X173829918Y-116610360D01*
X173963137Y-116748312D01*
X174120613Y-116857761D01*
X174296350Y-116934539D01*
X174483652Y-116975720D01*
X174675387Y-116979736D01*
X174800968Y-116957592D01*
X176860300Y-119016925D01*
X176860300Y-119781900D01*
X176761213Y-119926613D01*
X176685664Y-120102882D01*
X176645792Y-120290467D01*
X176643114Y-120482225D01*
X176677733Y-120670850D01*
X176748331Y-120849159D01*
X176852218Y-121010360D01*
X176985437Y-121148312D01*
X177142913Y-121257761D01*
X177318650Y-121334539D01*
X177505952Y-121375720D01*
X177697687Y-121379736D01*
X177886549Y-121346434D01*
X178065347Y-121277083D01*
X178227269Y-121174325D01*
X178366148Y-121042072D01*
X178476694Y-120885363D01*
X178554696Y-120710167D01*
X178597184Y-120523156D01*
X178600242Y-120304112D01*
X178562993Y-120115988D01*
X178489913Y-119938682D01*
X178384300Y-119779723D01*
X178384300Y-118701294D01*
X178377430Y-118631230D01*
X178371297Y-118561124D01*
X178370179Y-118557276D01*
X178369788Y-118553287D01*
X178349449Y-118485922D01*
X178329807Y-118418312D01*
X178327961Y-118414752D01*
X178326804Y-118410918D01*
X178293763Y-118348776D01*
X178261367Y-118286280D01*
X178258868Y-118283150D01*
X178256986Y-118279610D01*
X178212499Y-118225063D01*
X178168586Y-118170054D01*
X178163084Y-118164475D01*
X178162993Y-118164363D01*
X178162889Y-118164277D01*
X178161116Y-118162479D01*
X175459821Y-115461185D01*
X175405407Y-115416488D01*
X175362514Y-115380496D01*
X175361485Y-115378948D01*
X175226353Y-115242869D01*
X175067364Y-115135629D01*
X174890572Y-115061313D01*
X174812170Y-115045219D01*
X174854394Y-114985363D01*
X174932396Y-114810167D01*
X174974884Y-114623156D01*
X174977942Y-114404112D01*
X174940693Y-114215988D01*
X174867613Y-114038682D01*
X174761485Y-113878948D01*
X174626353Y-113742869D01*
X174467364Y-113635629D01*
X174290572Y-113561313D01*
X174102713Y-113522751D01*
X173910942Y-113521412D01*
X173722562Y-113557347D01*
X173544750Y-113629188D01*
X173384279Y-113734198D01*
X173380396Y-113738000D01*
X156619134Y-113738000D01*
X156467364Y-113635629D01*
X156290572Y-113561313D01*
X156102713Y-113522751D01*
X155910942Y-113521412D01*
X155722562Y-113557347D01*
X155544750Y-113629188D01*
X155384279Y-113734198D01*
X155247260Y-113868376D01*
X155138913Y-114026613D01*
X155063364Y-114202882D01*
X155023492Y-114390467D01*
X155020814Y-114582225D01*
X155055433Y-114770850D01*
X155126031Y-114949159D01*
X155229918Y-115110360D01*
X155363137Y-115248312D01*
X155378184Y-115258770D01*
X155202713Y-115222751D01*
X155010942Y-115221412D01*
X154822562Y-115257347D01*
X154644750Y-115329188D01*
X154484279Y-115434198D01*
X154347260Y-115568376D01*
X154238913Y-115726613D01*
X154163364Y-115902882D01*
X154123492Y-116090467D01*
X154120814Y-116282225D01*
X154155433Y-116470850D01*
X154226031Y-116649159D01*
X154283710Y-116738659D01*
X153098604Y-117923766D01*
X152922562Y-117957347D01*
X152744750Y-118029188D01*
X152584279Y-118134198D01*
X152447260Y-118268376D01*
X152338913Y-118426613D01*
X152263364Y-118602882D01*
X152223492Y-118790467D01*
X152220814Y-118982225D01*
X146473336Y-118982225D01*
X146414363Y-118869422D01*
X146231097Y-118641485D01*
X146007048Y-118453485D01*
X145947413Y-118420701D01*
X145989701Y-118398216D01*
X146216353Y-118213363D01*
X146402784Y-117988006D01*
X146458305Y-117885321D01*
X146485460Y-117877123D01*
X146552982Y-117857506D01*
X146556538Y-117855663D01*
X146560376Y-117854504D01*
X146622553Y-117821444D01*
X146685014Y-117789067D01*
X146688144Y-117786568D01*
X146691684Y-117784686D01*
X146746231Y-117740199D01*
X146801240Y-117696286D01*
X146806815Y-117690788D01*
X146806931Y-117690693D01*
X146807020Y-117690585D01*
X146808815Y-117688815D01*
X148038816Y-116458815D01*
X148083537Y-116404371D01*
X148128736Y-116350505D01*
X148130664Y-116346997D01*
X148133211Y-116343897D01*
X148166499Y-116281815D01*
X148200381Y-116220184D01*
X148201592Y-116216366D01*
X148203487Y-116212832D01*
X148224084Y-116145463D01*
X148245348Y-116078429D01*
X148245794Y-116074451D01*
X148246967Y-116070615D01*
X148254081Y-116000578D01*
X148261926Y-115930639D01*
X148261981Y-115922803D01*
X148261995Y-115922660D01*
X148261982Y-115922527D01*
X148262000Y-115920000D01*
X148262000Y-107616340D01*
X148354394Y-107485363D01*
X148432396Y-107310167D01*
X148474884Y-107123156D01*
X148477942Y-106904112D01*
X148440693Y-106715988D01*
X148367613Y-106538682D01*
X148261485Y-106378948D01*
X148126353Y-106242869D01*
X147967364Y-106135629D01*
X147790572Y-106061313D01*
X147602713Y-106022751D01*
X147410942Y-106021412D01*
X147222562Y-106057347D01*
X147044750Y-106129188D01*
X146884279Y-106234198D01*
X146747260Y-106368376D01*
X146638913Y-106526613D01*
X146563364Y-106702882D01*
X146523492Y-106890467D01*
X146520814Y-107082225D01*
X146555433Y-107270850D01*
X146626031Y-107449159D01*
X146729918Y-107610360D01*
X146738000Y-107618729D01*
X146738000Y-115604369D01*
X146235459Y-116106910D01*
X146231097Y-116101485D01*
X146007048Y-115913485D01*
X145750749Y-115772584D01*
X145471964Y-115684148D01*
X145181312Y-115651546D01*
X145160388Y-115651400D01*
X144839612Y-115651400D01*
X144548532Y-115679941D01*
X144268540Y-115764475D01*
X144210000Y-115795601D01*
X144210000Y-108534720D01*
X144295041Y-107667399D01*
X144536846Y-106866506D01*
X144929604Y-106127835D01*
X145458357Y-105479518D01*
X146102963Y-104946253D01*
X146838878Y-104548346D01*
X147638060Y-104300958D01*
X148503469Y-104210000D01*
X149502265Y-104210000D01*
X149378668Y-104498372D01*
M02*
