M48
;DRILL file {KiCad 4.0.4-stable} date Fri Nov  4 09:48:11 2016
;FORMAT={2:4/ absolute / inch / suppress trailing zeros}
FMAT,2
INCH,LZ
T1C0.013
T2C0.040
%
G90
G05
M72
T1
X058071Y-042126
X058248Y-050488
X058268Y-055118
X058985Y-049239
X059055Y-043307
X059055Y-04685
X059055Y-050394
X059055Y-053937
X059291Y-048661
X060173Y-052588
X060192Y-051556
X060315Y-046811
X060394Y-050276
X060512Y-049016
X060748Y-04815
X061063Y-045748
X061142Y-049646
X061417Y-045079
X061575Y-048858
X062087Y-051457
X06223Y-052591
X062598Y-043307
X062598Y-04685
X062598Y-049274
X062598Y-050394
X062598Y-053937
X063898Y-048465
X065591Y-048858
X065787Y-051457
X066142Y-043307
X066142Y-04685
X066142Y-050394
X066142Y-053937
X066772Y-052165
X067167Y-048406
X067323Y-050394
X067513Y-049318
X068097Y-049548
X068425Y-048858
X068504Y-045079
X068702Y-048425
X06874Y-045669
X068937Y-050276
X06937Y-04878
X069382Y-049561
X069685Y-043307
X069685Y-053937
X069743Y-053319
X069793Y-050394
X06993Y-047402
X07Y-052638
X070423Y-04812
T2
X057087Y-045122
X057087Y-046122
X057087Y-047122
X057087Y-048122
X057087Y-049122
X057087Y-050122
X057087Y-051122
X057087Y-052122
X059433Y-041339
X059433Y-055906
X060433Y-041339
X060433Y-055906
X061433Y-041339
X061433Y-055906
X063354Y-055906
X063386Y-041339
X064354Y-055906
X064386Y-041339
X065354Y-055906
X065386Y-041339
X067307Y-041339
X067323Y-055906
X068307Y-041339
X068323Y-055906
X069307Y-041339
X069323Y-055906
X071654Y-045106
X071654Y-046106
X071654Y-047106
X071654Y-048106
X071654Y-049106
X071654Y-050106
X071654Y-051106
X071654Y-052106
T0
M30
