<?xml version="1.0" encoding="UTF-8" standalone="no"?>
<svg
   xmlns:dc="http://purl.org/dc/elements/1.1/"
   xmlns:cc="http://creativecommons.org/ns#"
   xmlns:rdf="http://www.w3.org/1999/02/22-rdf-syntax-ns#"
   xmlns:svg="http://www.w3.org/2000/svg"
   xmlns="http://www.w3.org/2000/svg"
   xmlns:sodipodi="http://sodipodi.sourceforge.net/DTD/sodipodi-0.dtd"
   xmlns:inkscape="http://www.inkscape.org/namespaces/inkscape"
   version="1.1"
   width="9.9187cm"
   height="9.13892cm"
   viewBox="0 0 39050 35980 "
   id="svg838"
   sodipodi:docname="led_cube-brd.svg"
   inkscape:version="0.92.1 r">
  <metadata
     id="metadata844">
    <rdf:RDF>
      <cc:Work
         rdf:about="">
        <dc:format>image/svg+xml</dc:format>
        <dc:type
           rdf:resource="http://purl.org/dc/dcmitype/StillImage" />
      </cc:Work>
    </rdf:RDF>
  </metadata>
  <defs
     id="defs842" />
  <sodipodi:namedview
     pagecolor="#ffffff"
     bordercolor="#666666"
     borderopacity="1"
     objecttolerance="10"
     gridtolerance="10"
     guidetolerance="10"
     inkscape:pageopacity="0"
     inkscape:pageshadow="2"
     inkscape:window-width="1916"
     inkscape:window-height="1160"
     id="namedview840"
     showgrid="false"
     inkscape:zoom="1.9325227"
     inkscape:cx="-0.27800639"
     inkscape:cy="155.03444"
     inkscape:window-x="0"
     inkscape:window-y="18"
     inkscape:window-maximized="0"
     inkscape:current-layer="svg838" />
  <title
     id="title2">SVG Picture created as led_cube-brd.svg date 2017/03/03 14:40:40 </title>
  <desc
     id="desc4">Picture generated by PCBNEW </desc>
  <g
     style="fill:#000000; fill-opacity:1;stroke:#000000; stroke-opacity:1; stroke-linecap:round; stroke-linejoin:round; "
     transform="translate(0 0) scale(1 1)"
     id="g6" />
  <g
     style="fill:#000000; fill-opacity:0.0;  stroke:#000000; stroke-width:-0.000393701; stroke-opacity:1;  stroke-linecap:round; stroke-linejoin:round;"
     id="g8" />
  <g
     style="fill:#840000; fill-opacity:0.0;  stroke:#840000; stroke-width:-0.000393701; stroke-opacity:1;  stroke-linecap:round; stroke-linejoin:round;"
     id="g10" />
  <g
     style="fill:#840000; fill-opacity:0.0;  stroke:#840000; stroke-width:0; stroke-opacity:1;  stroke-linecap:round; stroke-linejoin:round;"
     id="g12" />
  <g
     style="fill:#840000; fill-opacity:1.0;  stroke:#840000; stroke-width:0; stroke-opacity:1;  stroke-linecap:round; stroke-linejoin:round;"
     id="g48">
    <polyline
       style="fill-rule:evenodd;"
       points="25846,13700 25846,14133 25177,14133 25177,13700 25846,13700 "
       id="polyline14" />
    <polyline
       style="fill-rule:evenodd;"
       points="25846,12401 25846,12834 25177,12834 25177,12401 25846,12401 "
       id="polyline16" />
    <polyline
       style="fill-rule:evenodd;"
       points="23917,12401 23917,12834 23248,12834 23248,12401 23917,12401 "
       id="polyline18" />
    <polyline
       style="fill-rule:evenodd;"
       points="23917,13700 23917,14133 23248,14133 23248,13700 23917,13700 "
       id="polyline20" />
    <polyline
       style="fill-rule:evenodd;"
       points="22303,13700 22303,14133 21633,14133 21633,13700 22303,13700 "
       id="polyline22" />
    <polyline
       style="fill-rule:evenodd;"
       points="22303,12401 22303,12834 21633,12834 21633,12401 22303,12401 "
       id="polyline24" />
    <polyline
       style="fill-rule:evenodd;"
       points="20374,12401 20374,12834 19704,12834 19704,12401 20374,12401 "
       id="polyline26" />
    <polyline
       style="fill-rule:evenodd;"
       points="20374,13700 20374,14133 19704,14133 19704,13700 20374,13700 "
       id="polyline28" />
    <polyline
       style="fill-rule:evenodd;"
       points="18759,13700 18759,14133 18090,14133 18090,13700 18759,13700 "
       id="polyline30" />
    <polyline
       style="fill-rule:evenodd;"
       points="18759,12401 18759,12834 18090,12834 18090,12401 18759,12401 "
       id="polyline32" />
    <polyline
       style="fill-rule:evenodd;"
       points="16830,12401 16830,12834 16161,12834 16161,12401 16830,12401 "
       id="polyline34" />
    <polyline
       style="fill-rule:evenodd;"
       points="16830,13700 16830,14133 16161,14133 16161,13700 16830,13700 "
       id="polyline36" />
    <polyline
       style="fill-rule:evenodd;"
       points="15216,13700 15216,14133 14547,14133 14547,13700 15216,13700 "
       id="polyline38" />
    <polyline
       style="fill-rule:evenodd;"
       points="15216,12401 15216,12834 14547,12834 14547,12401 15216,12401 "
       id="polyline40" />
    <polyline
       style="fill-rule:evenodd;"
       points="13287,12401 13287,12834 12618,12834 12618,12401 13287,12401 "
       id="polyline42" />
    <polyline
       style="fill-rule:evenodd;"
       points="13287,13700 13287,14133 12618,14133 12618,13700 13287,13700 "
       id="polyline44" />
    <circle
       cx="22185"
       cy="25866.1"
       r="400"
       id="circle46" />
  </g>
  <g
     style="fill:#840000; fill-opacity:1.0;  stroke:#840000; stroke-width:39.3701; stroke-opacity:1;  stroke-linecap:round; stroke-linejoin:round;"
     id="g50" />
  <g
     style="fill:#840000; fill-opacity:1.0;  stroke:#840000; stroke-width:0; stroke-opacity:1;  stroke-linecap:round; stroke-linejoin:round;"
     id="g54">
    <circle
       cx="23185"
       cy="25866.1"
       r="400"
       id="circle52" />
  </g>
  <g
     style="fill:#840000; fill-opacity:1.0;  stroke:#840000; stroke-width:39.3701; stroke-opacity:1;  stroke-linecap:round; stroke-linejoin:round;"
     id="g56" />
  <g
     style="fill:#840000; fill-opacity:1.0;  stroke:#840000; stroke-width:0; stroke-opacity:1;  stroke-linecap:round; stroke-linejoin:round;"
     id="g60">
    <circle
       cx="24185"
       cy="25866.1"
       r="400"
       id="circle58" />
  </g>
  <g
     style="fill:#840000; fill-opacity:1.0;  stroke:#840000; stroke-width:39.3701; stroke-opacity:1;  stroke-linecap:round; stroke-linejoin:round;"
     id="g62" />
  <g
     style="fill:#840000; fill-opacity:1.0;  stroke:#840000; stroke-width:0; stroke-opacity:1;  stroke-linecap:round; stroke-linejoin:round;"
     id="g66">
    <polyline
       style="fill-rule:evenodd;"
       points="19876,25466 20556,25466 20556,26266 19876,26266 19876,25466 "
       id="polyline64" />
  </g>
  <g
     style="fill:#840000; fill-opacity:1.0;  stroke:#840000; stroke-width:680; stroke-opacity:1;  stroke-linecap:round; stroke-linejoin:round;"
     id="g68" />
  <g
     style="fill:#840000; fill-opacity:0.0;  stroke:#840000; stroke-width:680; stroke-opacity:1;  stroke-linecap:round; stroke-linejoin:round;"
     id="g74">
    <path
       d="M19216 25806 L19216 25926 "
       id="path70" />
    <path
       d="M18216 25806 L18216 25926 "
       id="path72" />
  </g>
  <g
     style="fill:#840000; fill-opacity:0.0;  stroke:#840000; stroke-width:0; stroke-opacity:1;  stroke-linecap:round; stroke-linejoin:round;"
     id="g76" />
  <g
     style="fill:#840000; fill-opacity:1.0;  stroke:#840000; stroke-width:0; stroke-opacity:1;  stroke-linecap:round; stroke-linejoin:round;"
     id="g80">
    <polyline
       style="fill-rule:evenodd;"
       points="26115,17906 26115,17226 26915,17226 26915,17906 26115,17906 "
       id="polyline78" />
  </g>
  <g
     style="fill:#840000; fill-opacity:1.0;  stroke:#840000; stroke-width:680; stroke-opacity:1;  stroke-linecap:round; stroke-linejoin:round;"
     id="g82" />
  <g
     style="fill:#840000; fill-opacity:0.0;  stroke:#840000; stroke-width:680; stroke-opacity:1;  stroke-linecap:round; stroke-linejoin:round;"
     id="g88">
    <path
       d="M26455 18566 L26575 18566 "
       id="path84" />
    <path
       d="M26455 19566 L26575 19566 "
       id="path86" />
  </g>
  <g
     style="fill:#840000; fill-opacity:0.0;  stroke:#840000; stroke-width:0; stroke-opacity:1;  stroke-linecap:round; stroke-linejoin:round;"
     id="g90" />
  <g
     style="fill:#840000; fill-opacity:1.0;  stroke:#840000; stroke-width:0; stroke-opacity:1;  stroke-linecap:round; stroke-linejoin:round;"
     id="g94">
    <polyline
       style="fill-rule:evenodd;"
       points="11548,17922 11548,17242 12348,17242 12348,17922 11548,17922 "
       id="polyline92" />
  </g>
  <g
     style="fill:#840000; fill-opacity:1.0;  stroke:#840000; stroke-width:680; stroke-opacity:1;  stroke-linecap:round; stroke-linejoin:round;"
     id="g96" />
  <g
     style="fill:#840000; fill-opacity:0.0;  stroke:#840000; stroke-width:680; stroke-opacity:1;  stroke-linecap:round; stroke-linejoin:round;"
     id="g102">
    <path
       d="M11888 18582 L12008 18582 "
       id="path98" />
    <path
       d="M11888 19582 L12008 19582 "
       id="path100" />
  </g>
  <g
     style="fill:#840000; fill-opacity:0.0;  stroke:#840000; stroke-width:0; stroke-opacity:1;  stroke-linecap:round; stroke-linejoin:round;"
     id="g104" />
  <g
     style="fill:#840000; fill-opacity:1.0;  stroke:#840000; stroke-width:0; stroke-opacity:1;  stroke-linecap:round; stroke-linejoin:round;"
     id="g108">
    <polyline
       style="fill-rule:evenodd;"
       points="19908,10899 20588,10899 20588,11699 19908,11699 19908,10899 "
       id="polyline106" />
  </g>
  <g
     style="fill:#840000; fill-opacity:1.0;  stroke:#840000; stroke-width:680; stroke-opacity:1;  stroke-linecap:round; stroke-linejoin:round;"
     id="g110" />
  <g
     style="fill:#840000; fill-opacity:0.0;  stroke:#840000; stroke-width:680; stroke-opacity:1;  stroke-linecap:round; stroke-linejoin:round;"
     id="g116">
    <path
       d="M19248 11239 L19248 11359 "
       id="path112" />
    <path
       d="M18248 11239 L18248 11359 "
       id="path114" />
  </g>
  <g
     style="fill:#840000; fill-opacity:0.0;  stroke:#840000; stroke-width:0; stroke-opacity:1;  stroke-linecap:round; stroke-linejoin:round;"
     id="g118" />
  <g
     style="fill:#840000; fill-opacity:1.0;  stroke:#840000; stroke-width:0; stroke-opacity:1;  stroke-linecap:round; stroke-linejoin:round;"
     id="g282">
    <polyline
       style="fill-rule:evenodd;"
       points="15836,14114 15541,14114 15541,13799 15836,13799 15836,14114 "
       id="polyline120" />
    <polyline
       style="fill-rule:evenodd;"
       points="15836,13523 15541,13523 15541,13208 15836,13208 15836,13523 "
       id="polyline122" />
    <polyline
       style="fill-rule:evenodd;"
       points="15216,17244 15216,17677 14547,17677 14547,17244 15216,17244 "
       id="polyline124" />
    <polyline
       style="fill-rule:evenodd;"
       points="15216,15944 15216,16377 14547,16377 14547,15944 15216,15944 "
       id="polyline126" />
    <polyline
       style="fill-rule:evenodd;"
       points="13287,15944 13287,16377 12618,16377 12618,15944 13287,15944 "
       id="polyline128" />
    <polyline
       style="fill-rule:evenodd;"
       points="13287,17244 13287,17677 12618,17677 12618,17244 13287,17244 "
       id="polyline130" />
    <polyline
       style="fill-rule:evenodd;"
       points="18759,17244 18759,17677 18090,17677 18090,17244 18759,17244 "
       id="polyline132" />
    <polyline
       style="fill-rule:evenodd;"
       points="18759,15944 18759,16377 18090,16377 18090,15944 18759,15944 "
       id="polyline134" />
    <polyline
       style="fill-rule:evenodd;"
       points="16830,15944 16830,16377 16161,16377 16161,15944 16830,15944 "
       id="polyline136" />
    <polyline
       style="fill-rule:evenodd;"
       points="16830,17244 16830,17677 16161,17677 16161,17244 16830,17244 "
       id="polyline138" />
    <polyline
       style="fill-rule:evenodd;"
       points="22303,17244 22303,17677 21633,17677 21633,17244 22303,17244 "
       id="polyline140" />
    <polyline
       style="fill-rule:evenodd;"
       points="22303,15944 22303,16377 21633,16377 21633,15944 22303,15944 "
       id="polyline142" />
    <polyline
       style="fill-rule:evenodd;"
       points="20374,15944 20374,16377 19704,16377 19704,15944 20374,15944 "
       id="polyline144" />
    <polyline
       style="fill-rule:evenodd;"
       points="20374,17244 20374,17677 19704,17677 19704,17244 20374,17244 "
       id="polyline146" />
    <polyline
       style="fill-rule:evenodd;"
       points="25846,17244 25846,17677 25177,17677 25177,17244 25846,17244 "
       id="polyline148" />
    <polyline
       style="fill-rule:evenodd;"
       points="25846,15944 25846,16377 25177,16377 25177,15944 25846,15944 "
       id="polyline150" />
    <polyline
       style="fill-rule:evenodd;"
       points="23917,15944 23917,16377 23248,16377 23248,15944 23917,15944 "
       id="polyline152" />
    <polyline
       style="fill-rule:evenodd;"
       points="23917,17244 23917,17677 23248,17677 23248,17244 23917,17244 "
       id="polyline154" />
    <polyline
       style="fill-rule:evenodd;"
       points="15216,20787 15216,21220 14547,21220 14547,20787 15216,20787 "
       id="polyline156" />
    <polyline
       style="fill-rule:evenodd;"
       points="15216,19488 15216,19921 14547,19921 14547,19488 15216,19488 "
       id="polyline158" />
    <polyline
       style="fill-rule:evenodd;"
       points="13287,19488 13287,19921 12618,19921 12618,19488 13287,19488 "
       id="polyline160" />
    <polyline
       style="fill-rule:evenodd;"
       points="13287,20787 13287,21220 12618,21220 12618,20787 13287,20787 "
       id="polyline162" />
    <polyline
       style="fill-rule:evenodd;"
       points="18759,20787 18759,21220 18090,21220 18090,20787 18759,20787 "
       id="polyline164" />
    <polyline
       style="fill-rule:evenodd;"
       points="18759,19488 18759,19921 18090,19921 18090,19488 18759,19488 "
       id="polyline166" />
    <polyline
       style="fill-rule:evenodd;"
       points="16830,19488 16830,19921 16161,19921 16161,19488 16830,19488 "
       id="polyline168" />
    <polyline
       style="fill-rule:evenodd;"
       points="16830,20787 16830,21220 16161,21220 16161,20787 16830,20787 "
       id="polyline170" />
    <polyline
       style="fill-rule:evenodd;"
       points="22303,20787 22303,21220 21633,21220 21633,20787 22303,20787 "
       id="polyline172" />
    <polyline
       style="fill-rule:evenodd;"
       points="22303,19488 22303,19921 21633,19921 21633,19488 22303,19488 "
       id="polyline174" />
    <polyline
       style="fill-rule:evenodd;"
       points="20374,19488 20374,19921 19704,19921 19704,19488 20374,19488 "
       id="polyline176" />
    <polyline
       style="fill-rule:evenodd;"
       points="20374,20787 20374,21220 19704,21220 19704,20787 20374,20787 "
       id="polyline178" />
    <polyline
       style="fill-rule:evenodd;"
       points="25846,20787 25846,21220 25177,21220 25177,20787 25846,20787 "
       id="polyline180" />
    <polyline
       style="fill-rule:evenodd;"
       points="25846,19488 25846,19921 25177,19921 25177,19488 25846,19488 "
       id="polyline182" />
    <polyline
       style="fill-rule:evenodd;"
       points="23917,19488 23917,19921 23248,19921 23248,19488 23917,19488 "
       id="polyline184" />
    <polyline
       style="fill-rule:evenodd;"
       points="23917,20787 23917,21220 23248,21220 23248,20787 23917,20787 "
       id="polyline186" />
    <polyline
       style="fill-rule:evenodd;"
       points="15216,24330 15216,24763 14547,24763 14547,24330 15216,24330 "
       id="polyline188" />
    <polyline
       style="fill-rule:evenodd;"
       points="15216,23031 15216,23464 14547,23464 14547,23031 15216,23031 "
       id="polyline190" />
    <polyline
       style="fill-rule:evenodd;"
       points="13287,23031 13287,23464 12618,23464 12618,23031 13287,23031 "
       id="polyline192" />
    <polyline
       style="fill-rule:evenodd;"
       points="13287,24330 13287,24763 12618,24763 12618,24330 13287,24330 "
       id="polyline194" />
    <polyline
       style="fill-rule:evenodd;"
       points="18759,24330 18759,24763 18090,24763 18090,24330 18759,24330 "
       id="polyline196" />
    <polyline
       style="fill-rule:evenodd;"
       points="18759,23031 18759,23464 18090,23464 18090,23031 18759,23031 "
       id="polyline198" />
    <polyline
       style="fill-rule:evenodd;"
       points="16830,23031 16830,23464 16161,23464 16161,23031 16830,23031 "
       id="polyline200" />
    <polyline
       style="fill-rule:evenodd;"
       points="16830,24330 16830,24763 16161,24763 16161,24330 16830,24330 "
       id="polyline202" />
    <polyline
       style="fill-rule:evenodd;"
       points="22303,24330 22303,24763 21633,24763 21633,24330 22303,24330 "
       id="polyline204" />
    <polyline
       style="fill-rule:evenodd;"
       points="22303,23031 22303,23464 21633,23464 21633,23031 22303,23031 "
       id="polyline206" />
    <polyline
       style="fill-rule:evenodd;"
       points="20374,23031 20374,23464 19704,23464 19704,23031 20374,23031 "
       id="polyline208" />
    <polyline
       style="fill-rule:evenodd;"
       points="20374,24330 20374,24763 19704,24763 19704,24330 20374,24330 "
       id="polyline210" />
    <polyline
       style="fill-rule:evenodd;"
       points="25846,24330 25846,24763 25177,24763 25177,24330 25846,24330 "
       id="polyline212" />
    <polyline
       style="fill-rule:evenodd;"
       points="25846,23031 25846,23464 25177,23464 25177,23031 25846,23031 "
       id="polyline214" />
    <polyline
       style="fill-rule:evenodd;"
       points="23917,23031 23917,23464 23248,23464 23248,23031 23917,23031 "
       id="polyline216" />
    <polyline
       style="fill-rule:evenodd;"
       points="23917,24330 23917,24763 23248,24763 23248,24330 23917,24330 "
       id="polyline218" />
    <polyline
       style="fill-rule:evenodd;"
       points="19379,14114 19084,14114 19084,13799 19379,13799 19379,14114 "
       id="polyline220" />
    <polyline
       style="fill-rule:evenodd;"
       points="19379,13523 19084,13523 19084,13208 19379,13208 19379,13523 "
       id="polyline222" />
    <polyline
       style="fill-rule:evenodd;"
       points="22923,14114 22627,14114 22627,13799 22923,13799 22923,14114 "
       id="polyline224" />
    <polyline
       style="fill-rule:evenodd;"
       points="22923,13523 22627,13523 22627,13208 22923,13208 22923,13523 "
       id="polyline226" />
    <polyline
       style="fill-rule:evenodd;"
       points="15836,17657 15541,17657 15541,17342 15836,17342 15836,17657 "
       id="polyline228" />
    <polyline
       style="fill-rule:evenodd;"
       points="15836,17066 15541,17066 15541,16751 15836,16751 15836,17066 "
       id="polyline230" />
    <polyline
       style="fill-rule:evenodd;"
       points="19379,17657 19084,17657 19084,17342 19379,17342 19379,17657 "
       id="polyline232" />
    <polyline
       style="fill-rule:evenodd;"
       points="19379,17066 19084,17066 19084,16751 19379,16751 19379,17066 "
       id="polyline234" />
    <polyline
       style="fill-rule:evenodd;"
       points="22923,17657 22627,17657 22627,17342 22923,17342 22923,17657 "
       id="polyline236" />
    <polyline
       style="fill-rule:evenodd;"
       points="22923,17066 22627,17066 22627,16751 22923,16751 22923,17066 "
       id="polyline238" />
    <polyline
       style="fill-rule:evenodd;"
       points="24999,18238 24999,18533 24685,18533 24685,18238 24999,18238 "
       id="polyline240" />
    <polyline
       style="fill-rule:evenodd;"
       points="24409,18238 24409,18533 24094,18533 24094,18238 24409,18238 "
       id="polyline242" />
    <polyline
       style="fill-rule:evenodd;"
       points="15836,21200 15541,21200 15541,20885 15836,20885 15836,21200 "
       id="polyline244" />
    <polyline
       style="fill-rule:evenodd;"
       points="15836,20610 15541,20610 15541,20295 15836,20295 15836,20610 "
       id="polyline246" />
    <polyline
       style="fill-rule:evenodd;"
       points="19379,21200 19084,21200 19084,20885 19379,20885 19379,21200 "
       id="polyline248" />
    <polyline
       style="fill-rule:evenodd;"
       points="19379,20610 19084,20610 19084,20295 19379,20295 19379,20610 "
       id="polyline250" />
    <polyline
       style="fill-rule:evenodd;"
       points="22923,21200 22627,21200 22627,20885 22923,20885 22923,21200 "
       id="polyline252" />
    <polyline
       style="fill-rule:evenodd;"
       points="22923,20610 22627,20610 22627,20295 22923,20295 22923,20610 "
       id="polyline254" />
    <polyline
       style="fill-rule:evenodd;"
       points="25590,21584 25590,21879 25275,21879 25275,21584 25590,21584 "
       id="polyline256" />
    <polyline
       style="fill-rule:evenodd;"
       points="24999,21584 24999,21879 24685,21879 24685,21584 24999,21584 "
       id="polyline258" />
    <polyline
       style="fill-rule:evenodd;"
       points="15836,24744 15541,24744 15541,24429 15836,24429 15836,24744 "
       id="polyline260" />
    <polyline
       style="fill-rule:evenodd;"
       points="15836,24153 15541,24153 15541,23838 15836,23838 15836,24153 "
       id="polyline262" />
    <polyline
       style="fill-rule:evenodd;"
       points="19379,24350 19084,24350 19084,24035 19379,24035 19379,24350 "
       id="polyline264" />
    <polyline
       style="fill-rule:evenodd;"
       points="19379,23759 19084,23759 19084,23444 19379,23444 19379,23759 "
       id="polyline266" />
    <polyline
       style="fill-rule:evenodd;"
       points="22923,24744 22627,24744 22627,24429 22923,24429 22923,24744 "
       id="polyline268" />
    <polyline
       style="fill-rule:evenodd;"
       points="22923,24153 22627,24153 22627,23838 22923,23838 22923,24153 "
       id="polyline270" />
    <polyline
       style="fill-rule:evenodd;"
       points="26466,24744 26171,24744 26171,24429 26466,24429 26466,24744 "
       id="polyline272" />
    <polyline
       style="fill-rule:evenodd;"
       points="26466,24153 26171,24153 26171,23838 26466,23838 26466,24153 "
       id="polyline274" />
    <polyline
       style="fill-rule:evenodd;"
       points="25590,14498 25590,14793 25275,14793 25275,14498 25590,14498 "
       id="polyline276" />
    <polyline
       style="fill-rule:evenodd;"
       points="24999,14498 24999,14793 24685,14793 24685,14498 24999,14498 "
       id="polyline278" />
    <circle
       cx="14295.3"
       cy="25866.1"
       r="400"
       id="circle280" />
  </g>
  <g
     style="fill:#840000; fill-opacity:1.0;  stroke:#840000; stroke-width:39.3701; stroke-opacity:1;  stroke-linecap:round; stroke-linejoin:round;"
     id="g284" />
  <g
     style="fill:#840000; fill-opacity:1.0;  stroke:#840000; stroke-width:0; stroke-opacity:1;  stroke-linecap:round; stroke-linejoin:round;"
     id="g288">
    <circle
       cx="15295.3"
       cy="25866.1"
       r="400"
       id="circle286" />
  </g>
  <g
     style="fill:#840000; fill-opacity:1.0;  stroke:#840000; stroke-width:39.3701; stroke-opacity:1;  stroke-linecap:round; stroke-linejoin:round;"
     id="g290" />
  <g
     style="fill:#840000; fill-opacity:1.0;  stroke:#840000; stroke-width:0; stroke-opacity:1;  stroke-linecap:round; stroke-linejoin:round;"
     id="g294">
    <circle
       cx="16295.3"
       cy="25866.1"
       r="400"
       id="circle292" />
  </g>
  <g
     style="fill:#840000; fill-opacity:1.0;  stroke:#840000; stroke-width:39.3701; stroke-opacity:1;  stroke-linecap:round; stroke-linejoin:round;"
     id="g296" />
  <g
     style="fill:#840000; fill-opacity:1.0;  stroke:#840000; stroke-width:0; stroke-opacity:1;  stroke-linecap:round; stroke-linejoin:round;"
     id="g300">
    <circle
       cx="11948.8"
       cy="23519.7"
       r="400"
       id="circle298" />
  </g>
  <g
     style="fill:#840000; fill-opacity:1.0;  stroke:#840000; stroke-width:39.3701; stroke-opacity:1;  stroke-linecap:round; stroke-linejoin:round;"
     id="g302" />
  <g
     style="fill:#840000; fill-opacity:1.0;  stroke:#840000; stroke-width:0; stroke-opacity:1;  stroke-linecap:round; stroke-linejoin:round;"
     id="g306">
    <circle
       cx="11948.8"
       cy="22519.7"
       r="400"
       id="circle304" />
  </g>
  <g
     style="fill:#840000; fill-opacity:1.0;  stroke:#840000; stroke-width:39.3701; stroke-opacity:1;  stroke-linecap:round; stroke-linejoin:round;"
     id="g308" />
  <g
     style="fill:#840000; fill-opacity:1.0;  stroke:#840000; stroke-width:0; stroke-opacity:1;  stroke-linecap:round; stroke-linejoin:round;"
     id="g312">
    <circle
       cx="11948.8"
       cy="21519.7"
       r="400"
       id="circle310" />
  </g>
  <g
     style="fill:#840000; fill-opacity:1.0;  stroke:#840000; stroke-width:39.3701; stroke-opacity:1;  stroke-linecap:round; stroke-linejoin:round;"
     id="g314" />
  <g
     style="fill:#840000; fill-opacity:1.0;  stroke:#840000; stroke-width:0; stroke-opacity:1;  stroke-linecap:round; stroke-linejoin:round;"
     id="g318">
    <circle
       cx="26515.7"
       cy="23322.8"
       r="400"
       id="circle316" />
  </g>
  <g
     style="fill:#840000; fill-opacity:1.0;  stroke:#840000; stroke-width:39.3701; stroke-opacity:1;  stroke-linecap:round; stroke-linejoin:round;"
     id="g320" />
  <g
     style="fill:#840000; fill-opacity:1.0;  stroke:#840000; stroke-width:0; stroke-opacity:1;  stroke-linecap:round; stroke-linejoin:round;"
     id="g324">
    <circle
       cx="26515.7"
       cy="22322.8"
       r="400"
       id="circle322" />
  </g>
  <g
     style="fill:#840000; fill-opacity:1.0;  stroke:#840000; stroke-width:39.3701; stroke-opacity:1;  stroke-linecap:round; stroke-linejoin:round;"
     id="g326" />
  <g
     style="fill:#840000; fill-opacity:1.0;  stroke:#840000; stroke-width:0; stroke-opacity:1;  stroke-linecap:round; stroke-linejoin:round;"
     id="g330">
    <circle
       cx="26515.7"
       cy="21322.8"
       r="400"
       id="circle328" />
  </g>
  <g
     style="fill:#840000; fill-opacity:1.0;  stroke:#840000; stroke-width:39.3701; stroke-opacity:1;  stroke-linecap:round; stroke-linejoin:round;"
     id="g332" />
  <g
     style="fill:#840000; fill-opacity:1.0;  stroke:#840000; stroke-width:0; stroke-opacity:1;  stroke-linecap:round; stroke-linejoin:round;"
     id="g336">
    <circle
       cx="11948.8"
       cy="15661.4"
       r="400"
       id="circle334" />
  </g>
  <g
     style="fill:#840000; fill-opacity:1.0;  stroke:#840000; stroke-width:39.3701; stroke-opacity:1;  stroke-linecap:round; stroke-linejoin:round;"
     id="g338" />
  <g
     style="fill:#840000; fill-opacity:1.0;  stroke:#840000; stroke-width:0; stroke-opacity:1;  stroke-linecap:round; stroke-linejoin:round;"
     id="g342">
    <circle
       cx="11948.8"
       cy="14661.4"
       r="400"
       id="circle340" />
  </g>
  <g
     style="fill:#840000; fill-opacity:1.0;  stroke:#840000; stroke-width:39.3701; stroke-opacity:1;  stroke-linecap:round; stroke-linejoin:round;"
     id="g344" />
  <g
     style="fill:#840000; fill-opacity:1.0;  stroke:#840000; stroke-width:0; stroke-opacity:1;  stroke-linecap:round; stroke-linejoin:round;"
     id="g348">
    <circle
       cx="11948.8"
       cy="13661.4"
       r="400"
       id="circle346" />
  </g>
  <g
     style="fill:#840000; fill-opacity:1.0;  stroke:#840000; stroke-width:39.3701; stroke-opacity:1;  stroke-linecap:round; stroke-linejoin:round;"
     id="g350" />
  <g
     style="fill:#840000; fill-opacity:1.0;  stroke:#840000; stroke-width:0; stroke-opacity:1;  stroke-linecap:round; stroke-linejoin:round;"
     id="g354">
    <circle
       cx="26515.7"
       cy="15629.9"
       r="400"
       id="circle352" />
  </g>
  <g
     style="fill:#840000; fill-opacity:1.0;  stroke:#840000; stroke-width:39.3701; stroke-opacity:1;  stroke-linecap:round; stroke-linejoin:round;"
     id="g356" />
  <g
     style="fill:#840000; fill-opacity:1.0;  stroke:#840000; stroke-width:0; stroke-opacity:1;  stroke-linecap:round; stroke-linejoin:round;"
     id="g360">
    <circle
       cx="26515.7"
       cy="14629.9"
       r="400"
       id="circle358" />
  </g>
  <g
     style="fill:#840000; fill-opacity:1.0;  stroke:#840000; stroke-width:39.3701; stroke-opacity:1;  stroke-linecap:round; stroke-linejoin:round;"
     id="g362" />
  <g
     style="fill:#840000; fill-opacity:1.0;  stroke:#840000; stroke-width:0; stroke-opacity:1;  stroke-linecap:round; stroke-linejoin:round;"
     id="g366">
    <circle
       cx="26515.7"
       cy="13629.9"
       r="400"
       id="circle364" />
  </g>
  <g
     style="fill:#840000; fill-opacity:1.0;  stroke:#840000; stroke-width:39.3701; stroke-opacity:1;  stroke-linecap:round; stroke-linejoin:round;"
     id="g368" />
  <g
     style="fill:#840000; fill-opacity:1.0;  stroke:#840000; stroke-width:0; stroke-opacity:1;  stroke-linecap:round; stroke-linejoin:round;"
     id="g372">
    <circle
       cx="14295.3"
       cy="11299.2"
       r="400"
       id="circle370" />
  </g>
  <g
     style="fill:#840000; fill-opacity:1.0;  stroke:#840000; stroke-width:39.3701; stroke-opacity:1;  stroke-linecap:round; stroke-linejoin:round;"
     id="g374" />
  <g
     style="fill:#840000; fill-opacity:1.0;  stroke:#840000; stroke-width:0; stroke-opacity:1;  stroke-linecap:round; stroke-linejoin:round;"
     id="g378">
    <circle
       cx="15295.3"
       cy="11299.2"
       r="400"
       id="circle376" />
  </g>
  <g
     style="fill:#840000; fill-opacity:1.0;  stroke:#840000; stroke-width:39.3701; stroke-opacity:1;  stroke-linecap:round; stroke-linejoin:round;"
     id="g380" />
  <g
     style="fill:#840000; fill-opacity:1.0;  stroke:#840000; stroke-width:0; stroke-opacity:1;  stroke-linecap:round; stroke-linejoin:round;"
     id="g384">
    <circle
       cx="16295.3"
       cy="11299.2"
       r="400"
       id="circle382" />
  </g>
  <g
     style="fill:#840000; fill-opacity:1.0;  stroke:#840000; stroke-width:39.3701; stroke-opacity:1;  stroke-linecap:round; stroke-linejoin:round;"
     id="g386" />
  <g
     style="fill:#840000; fill-opacity:1.0;  stroke:#840000; stroke-width:0; stroke-opacity:1;  stroke-linecap:round; stroke-linejoin:round;"
     id="g390">
    <circle
       cx="22169.3"
       cy="11299.2"
       r="400"
       id="circle388" />
  </g>
  <g
     style="fill:#840000; fill-opacity:1.0;  stroke:#840000; stroke-width:39.3701; stroke-opacity:1;  stroke-linecap:round; stroke-linejoin:round;"
     id="g392" />
  <g
     style="fill:#840000; fill-opacity:1.0;  stroke:#840000; stroke-width:0; stroke-opacity:1;  stroke-linecap:round; stroke-linejoin:round;"
     id="g396">
    <circle
       cx="23169.3"
       cy="11299.2"
       r="400"
       id="circle394" />
  </g>
  <g
     style="fill:#840000; fill-opacity:1.0;  stroke:#840000; stroke-width:39.3701; stroke-opacity:1;  stroke-linecap:round; stroke-linejoin:round;"
     id="g398" />
  <g
     style="fill:#840000; fill-opacity:1.0;  stroke:#840000; stroke-width:0; stroke-opacity:1;  stroke-linecap:round; stroke-linejoin:round;"
     id="g402">
    <circle
       cx="24169.3"
       cy="11299.2"
       r="400"
       id="circle400" />
  </g>
  <g
     style="fill:#840000; fill-opacity:1.0;  stroke:#840000; stroke-width:39.3701; stroke-opacity:1;  stroke-linecap:round; stroke-linejoin:round;"
     id="g404" />
  <g
     style="fill:#000000; fill-opacity:1.0;  stroke:#000000; stroke-width:39.3701; stroke-opacity:1;  stroke-linecap:round; stroke-linejoin:round;"
     id="g406" />
  <g
     style="fill:#008484; fill-opacity:1.0;  stroke:#008484; stroke-width:39.3701; stroke-opacity:1;  stroke-linecap:round; stroke-linejoin:round;"
     id="g408" />
  <g
     style="fill:#008484; fill-opacity:0.0;  stroke:#008484; stroke-width:39.3701; stroke-opacity:1;  stroke-linecap:round; stroke-linejoin:round;"
     id="g410" />
  <g
     style="fill:#008484; fill-opacity:0.0;  stroke:#008484; stroke-width:118.11; stroke-opacity:1;  stroke-linecap:round; stroke-linejoin:round;"
     id="g502">
    <path
       d="M17095 21960 L17320 21960 "
       id="path412" />
    <path
       d="M17179 21763 L17179 22269 L17207 22325 L17263 22353 L17320 22353 "
       id="path414" />
    <path
       d="M17516 22353 L17516 21763 "
       id="path416" />
    <path
       d="M17769 22353 L17769 22044 L17741 21988 L17685 21960 L17601 21960 L17544 21988 L17516 22016 "
       id="path418" />
    <path
       d="M18051 22353 L18051 21960 "
       id="path420" />
    <path
       d="M18051 21763 L18023 21791 L18051 21819 L18079 21791 L18051 21763 L18051 21819 "
       id="path422" />
    <path
       d="M18332 22353 L18332 21960 "
       id="path424" />
    <path
       d="M18332 22016 L18360 21988 L18416 21960 L18501 21960 L18557 21988 L18585 22044 L18585 22353 "
       id="path426" />
    <path
       d="M18585 22044 L18613 21988 L18669 21960 L18754 21960 L18810 21988 L18838 22044 L18838 22353 "
       id="path428" />
    <path
       d="M19119 22353 L19119 21763 "
       id="path430" />
    <path
       d="M19119 21988 L19176 21960 L19288 21960 L19344 21988 L19372 22016 L19401 22072 L19401 22241 L19372 22297 L19344 22325 L19288 22353 L19176 22353 L19119 22325 "
       id="path432" />
    <path
       d="M19738 22353 L19682 22325 L19654 22269 L19654 21763 "
       id="path434" />
    <path
       d="M20188 22325 L20132 22353 L20019 22353 L19963 22325 L19935 22269 L19935 22044 L19963 21988 L20019 21960 L20132 21960 L20188 21988 L20216 22044 L20216 22100 L19935 22156 "
       id="path436" />
    <path
       d="M20469 22297 L20497 22325 L20469 22353 L20441 22325 L20469 22297 L20469 22353 "
       id="path438" />
    <path
       d="M20750 22353 L20750 21960 "
       id="path440" />
    <path
       d="M20750 21763 L20722 21791 L20750 21819 L20778 21791 L20750 21763 L20750 21819 "
       id="path442" />
    <path
       d="M21116 22353 L21060 22325 L21032 22297 L21003 22241 L21003 22072 L21032 22016 L21060 21988 L21116 21960 L21200 21960 L21257 21988 L21285 22016 L21313 22072 L21313 22241 L21285 22297 L21257 22325 L21200 22353 L21116 22353 "
       id="path444" />
    <path
       d="M17544 15306 L17263 15306 L17263 14715 "
       id="path446" />
    <path
       d="M17741 14997 L17938 14997 "
       id="path448" />
    <path
       d="M18023 15306 L17741 15306 L17741 14715 L18023 14715 "
       id="path450" />
    <path
       d="M18276 15306 L18276 14715 L18416 14715 L18501 14744 L18557 14800 L18585 14856 L18613 14969 L18613 15053 L18585 15165 L18557 15222 L18501 15278 L18416 15306 L18276 15306 "
       id="path452" />
    <path
       d="M19654 15250 L19625 15278 L19541 15306 L19485 15306 L19401 15278 L19344 15222 L19316 15165 L19288 15053 L19288 14969 L19316 14856 L19344 14800 L19401 14744 L19485 14715 L19541 14715 L19625 14744 L19654 14772 "
       id="path454" />
    <path
       d="M20160 14912 L20160 15306 "
       id="path456" />
    <path
       d="M19907 14912 L19907 15222 L19935 15278 L19991 15306 L20075 15306 L20132 15278 L20160 15250 "
       id="path458" />
    <path
       d="M20441 15306 L20441 14715 "
       id="path460" />
    <path
       d="M20441 14940 L20497 14912 L20610 14912 L20666 14940 L20694 14969 L20722 15025 L20722 15194 L20694 15250 L20666 15278 L20610 15306 L20497 15306 L20441 15278 "
       id="path462" />
    <path
       d="M21200 15278 L21144 15306 L21032 15306 L20975 15278 L20947 15222 L20947 14997 L20975 14940 L21032 14912 L21144 14912 L21200 14940 L21228 14997 L21228 15053 L20947 15109 "
       id="path464" />
    <path
       d="M19176 24558 L19288 24558 L19344 24586 L19401 24642 L19429 24755 L19429 24952 L19401 25064 L19344 25120 L19288 25149 L19176 25149 L19119 25120 L19063 25064 L19035 24952 L19035 24755 L19063 24642 L19119 24586 L19176 24558 "
       id="path466" />
    <path
       d="M25854 18526 L25854 18638 L25826 18695 L25770 18751 L25658 18779 L25461 18779 L25348 18751 L25292 18695 L25264 18638 L25264 18526 L25292 18470 L25348 18413 L25461 18385 L25658 18385 L25770 18413 L25826 18470 L25854 18526 "
       id="path468" />
    <path
       d="M13200 18892 L12609 18892 "
       id="path470" />
    <path
       d="M13200 18610 L12609 18610 L13200 18273 L12609 18273 "
       id="path472" />
    <path
       d="M20975 25908 L21425 25908 "
       id="path474" />
    <path
       d="M21200 26133 L21200 25683 "
       id="path476" />
    <path
       d="M17038 25908 L17488 25908 "
       id="path478" />
    <path
       d="M26557 16839 L26557 16389 "
       id="path480" />
    <path
       d="M26782 16614 L26332 16614 "
       id="path482" />
    <path
       d="M26557 20776 L26557 20326 "
       id="path484" />
    <path
       d="M11906 20326 L11906 20776 "
       id="path486" />
    <path
       d="M11991 16839 L11991 16389 "
       id="path488" />
    <path
       d="M12215 16614 L11766 16614 "
       id="path490" />
    <path
       d="M20975 11341 L21425 11341 "
       id="path492" />
    <path
       d="M21200 11566 L21200 11116 "
       id="path494" />
    <path
       d="M17038 11341 L17488 11341 "
       id="path496" />
    <path
       d="M18922 12550 L18922 11960 "
       id="path498" />
    <path
       d="M19204 12550 L19204 11960 L19541 12550 L19541 11960 "
       id="path500" />
  </g>
  <g
     style="fill:#008484; fill-opacity:0.0;  stroke:#008484; stroke-width:59.0551; stroke-opacity:1;  stroke-linecap:round; stroke-linejoin:round;"
     id="g816">
    <path
       d="M23759 12086 L23956 12283 "
       id="path504" />
    <path
       d="M23562 12283 L23759 12086 "
       id="path506" />
    <path
       d="M23562 12283 L23562 14251 "
       id="path508" />
    <path
       d="M25531 12283 L23562 12283 "
       id="path510" />
    <path
       d="M25531 14251 L25531 12283 "
       id="path512" />
    <path
       d="M23562 14251 L25531 14251 "
       id="path514" />
    <path
       d="M20216 12086 L20413 12283 "
       id="path516" />
    <path
       d="M20019 12283 L20216 12086 "
       id="path518" />
    <path
       d="M20019 12283 L20019 14251 "
       id="path520" />
    <path
       d="M21988 12283 L20019 12283 "
       id="path522" />
    <path
       d="M21988 14251 L21988 12283 "
       id="path524" />
    <path
       d="M20019 14251 L21988 14251 "
       id="path526" />
    <path
       d="M16673 12086 L16870 12283 "
       id="path528" />
    <path
       d="M16476 12283 L16673 12086 "
       id="path530" />
    <path
       d="M16476 12283 L16476 14251 "
       id="path532" />
    <path
       d="M18444 12283 L16476 12283 "
       id="path534" />
    <path
       d="M18444 14251 L18444 12283 "
       id="path536" />
    <path
       d="M16476 14251 L18444 14251 "
       id="path538" />
    <path
       d="M13129 12086 L13326 12283 "
       id="path540" />
    <path
       d="M12933 12283 L13129 12086 "
       id="path542" />
    <path
       d="M12933 12283 L12933 14251 "
       id="path544" />
    <path
       d="M14901 12283 L12933 12283 "
       id="path546" />
    <path
       d="M14901 14251 L14901 12283 "
       id="path548" />
    <path
       d="M12933 14251 L14901 14251 "
       id="path550" />
    <path
       d="M19716 25366 L17716 25366 "
       id="path552" />
    <path
       d="M17716 25366 L17716 26366 "
       id="path554" />
    <path
       d="M17716 26366 L19716 26366 "
       id="path556" />
    <path
       d="M20826 26476 L20216 26476 "
       id="path558" />
    <path
       d="M19716 26366 L19716 25366 "
       id="path560" />
    <path
       d="M20216 25255 L20826 25255 "
       id="path562" />
    <path
       d="M20826 25255 L20826 26476 "
       id="path564" />
    <path
       d="M26015 18066 L26015 20066 "
       id="path566" />
    <path
       d="M26015 20066 L27015 20066 "
       id="path568" />
    <path
       d="M27015 20066 L27015 18066 "
       id="path570" />
    <path
       d="M27125 16956 L27125 17566 "
       id="path572" />
    <path
       d="M27015 18066 L26015 18066 "
       id="path574" />
    <path
       d="M25905 17566 L25905 16956 "
       id="path576" />
    <path
       d="M25905 16956 L27125 16956 "
       id="path578" />
    <path
       d="M11448 18082 L11448 20082 "
       id="path580" />
    <path
       d="M11448 20082 L12448 20082 "
       id="path582" />
    <path
       d="M12448 20082 L12448 18082 "
       id="path584" />
    <path
       d="M12559 16972 L12559 17582 "
       id="path586" />
    <path
       d="M12448 18082 L11448 18082 "
       id="path588" />
    <path
       d="M11338 17582 L11338 16972 "
       id="path590" />
    <path
       d="M11338 16972 L12559 16972 "
       id="path592" />
    <path
       d="M19748 10799 L17748 10799 "
       id="path594" />
    <path
       d="M17748 10799 L17748 11799 "
       id="path596" />
    <path
       d="M17748 11799 L19748 11799 "
       id="path598" />
    <path
       d="M20858 11909 L20248 11909 "
       id="path600" />
    <path
       d="M19748 11799 L19748 10799 "
       id="path602" />
    <path
       d="M20248 10688 L20858 10688 "
       id="path604" />
    <path
       d="M20858 10688 L20858 11909 "
       id="path606" />
    <path
       d="M15452 13799 L15452 13523 "
       id="path608" />
    <path
       d="M15925 13523 L15925 13799 "
       id="path610" />
    <path
       d="M13129 15629 L13326 15826 "
       id="path612" />
    <path
       d="M12933 15826 L13129 15629 "
       id="path614" />
    <path
       d="M12933 15826 L12933 17795 "
       id="path616" />
    <path
       d="M14901 15826 L12933 15826 "
       id="path618" />
    <path
       d="M14901 17795 L14901 15826 "
       id="path620" />
    <path
       d="M12933 17795 L14901 17795 "
       id="path622" />
    <path
       d="M16673 15629 L16870 15826 "
       id="path624" />
    <path
       d="M16476 15826 L16673 15629 "
       id="path626" />
    <path
       d="M16476 15826 L16476 17795 "
       id="path628" />
    <path
       d="M18444 15826 L16476 15826 "
       id="path630" />
    <path
       d="M18444 17795 L18444 15826 "
       id="path632" />
    <path
       d="M16476 17795 L18444 17795 "
       id="path634" />
    <path
       d="M20216 15629 L20413 15826 "
       id="path636" />
    <path
       d="M20019 15826 L20216 15629 "
       id="path638" />
    <path
       d="M20019 15826 L20019 17795 "
       id="path640" />
    <path
       d="M21988 15826 L20019 15826 "
       id="path642" />
    <path
       d="M21988 17795 L21988 15826 "
       id="path644" />
    <path
       d="M20019 17795 L21988 17795 "
       id="path646" />
    <path
       d="M23759 15629 L23956 15826 "
       id="path648" />
    <path
       d="M23562 15826 L23759 15629 "
       id="path650" />
    <path
       d="M23562 15826 L23562 17795 "
       id="path652" />
    <path
       d="M25531 15826 L23562 15826 "
       id="path654" />
    <path
       d="M25531 17795 L25531 15826 "
       id="path656" />
    <path
       d="M23562 17795 L25531 17795 "
       id="path658" />
    <path
       d="M13129 19173 L13326 19370 "
       id="path660" />
    <path
       d="M12933 19370 L13129 19173 "
       id="path662" />
    <path
       d="M12933 19370 L12933 21338 "
       id="path664" />
    <path
       d="M14901 19370 L12933 19370 "
       id="path666" />
    <path
       d="M14901 21338 L14901 19370 "
       id="path668" />
    <path
       d="M12933 21338 L14901 21338 "
       id="path670" />
    <path
       d="M16673 19173 L16870 19370 "
       id="path672" />
    <path
       d="M16476 19370 L16673 19173 "
       id="path674" />
    <path
       d="M16476 19370 L16476 21338 "
       id="path676" />
    <path
       d="M18444 19370 L16476 19370 "
       id="path678" />
    <path
       d="M18444 21338 L18444 19370 "
       id="path680" />
    <path
       d="M16476 21338 L18444 21338 "
       id="path682" />
    <path
       d="M20216 19173 L20413 19370 "
       id="path684" />
    <path
       d="M20019 19370 L20216 19173 "
       id="path686" />
    <path
       d="M20019 19370 L20019 21338 "
       id="path688" />
    <path
       d="M21988 19370 L20019 19370 "
       id="path690" />
    <path
       d="M21988 21338 L21988 19370 "
       id="path692" />
    <path
       d="M20019 21338 L21988 21338 "
       id="path694" />
    <path
       d="M23759 19173 L23956 19370 "
       id="path696" />
    <path
       d="M23562 19370 L23759 19173 "
       id="path698" />
    <path
       d="M23562 19370 L23562 21338 "
       id="path700" />
    <path
       d="M25531 19370 L23562 19370 "
       id="path702" />
    <path
       d="M25531 21338 L25531 19370 "
       id="path704" />
    <path
       d="M23562 21338 L25531 21338 "
       id="path706" />
    <path
       d="M13129 22716 L13326 22913 "
       id="path708" />
    <path
       d="M12933 22913 L13129 22716 "
       id="path710" />
    <path
       d="M12933 22913 L12933 24881 "
       id="path712" />
    <path
       d="M14901 22913 L12933 22913 "
       id="path714" />
    <path
       d="M14901 24881 L14901 22913 "
       id="path716" />
    <path
       d="M12933 24881 L14901 24881 "
       id="path718" />
    <path
       d="M16673 22716 L16870 22913 "
       id="path720" />
    <path
       d="M16476 22913 L16673 22716 "
       id="path722" />
    <path
       d="M16476 22913 L16476 24881 "
       id="path724" />
    <path
       d="M18444 22913 L16476 22913 "
       id="path726" />
    <path
       d="M18444 24881 L18444 22913 "
       id="path728" />
    <path
       d="M16476 24881 L18444 24881 "
       id="path730" />
    <path
       d="M20216 22716 L20413 22913 "
       id="path732" />
    <path
       d="M20019 22913 L20216 22716 "
       id="path734" />
    <path
       d="M20019 22913 L20019 24881 "
       id="path736" />
    <path
       d="M21988 22913 L20019 22913 "
       id="path738" />
    <path
       d="M21988 24881 L21988 22913 "
       id="path740" />
    <path
       d="M20019 24881 L21988 24881 "
       id="path742" />
    <path
       d="M23759 22716 L23956 22913 "
       id="path744" />
    <path
       d="M23562 22913 L23759 22716 "
       id="path746" />
    <path
       d="M23562 22913 L23562 24881 "
       id="path748" />
    <path
       d="M25531 22913 L23562 22913 "
       id="path750" />
    <path
       d="M25531 24881 L25531 22913 "
       id="path752" />
    <path
       d="M23562 24881 L25531 24881 "
       id="path754" />
    <path
       d="M18996 13799 L18996 13523 "
       id="path756" />
    <path
       d="M19468 13523 L19468 13799 "
       id="path758" />
    <path
       d="M22539 13799 L22539 13523 "
       id="path760" />
    <path
       d="M23011 13523 L23011 13799 "
       id="path762" />
    <path
       d="M15452 17342 L15452 17066 "
       id="path764" />
    <path
       d="M15925 17066 L15925 17342 "
       id="path766" />
    <path
       d="M18996 17342 L18996 17066 "
       id="path768" />
    <path
       d="M19468 17066 L19468 17342 "
       id="path770" />
    <path
       d="M22539 17342 L22539 17066 "
       id="path772" />
    <path
       d="M23011 17066 L23011 17342 "
       id="path774" />
    <path
       d="M24685 18622 L24409 18622 "
       id="path776" />
    <path
       d="M24409 18149 L24685 18149 "
       id="path778" />
    <path
       d="M15452 20885 L15452 20610 "
       id="path780" />
    <path
       d="M15925 20610 L15925 20885 "
       id="path782" />
    <path
       d="M18996 20885 L18996 20610 "
       id="path784" />
    <path
       d="M19468 20610 L19468 20885 "
       id="path786" />
    <path
       d="M22539 20885 L22539 20610 "
       id="path788" />
    <path
       d="M23011 20610 L23011 20885 "
       id="path790" />
    <path
       d="M25275 21968 L24999 21968 "
       id="path792" />
    <path
       d="M24999 21496 L25275 21496 "
       id="path794" />
    <path
       d="M15452 24429 L15452 24153 "
       id="path796" />
    <path
       d="M15925 24153 L15925 24429 "
       id="path798" />
    <path
       d="M18996 24035 L18996 23759 "
       id="path800" />
    <path
       d="M19468 23759 L19468 24035 "
       id="path802" />
    <path
       d="M22539 24429 L22539 24153 "
       id="path804" />
    <path
       d="M23011 24153 L23011 24429 "
       id="path806" />
    <path
       d="M26082 24429 L26082 24153 "
       id="path808" />
    <path
       d="M26555 24153 L26555 24429 "
       id="path810" />
    <path
       d="M25275 14881 L24999 14881 "
       id="path812" />
    <path
       d="M24999 14409 L25275 14409 "
       id="path814" />
  </g>
  <g
     style="fill:#000000; fill-opacity:0.0;  stroke:#000000; stroke-width:59.0551; stroke-opacity:1;  stroke-linecap:round; stroke-linejoin:round;"
     id="g818" />
  <g
     style="fill:none;fill-opacity:0;stroke:#000000;stroke-width:59.0551;stroke-opacity:1;stroke-linecap:round;stroke-linejoin:round"
     id="g836">
    <path
       d="M13326 10708 L25137 10708 "
       id="path820"
       style="fill:none;stroke:#000000;stroke-opacity:1" />
    <path
       d="M13326.8 10708.7 A1968.5 1968.5 0.0 0 0 11358.3 12677.2 "
       id="path822"
       style="fill:none;stroke:#000000;stroke-opacity:1" />
    <path
       d="M27106 12677 L27106 24488 "
       id="path824"
       style="fill:none;stroke:#000000;stroke-opacity:1" />
    <path
       d="M27106.3 12677.2 A1968.5 1968.5 0.0 0 0 25137.8 10708.7 "
       id="path826"
       style="fill:none;stroke:#000000;stroke-opacity:1" />
    <path
       d="M11358 12677 L11358 24488 "
       id="path828"
       style="fill:none;stroke:#000000;stroke-opacity:1" />
    <path
       d="M13326 26456 L25137 26456 "
       id="path830"
       style="fill:none;stroke:#000000;stroke-opacity:1" />
    <path
       d="M11358.3 24488.2 A1968.5 1968.5 0.0 0 0 13326.8 26456.7 "
       id="path832"
       style="fill:none;stroke:#000000;stroke-opacity:1" />
    <path
       d="M25137.8 26456.7 A1968.5 1968.5 0.0 0 0 27106.3 24488.2 "
       id="path834"
       style="fill:none;stroke:#000000;stroke-opacity:1" />
  </g>
</svg>
